<svg width="88" height="87" viewBox="0 0 88 87" fill="none" xmlns="http://www.w3.org/2000/svg">
<path d="M77.4917 37.2191C76.3479 36.5132 74.732 36.2963 73.2778 36.5429L70.4501 33.7149C67.9965 31.2611 64.7776 30.0321 61.5587 30.0321C59.7004 30.0321 57.8422 30.4446 56.1286 31.2654C58.3652 26.5875 57.5488 20.8167 53.675 16.9425L50.8473 14.1145C51.0939 12.6601 50.8771 11.0441 50.1712 9.90014L44.0778 0L38.0311 9.81084C37.3167 10.9718 37.1041 12.6261 37.3678 14.0975L34.5273 16.9383C30.6535 20.8124 29.8371 26.5832 32.0738 31.2611C30.3601 30.4404 28.5019 30.0279 26.6437 30.0279C23.4247 30.0279 20.2058 31.2569 17.7523 33.7107L14.9118 36.5514C13.4405 36.2835 11.7864 36.4961 10.6255 37.2148L0.815674 43.2621L10.7148 49.3646C11.8587 50.0706 13.4745 50.2874 14.9288 50.0408L17.7565 52.8688C20.2101 55.3226 23.429 56.5516 26.6479 56.5516C28.5061 56.5516 30.3644 56.1391 32.078 55.3183C29.8413 59.9962 30.6578 65.7671 34.5315 69.6412L37.3593 72.4692C37.1126 73.9236 37.3295 75.5396 38.0354 76.6836L44.1373 86.5837L50.184 76.7729C50.8983 75.6119 51.1109 73.9576 50.8473 72.4862L53.6878 69.6455C57.5616 65.7713 58.378 60.0005 56.1413 55.3226C57.855 56.1433 59.7132 56.5558 61.5714 56.5558C64.7903 56.5558 68.0093 55.3268 70.4628 52.8731L73.3033 50.0323C74.7746 50.3002 76.4287 50.0876 77.5895 49.3689L87.3994 43.3216L77.4917 37.2191ZM35.467 17.8823L37.8185 15.5306C37.8865 15.671 37.9503 15.8198 38.0311 15.9516L39.8468 18.8987L38.265 20.4765C34.7569 23.9849 33.7534 29.054 35.2629 33.4555C35.0928 33.2939 34.9185 33.1408 34.7399 32.9877C33.0773 30.9762 32.1716 28.4757 32.1716 25.8348C32.1716 22.8282 33.3409 20.0044 35.467 17.8823ZM29.5097 42.4201C29.2715 42.4456 29.0377 42.4668 28.7995 42.4966C28.7698 42.5009 28.7358 42.5051 28.7017 42.5094C26.9583 42.7263 25.1511 42.3903 23.8925 41.6163L20.8692 39.7537L22.2256 38.3971C24.3517 36.2708 27.1752 35.1013 30.1773 35.1013C33.1793 35.1013 36.0071 36.2708 38.1289 38.3971L40.4166 40.685C36.8022 39.3582 32.6521 39.9323 29.5097 42.4201ZM40.4209 45.903L38.1332 48.1909C36.0071 50.3172 33.1836 51.4867 30.1815 51.4867C27.1794 51.4867 24.3517 50.3172 22.2299 48.1909L20.9074 46.8683L23.9605 44.9887C25.2234 44.2104 27.0306 43.8745 28.7825 44.0871L28.808 44.0914C29.0462 44.1211 29.28 44.1381 29.5182 44.1679C32.6521 46.6514 36.8022 47.2298 40.4209 45.903ZM18.692 34.6547C20.8181 32.5284 23.6416 31.359 26.6437 31.359C29.2843 31.359 31.7846 32.2648 33.7959 33.9276C33.9447 34.1062 34.1021 34.2805 34.2636 34.4506C32.9412 33.9998 31.5592 33.7702 30.1773 33.7702C26.9583 33.7702 23.7394 34.9992 21.2859 37.453L19.704 39.035L16.7573 37.2191C16.6254 37.1383 16.4809 37.0745 16.3363 37.0065L18.692 34.6547ZM26.6479 55.2248C23.6459 55.2248 20.8181 54.0553 18.6963 51.929L16.3746 49.607C16.5361 49.5305 16.702 49.4582 16.8508 49.3646L19.7423 47.5828L21.2901 49.1307C23.7437 51.5845 26.9626 52.8135 30.1815 52.8135C31.5635 52.8135 32.9455 52.5839 34.2679 52.1331C34.1063 52.3032 33.9532 52.4776 33.8002 52.6562C31.7889 54.319 29.2885 55.2248 26.6479 55.2248ZM38.0311 70.5513C37.9376 70.7001 37.8653 70.866 37.7887 71.0276L35.467 68.7056C31.3339 64.5721 31.1 58.0017 34.7527 53.5875C34.927 53.4429 35.0971 53.2898 35.2629 53.1325C33.7576 57.5339 34.7569 62.5988 38.265 66.1115L39.8128 67.6595L38.0311 70.5513ZM42.4152 63.4366L40.5314 66.4943L39.209 65.1717C37.0829 63.0454 35.9135 60.2216 35.9135 57.2193C35.9135 54.2169 37.0829 51.3889 39.209 49.2668L41.4967 46.9789C40.1742 50.5936 40.7483 54.74 43.2316 57.8827C43.2571 58.1208 43.2784 58.359 43.3081 58.5971C43.3081 58.6056 43.3081 58.6141 43.3124 58.6226C43.525 60.3705 43.1891 62.1778 42.4152 63.4366ZM43.3209 27.8931C43.3166 27.9271 43.3124 27.9611 43.3081 27.9909C43.2784 28.229 43.2613 28.4629 43.2316 28.7011C40.744 31.8438 40.1657 35.9943 41.4924 39.6091L39.2047 37.3212C34.8207 32.9367 34.8207 25.8008 39.2047 21.4163L40.5612 20.0597L42.4237 23.0833C43.2018 24.3421 43.5377 26.1495 43.3209 27.8931ZM61.5587 31.359C64.5607 31.359 67.3884 32.5284 69.5103 34.6547L71.832 36.9767C71.6704 37.0532 71.5046 37.1255 71.3558 37.2191L68.4643 39.0009L66.9165 37.453C64.4629 34.9992 61.244 33.7702 58.0251 33.7702C56.6431 33.7702 55.2611 33.9998 53.9387 34.4506C54.1003 34.2805 54.2533 34.1062 54.4064 33.9276C56.4177 32.2648 58.918 31.359 61.5587 31.359ZM58.6884 44.1679C58.9265 44.1424 59.1647 44.1211 59.4028 44.0914C59.4325 44.0871 59.4666 44.0829 59.5006 44.0786C61.2482 43.8575 63.0554 44.1934 64.3183 44.9717L67.3374 46.8343L65.981 48.1909C63.8549 50.3172 61.0314 51.4867 58.0293 51.4867C55.0272 51.4867 52.1995 50.3172 50.0777 48.1909L47.79 45.903C51.4001 47.2298 55.546 46.6514 58.6884 44.1679ZM47.7857 40.6807L50.0734 38.3928C52.1995 36.2665 55.023 35.097 58.0251 35.097C61.0271 35.097 63.8549 36.2665 65.9767 38.3928L67.2992 39.7154L64.2418 41.5993C62.9832 42.3775 61.1717 42.7092 59.4283 42.4924C59.4198 42.4924 59.4113 42.4881 59.4028 42.4881C59.1647 42.4583 58.9265 42.4371 58.6884 42.4116C55.546 39.9323 51.4001 39.3582 47.7857 40.6807ZM50.1755 16.0367C50.269 15.8879 50.3413 15.722 50.4178 15.5604L52.7395 17.8823C54.8657 20.0087 56.035 22.8324 56.035 25.8348C56.035 28.4757 55.1293 30.9762 53.4667 32.9877C53.2881 33.1366 53.1137 33.2939 52.9437 33.4555C54.4489 29.054 53.4497 23.9891 49.9416 20.4765L48.3938 18.9285L50.1755 16.0367ZM45.7957 23.1429L47.6752 20.0895L48.9976 21.412C53.3816 25.7965 53.3816 32.9324 48.9976 37.3169L46.7099 39.6048C48.0323 35.9858 47.4583 31.8395 44.9707 28.6968C44.9452 28.4587 44.924 28.2248 44.8942 27.9866L44.8899 27.9611C44.6816 26.2133 45.0175 24.4059 45.7957 23.1429ZM45.7829 63.5089C45.0048 62.2501 44.6688 60.4385 44.8899 58.6907C44.8942 58.6566 44.8985 58.6226 44.9027 58.5928C44.9325 58.3547 44.9537 58.1166 44.9792 57.8784C47.4625 54.7357 48.0366 50.5894 46.7142 46.9746L49.0018 49.2626C51.128 51.3889 52.2973 54.2126 52.2973 57.215C52.2973 60.2174 51.128 63.0454 49.0018 65.1674L47.6454 66.524L45.7829 63.5089ZM52.7395 68.7056L50.3881 71.0573C50.32 70.917 50.2562 70.7682 50.1755 70.6363L48.3598 67.6892L49.9416 66.1073C53.4497 62.5988 54.4532 57.5297 52.9437 53.1282C53.1095 53.2856 53.2796 53.4387 53.4539 53.5832C57.1066 58.0017 56.8727 64.5721 52.7395 68.7056ZM69.5146 51.929C67.3885 54.0553 64.565 55.2248 61.5629 55.2248C58.9223 55.2248 56.422 54.319 54.4107 52.6562C54.2618 52.4776 54.1045 52.3032 53.9429 52.1331C55.2654 52.5839 56.6473 52.8135 58.0293 52.8135C61.2482 52.8135 64.4672 51.5845 66.9207 49.1307L68.5025 47.5488L71.4493 49.3646C71.5811 49.4454 71.7257 49.5092 71.8703 49.5773L69.5146 51.929Z" fill="#FEFBF7"/>
</svg>
