<svg width="143" height="159" viewBox="0 0 143 159" fill="none" xmlns="http://www.w3.org/2000/svg">
<path d="M141.844 159.572C140.29 157.883 140.745 158.477 139.252 156.735C138.796 155.61 137.691 154.952 137.242 153.821C137.206 153.73 137.123 153.67 137.058 153.595C136.255 152.596 135.601 151.499 134.858 150.459C134.374 149.783 133.908 149.091 133.465 148.389C132.854 147.428 132.231 146.467 131.65 145.48C131.169 144.659 130.641 143.858 130.156 143.032C129.602 142.102 129.078 141.156 128.512 140.248C127.887 139.247 127.351 138.201 126.762 137.18C125.913 135.695 125.101 134.178 124.287 132.673C123.747 131.671 123.231 130.648 122.69 129.646C122.158 128.667 121.608 127.704 121.07 126.73C120.627 125.928 120.184 125.115 119.741 124.313C119.094 123.15 118.459 121.976 117.782 120.828C117.229 119.898 116.611 119.004 116.028 118.089C115.672 117.525 115.328 116.951 115.007 116.366C114.728 115.868 114.367 115.41 114.046 114.948C113.554 114.238 113.08 113.512 112.588 112.802C111.806 111.654 110.829 110.663 110.068 109.517C108.98 107.863 107.573 106.483 106.344 104.95C105.923 104.422 105.511 103.866 105.009 103.417C103.884 102.402 102.987 101.17 101.893 100.129C101.261 99.5285 100.748 98.8063 100.063 98.3034C99.2004 97.6689 98.6019 96.7977 97.7897 96.1101C97.1156 95.5466 96.4727 94.8956 95.8386 94.2674C95.1646 93.5926 94.4966 92.9125 93.7226 92.3438C93.2655 92.0085 92.9166 91.5397 92.4566 91.1764C91.5567 90.4732 90.7857 89.5986 89.8797 88.9006C88.6019 87.9052 87.3547 86.8835 86.0708 85.8933C84.4091 84.6109 82.733 83.3611 80.9801 82.2075C80.7765 82.069 80.6629 81.8127 80.3476 81.7296C80.3012 82.356 80.2653 82.9329 80.2183 83.5092C80.0561 85.5597 79.4738 87.5161 78.7744 89.4721C78.0988 91.3569 77.0898 93.0631 75.922 94.6832C75.3059 95.5361 74.7014 96.4396 73.8268 97.0899C73.4647 97.3606 73.3373 97.7936 72.9742 98.0753C72.205 98.6754 71.3754 99.1555 70.492 99.6718C70.0786 100.34 70.097 101.154 69.8978 101.911C68.9955 105.215 67.6065 108.309 65.5438 111.113C64.0378 113.155 62.2455 114.937 60.2085 116.434C58.6842 117.552 57.0522 118.519 55.321 119.309C52.6009 120.554 49.749 121.224 46.8656 121.82C45.697 122.066 44.5218 122.267 43.367 122.541C40.7833 123.153 38.1825 123.658 35.6464 124.461C35.3293 124.562 35.0223 124.674 34.7103 124.78C34.1146 124.989 33.5016 125.202 32.8512 125.012C32.0911 124.472 31.9167 123.712 32.0488 122.789C32.1753 121.922 32.5049 121.144 33.0077 120.418C34.4433 118.356 35.9049 116.311 37.3194 114.237C38.5116 112.484 39.6356 110.69 40.8268 108.948C41.4618 108.018 42.1129 107.095 42.8983 106.279C43.0227 106.152 43.1088 106.017 43.0767 105.782C42.7326 105.764 42.4438 105.971 42.1329 106.067C40.1237 106.68 38.0791 107.092 36.0141 107.319C33.3567 107.61 30.7107 107.568 28.0847 107.326C25.3378 107.067 22.6487 106.566 20.0364 105.746C18.1218 105.146 16.3266 104.302 14.5192 103.469C12.0192 102.31 9.61708 100.956 6.97709 100.079C6.38826 99.8869 5.92883 99.5738 5.85152 98.902C5.81395 98.6107 5.83188 98.3223 6.02133 98.0483C6.40022 97.5003 6.78798 96.975 7.22402 96.469C8.11444 95.4411 9.24671 94.6705 10.1449 93.6764C10.9869 92.7407 11.9527 91.9615 12.8846 91.1306C13.3878 90.678 13.7206 90.0887 14.2649 89.6717C14.7613 89.2856 15.28 88.9007 15.6117 88.3225C15.7401 88.101 16.0061 87.9534 16.2138 87.7749C17.1607 86.9614 18.1137 86.1426 19.1278 85.2714C18.8309 85.1726 18.6389 85.0847 18.4252 85.0458C16.6097 84.7348 14.9554 84.0427 13.3345 83.2409C11.581 82.3711 10.028 81.2278 8.50164 80.0415C7.87524 79.5583 7.32773 78.9568 6.74022 78.42C5.14355 76.9907 3.87066 75.2832 2.46948 73.686C1.74836 72.8696 1.33657 71.8077 0.513239 71.1196C0.475602 70.9395 0.460685 70.8108 0.411354 70.6914C-0.104092 69.3848 0.752884 68.5778 1.65794 68.1238C2.60963 67.65 3.60954 67.3067 4.60945 66.9634C6.64368 66.2673 8.67792 65.5713 10.6955 64.8188C12.7243 64.0669 14.7457 63.3313 16.893 63.064C16.9779 63.0517 17.0595 62.9614 17.1612 62.8943C16.8792 61.9838 16.5911 61.0785 16.3141 60.1738C15.9246 58.8905 15.5535 57.5914 15.164 56.3081C14.753 54.9624 14.3075 53.6261 13.9308 52.2711C13.6705 51.3116 13.403 50.3685 12.8934 49.5018C12.4741 48.7901 12.4937 48.652 12.703 47.5722C13.7923 46.2318 15.339 45.8333 16.8186 45.3813C19.1032 44.6927 21.3866 44.0151 23.6114 43.1453C24.5924 42.7677 25.5186 42.2146 26.4997 41.8369C27.9216 41.2929 29.3407 40.7208 30.9162 40.3683C30.5964 39.6117 30.3004 38.8952 30.0094 38.1846C29.4324 36.7691 29.0125 35.2894 28.5632 33.8249C27.976 31.9025 27.8501 29.8872 27.4277 27.9344C27.3525 27.5744 27.4004 27.2096 27.4756 26.8518C27.5808 26.3063 27.8747 25.8819 28.4321 25.6659C28.9024 25.4844 29.3759 25.3809 29.8606 25.278C31.2446 24.9991 32.6222 25.0593 34.01 25.0198C34.6311 25.0019 35.2455 25.1617 35.846 25.2929C36.108 25.351 36.3611 25.3864 36.6175 25.3885C36.741 25.0499 36.5652 24.7459 36.5704 24.4178C36.5918 22.9332 37.1578 22.2446 38.5274 21.9983C39.5671 21.8129 40.6335 21.8069 41.6865 21.7111C42.4353 21.6442 43.1803 21.5603 44.0202 21.4758C43.2418 20.0109 42.0118 18.8733 41.9962 17.1474C42.0631 16.5944 42.4419 16.2691 42.8445 15.9838C44.5079 15.3132 46.227 15.2519 47.9345 15.14C49.3551 15.0521 50.7706 14.9585 52.186 14.9761C53.3389 14.9968 54.5001 15.1014 55.6301 15.2935C57.3629 15.5946 59.059 16.0386 60.6472 16.7774C61.3719 17.1154 62.0833 17.475 62.7814 17.8562C62.9611 17.9545 63.1149 18.0348 63.3586 17.9973C62.6783 15.6695 62.5626 13.2206 62.2577 10.8232C62.0914 9.54025 61.8573 8.26495 61.6566 6.99138C61.5947 6.60978 61.5216 6.2276 61.5052 5.83722C61.4795 5.15144 61.6492 4.5203 62.295 4.14751C63.5836 3.70783 64.6846 4.18774 65.7023 4.71899C68.1294 5.99095 70.5227 7.32236 73.0093 8.50281C74.3351 9.13346 75.6585 9.78628 76.9709 10.4385C78.5435 11.2211 80.0312 12.1272 81.406 13.2111C82.4552 14.0389 83.4738 14.893 84.4474 15.8059C85.0139 16.3305 85.557 16.865 86.0501 17.4525C86.3285 17.7897 86.3426 18.3135 86.8371 18.5561C87.4607 17.2418 87.9272 15.8803 88.275 14.4793C88.6655 12.9303 88.8796 11.361 89.0726 9.77953C89.3744 7.2855 89.7267 4.7885 90.1062 2.29849C90.2322 1.49256 90.3847 0.643513 91.3653 0.215708C91.6638 0.464881 91.8912 0.754884 92.0791 1.1597C92.5653 2.25884 93.0603 3.3807 93.7191 4.37193C94.2665 5.19602 94.7528 6.07258 95.4557 6.79341C96.1735 7.53172 96.7402 8.44028 97.5153 9.10921C98.6898 10.1327 99.6382 11.3504 100.629 12.5313C101.486 13.555 102.208 14.6942 102.985 15.7862C103.629 16.6987 104.202 17.6632 104.764 18.616C105.59 19.9999 106.261 21.4759 106.774 23.0272C107.109 24.0239 107.442 25.0316 107.69 26.0628C108.195 28.1868 108.339 30.3589 108.227 32.579C108.55 32.5234 108.689 32.2022 108.983 32.1006C109.175 32.0772 109.358 32.0922 109.515 32.2506C110.068 32.7967 110.454 33.4566 110.75 34.1731C111.602 36.2316 112.041 38.4023 112.32 40.6203C112.455 41.718 112.562 42.8087 112.606 43.9239C112.695 46.1933 112.55 48.4617 111.989 50.7031C111.27 53.5761 109.91 56.1601 108.221 58.6324C107.371 59.8683 106.47 61.057 105.467 62.1514C104.406 63.3151 103.307 64.4824 102.018 65.4174C99.3706 67.3281 96.6951 69.1817 93.6242 70.3638C91.0286 71.3702 88.3788 72.0288 85.6421 72.2767C84.775 72.3542 83.9202 72.31 83.0904 72.2948C82.7944 72.4075 82.6212 72.5766 82.5466 72.8732C82.3752 73.5766 82.1656 74.2725 81.972 74.9747C81.6532 76.0878 81.092 77.1161 80.6534 78.2007C80.5139 78.533 80.2916 78.8553 80.3769 79.227C81.8955 80.2683 83.4092 81.3038 84.9023 82.3772C86.291 83.3783 87.6153 84.4652 89.0163 85.4559C89.7926 86.0025 90.4777 86.6779 91.2078 87.2944C92.0362 87.9884 92.8717 88.666 93.7122 89.3494C94.155 89.7174 94.5538 90.1331 94.9721 90.522C95.5535 91.0641 96.1449 91.6178 96.7519 92.1278C97.462 92.721 97.9661 93.5317 98.7957 93.992C98.8539 94.0228 98.8928 94.0805 98.9266 94.1323C99.5933 95.046 100.487 95.7545 101.316 96.4985C102.293 97.3783 103.004 98.5169 104.112 99.2531C104.191 99.3073 104.249 99.3882 104.308 99.4692C106.133 101.684 108.336 103.573 110.045 105.876C111.042 107.224 112.148 108.478 113.146 109.815C113.564 110.376 113.898 110.989 114.558 111.635C113.958 110.503 113.492 109.538 112.955 108.614C111.993 106.973 111.103 105.291 110.277 103.573C109.36 101.662 108.402 99.7646 107.661 97.7619C106.543 94.738 105.801 91.6446 105.657 88.3707C105.581 86.575 105.533 84.7862 105.637 82.9775C105.69 82.1233 105.687 81.2662 105.817 80.416C106.278 77.4516 106.809 74.5076 107.606 71.5885C108.625 67.8517 109.961 64.2259 111.606 60.6996C112.832 58.0586 114.174 55.4794 115.635 52.9507C116.542 51.3728 117.474 49.8129 118.466 48.2838C119.601 46.5397 120.774 44.8141 121.994 43.1188C122.883 41.8795 123.72 40.615 124.604 39.3698C126.022 37.3732 127.487 35.4068 128.732 33.2954C129.633 31.7729 130.357 30.1799 131.077 28.5811C131.514 27.6188 132.022 26.6769 132.443 25.7082C132.661 25.2075 133.084 24.9456 133.415 24.6511C133.79 24.5815 134.013 24.6932 134.078 24.9915C134.161 25.4354 134.239 25.8846 134.249 26.3414C134.272 27.7171 134.29 29.0869 134.257 30.4597C134.225 31.7713 134.368 33.0642 134.45 34.3594C134.571 36.3689 134.709 38.3738 134.937 40.3722C135.146 42.1748 135.417 43.964 135.706 45.7485C136.126 48.33 136.586 50.9079 137.086 53.4713C137.419 55.1468 137.706 56.8422 137.726 58.5738C137.735 59.4869 137.77 60.4069 137.671 61.3311C137.535 62.5204 137.449 63.7068 137.301 64.8955C136.971 67.6162 136.262 70.2673 135.335 72.8737C134.526 75.1467 133.432 77.3103 132.247 79.4303C131.408 80.9395 130.655 82.4864 129.891 84.0328C128.603 86.626 127.46 89.2768 126.321 91.9334C125.554 93.7356 124.9 95.5715 124.272 97.4254C123.607 99.372 123.111 101.355 122.599 103.332C122.428 103.974 122.345 104.632 122.246 105.284C121.957 107.149 121.618 109.018 121.523 110.9C121.341 114.535 121.36 118.159 122.101 121.708C122.347 122.873 122.586 124.043 122.934 125.179C123.149 125.875 123.483 126.538 123.832 127.179C124.714 128.827 125.656 130.445 126.491 132.125C127.298 133.747 128.294 135.267 129.131 136.874C129.701 137.972 130.377 139.009 130.929 140.123C131.397 141.065 132.091 141.874 132.589 142.802C133.115 143.786 133.767 144.682 134.334 145.641C134.687 146.238 135.079 146.831 135.472 147.414C135.914 148.065 136.455 148.672 136.742 149.427C136.763 149.489 136.814 149.537 136.861 149.578C137.616 150.335 137.996 151.373 138.745 152.135C139.195 152.598 139.376 153.242 139.824 153.716C140.238 154.149 140.709 154.574 140.874 155.2C142.412 156.994 142.128 156.685 143.666 158.478C143.666 158.843 143.666 159.572 143.666 159.572C141.45 157.148 140.683 156.042 138.767 153.36C138.733 153.309 138.665 153.266 138.648 153.21C138.51 152.64 138.085 152.268 137.723 151.871C137.351 151.462 137.206 150.909 136.833 150.511C136.265 149.898 135.902 149.128 135.417 148.452C135.085 147.989 134.711 147.541 134.451 147.027C133.91 145.975 133.19 145.036 132.612 144.016C132.308 143.488 131.95 142.997 131.645 142.48C131.145 141.636 130.668 140.771 130.174 139.922C129.713 139.125 129.205 138.347 128.757 137.539C128.199 136.542 127.683 135.52 127.148 134.512C126.444 133.196 125.74 131.88 125.03 130.569C124.333 129.286 123.62 128.008 122.906 126.73C122.354 125.728 121.803 124.726 121.239 123.734C120.581 122.57 119.927 121.412 119.24 120.264C118.728 119.419 118.193 118.585 117.681 117.74C116.973 116.568 116.182 115.448 115.481 114.271C115.079 113.605 114.533 113.053 114.159 112.383C113.545 111.283 112.756 110.312 111.976 109.354C109.595 106.415 107.078 103.591 104.617 100.721C104.492 100.575 104.389 100.38 104.226 100.288C103.619 99.9399 103.21 99.4012 102.8 98.8736C102.367 98.3058 101.707 97.9823 101.274 97.4145C100.603 96.5451 99.7082 95.8978 98.9504 95.1129C98.4905 94.6384 98.0351 94.1196 97.513 93.7086C96.4006 92.8441 95.4554 91.8158 94.393 90.8983C93.5258 90.1467 92.6587 89.3951 91.7976 88.6382C91.4181 88.307 91.0653 87.9326 90.6614 87.6223C89.9307 87.067 89.2072 86.4953 88.4765 85.9399C87.5444 85.2239 86.6234 84.5085 85.6852 83.7977C84.8241 83.1522 83.9508 82.5171 83.0835 81.8768C83.0053 81.8227 82.9587 81.8425 82.9409 81.9083C82.8369 82.2202 83.0466 82.4647 83.0575 82.6879C84.0179 83.3998 84.9445 84.0599 85.8384 84.7683C86.8104 85.5309 87.7691 86.3151 88.7278 87.0993C89.4851 87.7228 90.2791 88.3148 91.0059 88.9645C91.9069 89.7679 92.825 90.5667 93.726 91.3701C94.7701 92.3034 95.802 93.2472 96.8156 94.2067C97.651 94.9956 98.5648 95.7273 99.2698 96.6486C99.3286 96.7296 99.3813 96.8157 99.4656 96.8646C100.451 97.4443 100.923 98.565 101.908 99.1446C103.222 100.776 104.856 102.113 106.158 103.755C107.762 105.775 109.611 107.584 111.057 109.729C111.683 110.658 112.429 111.503 113.091 112.411C113.62 113.139 114.084 113.904 114.619 114.627C115.37 115.651 115.946 116.793 116.66 117.849C116.913 118.218 117.089 118.633 117.342 119.002C117.915 119.845 118.464 120.708 118.966 121.591C119.754 122.967 120.5 124.369 121.269 125.761C121.82 126.763 122.384 127.755 122.93 128.763C123.592 129.994 124.184 131.265 124.894 132.465C125.819 134.026 126.597 135.664 127.522 137.225C128.18 138.339 128.793 139.5 129.439 140.624C130.089 141.754 130.775 142.864 131.455 143.978C132.403 145.53 133.388 147.05 134.355 148.586C134.71 149.161 135.149 149.673 135.499 150.242C136.117 151.248 136.747 152.254 137.503 153.161C137.608 153.284 137.754 153.391 137.806 153.539C138.027 154.168 138.488 154.631 138.92 155.099C139.363 155.578 139.591 156.191 140.011 156.68C141.201 158.044 141.394 158.197 142.572 159.572L141.844 159.572ZM81.8527 48.7757C81.8188 48.8352 81.6667 48.9052 81.857 48.954C81.8465 48.8923 81.8299 48.8357 81.8194 48.774C81.9122 48.6842 81.9272 48.5904 81.8534 48.492C82.0621 47.6959 82.2485 46.8987 82.4682 46.1032C83.059 44.008 83.6114 41.9054 84.5013 39.887C85.6741 37.221 87.2038 34.7237 88.4831 32.1078C89.3907 30.2461 90.1562 28.3548 90.7929 26.4123C91.2456 25.0223 91.5339 23.6016 91.8334 22.1814C92.1808 20.5077 92.3444 18.8301 92.4071 17.1584C92.4826 15.1924 92.179 13.2791 91.6944 11.3899C91.1495 9.26936 90.6451 7.13426 90.5626 4.90969C90.5549 4.76461 90.4751 4.67143 90.378 4.58293C90.4341 4.52463 90.5002 4.47796 90.4192 4.39586C90.3125 4.45712 90.3786 4.52175 90.4113 4.58466C90.059 6.14122 90.0447 7.72085 89.7368 9.27971C89.5175 10.3479 89.4524 11.4352 89.2814 12.5226C88.9253 14.7801 88.1947 16.9347 87.338 19.0662C86.7026 20.6637 86.1044 22.2799 85.5555 23.9042C84.6147 26.7046 83.8986 29.5445 83.3728 32.4331C83.0103 34.4232 82.6983 36.4103 82.4195 38.3992C82.0633 40.9905 81.8231 43.5935 81.7555 46.1998C81.734 46.8553 81.7236 47.5114 81.7021 48.1669C81.6987 48.3114 81.7786 48.4046 81.8757 48.4931C81.7668 48.5765 81.7678 48.6767 81.8527 48.7757ZM107.784 36.7407C107.667 36.8515 107.447 36.9291 107.587 37.1534C107.432 37.2455 107.378 37.393 107.306 37.5562C106.255 39.8445 104.745 41.8197 102.862 43.4974C100.374 45.7057 97.8324 47.8389 95.3094 50.0065C95.1017 50.185 94.8629 50.3396 94.7073 50.5541C93.9424 51.5551 93.0022 52.4134 92.2111 53.3964C91.5673 54.1922 90.843 54.956 90.2053 55.7466C89.4643 56.6765 88.7121 57.6058 88.0233 58.5718C87.3538 59.5109 86.6844 60.4501 86.0089 61.3945C86.9584 60.7202 87.8747 60.0443 88.8149 59.4085C89.0364 59.2586 89.2164 59.0231 89.4568 58.9075C90.5118 58.4056 91.4087 57.6452 92.416 57.063C93.4526 56.4656 94.3851 55.6847 95.4168 55.0815C95.8849 54.8108 96.2715 54.4079 96.7501 54.199C97.5663 53.8517 98.0907 53.0775 98.9185 52.7809C100.136 51.6643 101.492 50.7217 102.57 49.442C103.521 48.3115 104.353 47.1414 104.983 45.8218C105.979 43.7422 106.678 41.5747 107.234 39.3777C107.411 38.669 107.754 37.9299 107.568 37.1691C107.697 37.0589 107.862 36.9673 107.744 36.7553C107.789 36.6964 107.861 36.6445 107.774 36.5676C107.685 36.6242 107.735 36.6825 107.784 36.7407ZM39.3121 74.2911C39.3681 74.344 39.4292 74.4029 39.5119 74.3014C39.4409 74.231 39.3737 74.2887 39.3138 74.3301C39.2389 74.2428 39.1528 74.2661 39.0496 74.2942C37.303 74.7936 35.5769 75.3665 33.8879 76.0692C31.5926 77.0299 29.4648 78.3221 27.3696 79.6771C26.7733 80.058 26.2545 80.5542 25.6515 80.8903C24.5632 81.5017 23.6324 82.3216 22.6428 83.0606C21.3105 84.0433 20.0798 85.1816 18.8413 86.286C17.6883 87.317 16.5004 88.3072 15.4013 89.4134C14.1216 90.7049 12.8857 92.0599 11.4291 93.1698C11.187 93.3576 10.9115 93.5436 10.6976 93.9499C12.7836 93.0173 14.8588 92.4681 16.8842 91.7494C18.8862 91.0406 20.7641 90.0137 22.4706 88.7499C24.286 87.4026 25.9189 85.8177 27.5046 84.2026C27.5485 84.1548 27.5985 84.1017 27.6423 84.0539C28.4011 83.1695 29.1127 82.2547 29.9125 81.4058C30.5807 80.7003 31.3549 80.106 32.0092 79.3719C32.9585 78.3137 34.3021 77.7155 35.3324 76.7394C36.0858 76.5169 36.5907 75.8808 37.2698 75.5097C37.955 75.1334 38.7001 74.827 39.3121 74.2911ZM120.717 116.679C120.921 116.483 120.857 116.235 120.839 116.028C120.724 114.398 120.761 112.758 120.938 111.12C121.153 109.044 121.3 106.976 121.686 104.915C121.929 103.614 122.204 102.327 122.54 101.047C122.848 99.8724 123.216 98.7062 123.591 97.5348C124.171 95.7118 124.801 93.8969 125.581 92.1344C126.783 89.4031 127.904 86.6399 129.277 83.9843C130.344 81.9249 131.304 79.8156 132.418 77.7865C133.729 75.417 134.731 72.9481 135.508 70.3896C136.091 68.4833 136.416 66.5358 136.774 64.59C136.825 64.3033 136.911 64.0073 136.794 63.723C136.806 63.6624 136.98 63.5935 136.784 63.5499C136.8 63.6064 136.811 63.6682 136.827 63.7247C136.74 63.8203 136.63 63.9148 136.569 64.0174C136.1 64.8556 135.651 65.7061 135.172 66.5326C134.198 68.2184 133.134 69.8605 131.941 71.4014C130.972 72.6589 130.032 73.9514 128.937 75.1245C127.993 76.1384 127.18 77.2816 126.296 78.3543C125.202 79.6889 124.166 81.0542 123.222 82.5023C121.836 84.623 120.654 86.8322 119.752 89.1839C118.964 91.2465 118.499 93.3648 118.154 95.5116C117.866 97.3164 117.851 99.1296 117.904 100.924C117.998 103.978 118.43 106.995 119.028 109.969C119.333 111.488 119.683 112.997 120.073 114.492C120.261 115.231 120.39 116 120.757 116.675C120.701 116.733 120.638 116.797 120.743 116.869C120.811 116.8 120.761 116.742 120.717 116.679ZM131.718 28.9705C131.518 29.0714 131.481 29.2754 131.39 29.4543C130.77 30.7355 130.156 32.0114 129.434 33.2483C128.445 34.9277 127.361 36.5466 126.213 38.1287C125.003 39.7856 123.835 41.4668 122.66 43.1533C121.675 44.5658 120.701 45.9789 119.763 47.4217C118.806 48.8913 117.881 50.3737 116.971 51.8736C115.352 54.5387 113.898 57.2847 112.571 60.0929C111.507 62.3416 110.529 64.6281 109.7 66.9781C108.974 69.0383 108.333 71.1253 107.83 73.2361C107.46 74.8084 107.132 76.3941 106.8 77.9739C106.733 78.3043 106.738 78.644 106.702 79.0595C107.016 78.8198 107.055 78.5436 107.156 78.3151C107.642 77.2607 108.122 76.2116 108.746 75.22C109.831 73.4788 111.032 71.8103 112.336 70.2251C113.538 68.7571 114.813 67.3484 116.098 65.9514C116.956 65.022 117.752 64.0449 118.559 63.0684C120.045 61.2756 121.411 59.4043 122.673 57.4607C125.032 53.8267 127.066 50.0367 128.502 45.971C129.708 42.5388 130.464 39.0277 130.957 35.4695C131.18 33.8618 131.338 32.2395 131.468 30.6213C131.513 30.0672 131.866 29.5513 131.689 28.9857C131.734 28.9268 131.812 28.8696 131.719 28.798C131.619 28.8429 131.674 28.907 131.718 28.9705ZM60.0289 92.8254C60.0872 92.8562 60.1565 92.999 60.2088 92.8125C60.146 92.8259 60.0883 92.8452 60.0256 92.8586C59.9401 92.8208 59.8557 92.7719 59.7681 92.7563C58.3894 92.4846 57.0735 92.0881 55.9078 91.3099C54.742 90.5318 53.8306 89.5553 53.1519 88.3182C52.5448 87.2016 52.2302 86.0056 52.0777 84.7513C51.9805 83.9449 51.9755 83.11 52.1641 82.2906C52.64 80.1728 53.6508 78.2831 54.918 76.5068C55.6397 75.4924 56.3713 74.4897 57.098 73.4812C57.0097 73.4154 56.9598 73.3572 56.9104 73.3491C55.2354 73.0286 53.5091 72.9949 51.8084 72.8178C51.1629 72.7455 50.4895 72.8386 49.8285 72.8099C48.2793 72.7353 46.725 72.8774 45.1839 73.1093C43.5518 73.3587 41.9956 73.9069 40.4576 74.5507C38.9835 75.17 37.6059 75.9389 36.2904 76.8669C35.714 77.2711 35.1919 77.8005 34.5772 78.0859C33.4129 78.621 32.7184 79.6424 31.9225 80.5082C31.1143 81.3845 30.3311 82.29 29.5479 83.1954C29.0874 83.7225 28.5998 84.2426 28.1454 84.7644C27.3061 85.7282 26.484 86.6873 25.5027 87.5101C24.8562 88.0554 24.2037 88.6059 23.5622 89.157C22.6947 89.9022 21.6792 90.4005 20.6725 90.9216C19.1889 91.6906 17.5806 92.0915 16.0232 92.6508C14.3737 93.2387 12.6633 93.6566 11.057 94.3692C10.4851 94.6178 9.91101 94.8886 9.38071 95.2228C8.45726 95.8038 7.82448 96.7115 7.09297 97.4916C6.76137 97.8473 6.36921 98.3056 6.45546 98.8887C6.67945 99.3232 7.06734 99.5158 7.50797 99.6833C9.41982 100.367 11.2266 101.261 13.0334 102.156C14.4041 102.839 15.8136 103.469 17.2121 104.098C20.6665 105.64 24.3724 106.349 28.1589 106.757C30.2842 106.984 32.4345 107.017 34.5989 106.856C37.2695 106.655 39.8959 106.229 42.4797 105.395C43.5007 105.063 44.5233 104.771 45.0718 103.704C45.1141 103.617 45.2196 103.566 45.299 103.498C45.856 103.01 46.3332 102.428 46.7959 101.879C47.5813 100.951 48.4977 100.164 49.3419 99.317C50.5911 98.0517 52.031 96.9967 53.5797 96.0808C54.8674 95.3183 56.1656 94.6176 57.5137 93.9751C58.3327 93.5445 59.2365 93.3242 60.0289 92.8254ZM81.5866 59.3793C80.6841 50.9021 81.0577 42.5522 82.4098 34.1806C82.3645 33.9668 82.1575 33.8615 82.0915 33.6856C81.5922 32.3855 80.8307 31.2498 79.9199 30.2121C79.2138 29.4132 78.6015 28.5134 77.7954 27.8206C76.7229 26.8915 75.5739 26.0585 74.3759 25.2675C72.1748 23.8014 69.7808 22.7537 67.2745 21.934C64.417 21.0014 61.3997 20.7116 58.3869 20.4889C57.0792 20.399 55.7458 20.4524 54.4241 20.5564C51.7263 20.7507 49.0511 21.2187 46.3759 21.6868C44.5472 22.0039 42.7197 22.31 40.8712 22.3812C40.053 22.4168 39.2237 22.4517 38.4099 22.6656C37.5849 22.8788 37.311 23.2152 37.2311 24.0625C37.2138 24.2898 37.2359 24.5135 37.274 24.7436C37.5079 26.3528 37.5951 27.9766 37.6713 29.5999C37.803 32.1664 37.9852 34.73 38.128 37.2971C38.2313 39.15 38.4761 40.9823 38.7442 42.8047C39.1074 45.233 39.499 47.6572 40.4374 49.9149C41.1635 51.6776 41.8663 53.4501 42.8856 55.0721C43.337 55.7966 43.7872 56.5322 44.2264 57.2672C44.8187 58.255 45.4953 59.1804 46.1903 60.09C47.0677 61.2372 48.1868 62.1465 49.2609 63.1147C50.1358 63.9001 51.0595 64.6435 52.04 65.2675C54.6251 66.9093 57.3908 68.2544 60.3971 69.2614C60.8049 68.6482 61.2099 68.007 61.651 67.3954C62.9877 65.5393 63.9181 63.5062 64.6626 61.3801C65.2109 59.817 65.6614 58.2266 66.4039 56.7292C67.0041 55.536 67.7025 54.4203 68.7771 53.5578C69.9067 52.648 71.1803 52.3021 72.5585 52.3011C73.3734 52.2988 74.0493 52.6788 74.7457 53.0209C76.5103 53.8913 78.0317 55.0719 79.4497 56.3918C80.3395 57.1946 80.849 58.2838 81.5866 59.3793ZM29.7306 77.5679C33.9591 74.9766 38.5509 73.6507 43.2674 72.8042C48.0527 71.939 52.808 72.0905 57.4935 72.9897C58.2973 71.9351 59.095 70.8857 59.9305 69.7938C59.5765 69.653 59.3079 69.5501 59.0393 69.4471C57.2978 68.7894 55.6142 68.0011 53.985 67.1155C52.4451 66.2845 51.0158 65.2979 49.641 64.214C48.4775 63.3024 47.4729 62.2543 46.4072 61.2587C45.7598 60.652 45.2551 59.9025 44.7515 59.1419C44.1565 58.2374 43.5725 57.3335 42.9774 56.4291C42.0341 54.9946 41.2451 53.468 40.5544 51.9076C39.2955 49.0656 38.4997 46.0585 38.1463 42.924C38.0442 42.0005 37.8743 41.0847 37.7471 40.2434C37.5319 40.0542 37.3598 40.1009 37.2016 40.0649C36.7026 39.9779 36.2108 40.0971 35.7167 40.1272C34.2335 40.2284 32.753 40.3577 31.3101 40.7783C29.0572 41.4296 26.8763 42.2515 24.732 43.2646C22.6343 44.2578 20.3975 44.9155 18.1701 45.5347C17.022 45.8537 15.8717 46.1948 14.7846 46.6838C14.1122 46.9885 13.2056 47.1808 13.0684 48.2087C13.1071 48.489 13.178 48.782 13.3316 49.0849C13.6149 49.6505 13.9226 50.195 14.0993 50.8219C14.8809 53.5278 15.6798 56.229 16.508 58.9151C17.4587 61.9915 18.4904 65.0387 19.9652 67.8974C20.5014 68.9435 21.1063 69.9709 21.8641 70.867C22.7116 71.868 23.5286 72.8953 24.54 73.7656C25.5315 74.6127 26.479 75.5076 27.5482 76.2474C28.2595 76.7183 28.9492 77.2381 29.7306 77.5679ZM121.679 123.022C121.582 122.104 121.255 121.303 121.032 120.473C120.485 118.425 119.881 116.396 119.369 114.339C118.708 111.711 118.161 109.056 117.785 106.366C117.428 103.76 117.191 101.132 117.297 98.4833C117.383 96.2452 117.665 94.0005 118.271 91.8116C118.992 89.2001 120.085 86.7137 121.431 84.3238C123.029 81.4851 125.022 78.9228 127.115 76.4269C128.074 75.2801 129.027 74.1275 129.964 72.9684C131.538 71.0299 132.974 69.0175 134.297 66.9102C135.035 65.7298 135.76 64.5208 136.289 63.2572C136.985 61.6072 137.096 59.8434 137.061 58.0942C137.024 56.4674 136.727 54.8717 136.418 53.2865C135.856 50.4027 135.367 47.506 134.901 44.5994C134.456 41.8163 134.181 39.0197 133.969 36.1986C133.721 33.0139 133.612 29.8309 133.673 26.6233C133.684 26.2399 133.711 25.8127 133.406 25.2961C133.177 25.8463 132.955 26.2188 132.865 26.6203C132.616 27.7538 132.379 28.8879 132.236 30.0323C131.914 32.5642 131.752 35.11 131.302 37.6298C131.095 38.7988 130.893 39.9736 130.609 41.1275C130.098 43.2045 129.472 45.2588 128.689 47.2772C127.948 49.1976 127.101 51.068 126.136 52.8878C125.082 54.8754 123.944 56.8142 122.658 58.6674C121.789 59.919 120.926 61.1765 119.948 62.3501C119.352 63.0649 118.853 63.8571 118.222 64.5311C117.558 65.2424 116.994 66.0312 116.316 66.714C115.789 67.2376 115.293 67.7851 114.825 68.3395C113.9 69.4269 112.945 70.4904 112.067 71.619C110.333 73.8665 108.734 76.1709 107.623 78.7733C106.863 80.5592 106.265 82.3367 106.235 84.2939C106.206 85.9674 106.212 87.6204 106.334 89.285C106.525 91.8212 107.041 94.2797 107.909 96.6284C108.5 98.2338 109.114 99.8404 109.897 101.372C110.984 103.482 111.97 105.659 113.105 107.737C114.038 109.433 114.989 111.124 115.988 112.783C116.934 114.357 117.726 116.023 118.542 117.668C119.26 119.124 120.126 120.493 120.946 121.882C121.164 122.261 121.243 122.749 121.679 123.022ZM73.0991 87.7649C73.8367 87.0908 74.3526 86.5666 74.8686 86.0424C76.025 84.8669 76.9555 83.5517 77.8623 82.1964C79.1695 80.2441 80.1128 78.1394 80.9234 75.9666C81.9464 73.2372 82.6485 70.4801 82.728 67.5906C82.7774 65.6066 82.6093 63.6781 81.9687 61.842C81.3536 60.0851 80.5153 58.4391 79.2666 57.0445C78.88 56.6182 78.4373 56.2503 78.0312 55.8509C76.7708 54.6282 75.2548 53.8374 73.6382 53.214C72.1243 52.6237 70.4671 53.0665 69.2158 54.2427C68.1194 55.2655 67.3233 56.4651 66.7247 57.8086C66.1405 59.1195 65.7034 60.4658 65.2058 61.8033C64.6821 63.2342 64.1112 64.6347 63.351 65.9754C61.8585 68.6026 59.8494 70.8747 58.06 73.2917C56.7945 74.9958 55.4941 76.659 54.3901 78.4772C53.4727 79.9934 52.8828 81.5821 52.7308 83.3104C52.552 85.3045 53.0727 87.1121 54.1042 88.7236C54.9865 90.0992 56.3054 91.0189 57.8609 91.5836C60.1479 92.4198 62.5165 92.4478 64.943 91.9001C68.078 91.1887 70.7872 89.6095 73.0991 87.7649ZM91.3156 0.76403C91.084 0.902287 90.9768 1.02472 90.9528 1.20712C90.8976 1.69952 90.7968 2.20068 90.8093 2.68545C90.875 5.07609 91.3699 7.36097 92.2312 9.55351C93.1811 11.9732 93.9823 14.4298 93.9219 17.1311C93.8701 19.2485 93.5824 21.3259 92.9679 23.3809C92.2593 25.7592 91.2388 28.0213 90.1578 30.2747C88.9223 32.8428 87.4749 35.2998 86.1761 37.8313C85.6337 38.8939 85.0419 39.9483 84.6244 41.0452C83.5842 43.7793 82.7555 46.5743 82.2936 49.4385C81.8952 51.8941 81.8088 54.3548 82.0183 56.8141C82.1589 58.4629 82.4077 60.0896 82.702 61.7074C82.8879 62.741 83.1021 63.7704 83.3002 64.7934C83.4579 64.7793 83.494 64.6977 83.5374 64.5998C84.2355 62.9888 85.1817 61.5186 86.2034 60.0746C87.2711 58.5606 88.4171 57.1008 89.5582 55.6352C90.6992 54.1695 91.9334 52.7755 93.1515 51.375C93.9836 50.4276 94.8911 49.5063 95.8886 48.6899C97.8295 47.0931 99.6906 45.4032 101.627 43.8007C103.063 42.6174 104.319 41.2857 105.375 39.7711C106.744 37.8165 107.667 35.6885 107.715 33.3315C107.732 32.4476 107.793 31.566 107.754 30.6792C107.657 28.3259 107.244 26.0619 106.483 23.8635C105.852 22.0501 105.112 20.309 104.133 18.6724C103.661 17.8745 103.17 17.1034 102.674 16.3265C101.94 15.1978 101.18 14.1012 100.337 13.0559C99.1601 11.6094 97.9104 10.2259 96.5873 8.90535C95.4262 7.74901 94.3762 6.48714 93.5205 5.06838C93.2294 4.58031 92.9444 4.08698 92.6838 3.57267C92.217 2.66929 91.7818 1.72859 91.3156 0.76403ZM63.2894 92.9163C62.0999 93.7562 61.3278 94.6622 60.6145 95.6492C60.0445 96.4321 59.6332 97.3012 59.1376 98.1213C57.7174 100.474 56.4249 102.889 54.7788 105.102C54.1016 106.007 53.4505 106.931 52.588 107.682C51.6878 108.475 50.7975 109.281 49.8773 110.051C48.841 110.921 47.6882 111.618 46.5449 112.277C45.1406 113.089 43.769 113.964 42.332 114.713C41.1893 115.311 40.0843 115.977 38.9693 116.631C38.223 117.06 37.4457 117.465 36.7582 117.975C35.8897 118.62 35.0327 119.316 34.2951 120.101C33.277 121.178 32.3399 122.337 32.7602 123.978C32.9233 124.131 33.0064 124.414 33.4349 124.481C33.7569 124.386 34.2005 124.247 34.643 124.12C35.7833 123.767 36.9121 123.364 38.0629 123.073C39.734 122.659 41.4255 122.318 43.102 121.959C44.984 121.556 46.8588 121.169 48.7357 120.76C50.0309 120.476 51.3133 120.153 52.5687 119.712C54.1887 119.139 55.7672 118.48 57.2631 117.59C58.3792 116.924 59.5053 116.27 60.51 115.437C61.4363 114.662 62.3527 113.874 63.1753 112.965C64.0785 111.977 64.9494 110.976 65.6911 109.874C67.9718 106.458 69.3256 102.717 69.9336 98.7359C70.2206 96.8309 70.3189 94.9162 70.3555 93.0038C70.3682 92.2143 70.4015 91.3869 70.1278 90.5603C67.9117 91.7867 65.5716 92.4724 63.2894 92.9163ZM109.113 32.7473C109.008 33.1814 108.89 33.5259 108.831 33.8901C108.501 35.9431 108.16 37.9955 107.654 40.0282C107.036 42.5003 106.381 44.9538 105.211 47.2638C104.339 48.9938 103.248 50.5678 101.772 51.8769C100.84 52.7079 99.7825 53.3432 98.7341 54.0012C97.4064 54.8283 96.0133 55.5297 94.6856 56.3569C93.7327 56.9531 92.7737 57.5545 91.8197 58.1617C91.2294 58.5374 90.638 58.9241 90.0627 59.3173C89.152 59.9379 88.2175 60.5183 87.3606 61.2141C86.863 61.6112 86.4553 62.1132 86.0087 62.5575C85.2645 63.298 84.6417 64.106 84.1433 65.0095C83.6798 65.8425 83.172 66.6732 83.359 67.6956C83.4254 68.0329 83.3197 68.417 83.2829 68.7823C83.1735 69.7561 83.058 70.735 82.9464 71.7309C84.5455 71.8638 86.1215 71.6727 87.6859 71.4309C89.1542 71.2008 90.6031 70.8863 92.0217 70.3755C93.6367 69.7969 95.2175 69.1164 96.7212 68.2593C97.5324 67.795 98.3087 67.2898 99.0911 66.7794C100.131 66.0987 101.129 65.3825 102.11 64.6208C102.908 64.0055 103.597 63.2621 104.316 62.5536C105.177 61.7023 105.993 60.8097 106.703 59.8559C107.895 58.265 108.952 56.589 109.856 54.8107C110.982 52.6097 111.622 50.3001 111.914 47.9057C112.212 45.5061 112.027 43.1371 111.747 40.7687C111.518 38.8315 111.129 36.9416 110.515 35.1125C110.228 34.2573 109.906 33.4115 109.113 32.7473ZM29.1009 77.9471C26.3604 76.1859 23.882 74.2602 21.8851 71.8197C19.8844 69.3623 18.5406 66.5326 17.5327 63.5256C17.2257 63.5264 16.9849 63.4806 16.7672 63.5361C15.4198 63.8948 14.0558 64.197 12.7478 64.6635C9.63808 65.788 6.54225 66.941 3.41207 67.992C2.75361 68.2139 2.11677 68.4981 1.54147 68.8913C0.696851 69.4652 0.735204 70.3019 1.47426 70.8299C3.59821 72.3421 5.86273 73.6224 8.31506 74.5896C10.8529 75.5946 13.2317 76.8474 15.37 78.5495C16.5634 79.4961 17.7263 80.4689 18.8892 81.4417C19.6814 82.106 20.4425 82.8576 21.5242 83.1418C23.9565 81.3757 26.3534 79.5188 29.1009 77.9471ZM82.5891 33.3997C83.3869 28.4774 84.7845 23.8587 86.574 19.4495C86.2848 18.4441 85.6286 17.8147 85.0506 17.1281C84.6174 16.6104 84.1025 16.1831 83.6132 15.7238C82.8487 15.0053 82.0487 14.3073 81.2198 13.6745C78.9916 11.9788 76.4734 10.7243 73.9057 9.57309C72.3574 8.88084 70.8503 8.11281 69.3637 7.30688C68.3372 6.75292 67.2911 6.22578 66.0565 5.57757C66.879 6.66075 67.6201 7.50043 68.2523 8.4235C69.0448 9.58302 69.7796 10.7618 70.4889 11.9727C71.4077 13.5394 72.1339 15.1907 72.8417 16.8578C73.8278 19.1959 74.7317 21.5743 75.9166 23.8226C76.5969 25.0987 77.315 26.3323 78.2719 27.4113C79.0429 28.2859 79.8323 29.1447 80.5433 30.0608C81.0131 30.6583 81.3741 31.3391 81.7717 31.9885C82.0351 32.4195 82.2702 32.8546 82.5891 33.3997ZM35.2126 118.362C35.4013 118.372 35.4902 118.265 35.5941 118.176C36.4516 117.419 37.4832 116.927 38.4472 116.332C39.5178 115.675 40.6322 115.082 41.7166 114.453C42.4873 114.003 43.2453 113.514 44.031 113.082C45.1071 112.481 46.1117 111.759 47.124 111.072C47.7887 110.622 48.312 109.97 49.0704 109.642C49.2165 109.577 49.3803 109.447 49.4442 109.311C49.711 108.768 50.2257 108.478 50.6334 108.087C50.8555 107.876 51.1287 107.712 51.3098 107.465C52.1331 106.384 53.0335 105.368 53.8829 104.304C55.1666 102.696 56.361 101.033 57.5033 99.3333C58.205 98.2956 58.7924 97.1742 59.5251 96.1604C60.3306 95.0335 61.1484 93.8961 62.243 92.9456C62.1393 92.9235 62.1071 92.9107 62.0838 92.9206C60.3 93.4015 58.5761 94.0635 56.8843 94.8495C55.0048 95.726 53.3044 96.8734 51.6119 98.0545C50.1408 99.0857 49.0653 100.566 47.6692 101.684C47.6203 101.726 47.5603 101.768 47.5264 101.827C46.7914 102.863 45.8612 103.733 45.0241 104.675C44.1176 105.696 43.231 106.741 42.4089 107.811C41.284 109.284 40.2944 110.852 39.2949 112.408C38.5804 113.517 37.8809 114.644 37.0721 115.693C36.4277 116.55 35.8393 117.46 35.2126 118.362ZM75.6214 25.421C75.6932 25.2077 75.7077 25.0638 75.6289 24.9596C75.1153 24.2986 74.826 23.5157 74.5062 22.759C73.1371 19.5163 71.9901 16.1738 70.4111 13.0204C69.6593 11.5124 68.7898 10.0651 67.8348 8.69123C67.1188 7.65809 66.2412 6.73346 65.3919 5.80471C64.6835 5.02794 63.8162 4.49893 62.6405 4.64952C62.5 4.77023 62.3534 4.89619 62.2251 5.00641C62.0543 5.53734 62.1839 6.0226 62.2419 6.4986C62.5183 8.51618 62.9423 10.508 63.0932 12.5525C63.2556 14.7589 63.6456 16.9215 64.1955 19.0479C64.3434 19.6287 64.4607 20.2357 64.779 20.7308C67.8795 21.1918 73.1353 23.4616 75.6214 25.421ZM28.0335 26.6859C28.0313 28.5889 28.4104 30.417 28.8007 32.2457C29.3929 35.0031 30.2456 37.6682 31.5242 40.1494C33.5727 39.7546 35.5911 39.4362 37.7286 39.6526C37.2762 35.0661 37.1213 30.5174 36.8558 26.013C34.1397 25.2825 31.4668 25.5058 28.8216 26.0088C28.565 26.2293 28.3573 26.4077 28.0335 26.6859ZM70.5079 99.0717C71.3686 98.5041 72.1043 98.1248 72.7369 97.551C73.0446 97.2665 73.1986 96.9016 73.5051 96.6281C74.7231 95.5615 75.6314 94.2452 76.4543 92.8911C78.4251 89.671 79.5723 86.208 79.7566 82.5003C79.7678 82.2783 79.7296 82.0482 79.7137 81.8192C79.6977 81.5902 79.795 81.3449 79.6703 81.088C77.2584 84.8083 74.3074 87.8997 70.6647 90.2709C71.2758 93.1739 70.7484 96.0235 70.5079 99.0717ZM2.02216 71.7041C2.15406 72.0559 2.18611 72.2913 2.31368 72.4648C3.08465 73.4507 3.96447 74.3532 4.59106 75.4429C4.79568 75.793 5.20472 75.8865 5.46543 76.1782C6.03678 76.8199 6.63257 77.4406 7.27001 78.0356C8.24363 78.9486 9.24891 79.8242 10.337 80.5983C12.846 82.3865 15.53 83.822 18.6287 84.4665C19.0499 84.5495 19.4529 84.6483 19.7976 84.6049C20.213 84.2481 20.5673 83.9436 21.0072 83.5658C20.2957 83.3175 19.7492 82.9275 19.2554 82.5124C17.9694 81.4331 16.7028 80.3269 15.3851 79.2849C14.0152 78.2067 12.5871 77.2091 11.0011 76.4481C9.35686 75.6563 7.66927 74.9624 6.01781 74.1868C4.63771 73.5422 3.35319 72.7245 2.02216 71.7041ZM63.5508 18.6917C62.9087 18.3636 62.29 18.0255 61.6557 17.7311C59.1247 16.5484 56.4335 15.847 53.615 15.5787C53.0572 15.522 52.4921 15.4816 51.9265 15.5024C50.572 15.5436 49.2193 15.6238 47.8737 15.6877C47.3353 15.7155 46.8029 15.738 46.1501 15.9046C46.3382 15.9755 46.3903 16.0116 46.4397 16.0197C48.8736 16.3961 50.8351 17.5827 52.5121 19.2666C52.836 19.595 53.1789 19.8465 53.5979 20.0629C54.9036 19.8412 56.223 19.8705 57.5396 19.8719C59.3248 19.8753 61.0887 20.089 62.8398 20.3744C63.2078 20.4324 63.5946 20.5248 64.0565 20.3706C63.7871 19.8336 63.6964 19.2947 63.5508 18.6917ZM44.9051 21.3324C47.2967 20.8552 49.6737 20.522 52.053 20.1666C52.0061 19.8025 51.8041 19.5917 51.596 19.4974C51.197 19.3043 50.9763 18.9479 50.6629 18.6812C49.7175 17.8755 48.7443 17.124 47.4884 16.7974C46.1508 16.4499 44.7904 16.2738 43.3944 16.3406C43.1228 16.5436 42.8313 16.7233 42.6018 17.062C42.7418 18.772 43.7524 20.0374 44.9051 21.3324ZM85.6771 61.9727C85.8276 61.9749 85.9192 61.8962 85.9398 61.7471C85.7894 61.7448 85.7138 61.8299 85.6771 61.9727Z" fill="#FEFBF7"/>
</svg>
