<svg width="189" height="192" viewBox="0 0 189 192" fill="none" xmlns="http://www.w3.org/2000/svg">
<g opacity="0.2">
<path d="M192.582 201.219C190.646 199.537 191.225 200.139 189.351 198.391C188.705 197.197 187.395 196.603 186.755 195.403C186.704 195.307 186.604 195.251 186.523 195.175C185.506 194.165 184.644 193.028 183.689 191.965C183.067 191.274 182.463 190.563 181.884 189.839C181.085 188.847 180.274 187.857 179.505 186.832C178.869 185.98 178.184 185.156 177.541 184.299C176.811 183.334 176.111 182.349 175.369 181.41C174.551 180.376 173.825 179.281 173.044 178.22C171.916 176.676 170.825 175.092 169.734 173.52C169.009 172.475 168.308 171.403 167.583 170.357C166.871 169.336 166.14 168.334 165.421 167.319C164.829 166.483 164.236 165.635 163.644 164.799C162.78 163.587 161.929 162.363 161.035 161.171C160.304 160.207 159.506 159.29 158.745 158.346C158.279 157.764 157.826 157.169 157.397 156.56C157.025 156.041 156.567 155.576 156.152 155.103C155.518 154.376 154.901 153.629 154.267 152.901C153.254 151.723 152.046 150.744 151.059 149.565C149.644 147.863 147.91 146.504 146.354 144.955C145.82 144.42 145.293 143.854 144.68 143.418C143.304 142.43 142.154 141.173 140.809 140.152C140.033 139.564 139.373 138.826 138.549 138.352C137.512 137.754 136.739 136.861 135.751 136.198C134.932 135.656 134.137 135.013 133.354 134.394C132.522 133.728 131.695 133.056 130.765 132.52C130.215 132.204 129.769 131.727 129.213 131.381C128.126 130.711 127.161 129.836 126.067 129.173C124.524 128.226 123.011 127.246 121.462 126.306C119.457 125.088 117.439 123.908 115.348 122.844C115.105 122.716 114.947 122.445 114.586 122.392C114.613 123.094 114.645 123.739 114.664 124.385C114.739 126.683 114.335 128.929 113.801 131.189C113.285 133.367 112.377 135.388 111.281 137.332C110.703 138.357 110.143 139.436 109.253 140.267C108.884 140.612 108.796 141.109 108.428 141.467C107.648 142.23 106.786 142.866 105.869 143.55C105.493 144.344 105.615 145.245 105.487 146.111C104.896 149.893 103.738 153.503 101.795 156.874C100.376 159.33 98.6063 161.533 96.5297 163.45C94.9752 164.881 93.2826 166.158 91.4576 167.251C88.5906 168.972 85.5059 170.071 82.3768 171.092C81.1092 171.511 79.8286 171.88 78.5799 172.328C75.7857 173.329 72.9593 174.214 70.2418 175.422C69.9022 175.573 69.575 175.735 69.2416 175.892C68.6057 176.198 67.9513 176.511 67.2052 176.381C66.2936 175.876 66.0053 175.053 66.0374 174.012C66.0701 173.033 66.3394 172.127 66.8078 171.258C68.1461 168.789 69.5156 166.336 70.8289 163.855C71.9354 161.76 72.9609 159.626 74.0676 157.544C74.6574 156.432 75.2659 155.325 76.0368 154.321C76.1592 154.164 76.2382 154.004 76.1733 153.746C75.7888 153.769 75.4938 154.036 75.1602 154.18C73.0046 155.112 70.7844 155.824 68.5186 156.333C65.6027 156.986 62.6579 157.268 59.7107 157.326C56.6269 157.38 53.5774 157.158 50.5734 156.572C48.3718 156.144 46.2726 155.429 44.1611 154.728C41.2398 153.751 38.4028 152.546 35.361 151.9C34.683 151.76 34.1337 151.47 33.9643 150.733C33.8863 150.414 33.8704 150.091 34.0468 149.763C34.3995 149.108 34.765 148.476 35.1865 147.859C36.0478 146.607 37.2098 145.61 38.0839 144.394C38.903 143.25 39.879 142.264 40.8109 141.225C41.3136 140.66 41.6101 139.964 42.1628 139.433C42.6663 138.942 43.1947 138.45 43.4913 137.766C43.6063 137.504 43.8834 137.307 44.092 137.083C45.0427 136.062 45.9996 135.034 47.0178 133.94C46.6757 133.867 46.4515 133.793 46.2093 133.776C44.1538 133.657 42.2299 133.094 40.3296 132.404C38.2734 131.656 36.406 130.579 34.5629 129.451C33.8069 128.992 33.1239 128.392 32.4045 127.869C30.453 126.48 28.8266 124.741 27.0714 123.141C26.1688 122.324 25.5793 121.195 24.5791 120.533C24.5149 120.338 24.4823 120.197 24.4126 120.07C23.6776 118.683 24.5292 117.68 25.4782 117.063C26.4765 116.418 27.5446 115.913 28.6127 115.407C30.786 114.381 32.9593 113.354 35.107 112.268C37.2672 111.18 39.4214 110.111 41.7735 109.547C41.8664 109.523 41.9458 109.413 42.0504 109.326C41.6239 108.349 41.1912 107.379 40.771 106.409C40.1788 105.032 39.605 103.635 39.0127 102.257C38.3887 100.814 37.7276 99.3844 37.1407 97.926C36.7322 96.8925 36.3177 95.878 35.6438 94.9786C35.0896 94.2401 35.0941 94.0843 35.1924 92.8586C36.2358 91.2342 37.9045 90.5992 39.4919 89.913C41.9442 88.8639 44.3967 87.8273 46.76 86.5844C47.8028 86.0428 48.763 85.3133 49.8059 84.7717C51.3178 83.9904 52.8232 83.1785 54.5296 82.591C54.0802 81.7902 53.6623 81.0311 53.2506 80.2778C52.4336 78.7771 51.7832 77.1856 51.1019 75.6145C50.2105 73.552 49.82 71.3288 49.108 69.212C48.9796 68.8214 48.9875 68.4101 49.0265 68.0033C49.0756 67.3843 49.3493 66.8763 49.9417 66.567C50.4415 66.3069 50.9547 66.133 51.4803 65.9584C52.9831 65.4765 54.521 65.372 56.0577 65.1556C56.7455 65.0584 57.4479 65.1595 58.1314 65.2307C58.4296 65.2626 58.7151 65.2704 59.0003 65.2409C59.0953 64.8494 58.8622 64.5335 58.8272 64.1684C58.6664 62.5165 59.2096 61.6812 60.7004 61.2373C61.8324 60.902 63.0162 60.7627 64.1741 60.5254C64.9977 60.3579 65.8149 60.172 66.7374 59.9737C65.6904 58.4432 64.1826 57.3324 63.9506 55.4171C63.9562 54.7944 64.3365 54.3858 64.7483 54.0189C66.5128 53.067 68.415 52.7852 70.2979 52.4485C71.865 52.1743 73.4258 51.8942 75.0005 51.7377C76.2838 51.6174 77.5867 51.5892 78.866 51.662C80.8284 51.7811 82.7677 52.0634 84.6239 52.6866C85.4711 52.972 86.3061 53.283 87.129 53.6196C87.3409 53.7065 87.5217 53.7766 87.7877 53.7047C86.7426 51.2032 86.3095 48.4972 85.6726 45.8718C85.3283 44.4673 84.9097 43.0796 84.5284 41.6898C84.4121 41.2736 84.2834 40.8581 84.2166 40.4265C84.1028 39.6678 84.2128 38.9456 84.8839 38.4512C86.2607 37.8025 87.5435 38.1987 88.7401 38.6623C91.5946 39.7735 94.4189 40.9549 97.3281 41.9571C98.8792 42.4928 100.431 43.0534 101.97 43.6148C103.814 44.2885 105.579 45.1102 107.241 46.1433C108.51 46.9325 109.748 47.7545 110.943 48.6476C111.637 49.1599 112.307 49.6862 112.928 50.2776C113.279 50.6175 113.36 51.1977 113.939 51.4057C114.469 49.868 114.818 48.2976 115.03 46.698C115.271 44.9286 115.314 43.1587 115.332 41.3778C115.357 38.5696 115.437 35.7519 115.549 32.9386C115.589 32.0276 115.653 31.0654 116.689 30.4682C117.052 30.7079 117.34 31.0018 117.599 31.4282C118.276 32.5887 118.966 33.7734 119.821 34.7927C120.531 35.6401 121.181 36.5534 122.051 37.2667C122.94 37.9977 123.683 38.9365 124.627 39.5832C126.059 40.5742 127.264 41.8089 128.512 42.9976C129.591 44.0283 130.535 45.204 131.534 46.3204C132.363 47.2541 133.119 48.2543 133.862 49.2429C134.951 50.6775 135.881 52.2338 136.643 53.8933C137.139 54.9589 137.635 56.0369 138.038 57.1516C138.864 59.4484 139.294 61.8435 139.445 64.3237C139.797 64.2217 139.911 63.8477 140.226 63.6982C140.437 63.6483 140.641 63.6422 140.835 63.7987C141.518 64.3366 142.028 65.0217 142.446 65.7809C143.649 67.9617 144.407 70.3184 144.992 72.7478C145.278 73.9504 145.534 75.1487 145.721 76.3821C146.102 78.8921 146.223 81.4302 145.879 83.9898C145.437 87.271 144.247 90.3106 142.679 93.2671C141.888 94.7457 141.035 96.1783 140.057 97.5188C139.023 98.9435 137.947 100.377 136.632 101.576C133.928 104.028 131.186 106.42 127.922 108.115C125.164 109.556 122.302 110.617 119.292 111.232C118.339 111.426 117.384 111.483 116.46 111.57C116.145 111.732 115.974 111.941 115.928 112.28C115.825 113.083 115.679 113.882 115.551 114.686C115.335 115.962 114.84 117.174 114.487 118.434C114.374 118.82 114.167 119.206 114.308 119.608C116.124 120.576 117.935 121.538 119.727 122.545C121.394 123.485 123 124.527 124.68 125.454C125.61 125.964 126.455 126.629 127.343 127.223C128.349 127.891 129.362 128.54 130.381 129.195C130.918 129.549 131.413 129.961 131.926 130.341C132.639 130.871 133.365 131.412 134.103 131.903C134.966 132.474 135.626 133.312 136.605 133.72C136.674 133.747 136.724 133.806 136.768 133.86C137.622 134.792 138.703 135.468 139.717 136.191C140.911 137.047 141.843 138.223 143.166 138.904C143.26 138.954 143.335 139.037 143.41 139.119C145.712 141.353 148.395 143.177 150.58 145.523C151.855 146.897 153.24 148.152 154.515 149.513C155.049 150.085 155.496 150.724 156.31 151.36C155.503 150.176 154.865 149.163 154.153 148.203C152.881 146.5 151.682 144.742 150.552 142.936C149.295 140.927 147.995 138.938 146.922 136.806C145.305 133.585 144.095 130.241 143.528 126.622C143.221 124.637 142.945 122.656 142.835 120.633C142.788 119.678 142.678 118.726 142.717 117.765C142.86 114.415 143.085 111.078 143.607 107.736C144.273 103.459 145.307 99.2646 146.696 95.1427C147.729 92.0564 148.9 89.0241 150.208 86.0334C151.019 84.1677 151.861 82.3188 152.772 80.4969C153.817 78.4181 154.905 76.3554 156.05 74.3204C156.884 72.8329 157.655 71.3243 158.483 69.831C159.81 67.4366 161.193 65.07 162.313 62.5697C163.125 60.7662 163.732 58.9065 164.332 57.041C164.698 55.9175 165.145 54.808 165.493 53.6795C165.673 53.0962 166.109 52.7527 166.441 52.3843C166.849 52.2603 167.11 52.3567 167.22 52.68C167.368 53.1628 167.509 53.6521 167.577 54.1584C167.774 55.6838 167.964 57.2033 168.099 58.7323C168.226 60.1934 168.546 61.6118 168.798 63.0405C169.182 65.2579 169.585 67.4679 170.086 69.6595C170.542 71.6361 171.067 73.5899 171.609 75.5364C172.397 78.352 173.228 81.1587 174.103 83.9441C174.681 85.764 175.211 87.6117 175.449 89.5329C175.572 90.5461 175.726 91.5638 175.731 92.6027C175.727 93.9409 175.778 95.2696 175.762 96.6085C175.734 99.6721 175.277 102.705 174.571 105.716C173.954 108.342 173.008 110.881 171.955 113.384C171.211 115.164 170.567 116.977 169.911 118.79C168.802 121.831 167.862 124.917 166.927 128.01C166.299 130.108 165.801 132.229 165.334 134.366C164.837 136.611 164.533 138.876 164.21 141.136C164.1 141.87 164.09 142.612 164.06 143.348C163.972 145.456 163.828 147.575 163.956 149.677C164.205 153.738 164.678 157.761 165.942 161.612C166.36 162.875 166.771 164.145 167.299 165.364C167.624 166.11 168.078 166.805 168.545 167.474C169.73 169.196 170.977 170.876 172.114 172.637C173.212 174.339 174.508 175.905 175.637 177.586C176.407 178.734 177.287 179.802 178.039 180.971C178.676 181.959 179.548 182.772 180.216 183.74C180.923 184.768 181.758 185.683 182.508 186.677C182.974 187.297 183.483 187.907 183.992 188.505C184.564 189.174 185.241 189.781 185.653 190.584C185.685 190.651 185.748 190.697 185.804 190.737C186.737 191.484 187.289 192.59 188.216 193.343C188.773 193.801 189.054 194.494 189.611 194.965C190.125 195.395 190.7 195.808 190.962 196.483C192.893 198.285 192.539 197.977 194.471 199.778C194.516 200.183 194.607 200.993 194.607 200.993C191.843 198.576 190.855 197.442 188.392 194.702C188.348 194.648 188.267 194.61 188.241 194.549C188.017 193.934 187.498 193.573 187.047 193.177C186.583 192.769 186.353 192.173 185.89 191.777C185.182 191.166 184.683 190.356 184.061 189.665C183.634 189.193 183.163 188.742 182.81 188.203C182.078 187.101 181.161 186.148 180.392 185.086C179.989 184.538 179.531 184.036 179.128 183.5C178.466 182.625 177.83 181.724 177.175 180.842C176.564 180.013 175.903 179.213 175.304 178.371C174.561 177.333 173.86 176.261 173.141 175.208C172.195 173.834 171.249 172.459 170.297 171.091C169.364 169.753 168.412 168.422 167.461 167.091C166.723 166.046 165.986 165.001 165.236 163.969C164.36 162.758 163.49 161.553 162.584 160.363C161.91 159.489 161.212 158.628 160.538 157.753C159.606 156.54 158.588 155.393 157.663 154.173C157.134 153.483 156.458 152.938 155.96 152.24C155.14 151.094 154.143 150.114 153.158 149.147C150.147 146.178 147 143.354 143.909 140.471C143.752 140.325 143.614 140.121 143.42 140.04C142.703 139.728 142.182 139.18 141.661 138.645C141.109 138.068 140.336 137.791 139.784 137.214C138.93 136.332 137.856 135.724 136.917 134.946C136.347 134.476 135.776 133.956 135.145 133.565C133.802 132.743 132.624 131.718 131.33 130.831C130.273 130.104 129.216 129.377 128.165 128.643C127.703 128.322 127.264 127.95 126.777 127.656C125.896 127.13 125.021 126.584 124.14 126.058C123.016 125.379 121.904 124.699 120.773 124.026C119.736 123.416 118.687 122.819 117.644 122.215C117.55 122.165 117.501 122.193 117.489 122.268C117.413 122.627 117.676 122.873 117.716 123.12C118.871 123.791 119.983 124.409 121.064 125.085C122.239 125.811 123.401 126.563 124.564 127.315C125.483 127.913 126.438 128.472 127.326 129.104C128.427 129.884 129.546 130.657 130.647 131.438C131.923 132.345 133.187 133.265 134.432 134.205C135.458 134.977 136.565 135.677 137.462 136.612C137.538 136.695 137.607 136.784 137.707 136.828C138.873 137.349 139.538 138.536 140.704 139.057C142.366 140.706 144.348 141.988 145.998 143.65C148.031 145.694 150.31 147.475 152.183 149.678C152.994 150.631 153.928 151.478 154.776 152.404C155.455 153.148 156.065 153.939 156.75 154.676C157.711 155.72 158.493 156.917 159.417 158.001C159.744 158.38 159.991 158.819 160.318 159.198C161.06 160.062 161.777 160.953 162.445 161.871C163.491 163.302 164.494 164.767 165.521 166.218C166.259 167.262 167.008 168.294 167.74 169.346C168.629 170.631 169.444 171.969 170.382 173.214C171.604 174.834 172.672 176.556 173.894 178.175C174.763 179.331 175.589 180.545 176.446 181.713C177.309 182.887 178.209 184.035 179.103 185.188C180.349 186.794 181.632 188.36 182.897 189.946C183.363 190.541 183.915 191.055 184.374 191.644C185.186 192.684 186.01 193.724 186.964 194.638C187.095 194.761 187.27 194.862 187.346 195.019C187.67 195.691 188.24 196.148 188.779 196.614C189.33 197.091 189.66 197.744 190.187 198.235C191.679 199.602 191.912 199.749 193.392 201.129L192.582 201.219ZM112.16 85.5964C112.13 85.6667 111.97 85.7634 112.187 85.794C112.168 85.7267 112.143 85.6659 112.123 85.5986C112.215 85.4874 112.22 85.3813 112.126 85.2811C112.259 84.3708 112.367 83.462 112.512 82.5509C112.908 80.15 113.26 77.7455 113.997 75.3925C114.969 72.2851 116.357 69.3207 117.453 66.2555C118.23 64.0745 118.845 61.8783 119.311 59.6412C119.641 58.0407 119.785 56.4266 119.941 54.8116C120.118 52.9092 120.092 51.0251 119.953 49.1602C119.793 46.9668 119.218 44.8792 118.444 42.8407C117.575 40.5528 116.749 38.2436 116.381 35.7826C116.355 35.6224 116.254 35.5288 116.135 35.4426C116.19 35.3708 116.258 35.3108 116.158 35.2296C116.047 35.3109 116.128 35.3745 116.173 35.4403C115.975 37.2133 116.155 38.9699 116.007 40.7399C115.896 41.9539 115.959 43.1698 115.905 44.3991C115.79 46.9512 115.246 49.4357 114.559 51.91C114.052 53.7637 113.589 55.6335 113.181 57.5062C112.484 60.7342 112.042 63.978 111.817 67.2524C111.661 69.5083 111.562 71.7546 111.5 73.9986C111.426 76.9217 111.483 79.8432 111.732 82.747C111.79 83.4778 111.86 84.208 111.917 84.9389C111.932 85.0998 112.032 85.1934 112.151 85.2796C112.04 85.3858 112.054 85.497 112.16 85.5964ZM139.471 69.0019C139.355 69.1396 139.12 69.2532 139.303 69.485C139.143 69.6066 139.101 69.7771 139.041 69.9674C138.158 72.6401 136.726 75.0222 134.844 77.12C132.354 79.8827 129.796 82.5686 127.262 85.2903C127.054 85.5144 126.808 85.7158 126.662 85.9735C125.936 87.1806 124.999 88.2511 124.242 89.4414C123.626 90.4055 122.916 91.3441 122.306 92.3016C121.599 93.4268 120.879 94.5527 120.233 95.7115C119.607 96.838 118.98 97.9646 118.347 99.0977C119.318 98.2306 120.252 97.3658 121.217 96.5425C121.444 96.3485 121.615 96.0644 121.868 95.9062C122.977 95.2175 123.879 94.2612 124.926 93.4891C126.003 92.6966 126.942 91.7131 128.013 90.9147C128.499 90.5558 128.879 90.0601 129.384 89.7685C130.248 89.2812 130.734 88.356 131.617 87.9236C132.83 86.5316 134.22 85.3159 135.258 83.7602C136.173 82.3861 136.952 80.9829 137.488 79.4386C138.336 77.0044 138.843 74.5097 139.188 71.9998C139.297 71.1905 139.585 70.3269 139.284 69.5048C139.413 69.3664 139.586 69.244 139.428 69.0232C139.471 68.9522 139.544 68.8855 139.438 68.811C139.346 68.885 139.409 68.9435 139.471 69.0019ZM68.0751 119.232C68.1439 119.283 68.219 119.341 68.2984 119.218C68.2107 119.149 68.1432 119.221 68.0818 119.275C67.9877 119.187 67.895 119.224 67.7838 119.268C65.9056 120.04 64.0594 120.891 62.2705 121.881C59.8401 123.234 57.637 124.934 55.478 126.7C54.8629 127.197 54.3483 127.813 53.7202 128.261C52.5872 129.076 51.6551 130.103 50.6477 131.047C49.2899 132.304 48.0642 133.722 46.8258 135.102C45.6731 136.391 44.4766 137.639 43.3931 139.004C42.1321 140.598 40.9277 142.257 39.4476 143.671C39.2019 143.91 38.9191 144.151 38.7319 144.629C40.9333 143.334 43.1704 142.465 45.331 141.415C47.4669 140.379 49.4254 139.004 51.164 137.388C53.0131 135.666 54.63 133.702 56.1907 131.711C56.2335 131.652 56.2824 131.587 56.3252 131.528C57.0582 130.451 57.7349 129.347 58.5179 128.304C59.1724 127.437 59.9585 126.681 60.5941 125.784C61.5171 124.49 62.9353 123.659 63.9585 122.446C64.7677 122.105 65.2496 121.336 65.9578 120.839C66.6722 120.336 67.4618 119.903 68.0751 119.232ZM163.779 156.197C163.981 155.954 163.879 155.687 163.833 155.459C163.503 153.662 163.34 151.836 163.333 149.994C163.313 147.661 163.22 145.346 163.393 143.008C163.501 141.533 163.646 140.068 163.86 138.605C164.056 137.262 164.32 135.92 164.591 134.572C165.009 132.475 165.482 130.381 166.13 128.326C167.125 125.142 168.027 121.933 169.222 118.812C170.151 116.392 170.956 113.929 171.941 111.536C173.102 108.741 173.909 105.874 174.454 102.935C174.864 100.745 174.983 98.5408 175.139 96.3347C175.16 96.0098 175.218 95.6703 175.053 95.369C175.059 95.3002 175.244 95.202 175.02 95.178C175.046 95.2387 175.065 95.3061 175.091 95.3668C175.005 95.4839 174.895 95.6025 174.84 95.724C174.423 96.7136 174.03 97.7141 173.6 98.692C172.729 100.686 171.751 102.642 170.617 104.502C169.696 106.02 168.814 107.573 167.743 109.012C166.82 110.256 166.059 111.627 165.211 112.928C164.161 114.547 163.18 116.193 162.311 117.919C161.036 120.447 159.997 123.048 159.288 125.773C158.669 128.162 158.416 130.573 158.3 133.001C158.204 135.042 158.412 137.058 158.695 139.045C159.179 142.426 160.034 145.723 161.069 148.953C161.595 150.602 162.172 152.235 162.792 153.847C163.092 154.645 163.331 155.483 163.822 156.188C163.767 156.26 163.706 156.338 163.831 156.405C163.898 156.32 163.836 156.262 163.779 156.197ZM165.093 57.3937C164.883 57.5307 164.867 57.7619 164.789 57.972C164.259 59.4723 163.736 60.9661 163.088 62.43C162.197 64.4187 161.194 66.3519 160.117 68.2522C158.978 70.2433 157.889 72.2562 156.794 74.2758C155.875 75.9675 154.969 77.6584 154.107 79.3778C153.226 81.1294 152.383 82.8913 151.558 84.6706C150.091 87.8327 148.817 91.064 147.692 94.3487C146.79 96.979 145.988 99.6408 145.36 102.354C144.809 104.733 144.357 107.131 144.061 109.539C143.845 111.332 143.678 113.134 143.505 114.93C143.472 115.306 143.52 115.682 143.531 116.148C143.85 115.843 143.859 115.531 143.943 115.265C144.352 114.033 144.754 112.808 145.325 111.629C146.314 109.56 147.44 107.557 148.691 105.634C149.845 103.853 151.085 102.13 152.339 100.418C153.177 99.2791 153.939 98.0947 154.715 96.9095C156.143 94.733 157.428 92.4842 158.588 90.1683C160.756 85.8379 162.544 81.3747 163.635 76.6794C164.547 72.7167 164.95 68.7222 165.055 64.7082C165.103 62.8944 165.077 61.0725 165.02 59.2588C165.001 58.6376 165.329 58.0206 165.062 57.4142C165.105 57.3432 165.185 57.27 165.072 57.202C164.967 57.2643 165.036 57.3287 165.093 57.3937ZM93.3942 137.245C93.4628 137.272 93.5575 137.422 93.5924 137.208C93.5244 137.231 93.4626 137.26 93.3946 137.282C93.295 137.251 93.1952 137.207 93.0958 137.201C91.5305 137.07 90.0194 136.794 88.6276 136.074C87.2358 135.355 86.1019 134.383 85.1941 133.093C84.3807 131.928 83.8825 130.639 83.5572 129.264C83.3489 128.381 83.2395 127.454 83.3472 126.52C83.6125 124.108 84.5004 121.883 85.6872 119.752C86.3628 118.536 87.0508 117.331 87.7326 116.12C87.6265 116.058 87.5638 116 87.5079 115.997C85.6072 115.849 83.6853 116.026 81.774 116.041C81.0479 116.041 80.3115 116.228 79.5735 116.278C77.8432 116.388 76.1342 116.739 74.4511 117.189C72.669 117.669 71.0084 118.471 69.3799 119.378C67.8194 120.249 66.3846 121.274 65.0386 122.469C64.4485 122.99 63.9343 123.643 63.287 124.036C62.0601 124.775 61.4156 125.996 60.6391 127.057C59.8503 128.131 59.0928 129.234 58.3354 130.338C57.8894 130.98 57.4123 131.619 56.9724 132.255C56.1599 133.43 55.3659 134.598 54.3781 135.634C53.7277 136.32 53.0713 137.013 52.4272 137.705C51.5562 138.641 50.49 139.32 49.4365 140.024C47.884 141.063 46.1472 141.709 44.4867 142.524C42.7274 143.382 40.8792 144.059 39.1834 145.05C38.579 145.397 37.9749 145.77 37.4273 146.207C36.4737 146.967 35.8837 148.054 35.168 149.012C34.8439 149.448 34.4652 150.006 34.6336 150.643C34.9364 151.098 35.3913 151.264 35.9016 151.395C38.1105 151.916 40.2289 152.686 42.3474 153.455C43.955 154.043 45.5991 154.567 47.2308 155.092C51.2602 156.376 55.4652 156.703 59.7223 156.685C62.1115 156.672 64.5045 156.442 66.8889 155.994C69.8307 155.439 72.6953 154.639 75.4619 153.39C76.5549 152.896 77.6547 152.444 78.1312 151.19C78.1673 151.088 78.2783 151.019 78.358 150.933C78.9161 150.321 79.3738 149.615 79.8195 148.948C80.5767 147.82 81.4968 146.831 82.3293 145.786C83.5597 144.225 85.0281 142.874 86.6346 141.663C87.9703 140.656 89.3253 139.716 90.743 138.835C91.5993 138.255 92.576 137.898 93.3942 137.245ZM113.183 97.409C111.127 88.104 110.503 78.7816 110.964 69.3135C110.887 69.0816 110.644 68.9904 110.549 68.8032C109.833 67.4209 108.846 66.254 107.705 65.2145C106.821 64.4148 106.029 63.4914 105.047 62.822C103.74 61.9232 102.36 61.1407 100.931 60.411C98.3034 59.056 95.5137 58.1898 92.6275 57.5908C89.3371 56.9102 85.9492 56.9636 82.5745 57.0908C81.1106 57.1535 79.636 57.3786 78.1807 57.6586C75.2079 58.2099 72.2942 59.0625 69.3805 59.9152C67.3885 60.4949 65.3964 61.0621 63.3518 61.3711C62.4472 61.5124 61.5303 61.6544 60.6528 61.9931C59.7628 62.3326 59.5004 62.7404 59.5171 63.6916C59.526 63.9462 59.5784 64.192 59.6494 64.4429C60.1093 66.2014 60.4082 67.9945 60.6947 69.7883C61.1601 72.6231 61.6814 75.4483 62.1592 78.2824C62.5043 80.3278 63.0042 82.3329 63.5286 84.324C64.2341 86.9765 64.9706 89.6208 66.2938 92.0123C67.3196 93.8801 68.3208 95.7618 69.6548 97.4369C70.2464 98.1856 70.8381 98.9468 71.4173 99.7087C72.1981 100.732 73.0649 101.676 73.95 102.6C75.0675 103.766 76.4237 104.637 77.7373 105.579C78.8069 106.342 79.9255 107.053 81.0923 107.624C84.1683 109.127 87.408 110.277 90.8729 111.022C91.2497 110.29 91.6199 109.527 92.0338 108.793C93.2879 106.565 94.0687 104.191 94.6314 101.736C95.046 99.9317 95.3488 98.1089 95.9874 96.3531C96.5058 94.953 97.1429 93.6267 98.2294 92.5348C99.3711 91.3837 100.743 90.8411 102.274 90.6686C103.179 90.5647 103.977 90.9028 104.793 91.1962C106.862 91.9437 108.699 93.066 110.438 94.3559C111.526 95.1371 112.228 96.2838 113.183 97.409ZM57.8384 124.063C62.2136 120.659 67.1498 118.615 72.2841 117.088C77.4925 115.532 82.794 115.109 88.1109 115.525C88.8727 114.253 89.6284 112.988 90.4208 111.672C90.01 111.559 89.6988 111.478 89.3876 111.397C87.3712 110.883 85.4028 110.217 83.4828 109.436C81.6689 108.704 79.9584 107.786 78.2962 106.753C76.8904 105.884 75.644 104.845 74.3363 103.872C73.5417 103.278 72.8878 102.508 72.2338 101.726C71.4603 100.795 70.6992 99.8637 69.9256 98.9329C68.6993 97.4567 67.633 95.859 66.6716 94.2113C64.9197 91.2108 63.6616 87.9691 62.8793 84.5309C62.651 83.5177 62.3484 82.5215 62.1025 81.6027C61.8398 81.4193 61.6544 81.4926 61.4742 81.4723C60.9091 81.4376 60.3775 81.6312 59.8324 81.7261C58.1973 82.0231 56.5687 82.3508 55.0181 82.9974C52.5963 84.0011 50.2758 85.1854 48.0197 86.5775C45.8129 87.9417 43.4098 88.9505 41.0124 89.9154C39.7767 90.4125 38.5412 90.9345 37.3943 91.6129C36.6852 92.035 35.7021 92.3614 35.6775 93.5204C35.7553 93.8269 35.8705 94.1436 36.0788 94.461C36.4638 95.054 36.8734 95.6207 37.1477 96.2951C38.3525 99.2039 39.5758 102.105 40.8299 104.986C42.2686 108.286 43.7937 111.543 45.7876 114.535C46.5132 115.63 47.3131 116.696 48.2663 117.598C49.3323 118.604 50.3677 119.644 51.5995 120.485C52.8062 121.303 53.9701 122.179 55.2499 122.868C56.0986 123.302 56.9294 123.794 57.8384 124.063ZM165.636 163.124C165.414 162.117 164.952 161.267 164.601 160.373C163.739 158.166 162.815 155.987 161.99 153.765C160.929 150.928 159.991 148.047 159.239 145.105C158.519 142.254 157.929 139.365 157.716 136.409C157.534 133.912 157.568 131.383 157.969 128.876C158.445 125.885 159.351 122.987 160.548 120.165C161.97 116.813 163.866 113.718 165.881 110.685C166.803 109.292 167.719 107.893 168.615 106.489C170.123 104.14 171.468 101.726 172.675 99.2203C173.349 97.8171 174.003 96.384 174.434 94.9144C175.003 92.9948 174.907 91.0216 174.65 89.0829C174.406 87.2802 173.878 85.5444 173.338 83.8218C172.354 80.6882 171.451 77.5311 170.572 74.3601C169.732 71.3236 169.078 68.2512 168.492 65.1436C167.82 61.6365 167.304 58.114 166.973 54.543C166.937 54.1158 166.913 53.638 166.51 53.1021C166.325 53.7417 166.125 54.183 166.074 54.6404C165.939 55.9304 165.817 57.2197 165.8 58.5089C165.757 61.3617 165.894 64.21 165.708 67.0651C165.623 68.3895 165.544 69.7197 165.373 71.0368C165.063 73.4077 164.624 75.7677 164.004 78.1073C163.42 80.3328 162.712 82.516 161.866 84.6575C160.942 86.9967 159.919 89.2921 158.72 91.5108C157.911 93.0092 157.109 94.5134 156.169 95.9387C155.595 96.807 155.14 97.749 154.522 98.5763C153.874 99.449 153.344 100.396 152.677 101.238C152.156 101.885 151.673 102.555 151.222 103.23C150.33 104.552 149.401 105.853 148.566 107.216C146.92 109.928 145.429 112.687 144.519 115.716C143.897 117.794 143.454 119.843 143.664 122.021C143.839 123.884 144.052 125.72 144.395 127.554C144.922 130.347 145.801 133.014 147.057 135.516C147.914 137.226 148.795 138.934 149.855 140.538C151.325 142.747 152.691 145.042 154.21 147.21C155.459 148.978 156.725 150.738 158.041 152.458C159.288 154.088 160.374 155.84 161.486 157.566C162.464 159.094 163.597 160.508 164.68 161.949C164.97 162.342 165.118 162.875 165.636 163.124ZM107.285 129.998C108.02 129.157 108.528 128.511 109.036 127.864C110.175 126.415 111.045 124.838 111.883 123.22C113.093 120.888 113.879 118.433 114.509 115.918C115.306 112.759 115.744 109.609 115.472 106.389C115.281 104.179 114.854 102.057 113.914 100.097C113.012 98.2221 111.876 96.4977 110.316 95.1038C109.833 94.6784 109.296 94.3247 108.795 93.9315C107.243 92.7299 105.46 92.04 103.587 91.5484C101.832 91.0809 100.046 91.779 98.8019 93.2411C97.7111 94.5137 96.9759 95.9454 96.478 97.5123C95.992 99.0412 95.6739 100.591 95.2874 102.139C94.8835 103.794 94.4235 105.42 93.7457 107.004C92.4144 110.108 90.4651 112.882 88.7778 115.79C87.5839 117.84 86.3461 119.85 85.3457 122.007C84.5152 123.805 84.0575 125.644 84.1035 127.583C84.1529 129.82 84.9561 131.763 86.3024 133.425C87.4536 134.844 89.0331 135.701 90.8314 136.135C93.476 136.78 96.1107 136.516 98.7382 135.606C102.132 134.426 104.946 132.335 107.285 129.998ZM116.702 31.0835C116.462 31.2659 116.358 31.4153 116.354 31.6209C116.354 32.1748 116.304 32.744 116.379 33.281C116.749 35.9286 117.583 38.4053 118.812 40.7339C120.168 43.3038 121.364 45.9332 121.633 48.9416C121.839 51.3003 121.777 53.6438 121.35 56.0031C120.859 58.7333 120.006 61.3732 119.086 64.0109C118.033 67.0174 116.73 69.9269 115.602 72.9006C115.132 74.1485 114.606 75.3935 114.278 76.6639C113.463 79.8305 112.889 83.0387 112.733 86.2779C112.595 89.0554 112.805 91.7997 113.344 94.5056C113.705 96.3199 114.184 98.096 114.712 99.8566C115.047 100.982 115.413 102.099 115.76 103.21C115.934 103.175 115.964 103.08 116 102.966C116.575 101.089 117.443 99.3385 118.399 97.6073C119.397 95.7927 120.488 94.0284 121.573 92.2583C122.659 90.4883 123.856 88.7861 125.035 87.0789C125.842 85.9229 126.736 84.7866 127.742 83.7556C129.7 81.7404 131.557 79.6317 133.508 77.6106C134.957 76.1175 136.186 74.482 137.172 72.6681C138.449 70.3264 139.21 67.8476 138.971 65.2233C138.879 64.2393 138.837 63.2523 138.684 62.272C138.283 59.6698 137.542 57.2062 136.424 54.8585C135.497 52.9226 134.459 51.0804 133.168 49.384C132.545 48.5563 131.903 47.7608 131.255 46.9594C130.299 45.7969 129.319 44.6731 128.252 43.6168C126.765 42.1562 125.205 40.7746 123.571 39.4722C122.137 38.332 120.814 37.0607 119.687 35.591C119.303 35.0851 118.925 34.5725 118.571 34.0335C117.94 33.088 117.34 32.0971 116.702 31.0835ZM97.0276 136.941C95.8106 138.022 95.0656 139.124 94.3959 140.309C93.8601 141.25 93.5113 142.266 93.0627 143.239C91.7775 146.029 90.642 148.873 89.0886 151.536C88.4489 152.626 87.8404 153.733 86.9757 154.674C86.0743 155.668 85.1854 156.673 84.2589 157.644C83.2159 158.739 82.022 159.657 80.8338 160.531C79.3748 161.607 77.9599 162.75 76.4567 163.761C75.2616 164.567 74.1168 165.444 72.9596 166.31C72.1839 166.879 71.3707 167.426 70.6703 168.078C69.7857 168.902 68.9203 169.782 68.1985 170.746C67.2014 172.069 66.3045 173.473 66.9755 175.244C67.1758 175.394 67.3032 175.697 67.7875 175.718C68.1335 175.573 68.609 175.364 69.0848 175.167C70.3077 174.634 71.5114 174.045 72.7537 173.579C74.5586 172.911 76.3953 172.322 78.2132 171.715C80.2537 171.033 82.2882 170.37 84.3225 169.682C85.726 169.206 87.1105 168.687 88.4501 168.041C90.1786 167.203 91.8503 166.275 93.4013 165.1C94.5584 164.221 95.7281 163.355 96.7406 162.305C97.6732 161.328 98.5933 160.339 99.3941 159.227C100.274 158.017 101.118 156.797 101.804 155.48C103.913 151.402 104.952 147.077 105.132 142.579C105.214 140.427 105.085 138.288 104.888 136.159C104.804 135.28 104.738 134.357 104.331 133.473C102.022 135.111 99.5077 136.164 97.0276 136.941ZM140.451 64.4004C140.388 64.8958 140.299 65.2932 140.279 65.7051C140.168 68.0268 140.045 70.3492 139.735 72.6703C139.356 75.4934 138.934 78.3004 137.921 81.0121C137.167 83.0423 136.152 84.9265 134.674 86.5645C133.742 87.6035 132.646 88.4407 131.564 89.3021C130.192 90.3861 128.731 91.3385 127.359 92.4225C126.375 93.2033 125.384 93.9906 124.4 94.7839C123.791 95.2746 123.182 95.7778 122.592 96.286C121.657 97.0887 120.691 97.8498 119.826 98.7292C119.322 99.2323 118.932 99.8406 118.491 100.39C117.756 101.305 117.165 102.28 116.724 103.346C116.312 104.329 115.852 105.315 116.187 106.427C116.302 106.794 116.233 107.233 116.237 107.644C116.237 108.739 116.23 109.841 116.23 110.961C118.023 110.91 119.75 110.502 121.458 110.039C123.06 109.6 124.631 109.071 126.143 108.327C127.865 107.483 129.537 106.531 131.101 105.392C131.944 104.775 132.744 104.117 133.549 103.453C134.62 102.568 135.64 101.648 136.634 100.68C137.445 99.8967 138.118 98.9853 138.828 98.1089C139.679 97.056 140.474 95.9629 141.144 94.8151C142.271 92.8994 143.236 90.9063 144.02 88.8182C144.997 86.2331 145.421 83.5878 145.447 80.8916C145.48 78.1888 144.98 75.5801 144.374 72.9839C143.879 70.8603 143.211 68.8093 142.302 66.8536C141.877 65.9394 141.414 65.0398 140.451 64.4004ZM57.1861 124.563C53.9226 122.947 50.9299 121.116 48.4081 118.653C45.88 116.172 44.0352 113.196 42.5416 109.981C42.2007 110.02 41.9274 109.999 41.6926 110.088C40.2403 110.654 38.7626 111.159 37.3675 111.84C34.0528 113.476 30.7571 115.142 27.4105 116.698C26.7066 117.027 26.0345 117.422 25.4442 117.93C24.5773 118.673 24.724 119.597 25.6107 120.092C28.1582 121.508 30.8331 122.648 33.6776 123.418C36.6218 124.219 39.4203 125.315 42.0074 126.94C43.4509 127.843 44.8637 128.779 46.2765 129.715C47.2392 130.354 48.1782 131.095 49.4152 131.276C51.8976 129.011 54.3293 126.651 57.1861 124.563ZM111.066 68.4237C111.34 62.8562 112.319 57.5516 113.758 52.4309C113.312 51.3499 112.505 50.7323 111.777 50.0415C111.232 49.5203 110.607 49.1096 110.006 48.6601C109.067 47.9571 108.092 47.2811 107.092 46.6812C104.406 45.0746 101.453 43.9942 98.4569 43.0346C96.6509 42.4581 94.8811 41.7923 93.1294 41.0819C91.9201 40.5941 90.6925 40.1386 89.2403 39.5721C90.2888 40.6731 91.2165 41.5137 92.0336 42.4605C93.0582 43.6501 94.0211 44.8682 94.9596 46.1251C96.1751 47.7513 97.1872 49.4955 98.1808 51.2595C99.567 53.7342 100.867 56.264 102.463 58.6142C103.377 59.9473 104.328 61.2283 105.526 62.308C106.491 63.1837 107.475 64.0397 108.378 64.9689C108.975 65.5742 109.46 66.2857 109.983 66.9576C110.329 67.4037 110.644 67.8578 111.066 68.4237ZM69.0015 168.7C69.2124 168.688 69.2978 168.558 69.4021 168.446C70.2606 167.498 71.3455 166.824 72.3423 166.042C73.4499 165.179 74.6141 164.382 75.7407 163.549C76.5409 162.953 77.3221 162.315 78.1412 161.737C79.2619 160.936 80.2882 160.009 81.3272 159.12C82.0097 158.537 82.51 157.748 83.3117 157.289C83.4659 157.199 83.6316 157.034 83.6858 156.875C83.9146 156.239 84.4503 155.852 84.8546 155.368C85.0751 155.105 85.3583 154.889 85.5288 154.593C86.3089 153.289 87.1828 152.048 87.9941 150.761C89.2201 148.815 90.3402 146.819 91.3978 144.789C92.0483 143.549 92.5613 142.23 93.2493 141.013C94.004 139.661 94.771 138.295 95.8688 137.103C95.7508 137.092 95.7135 137.081 95.6888 137.095C93.767 137.851 91.9342 138.801 90.1526 139.885C88.1736 141.092 86.4274 142.578 84.694 144.101C83.1881 145.429 82.1773 147.207 80.7655 148.624C80.7164 148.676 80.6549 148.73 80.6247 148.8C79.937 150.042 79.0117 151.124 78.1989 152.275C77.3189 153.522 76.464 154.793 75.6838 156.084C74.6172 157.859 73.7129 159.725 72.7961 161.578C72.1403 162.899 71.5033 164.238 70.7352 165.504C70.1259 166.536 69.5855 167.62 69.0015 168.7ZM102.334 60.4266C102.387 60.1808 102.385 60.0191 102.285 59.9131C101.632 59.2427 101.213 58.4089 100.764 57.6081C98.8396 54.1761 97.1497 50.6055 95.0034 47.2987C93.9807 45.717 92.8348 44.2173 91.603 42.8099C90.6792 41.7512 89.5893 40.8332 88.5303 39.907C87.6468 39.1322 86.6175 38.6524 85.3301 38.9659C85.1891 39.1175 85.0418 39.2756 84.913 39.414C84.7894 40.0251 84.9937 40.548 85.1173 41.0696C85.6752 43.2765 86.3939 45.4366 86.8158 47.689C87.2706 50.1199 87.9728 52.4738 88.8482 54.7676C89.0847 55.3944 89.2905 56.0542 89.7057 56.5646C93.2072 56.6911 99.3282 58.559 102.334 60.4266ZM49.6257 67.7496C49.8599 69.864 50.5084 71.8477 51.1693 73.8307C52.1702 76.8202 53.4488 79.6748 55.1777 82.2722C57.4043 81.5789 59.607 80.9741 62.0084 80.9487C60.9355 75.9099 60.1977 70.8759 59.3427 65.905C56.2345 65.4313 53.293 66.0118 50.4169 66.8995C50.1593 67.1763 49.9508 67.4004 49.6257 67.7496ZM105.812 142.881C106.698 142.143 107.468 141.631 108.099 140.914C108.406 140.56 108.531 140.136 108.838 139.794C110.058 138.457 110.904 136.882 111.649 135.275C113.438 131.453 114.282 127.463 114.026 123.322C114.011 123.074 113.94 122.823 113.893 122.57C113.847 122.318 113.925 122.033 113.754 121.763C111.537 126.196 108.644 129.998 104.892 133.085C105.932 136.234 105.7 139.465 105.812 142.881ZM26.328 120.995C26.5183 121.369 26.5832 121.627 26.7465 121.804C27.7256 122.803 28.8152 123.696 29.6468 124.829C29.9176 125.192 30.3836 125.245 30.7095 125.537C31.4241 126.179 32.1631 126.794 32.9452 127.376C34.1403 128.269 35.366 129.117 36.671 129.842C39.6806 131.516 42.8409 132.777 46.3633 133.108C46.8416 133.147 47.3015 133.207 47.6791 133.116C48.0962 132.668 48.4519 132.286 48.8936 131.811C48.0723 131.624 47.4167 131.259 46.8165 130.859C45.2536 129.82 43.709 128.748 42.1156 127.755C40.4598 126.727 38.7492 125.797 36.8927 125.149C34.9676 124.473 33.0066 123.912 31.0755 123.256C29.4622 122.712 27.9336 121.963 26.328 120.995ZM88.0876 54.4522C87.3336 54.1674 86.6042 53.8688 85.863 53.6207C82.9042 52.6215 79.8273 52.1771 76.6629 52.2295C76.0361 52.2359 75.4034 52.2613 74.7776 52.3547C73.2781 52.5689 71.7853 52.8262 70.2984 53.0645C69.7037 53.1624 69.1151 53.2536 68.4106 53.5198C68.6284 53.5752 68.6908 53.6088 68.7467 53.6117C71.4972 53.7272 73.8238 54.8015 75.8962 56.4635C76.297 56.788 76.7091 57.0248 77.2015 57.2131C78.6244 56.8044 80.0938 56.6729 81.5566 56.5107C83.5401 56.2925 85.5263 56.3106 87.5071 56.4099C87.9231 56.4285 88.3643 56.483 88.8583 56.2543C88.4922 55.6913 88.3244 55.1039 88.0876 54.4522ZM67.7025 59.7044C70.3 58.8769 72.8992 58.2111 75.4982 57.5204C75.4007 57.1217 75.1502 56.9127 74.9073 56.8339C74.4401 56.6689 74.1505 56.3004 73.7692 56.0432C72.6187 55.2656 71.4442 54.5518 70.0084 54.3452C68.4793 54.1255 66.9461 54.099 65.4035 54.3469C65.1271 54.6061 64.8256 54.842 64.6128 55.2468C64.9809 57.129 66.261 58.4091 67.7025 59.7044ZM118.05 99.7814C118.217 99.7651 118.309 99.6663 118.314 99.498C118.146 99.5142 118.073 99.6182 118.05 99.7814Z" fill="#FEFBF7"/>
<path d="M166.37 63.0281C167.038 62.3097 167.541 61.7692 168.044 61.2288C167.727 62.2872 167.184 63.1723 166.417 63.9215C166.334 64.2999 166.301 64.6504 166.479 65.0754C167.017 64.3337 167.449 63.5672 168.17 63.0448C168.297 63.3235 168.151 63.5564 168.017 63.7884C167.73 64.2724 167.519 64.8389 167.132 65.2293C166.07 66.3073 166.382 67.5459 166.316 68.9501C167.374 68.0279 168.302 67.2193 169.249 66.3909C169.191 67.3591 168.217 68.4568 166.275 69.7368C166.044 72.3895 165.72 75.1163 165.322 77.9221C167.29 76.7899 168.768 75.1766 170.699 74.0839C170.81 74.6436 170.471 74.8817 170.207 75.0905C168.755 76.2354 167.353 77.452 165.774 78.4054C165.411 78.6201 165.128 78.8984 165.052 79.3573C164.632 81.7848 164.081 84.2015 163.443 86.5985C163.749 86.7607 163.946 86.5622 164.162 86.4435C166.802 84.9909 169.348 83.3759 171.603 81.3303C171.954 81.0168 172.329 80.6894 172.83 80.5287C172.982 80.8681 172.748 81.0439 172.583 81.2219C171.301 82.6367 169.768 83.7305 168.196 84.7768C166.631 85.8289 165.022 86.8027 163.241 87.4321C162.547 89.7267 161.87 91.9767 161.133 94.392C162.08 94.1922 162.91 94.0305 163.727 93.8322C167.274 92.9665 170.578 91.4555 173.704 89.4947C174.301 89.1166 174.301 89.1042 174.903 89.0495C174.795 89.4542 174.468 89.6294 174.154 89.8411C170.408 92.3806 166.381 94.1278 161.995 94.9504C161.741 94.9967 161.481 95.0371 161.234 95.1142C160.931 95.2008 160.937 95.2191 160.641 95.9774C163.343 95.5917 165.905 94.8533 168.401 93.8824C170.88 92.9187 173.079 91.4116 175.411 90.1144C175.249 90.6656 174.799 90.9353 174.393 91.221C170.216 94.1223 165.668 95.9628 160.69 96.491C160.616 96.4955 160.548 96.5307 160.375 96.5784C159.647 98.7567 158.908 100.985 158.109 103.392C160.872 102.903 163.442 102.407 165.972 101.627C168.502 100.847 170.886 99.7085 173.268 98.5079C172.994 98.9911 172.613 99.3375 172.157 99.6138C169.395 101.335 166.377 102.325 163.288 103.076C161.549 103.497 159.783 103.771 157.942 104.024C157.36 105.796 156.877 107.598 156.42 109.537C159.132 108.939 161.687 108.169 164.196 107.16C166.705 106.151 169.049 104.829 171.316 103.299C171.171 103.693 170.92 103.964 170.599 104.182C170.285 104.394 170.002 104.647 169.694 104.865C165.801 107.55 161.531 109.206 156.965 110.02C156.748 110.065 156.531 110.084 156.265 110.131C156.094 110.944 155.929 111.738 155.746 112.627C160.277 112.038 164.31 110.247 168.305 108.309C166.553 109.876 164.459 110.804 162.333 111.666C160.195 112.528 157.985 113.065 155.741 113.274C155.29 114.639 154.725 119.16 154.735 121.189C154.979 121.392 155.219 121.185 155.442 121.109C157.006 120.598 158.571 120.063 160.091 119.412C160.541 119.217 160.993 119.034 161.601 119.01C160.574 119.962 159.4 120.381 158.244 120.817C157.088 121.253 155.9 121.598 154.632 122.016C154.515 124.886 154.552 127.766 154.783 130.69C156.146 130.446 157.19 129.487 158.672 129.281C157.486 130.366 156.169 130.862 154.934 131.459C154.875 131.723 154.908 131.939 155.016 132.151C155.122 132.151 155.252 132.186 155.339 132.144C156.284 131.695 157.183 131.119 158.298 130.878C157.82 131.441 157.265 131.761 156.716 132.074C156.192 132.373 155.661 132.654 155.13 132.947C155.139 134.863 156.443 141.127 157.259 143.132C157.902 142.87 158.318 142.309 158.859 141.879C158.924 142.174 158.765 142.407 158.644 142.626C158.498 142.884 158.264 143.097 158.068 143.333C157.878 143.562 157.676 143.792 157.468 144.041C159.642 151.609 163.248 158.458 166.935 165.282C166.352 165.28 166.13 164.901 165.903 164.504C164.353 161.889 162.946 159.185 161.588 156.466C160.566 154.417 159.631 152.326 158.813 150.184C158.628 149.691 158.351 149.347 157.889 149.063C156.008 147.912 154.213 146.644 152.613 145.115C152.086 144.612 151.615 144.086 151.278 143.341C152.387 144.264 153.513 145.055 154.559 145.945C155.567 146.8 156.699 147.51 157.75 148.269C157.861 148.2 157.898 148.185 157.922 148.159C157.947 148.132 157.965 148.088 157.958 148.069C157.193 145.595 156.353 143.137 155.761 140.626C152.601 138.874 149.797 136.751 147.275 134.251C146.735 133.711 146.331 133.063 145.84 132.494C145.734 132.37 145.731 132.159 145.747 131.94C147.149 133.518 148.703 134.906 150.368 136.188C151.983 137.436 153.641 138.6 155.415 139.689C155.457 139.518 155.475 139.486 155.468 139.455C155.054 137.345 155.024 137.391 153.211 136.217C151.886 135.35 150.579 134.439 149.382 133.397C148.78 132.872 148.142 132.388 147.571 131.856C146.524 130.879 145.471 129.884 144.792 128.561C147.841 131.541 151.147 134.181 154.84 136.505C154.33 133.517 153.988 130.6 153.862 127.664C150.667 126.063 147.987 123.895 145.564 121.401C144.886 120.708 144.257 119.961 143.752 119.12C143.638 118.928 143.549 118.746 143.67 118.478C144.163 118.766 144.522 119.174 144.874 119.576C146.527 121.499 148.364 123.213 150.41 124.727C151.312 125.396 152.267 125.967 153.181 126.609C153.362 126.742 153.555 126.836 153.803 126.771C153.886 126.443 153.864 126.114 153.786 125.77C151.207 124.362 148.934 122.55 146.882 120.451C145.953 119.499 145.042 118.526 144.285 117.414C144.159 117.222 144.058 117.054 144.129 116.739C144.66 117.062 145.08 117.466 145.426 117.899C146.71 119.528 148.307 120.833 149.8 122.25C150.96 123.344 152.31 124.172 153.736 125.145C153.922 124.026 153.793 123.006 153.919 122.016C153.36 121.408 152.637 121.128 152.018 120.71C150.192 119.475 148.378 118.227 146.846 116.638C146.149 115.914 145.434 115.198 144.928 114.307C144.82 114.108 144.706 113.928 144.816 113.685C145.068 113.502 145.212 113.661 145.351 113.84C146.182 114.935 147.075 115.965 148.097 116.893C149.57 118.23 151.19 119.372 152.84 120.468C153.159 120.679 153.405 121.019 153.94 121.124C154.177 118.403 154.44 115.742 154.926 113.13C152.59 111.185 150.211 109.36 148.662 106.721C148.567 106.558 148.416 106.343 148.667 106.036C149.536 106.575 149.845 107.615 150.559 108.269C151.306 108.953 151.788 109.895 152.626 110.479C153.451 111.052 154.203 111.729 155.049 112.432C155.625 109.447 156.369 106.621 157.239 103.836C155.976 102.399 154.399 101.274 153.715 99.4167C154.116 99.1624 154.31 99.3189 154.443 99.5536C155.012 100.578 155.896 101.34 156.57 102.277C156.772 102.563 157.005 102.854 157.49 102.95C158.343 100.384 159.197 97.8314 160.05 95.2784C159.612 94.3399 158.503 94.0079 158.231 92.991C158.212 92.9113 158.304 92.8 158.358 92.6536C159.218 93.0005 159.588 93.8372 160.19 94.436C160.478 94.1138 160.555 93.8042 160.57 93.3988C159.652 92.9371 158.961 92.2067 158.439 91.0181C159.555 91.4555 160.036 92.3229 160.77 92.9823C161.455 90.9372 162.079 88.9456 162.566 86.9497C162.129 86.173 161.385 85.6263 161.416 84.5726C162.268 84.6523 162.203 85.5773 162.84 85.9251C162.977 85.4127 163.133 84.9304 163.246 84.4444C164.913 77.4051 165.829 70.3174 165.645 63.1524C165.571 60.4121 165.585 57.6666 165.784 54.91C165.833 54.266 166.069 53.6731 166.279 53.0692C166.352 52.8533 166.486 52.671 166.747 52.6802C167.017 52.9566 166.734 53.1852 166.655 53.3953C166.276 54.4325 166.076 55.4775 166.144 56.5751C166.251 58.4234 166.284 60.2761 166.354 62.1266C166.325 62.3337 166.346 62.5503 166.37 63.0281Z" fill="#FEFBF7"/>
<path d="M104.124 148.757C103.526 149.689 103.059 150.67 102.417 151.561C101.566 152.726 100.66 153.827 99.6402 154.846C98.3015 156.196 96.8995 157.438 95.3152 158.485C92.6828 160.217 89.8147 161.422 86.9017 162.511C86.8151 162.541 86.7094 162.528 86.5853 162.536C86.7671 162.139 87.1522 162.141 87.4427 162.017C89.8966 160.981 92.2998 159.848 94.569 158.405C97.1528 156.763 99.3465 154.683 101.233 152.304C103.296 149.709 104.617 146.778 104.903 143.473C104.919 143.254 104.972 143.033 105.001 142.813C105.024 142.637 105.04 142.456 105.063 142.255C105.312 142.315 105.239 142.494 105.241 142.606C105.264 146.285 104.677 149.863 102.92 153.237C101.716 155.551 99.9925 157.441 98.043 159.157C94.9498 161.876 91.3107 163.556 87.6084 165.14C83.4673 166.919 79.3518 168.758 75.2172 170.554C74.5497 170.843 73.9018 171.224 73.1124 171.165C74.6749 170.381 76.2309 169.579 77.8123 168.824C81.7472 166.94 85.7524 165.232 89.7575 163.511C92.4955 162.333 95.1002 160.896 97.3886 158.953C100.631 156.201 103.14 152.938 104.124 148.757Z" fill="#FEFBF7"/>
<path d="M79.5324 112.744C77.1604 112.008 74.9006 111.316 72.653 110.61C66.7509 108.76 60.8489 106.922 54.9588 105.033C50.2766 103.533 45.788 101.599 41.5666 99.1381C39.7931 98.0992 38.0988 96.9373 36.5757 95.5413C36.4503 95.4243 36.3309 95.2884 36.1112 95.0589C37.1564 95.32 37.7903 95.9728 38.503 96.4653C43.1673 99.6959 48.2929 102.016 53.6674 103.841C60.1753 106.047 66.7313 108.114 73.251 110.269C75.1814 110.901 77.0878 111.621 79 112.297C79.1806 112.355 79.367 112.381 79.5324 112.744Z" fill="#FEFBF7"/>
<path d="M61.4872 64.0893C61.6901 63.9469 61.8336 64.0192 61.94 64.1062C63.3605 65.2222 64.9637 66.0664 66.5241 66.9566C69.9947 68.9527 73.4043 71.0394 76.8018 73.1517C79.25 74.6734 81.6678 76.2404 84.0489 77.8592C86.1364 79.2779 88.1872 80.7484 90.2258 82.232C93.8964 84.8939 97.0959 88.0745 100.357 91.2018C100.382 91.2252 100.388 91.2683 100.414 91.3041C100.104 91.3099 99.9831 91.0622 99.8076 90.8985C98.0139 89.1642 96.0428 87.6206 94.1331 86.0237C92.6993 84.8338 91.2162 83.6718 89.654 82.6325C88.098 81.5866 86.6091 80.4559 85.0653 79.3969C83.4027 78.2516 81.7402 77.1187 80.041 76.0253C77.7671 74.568 75.4812 73.1362 73.183 71.7175C70.7973 70.2419 68.3872 68.7925 65.9831 67.3366C64.6532 66.5384 63.3903 65.6431 62.1335 64.7412C61.8711 64.5702 61.6085 64.3868 61.4872 64.0893Z" fill="#FEFBF7"/>
<path d="M125.401 86.9139C125.444 86.3015 125.774 85.8585 126.042 85.4193C128.097 82.0414 129.038 78.3754 129.405 74.5446C129.807 70.4255 129.409 66.3853 128.553 62.4224C127.311 56.7212 125.661 51.1441 123.622 45.7085C123.175 44.5154 122.536 43.4148 122.15 42.1807C122.422 42.0897 122.468 42.2924 122.531 42.4255C125.865 49.3022 128.061 56.5954 129.515 64.1572C130.371 68.5994 130.463 73.1059 129.594 77.6513C129.166 79.8988 128.563 82.1068 127.332 84.1098C126.746 85.0535 126.211 86.044 125.401 86.9139Z" fill="#FEFBF7"/>
<path d="M89.7049 135.956C87.7284 136.292 85.9994 136.551 84.2837 136.897C78.2573 138.11 72.251 139.465 66.2511 140.839C61.4153 141.944 56.5598 142.956 51.7635 144.27C50.1791 144.701 48.614 145.187 47.0176 145.656C47.0249 145.182 47.4171 145.29 47.6273 145.215C51.3808 143.901 55.193 142.851 59.0438 141.924C66.083 140.226 73.1353 138.591 80.2207 137.146C82.9211 136.598 85.6344 136.1 88.3692 135.855C88.7288 135.821 89.0941 135.731 89.7049 135.956Z" fill="#FEFBF7"/>
<path d="M85.0542 68.7678C86.9554 69.6944 88.582 70.9539 90.251 72.1301C91.1948 72.7895 92.029 73.6043 92.9789 74.2572C94.2662 75.1388 95.3947 76.2036 96.5965 77.1772C98.4179 78.6552 100.166 80.2243 101.713 82.0102C101.832 82.1461 101.939 82.2952 102.071 82.418C103.832 84.0733 105.361 85.941 106.884 87.8276C108.432 89.7377 109.821 91.744 111.012 93.8984C111.259 94.3375 111.494 94.7897 111.711 95.2492C111.819 95.4727 111.933 95.7145 111.77 96.0408C111.402 95.82 111.279 95.4234 111.096 95.1048C109.663 92.542 107.979 90.1616 106.136 87.9023C104.902 86.3963 103.584 84.9699 102.264 83.531C100.16 81.2248 97.8541 79.1477 95.5298 77.0903C94.2956 76.0005 93.0122 74.9385 91.6801 73.9414C90.7607 73.2558 89.8289 72.5584 88.9461 71.821C88.1134 71.1302 87.2199 70.53 86.3567 69.8722C85.9185 69.5126 85.4924 69.1274 85.0542 68.7678Z" fill="#FEFBF7"/>
<path d="M115.638 111.576C113.003 103.874 107.885 98.9285 99.9895 97.0671C99.9919 96.7247 100.192 96.8248 100.303 96.8057C100.452 96.7843 100.595 96.8069 100.744 96.8353C102.864 97.1628 104.875 97.7955 106.668 98.9141C108.049 99.7712 109.381 100.706 110.523 101.87C112.927 104.321 114.905 107.04 115.725 110.5C115.745 110.605 115.808 110.701 115.884 110.883C118.871 107.662 121.008 103.943 123.231 100.083C122.574 102.979 118.71 109.407 115.638 111.576Z" fill="#FEFBF7"/>
<path d="M55.4319 103.455C55.9135 103.24 56.1197 103.371 56.3188 103.421C64.7637 105.698 73.1242 108.204 81.3224 111.174C83.5775 111.985 85.7598 112.95 87.8815 114.042C88.3869 114.305 88.8743 114.612 89.3433 114.938C88.697 114.852 88.093 114.658 87.5132 114.4C83.1229 112.398 78.497 110.963 73.9377 109.381C68.3071 107.428 62.538 105.862 56.8896 103.978C56.4536 103.83 56.0299 103.668 55.4319 103.455Z" fill="#FEFBF7"/>
<path d="M68.7446 169.139C69.4942 168.421 70.2589 167.94 71.0112 167.459C74.8035 165.048 78.7482 162.939 82.8713 161.217C85.5726 160.091 88.2737 158.953 90.7711 157.366C93.176 155.84 95.392 154.077 97.2179 151.875C98.3025 150.572 99.3555 149.226 100.277 147.795C100.704 147.134 101.201 146.513 101.709 145.904C101.453 146.859 100.891 147.665 100.34 148.445C99.2523 149.992 98.1455 151.521 96.9008 152.947C94.019 156.244 90.4991 158.578 86.5687 160.306C83.1635 161.798 79.7071 163.156 76.4104 164.909C74.0892 166.143 71.7808 167.414 69.5926 168.883C69.3583 169.034 69.1742 169.231 68.7446 169.139Z" fill="#FEFBF7"/>
<path d="M125.294 55.2815C127.093 60.3089 128 65.5266 127.719 70.9648C127.581 73.6806 127.43 76.3848 126.938 79.0782C126.083 83.7727 124.3 88.1306 121.688 92.1834C121.627 92.2741 121.528 92.3423 121.313 92.5357C121.653 91.8182 121.919 91.2421 122.193 90.6718C122.49 90.0627 122.794 89.4594 123.091 88.8503C125.282 84.3061 126.534 79.5506 126.864 74.5887C127.083 71.2829 127.264 67.9794 126.949 64.6932C126.725 62.3787 126.371 60.0907 125.843 57.8379C125.635 56.9914 125.471 56.1361 125.294 55.2815Z" fill="#FEFBF7"/>
<path d="M47.8184 139.979C48.6292 139.762 49.267 139.618 49.8856 139.42C52.1003 138.714 54.2446 137.821 56.3823 136.896C60.0338 135.314 63.666 133.678 67.4134 132.358C71.1053 131.06 74.8827 130.212 78.7064 129.616C79.2269 129.535 79.7606 129.516 80.3024 129.676C79.1939 129.923 78.0859 130.207 76.977 130.417C71.7176 131.422 66.6714 133.193 61.7223 135.313C58.6514 136.623 55.5998 138.001 52.4713 139.147C51.4511 139.525 50.4245 139.873 49.3591 140.086C48.9008 140.188 48.4366 140.309 47.8184 139.979Z" fill="#FEFBF7"/>
<path d="M121.033 36.7196C121.701 37.0343 121.955 37.6413 122.296 38.1188C124.249 40.8395 126.092 43.6414 127.596 46.6565C130.826 53.165 132.342 60.0933 131.741 67.5463C131.66 68.5779 131.652 69.6175 131.434 70.6697C131.086 70.5785 131.232 70.3084 131.236 70.1402C131.26 68.8818 131.289 67.6169 131.35 66.3564C131.601 60.9652 130.527 55.8648 128.747 50.9185C127.525 47.5133 125.741 44.4091 123.846 41.3738C122.924 39.9107 122.051 38.4197 120.999 37.0451C120.974 37.0093 121.017 36.9134 121.033 36.7196Z" fill="#FEFBF7"/>
<path d="M101.012 87.7819C100.769 87.6906 100.689 87.6892 100.639 87.6424C99.0764 86.0871 97.294 84.7811 95.6218 83.3567C94.532 82.4263 93.3747 81.5558 92.236 80.6781C90.9533 79.6907 89.6523 78.7231 88.3147 77.8074C86.2456 76.3815 84.1398 74.9952 81.9122 73.8025C77.7878 71.5904 73.6449 69.3981 69.5266 67.1794C69.0586 66.9273 68.5356 66.7468 68.0583 66.2279C70.3568 67.1179 72.3907 68.1914 74.4613 69.213C77.9537 70.934 81.416 72.7251 84.7201 74.7743C86.5563 75.9093 88.3376 77.1159 90.0824 78.3868C92.4401 80.1065 94.7184 81.9241 96.9233 83.8331C98.2074 84.9447 99.5404 85.9913 100.647 87.2813C100.735 87.388 100.804 87.502 101.012 87.7819Z" fill="#FEFBF7"/>
<path d="M107.13 130.941C106.953 131.219 106.831 131.425 106.679 131.677C108.018 133.862 108.368 136.292 108.092 138.879C107.929 140.4 107.69 141.236 106.945 142.338C107.138 141.263 107.34 140.429 107.43 139.578C107.52 138.726 107.517 137.874 107.501 137.022C107.485 136.134 107.364 135.257 107.1 134.408C106.855 133.614 106.617 132.813 106.255 132.082C105.765 132.055 105.571 132.465 105.269 132.651C103.796 133.591 102.187 134.011 100.514 134.223C96.4989 134.724 92.7438 134.065 89.3092 132.08C87.7666 131.183 86.4447 130.036 85.3309 128.628C85.925 129.047 86.5313 129.452 87.107 129.891C91.4192 133.236 96.322 134.436 101.851 133.328C103.752 132.959 105.442 132.05 107.13 130.941Z" fill="#FEFBF7"/>
<path d="M96.9368 95.0877C96.7562 95.5712 96.4701 95.5011 96.2344 95.5027C95.3414 95.5184 94.4832 95.3206 93.6371 95.0973C88.2501 93.7381 83.135 91.7471 78.4497 88.8162C76.1821 87.4023 74.0797 85.7858 72.0381 84.0661C70.2345 82.5562 68.4863 80.9994 66.7932 79.3834C66.4546 79.0552 66.1099 78.7461 65.8142 78.3718C67.1621 79.6413 68.7428 80.6483 70.0847 81.9244C71.2636 83.0485 72.5587 84.0351 73.8415 85.0224C77.3954 87.7345 81.2724 89.9484 85.4415 91.6598C88.2956 92.8336 91.2098 93.8297 94.2386 94.5391C95.1032 94.7551 95.9981 94.901 96.9368 95.0877Z" fill="#FEFBF7"/>
<path d="M82.952 145.42C82.5802 146.046 81.9816 146.362 81.4206 146.713C78.5356 148.541 75.415 149.83 72.2433 150.984C67.4084 152.743 62.4404 153.675 57.3769 153.828C54.7087 153.913 52.068 153.679 49.4624 153.244C49.1079 153.184 48.7476 153.156 48.4403 152.869C60.6368 154.492 72.084 151.747 82.952 145.42Z" fill="#FEFBF7"/>
<path d="M128.831 83.2033C129.125 82.2708 129.763 81.5853 130.164 80.7771C132.089 76.9088 132.907 72.8453 133.078 68.6338C133.323 62.5819 132.347 56.771 130.479 51.138C130.389 50.8695 130.225 50.6055 130.296 50.29C130.575 50.3169 130.609 50.5576 130.68 50.7588C132.26 55.0522 133.493 59.441 133.668 64.1234C133.816 67.9921 133.716 71.8384 132.715 75.6576C132.148 77.8139 131.352 79.8657 130.112 81.7511C129.758 82.2951 129.341 82.7433 128.831 83.2033Z" fill="#FEFBF7"/>
<path d="M37.4097 91.4257C38.3203 91.2905 39.153 91.4025 39.9798 91.546C44.3869 92.2597 48.7106 93.2894 52.9087 94.7435C57.7109 96.4042 62.3615 98.3788 66.8728 100.667C67.1287 100.794 67.4024 100.865 67.5176 101.182C63.392 99.5492 59.3701 97.7548 55.2087 96.2487C49.5646 94.209 43.7407 92.74 37.7853 91.7268C37.6609 91.6969 37.4937 91.7256 37.4097 91.4257Z" fill="#FEFBF7"/>
<path d="M66.974 138.038C56.3682 141.162 45.6199 143.747 35.1746 147.92C35.2998 147.446 35.6282 147.395 35.8566 147.276C37.8932 146.183 40.0516 145.45 42.2098 144.692C50.2244 141.897 58.4156 139.919 66.6392 138.07C66.7568 138.045 66.8624 138.045 66.974 138.038Z" fill="#FEFBF7"/>
<path d="M91.3575 99.9717C89.9971 99.785 88.8199 99.3386 87.6248 98.9617C82.7572 97.4221 78.2108 95.2229 73.9072 92.5615C72.1332 91.4603 70.4325 90.2552 68.8293 88.9075C66.9319 87.3223 65.3173 85.5089 63.8066 83.5712C63.4353 83.1019 62.8734 82.7745 62.7661 82.072C63.0647 82.1538 63.2283 82.3555 63.3917 82.5448C64.2022 83.4606 64.9944 84.3962 65.8172 85.2989C66.9666 86.5554 68.1896 87.7452 69.5286 88.7728C71.0115 89.9099 72.5494 90.9754 74.136 91.9634C78.2897 94.5341 82.6434 96.6888 87.2519 98.3558C88.4102 98.7721 89.5747 99.1819 90.7453 99.5851C90.9446 99.6604 91.1683 99.6969 91.3575 99.9717Z" fill="#FEFBF7"/>
<path d="M120.94 52.5903C121.505 53.2037 121.933 54.8461 122.619 58.0351C124.384 66.2194 123.897 74.4327 121.827 82.6846C121.884 82.1709 121.928 81.6455 121.997 81.1311C122.34 78.509 122.759 75.8949 122.972 73.262C123.322 68.9716 123.059 64.749 122.392 60.5568C122.005 58.0905 121.55 55.6345 120.922 53.2262C120.876 53.0235 120.793 52.8107 120.94 52.5903Z" fill="#FEFBF7"/>
<path d="M59.9642 67.1319C60.8151 68.8221 61.7182 70.2047 62.7748 71.4727C63.3723 72.1896 63.9208 72.9591 64.5857 73.6161C66.4803 75.4936 68.4361 77.3178 70.5875 78.9068C73.2829 80.8927 76.094 82.704 79.0755 84.2567C80.2606 84.8707 81.4152 85.5301 82.5821 86.1763C82.7068 86.2435 82.7889 86.3692 83.0272 86.5914C81.0839 85.8106 79.4118 84.9019 77.7339 84.0247C75.981 83.1022 74.2158 82.1803 72.5907 81.0576C71.2281 80.1184 69.835 79.212 68.6188 78.0778C68.1675 77.6568 67.6246 77.3593 67.1612 76.9639C65.5391 75.5738 64.101 74.0237 62.7484 72.3692C61.811 71.2247 60.9291 70.046 60.2499 68.7248C60.0402 68.2959 59.7997 67.8874 59.9642 67.1319Z" fill="#FEFBF7"/>
<path d="M70.323 72.688C72.6196 73.97 74.713 75.3696 76.8062 76.7444C78.7368 78.0044 80.649 79.2841 82.4881 80.6677C84.2395 81.9817 86.0459 83.2242 87.828 84.5054C89.3724 85.6142 90.917 86.7353 92.4737 87.8309C93.9802 88.8797 95.505 89.8963 97.0113 90.9327C97.1863 91.0467 97.3858 91.1469 97.4383 91.3924C96.7634 91.4633 96.3912 90.9195 95.9228 90.6301C94.1804 89.5579 92.4988 88.3827 90.799 87.2396C89.2492 86.1996 87.687 85.1602 86.1615 84.0815C84.8986 83.1862 83.6845 82.2258 82.4338 81.3174C81.2394 80.4491 80.0208 79.632 78.8141 78.7768C77.7888 78.054 76.7695 77.3122 75.7318 76.5901C74.2878 75.5873 72.8315 74.5853 71.3691 73.6023C71.0191 73.3618 70.7119 73.0753 70.323 72.688Z" fill="#FEFBF7"/>
<path d="M42.5326 106.753C43.5947 106.858 44.1102 107.462 44.7103 107.861C48.5791 110.411 52.715 112.423 57.173 113.824C60.9336 115.006 64.7772 115.834 68.7337 116.214C69.1498 116.258 69.5603 116.345 69.9469 116.521C65.0386 116.472 60.3072 115.591 55.7295 114.016C50.9649 112.378 46.6448 109.986 42.5326 106.753Z" fill="#FEFBF7"/>
<path d="M117.634 93.663C116.517 91.9063 115.49 82.5386 115.779 77.231C116.027 72.6977 116.949 67.8315 117.86 66.5633C116.923 71.1815 116.284 75.7071 116.389 80.2629C116.488 84.7755 117.046 89.2232 117.634 93.663Z" fill="#FEFBF7"/>
<path d="M37.548 149.673C49.0285 151.196 60.4107 150.533 71.7552 146.425C70.1059 147.718 63.2252 149.661 57.4975 150.328C50.7717 151.11 44.0824 151.261 37.548 149.673Z" fill="#FEFBF7"/>
<path d="M84.1773 126.157C83.6409 126.494 83.2736 126.398 82.9075 126.413C77.4407 126.61 72.0289 127.301 66.8245 129.355C63.2272 130.778 59.8588 132.697 56.5282 134.664C56.5438 134.383 56.8094 134.261 57.0188 134.112C57.2344 133.956 57.4438 133.806 57.6719 133.662C61.1 131.527 64.642 129.597 68.3944 128.159C71.0464 127.148 73.7906 126.616 76.5615 126.258C78.5203 126.004 80.4736 125.806 82.4422 125.869C82.9639 125.9 83.5101 125.892 84.1773 126.157Z" fill="#FEFBF7"/>
<path d="M85.513 120.723C92.1418 127.078 99.9086 129.706 109.323 127.015C108.121 127.741 106.842 128.197 105.492 128.439C102.513 128.972 99.5936 128.711 96.7375 127.992C94.1428 127.344 91.7483 126.28 89.5597 124.756C88.1528 123.776 86.9974 122.538 85.7439 121.406C85.5622 121.249 85.3677 121.055 85.513 120.723Z" fill="#FEFBF7"/>
<path d="M36.0322 92.7415C39.9091 92.6406 60.558 99.3342 63.1447 101.513C54.2899 98.0908 45.2243 95.2475 36.0322 92.7415Z" fill="#FEFBF7"/>
<path d="M113.202 95.7744C112.791 95.6619 112.769 95.3834 112.686 95.1459C111.668 92.3523 110.132 89.8628 108.442 87.4757C107.068 85.5301 105.577 83.6846 103.963 81.9334C103.127 81.0315 102.225 80.202 101.414 79.2862C99.8809 77.5489 98.1638 75.9965 96.5571 74.3382C98.4866 76.0272 100.679 77.4209 102.303 79.4637C102.731 79.998 103.3 80.4058 103.777 80.8999C106.984 84.1859 109.785 87.7943 111.917 91.9086C112.513 93.1043 113.086 94.3264 113.202 95.7744Z" fill="#FEFBF7"/>
<path d="M106.714 68.9689C103.378 65.7339 99.9675 62.5903 95.6463 60.6145C91.375 58.6606 86.8823 57.4352 82.1491 56.896C82.3057 56.4761 82.568 56.6347 82.7419 56.6492C88.6153 57.0832 94.0319 58.8258 99.0095 61.7952C100.627 62.7625 102.147 63.8726 103.464 65.1875C104.625 66.3563 105.909 67.4306 106.714 68.9689Z" fill="#FEFBF7"/>
<path d="M85.2901 118.673C80.4724 118.65 75.9324 119.6 71.5123 121.29C67.1168 122.966 63.013 125.197 59.2535 128.254C59.1226 127.64 59.6041 127.399 59.8996 127.17C60.8167 126.449 61.7526 125.745 62.7328 125.12C67.455 122.111 72.4969 119.942 77.9296 118.877C80.135 118.446 82.3427 118.239 84.5605 118.374C84.7654 118.381 85.0006 118.317 85.2901 118.673Z" fill="#FEFBF7"/>
<path d="M119.943 95.8511C119.115 93.3925 118.734 90.8574 118.569 88.2783C118.092 80.963 118.198 73.6252 118.651 66.2666C118.656 66.1232 118.691 65.9717 118.737 65.6453C118.958 65.9868 118.905 66.2327 118.908 66.4442C118.847 70.5616 118.681 74.6792 118.751 78.795C118.83 83.1655 118.971 87.5323 119.533 91.849C119.648 92.7196 119.825 93.5866 119.965 94.4557C120.044 94.924 120.155 95.3841 119.943 95.8511Z" fill="#FEFBF7"/>
<path d="M70.8165 59.1279C71.5284 58.9797 72.1688 59.1095 72.8025 59.1837C76.3128 59.6276 79.6494 60.6355 82.914 61.8592C86.3469 63.1538 89.5246 64.9239 92.544 66.9773C93.2692 67.4691 93.9205 68.015 94.5045 68.6458C92.0068 67.2022 89.6006 65.6224 86.9993 64.3529C82.1959 62.0016 77.1458 60.3306 71.7769 59.5684C71.2984 59.5036 71.3047 59.5094 70.8165 59.1279Z" fill="#FEFBF7"/>
<path d="M95.5616 99.8464C96.0785 99.4799 96.4142 99.547 96.7367 99.5403C100.588 99.5167 104.122 100.464 107.266 102.584C110.291 104.619 112.573 107.313 114.192 110.581C114.776 111.766 115.169 113.005 115.172 114.386C114.806 114.401 114.89 114.098 114.869 113.943C114.496 111.627 113.265 109.753 111.972 107.921C110.813 106.286 109.34 104.936 107.775 103.723C105.472 101.932 102.841 100.757 99.8961 100.285C98.8832 100.128 97.8706 99.9829 96.8345 99.9636C96.4809 99.9535 96.1268 99.9062 95.5616 99.8464Z" fill="#FEFBF7"/>
<path d="M74.9489 97.5041C73.5536 96.965 72.3658 96.1399 71.1723 95.3586C69.4478 94.242 67.7842 93.0223 66.3407 91.5408C65.8637 91.0467 65.3624 90.5913 64.9589 90.0183C64.6813 89.6119 64.2559 89.2889 63.8616 88.9827C60.8764 86.6286 57.5455 84.948 53.76 84.1834C53.6543 84.1586 53.5486 84.1338 53.4489 84.0899C53.424 84.079 53.4049 84.0366 53.2917 83.9065C53.6701 83.9152 53.9676 83.8976 54.2532 83.9304C57.1227 84.3201 59.7324 85.3035 62.1321 86.8901C63.4507 87.7634 64.5238 88.8626 65.5726 90.0006C67.0797 91.6276 68.8253 92.9606 70.577 94.2871C71.7531 95.175 73.0087 95.965 74.2397 96.7689C74.5209 96.9574 74.7959 97.1401 74.9489 97.5041Z" fill="#FEFBF7"/>
<path d="M67.6038 143.952C68.04 143.546 68.3686 143.508 68.6781 143.427C73.1463 142.189 77.6146 140.95 82.0828 139.712C85.8703 138.664 89.6644 137.659 93.5116 136.962C94.032 136.868 94.5888 136.698 95.0386 136.957C95.1088 137.134 95.0784 137.192 94.9793 137.21C92.3267 137.593 89.7207 138.265 87.121 138.944C81.7358 140.336 76.351 141.767 70.9659 143.172C69.9259 143.433 68.8792 143.652 67.6038 143.952Z" fill="#FEFBF7"/>
<path d="M85.0933 71.7205C81.9507 69.7491 78.9941 67.7667 75.7755 66.2167C71.3906 64.1079 66.8308 62.4512 61.9222 61.7858C61.4314 61.7218 60.9343 61.6519 60.4594 61.3442C60.866 61.096 61.1901 61.226 61.5006 61.2573C65.4933 61.5729 69.2406 62.6932 72.8624 64.2379C75.6364 65.4225 78.1971 66.9495 80.7396 68.5211C81.7828 69.1619 82.8078 69.8349 83.8082 70.5342C84.2334 70.8324 84.5918 71.2527 85.0933 71.7205Z" fill="#FEFBF7"/>
<path d="M139.768 97.1517C140.599 95.3531 141.137 93.491 141.545 91.5933C142.844 85.5281 142.531 79.6217 140.73 73.8541C140.556 73.2857 140.32 72.721 140.332 72.0792C143.95 76.5742 143.601 92.8955 139.768 97.1517Z" fill="#FEFBF7"/>
<path d="M111.037 63.2216C110.546 63.0827 110.503 62.6501 110.345 62.3548C109.166 60.1493 107.931 57.9905 106.37 56.0436C105.42 54.8626 104.36 53.7751 103.459 52.5663C102.608 51.4291 101.445 50.5901 100.65 49.4186C100.492 49.1854 100.249 49.0071 100.035 48.8083C98.2736 47.1405 96.5119 45.4851 94.75 43.8173C94.5745 43.6536 94.4174 43.4702 94.2229 43.2765C94.6301 43.1158 94.8253 43.3716 95.0383 43.5579C97.4632 45.7213 99.9065 47.8773 102.16 50.2248C103.899 52.0431 105.577 53.9396 107.064 55.9779C108.696 58.1879 110.075 60.5433 111.037 63.2216Z" fill="#FEFBF7"/>
<path d="M79.8387 59.7163C85.2898 60.2264 97.4772 65.7039 103.951 74.7662C102.961 73.9667 102.015 73.1086 101.173 72.1511C100.099 70.9276 98.9382 69.7962 97.6065 68.8615C96.8125 68.3053 96.0978 67.6388 95.3098 67.0636C92.558 65.0627 89.5693 63.4925 86.4712 62.1153C84.333 61.1538 82.1403 60.3137 79.8387 59.7163Z" fill="#FEFBF7"/>
<path d="M65.6615 91.3266C66.2592 91.5275 66.3337 92.0765 66.6661 92.3989C68.3911 94.0938 70.1527 95.7368 72.1715 97.1033C75.8092 99.5616 79.7864 101.341 83.8733 102.951C83.9668 102.989 84.0728 103.039 84.0749 103.226C82.3783 102.922 80.8024 102.325 79.2506 101.665C76.5207 100.496 73.8881 99.147 71.45 97.4633C69.8372 96.3525 68.359 95.0845 67.0156 93.6716C66.118 92.7361 65.8582 92.2478 65.6615 91.3266Z" fill="#FEFBF7"/>
<path d="M54.2576 123.418C46.0611 121.264 37.6471 120.224 28.9871 119.939C32.4735 118.697 50.9259 121.222 54.2576 123.418Z" fill="#FEFBF7"/>
<path d="M92.2255 62.3636C93.2991 62.4684 94.186 63.0254 95.0786 63.5509C96.9139 64.624 98.6576 65.8205 100.365 67.0813C102.391 68.5782 104.093 70.3863 105.751 72.2279C107.925 74.6484 109.736 77.3325 110.896 80.4402C110.998 80.7076 111.088 80.9882 111.166 81.2695C111.185 81.3243 111.149 81.4011 111.144 81.4822C110.783 81.3666 110.699 81.0422 110.565 80.7455C109.617 78.7441 108.596 76.7966 107.279 75.0281C106.372 73.8136 105.471 72.6049 104.392 71.5371C103.802 70.9502 103.261 70.3232 102.684 69.7232C101.473 68.483 100.078 67.4524 98.7018 66.4021C97.1566 65.2188 95.514 64.1903 93.8288 63.2203C93.2984 62.9221 92.7558 62.6494 92.2255 62.3636Z" fill="#FEFBF7"/>
<path d="M111.217 54.8395C110.206 53.7616 109.183 52.6967 108.203 51.5983C106.758 49.9802 105.178 48.5193 103.452 47.2037C101.506 45.7083 99.4324 44.4131 97.3346 43.1566C96.192 42.4718 95.0191 41.8446 93.8399 41.2116C93.5217 41.0376 93.1976 40.8951 92.9585 40.5984C94.5694 40.5285 100.89 44.4579 103.253 46.1711C106.505 48.5283 109.052 51.5422 111.217 54.8395Z" fill="#FEFBF7"/>
<path d="M75.3096 103.971C74.3234 103.974 73.8981 103.122 73.1371 102.745C72.3386 102.344 71.6556 101.732 70.9118 101.235C70.1993 100.755 69.4683 100.294 68.7374 99.8341C67.9691 99.3635 67.201 98.9054 66.4205 98.448C65.6774 98.0133 64.9221 97.5917 64.1607 97.1767C63.3619 96.7514 62.5633 96.3387 61.7587 95.9449C60.979 95.5621 60.1933 95.1982 59.4078 94.8469C58.5848 94.4728 57.7558 94.1178 56.933 93.7562C56.1474 93.4049 55.3558 93.0601 54.5391 92.6919C54.8218 92.4636 55.0223 92.6383 55.2028 92.696C59.6493 94.2603 63.9501 96.107 67.9662 98.5614C69.7151 99.6267 71.4274 100.756 73.103 101.926C73.9098 102.506 74.5761 103.287 75.3096 103.971Z" fill="#FEFBF7"/>
<path d="M137.131 84.6959C137.635 89.3539 136.828 93.8598 134.821 98.207C133.184 101.754 131.084 104.955 128.026 107.485C128.886 106.045 130.152 104.911 131.08 103.511C132.021 102.097 132.93 100.667 133.689 99.1463C134.437 97.6635 135.072 96.1375 135.607 94.5678C136.154 92.96 136.527 91.3252 136.738 89.6503C136.95 88.0002 136.894 86.3474 137.131 84.6959Z" fill="#FEFBF7"/>
<path d="M95.1726 98.8557C94.7368 99.2736 94.3383 99.1481 93.9531 99.0964C91.0699 98.6835 88.3309 97.8514 85.7 96.7018C81.7286 94.954 77.909 92.9173 74.3393 90.4737C73.6954 90.0331 72.9471 89.692 72.4559 89.037C72.7079 88.8291 72.8711 88.9936 73.0337 89.1083C78.2114 92.7686 83.8327 95.6 89.8974 97.5776C91.068 97.9557 92.305 98.1744 93.5056 98.4698C94.0653 98.5858 94.6189 98.7208 95.1726 98.8557Z" fill="#FEFBF7"/>
<path d="M53.4032 126.549C52.9605 126.924 52.4887 126.902 52.0299 126.942C48.6756 127.211 45.4015 126.866 42.1674 126.213C38.7219 125.523 35.3487 124.629 32.017 123.565C31.5748 123.424 31.1267 123.301 30.7201 123.008C31.0525 122.764 31.3032 122.986 31.5522 123.058C35.8839 124.205 40.2397 125.289 44.6907 125.994C47.0467 126.369 49.4257 126.569 51.8328 126.512C52.3539 126.494 52.8818 126.53 53.4032 126.549Z" fill="#FEFBF7"/>
<path d="M108.445 140.629C110.318 136.49 110.808 132.476 109.632 128.227C110.907 129.563 111.127 132.134 110.481 136.604C110.816 136.559 110.831 136.278 110.922 136.055C111.894 133.526 112.108 130.967 111.639 128.374C111.506 127.623 111.268 126.884 111.254 126.107C111.539 126.065 111.603 126.248 111.654 126.406C112.799 130.048 112.752 133.649 110.785 137.184C110.676 137.377 110.585 137.638 110.419 137.741C109.944 138.012 109.85 138.491 109.631 138.915C109.351 139.454 109.266 140.126 108.445 140.629Z" fill="#FEFBF7"/>
<path d="M60.8011 120.417C60.1697 120.529 59.647 120.386 59.1249 120.293C55.9614 119.741 53.0452 118.571 50.2738 117.044C48.3388 115.977 46.4954 114.774 44.9087 113.245C44.1875 112.548 43.5337 111.778 43.0152 110.901C42.9203 110.739 42.838 110.588 42.9413 110.402C43.1206 110.347 43.2149 110.46 43.3029 110.567C45.7638 113.711 49.0559 115.76 52.5923 117.472C54.9125 118.59 57.3172 119.505 59.8786 120.024C60.177 120.081 60.5243 120.073 60.8011 120.417Z" fill="#FEFBF7"/>
<path d="M65.2521 93.4139C62.989 92.4353 60.7878 91.4406 58.5439 90.5169C55.3837 89.2185 52.1334 88.1807 48.7509 87.5241C47.9985 87.3761 47.2462 87.2406 46.4644 87.2375C46.303 87.2347 46.0803 87.2978 45.9895 86.9423C46.5889 86.7137 47.2032 86.7205 47.7995 86.7845C48.6693 86.8819 49.5394 87.0166 50.4038 87.1952C55.1118 88.1895 59.4994 89.9558 63.6513 92.29C64.2008 92.6056 64.8056 92.8743 65.2521 93.4139Z" fill="#FEFBF7"/>
<path d="M113.337 121.121C113.33 120.463 113.063 119.944 112.785 119.45C111.753 117.627 110.31 116.208 108.665 114.943C105.724 112.668 102.25 111.531 98.7759 110.381C98.5518 110.307 98.2485 110.356 98.0893 109.999C98.6735 110.101 99.2014 110.163 99.7115 110.294C102.604 111.037 105.442 111.938 107.948 113.574C109.929 114.868 111.671 116.407 112.953 118.427C113.326 119.02 113.562 119.659 113.694 120.348C113.747 120.656 113.713 120.931 113.337 121.121Z" fill="#FEFBF7"/>
<path d="M90.1508 113.165C91.3012 112.847 92.378 113.15 93.4296 113.43C98.924 114.862 104.37 116.422 108.859 120.031C106.821 119.213 104.995 117.978 102.957 117.148C100.907 116.306 98.7963 115.654 96.6916 114.971C94.5435 114.284 92.3594 113.711 90.1508 113.165Z" fill="#FEFBF7"/>
<path d="M114.749 117.266C113.418 113.726 110.97 111.098 108.196 108.781C105.409 106.44 102.076 105.089 98.4278 104.416C98.4579 104.346 98.4882 104.276 98.5184 104.205C98.6112 104.194 98.7099 104.15 98.797 104.17C101.655 104.648 104.392 105.381 106.811 107.035C109.368 108.78 111.538 110.902 113.273 113.455C114.03 114.591 114.627 115.837 114.749 117.266Z" fill="#FEFBF7"/>
<path d="M103.04 134.655C103.165 135.744 103.008 136.706 102.845 137.65C102.238 141.124 100.864 144.289 98.7228 147.181C97.3893 148.992 95.8298 150.592 94.2639 152.173C92.9375 153.51 91.4413 154.664 89.9263 155.8C89.7539 155.935 89.5311 155.998 89.2902 156.118C89.6361 155.407 90.3037 155.118 90.8209 154.726C93.1114 152.958 95.0626 150.849 96.9698 148.699C98.3621 147.14 99.4852 145.404 100.421 143.543C101.581 141.225 102.286 138.792 102.549 136.242C102.594 135.803 102.682 135.356 102.764 134.915C102.776 134.877 102.862 134.834 103.04 134.655Z" fill="#FEFBF7"/>
<path d="M44.4663 116.16C36.839 115.671 35.5689 114.745 25.4446 117.479C25.4289 117.181 25.6706 117.148 25.8683 117.062C27.9988 116.069 30.2331 115.493 32.5205 115.226C36.3451 114.779 40.1036 115.083 43.799 115.87C44.0291 115.913 44.3267 115.882 44.4663 116.16Z" fill="#FEFBF7"/>
<path d="M128.139 91.4974C127.829 97.0575 123.54 106.211 119.987 108.316C119.99 108.023 120.224 107.859 120.378 107.682C123.033 104.691 124.832 101.234 126.126 97.514C126.746 95.7398 127.347 93.9605 127.786 92.1411C127.834 91.9515 127.806 91.6916 128.139 91.4974Z" fill="#FEFBF7"/>
<path d="M106.747 123.418C102.437 124.21 98.3734 123.694 94.5613 121.787C91.4854 120.248 88.7147 118.254 88.1672 117.005C93.6134 121.359 99.5318 124.085 106.747 123.418Z" fill="#FEFBF7"/>
<path d="M68.4848 118.921C67.9674 119.275 67.404 119.39 66.8276 119.455C63.9519 119.789 61.1678 119.408 58.424 118.757C55.5745 118.081 52.8946 117.022 50.4021 115.522C50.2834 115.448 50.1952 115.329 50.051 115.194C50.3656 115.02 50.5411 115.183 50.7471 115.289C54.6667 117.345 58.8563 118.569 63.3344 118.93C64.4709 119.018 65.6071 119.068 66.7542 118.993C67.3372 118.958 67.908 118.949 68.4848 118.921Z" fill="#FEFBF7"/>
<path d="M59.2011 112.073C66.1451 114.327 73.3117 115.374 80.7098 115.466C80.4558 115.513 80.1961 115.59 79.9417 115.599C77.5042 115.714 75.0713 115.685 72.6544 115.425C68.6286 115.006 64.6922 114.252 60.9106 112.904C60.3188 112.697 59.678 112.555 59.2011 112.073Z" fill="#FEFBF7"/>
<path d="M88.461 119.507C89.5245 119.723 90.1288 120.509 90.8915 121.023C94.1177 123.232 97.7176 124.448 101.638 124.867C104.054 125.127 106.481 125.125 108.92 124.681C109.02 124.662 109.143 124.618 109.194 124.751C104.036 126.317 94.1291 125.397 88.461 119.507Z" fill="#FEFBF7"/>
<path d="M65.963 135.715C69.7973 133.282 81.7849 130.561 84.4703 131.477C83.0135 131.657 81.7858 131.781 80.5588 131.966C79.307 132.153 78.068 132.377 76.8168 132.626C75.609 132.866 74.4078 133.137 73.2193 133.445C71.9938 133.767 70.775 134.132 69.5625 134.516C68.3501 134.9 67.1629 135.32 65.963 135.715Z" fill="#FEFBF7"/>
<path d="M111.822 109.542C109.728 107.035 107.08 105.464 104.261 104.151C101.436 102.833 98.4319 102.185 95.2537 102.592C95.1305 102.12 95.4156 102.091 95.6073 102.036C96.4484 101.799 97.2923 101.811 98.1369 101.885C101.229 102.136 103.997 103.265 106.619 104.763C108.417 105.788 109.983 107.101 111.396 108.603C111.653 108.88 111.653 108.88 111.822 109.542Z" fill="#FEFBF7"/>
<path d="M135.859 61.2003C136.282 61.841 136.334 62.5786 136.416 63.2957C136.793 66.5659 136.947 69.8494 136.158 73.152C135.813 74.5918 135.282 75.9432 134.464 77.1872C134.305 77.4333 134.178 77.7334 133.799 77.7125C133.566 77.4215 133.874 77.2287 133.984 77.0479C135.21 75.0263 135.694 72.8063 135.961 70.5309C136.256 67.9985 136.111 65.4863 135.959 62.9683C135.916 62.3858 135.891 61.796 135.859 61.2003Z" fill="#FEFBF7"/>
<path d="M138.467 78.2088C139.073 78.5522 139.089 78.9496 139.205 79.2788C139.634 80.529 139.816 81.8438 139.942 83.1682C140.399 88.0392 139.619 92.7787 137.77 97.408C137.746 97.4717 137.704 97.5427 137.655 97.5954C137.636 97.6152 137.587 97.6182 137.432 97.6586C138.552 94.4796 139.255 91.2943 139.499 88.0121C139.736 84.7117 139.217 81.5311 138.467 78.2088Z" fill="#FEFBF7"/>
<path d="M85.0378 120.604C77.8209 120.843 71.169 123.345 64.6741 126.584C64.7326 126.257 64.9675 126.168 65.1896 126.043C70.1622 123.243 75.4437 121.433 80.9894 120.51C82.334 120.287 83.7045 120.161 85.0378 120.604Z" fill="#FEFBF7"/>
<path d="M99.3859 132.44C98.7554 132.64 98.3705 132.613 97.9856 132.586C95.2977 132.416 92.8685 131.528 90.5593 130.285C89.2487 129.579 88.0725 128.691 86.9637 127.731C86.1054 126.979 85.3264 126.105 84.769 125.081C84.5156 124.611 84.2494 124.117 84.3654 123.401C87.7285 128.985 92.8085 131.706 99.3859 132.44Z" fill="#FEFBF7"/>
<path d="M111.716 99.4933C110.405 98.2338 109.036 97.2641 107.526 96.4957C105.972 95.6987 104.322 95.1564 102.593 94.849C100.902 94.5518 99.1859 94.785 97.462 94.8879C97.9964 94.3894 98.6215 94.2463 99.2721 94.1638C101.106 93.9174 102.871 94.1729 104.596 94.6983C107.13 95.474 109.371 96.7401 111.29 98.5419C111.566 98.7992 111.56 98.8058 111.716 99.4933Z" fill="#FEFBF7"/>
<path d="M65.367 146.291C62.5561 148.065 46.948 150.536 42.8806 149.23C50.4119 149.445 57.8291 148.31 65.367 146.291Z" fill="#FEFBF7"/>
<path d="M59.4389 64.6906C59.7181 64.7178 59.8133 64.9048 59.9395 65.0839C61.0571 66.7643 62.3402 68.3047 63.7278 69.7706C65.3916 71.5311 67.251 73.0689 69.0249 74.7111C69.4449 75.1028 69.8649 75.4945 70.236 75.9388C67.4668 73.9819 64.7832 71.9331 62.533 69.3558C61.5336 68.2151 60.5652 67.0664 59.7746 65.7768C59.5723 65.4532 59.2896 65.1404 59.4389 64.6906Z" fill="#FEFBF7"/>
<path d="M38.7513 101.192C42.8752 104.398 47.413 106.909 52.2735 108.897C48.3839 108.294 40.1642 103.801 38.7513 101.192Z" fill="#FEFBF7"/>
<path d="M105.143 96.8405C110.511 98.3079 115.351 103.953 115.746 107.971C115.111 107.194 114.989 106.306 114.528 105.618C114.054 104.894 113.642 104.129 113.132 103.431C112.603 102.704 112.061 101.978 111.39 101.377C110.745 100.799 110.112 100.209 109.491 99.6053C108.864 98.9957 108.127 98.5543 107.378 98.1136C106.635 97.6788 105.886 97.2629 105.143 96.8405Z" fill="#FEFBF7"/>
<path d="M103.005 54.7998C103.985 55.3324 104.485 56.1922 105.07 56.9473C106.511 58.7836 107.965 60.6067 109.166 62.6252C110.077 64.151 110.864 65.7339 111.219 67.5166C111.297 67.8976 111.438 68.2873 111.312 68.6867C111.003 68.7797 110.964 68.583 110.925 68.4112C110.073 64.9474 108.161 62.0568 106.2 59.2065C105.197 57.7298 104.114 56.3138 103.005 54.7998Z" fill="#FEFBF7"/>
<path d="M98.0611 137.452C97.5816 142.781 91.2799 151.215 87.422 153.343C92.2785 148.907 96.0837 143.798 98.0611 137.452Z" fill="#FEFBF7"/>
<path d="M122.995 109.826C123.558 109.07 124.273 108.579 124.887 107.957C126.661 106.152 127.923 104.028 128.997 101.778C129.877 99.9508 130.632 98.0688 131.225 96.1342C131.297 95.9057 131.25 95.6034 131.615 95.426C131.608 95.9619 131.471 96.4496 131.327 96.9314C130.424 100.03 129.203 103.017 127.396 105.74C126.419 107.218 125.229 108.547 123.687 109.486C123.471 109.617 123.23 109.712 122.995 109.826Z" fill="#FEFBF7"/>
<path d="M144.287 84.901C144.288 82.7478 144.211 80.842 143.893 78.9692C143.561 77.0475 143.119 75.1573 142.546 73.306C141.98 71.4978 141.099 69.8268 140.439 67.9184C141.068 68.1608 141.179 68.6583 141.37 69.0451C142.969 72.2601 143.906 75.7076 144.387 79.3068C144.589 80.8131 144.594 82.3312 144.561 83.8516C144.545 84.1326 144.567 84.4238 144.287 84.901Z" fill="#FEFBF7"/>
<path d="M49.8591 85.4417C50.2149 85.072 50.5019 85.2167 50.763 85.2633C52.1427 85.4797 53.4566 85.9052 54.734 86.4076C57.2828 87.419 59.7832 88.5328 62.144 89.9349C62.4875 90.1446 62.8003 90.3748 63.0277 90.7345C58.7493 88.7375 54.4718 86.8152 49.8591 85.4417Z" fill="#FEFBF7"/>
<path d="M91.6573 111.321C95.2372 110.142 103.785 112.133 106.63 115.23C104.431 113.843 102.062 112.852 99.529 112.201C96.9653 111.545 94.315 111.486 91.6573 111.321Z" fill="#FEFBF7"/>
<path d="M104.929 49.9931C105.792 50.626 106.582 51.3379 107.261 52.1558C108.223 53.3115 109.253 54.4196 110.123 55.6616C110.974 56.8736 111.782 58.1069 112.288 59.526C112.602 60.3967 112.61 60.5766 112.383 61.3241C112.265 61.3497 112.153 61.319 112.127 61.1962C111.631 59.0115 110.42 57.2176 109.172 55.4507C107.835 53.5523 106.308 51.833 104.929 49.9931Z" fill="#FEFBF7"/>
<path d="M92.0997 127.875C92.659 127.941 93.0529 128.21 93.4893 128.383C95.9762 129.348 98.5584 129.947 101.278 130.008C103.804 130.063 106.2 129.515 108.438 128.167C108.66 128.029 108.901 127.934 109.216 127.784C108.827 128.53 108.166 128.8 107.568 129.128C105.877 130.063 104.05 130.44 102.195 130.482C98.6583 130.57 95.3778 129.677 92.2949 128.131C92.2323 128.085 92.2004 128.006 92.0997 127.875Z" fill="#FEFBF7"/>
<path d="M112.635 122.782C112.254 122.07 111.788 121.401 111.278 120.779C111.077 120.529 110.851 120.282 110.607 120.078C108.165 118.071 105.51 116.444 102.472 115.43C101.993 115.266 101.543 115.031 101.082 114.822C101.026 114.795 101 114.709 100.874 114.53C103.247 115.391 105.556 116.068 107.659 117.243C109.182 118.098 110.516 119.194 111.745 120.415C112.273 120.944 112.596 121.577 112.821 122.279C112.879 122.431 112.962 122.619 112.635 122.782Z" fill="#FEFBF7"/>
<path d="M87.9597 56.5562C87.24 56.5619 86.8642 56.2483 86.4586 56.0423C83.8 54.6456 81.0745 53.3835 78.1134 52.6892C77.199 52.4763 76.267 52.3577 75.3407 52.1952C75.4047 51.8119 75.6787 51.9075 75.8648 51.8964C76.6402 51.8812 77.4047 52.0036 78.1572 52.164C81.5095 52.8785 84.5529 54.2771 87.4206 56.0658C87.5705 56.1564 87.6838 56.2989 87.9597 56.5562Z" fill="#FEFBF7"/>
<path d="M116.826 107.13C119.212 103.37 121.462 99.6929 122.919 95.5835C123.238 95.8197 123.117 96.0387 123.075 96.2342C122.686 98.0384 121.878 99.6993 121.021 101.326C120.042 103.196 118.919 104.969 117.559 106.595C117.418 106.771 117.296 106.965 116.826 107.13Z" fill="#FEFBF7"/>
<path d="M114.304 87.5543C114.635 89.9802 114.939 92.3205 115.282 94.6586C115.63 97.015 116.362 99.2613 117.261 101.442C116.835 101.648 116.789 101.395 116.694 101.22C116.016 99.9354 115.523 98.5647 115.228 97.1199C114.625 94.2063 114.295 91.239 114.138 88.2488C114.129 88.0564 114.04 87.8377 114.304 87.5543Z" fill="#FEFBF7"/>
<path d="M78.0018 108.174C81.8823 109.566 85.5703 110.939 88.9555 112.965C89.2802 113.157 89.6299 113.36 89.7217 113.802C89.3712 114.078 89.1016 113.827 88.8955 113.708C85.5221 111.62 81.8206 110.149 78.2345 108.452C78.2095 108.441 78.1967 108.405 78.0018 108.174Z" fill="#FEFBF7"/>
<path d="M111.166 74.7177C108.408 69.5518 110.29 70.8892 102.341 62.959C106.124 65.0358 110.692 70.7224 111.166 74.7177Z" fill="#FEFBF7"/>
<path d="M137.726 67.5579C137.791 62.1149 136.865 56.8806 135.134 51.8189C136.885 54.2407 138.462 62.2241 137.726 67.5579Z" fill="#FEFBF7"/>
<path d="M131.553 99.5924C133.666 95.1958 134.068 90.5467 134.263 85.7418C135.469 88.1472 133.658 97.3065 131.553 99.5924Z" fill="#FEFBF7"/>
<path d="M49.9863 69.9731C53.2777 72.5142 56.8555 74.6093 60.785 76.5528C58.4649 76.5039 51.2694 72.0674 49.9863 69.9731Z" fill="#FEFBF7"/>
<path d="M107.381 110.524C105.334 109.427 103.553 108.246 101.583 107.393C99.5002 106.484 97.3292 105.973 95.015 105.98C94.7109 105.98 94.3587 106.106 94.0566 105.726C94.5934 105.452 95.0901 105.484 95.5864 105.479C97.7268 105.457 99.682 106.087 101.584 106.926C103.367 107.715 104.998 108.769 106.617 109.823C106.854 109.983 107.043 110.209 107.381 110.524Z" fill="#FEFBF7"/>
<path d="M113.093 54.4992C110.576 50.899 108.137 47.5306 104.684 44.9243C106.958 45.3249 112.502 51.774 113.093 54.4992Z" fill="#FEFBF7"/>
<path d="M75.959 145.206C78.3888 144.282 80.8186 143.359 83.191 142.296C85.5882 141.231 87.8837 139.949 90.3728 138.773C88.5059 140.64 78.7876 144.975 75.959 145.206Z" fill="#FEFBF7"/>
<path d="M79.4241 55.4457C77.5565 54.9102 75.8131 54.3797 74.0642 53.9056C72.3402 53.4424 70.5396 53.3509 68.7706 53.3135C68.7035 52.8571 68.9517 52.8547 69.1686 52.823C70.433 52.6852 71.6809 52.7413 72.9062 52.9979C74.9836 53.4337 76.9888 54.073 78.8673 55.0372C79.0233 55.1212 79.155 55.244 79.4241 55.4457Z" fill="#FEFBF7"/>
<path d="M103.895 121.877C99.4288 122.019 95.5454 120.416 91.8961 118.095C92.0985 117.878 92.2545 117.962 92.3919 118.04C95.8755 119.96 99.5638 121.32 103.584 121.808C103.689 121.821 103.789 121.852 103.895 121.877Z" fill="#FEFBF7"/>
<path d="M130.956 105.844C132.227 103.987 133.56 102.189 134.544 100.163C135.509 98.1689 136.218 96.0842 137.044 93.7995C136.694 97.5627 133.683 103.708 130.956 105.844Z" fill="#FEFBF7"/>
<path d="M49.0824 124.586C44.4496 124.291 39.8815 123.662 35.4368 122.409C36.9704 122.485 38.4572 122.813 39.9553 123.041C41.4721 123.274 42.9831 123.551 44.5059 123.765C46.0412 123.99 47.5821 124.159 49.1296 124.359C49.1118 124.441 49.1002 124.517 49.0824 124.586Z" fill="#FEFBF7"/>
<path d="M92.6 108.259C90.619 108.663 84.7885 106.597 82.709 104.83C83.887 105.313 84.9092 105.725 85.9314 106.15C87.0285 106.607 88.1498 107.013 89.3013 107.336C90.4029 107.637 91.5704 107.729 92.6 108.259Z" fill="#FEFBF7"/>
<path d="M34.4054 114.197C37.7581 113.2 43.6134 114.045 45.8017 115.532C45.5622 115.764 45.3308 115.597 45.1253 115.529C41.6984 114.29 38.1134 113.913 34.4054 114.197Z" fill="#FEFBF7"/>
<path d="M121.911 68.0365C121.488 64.5643 121.152 61.0868 120.445 57.669C120.897 57.5984 120.887 57.8479 120.926 57.9949C121.669 61.2737 122.06 64.6172 121.911 68.0365Z" fill="#FEFBF7"/>
<path d="M53.1808 128.121C49.2536 128.804 45.4307 128.809 41.8075 127.215C43.7034 127.493 45.5639 127.936 47.4894 128.082C49.3838 128.224 51.2874 128.067 53.1808 128.121Z" fill="#FEFBF7"/>
<path d="M120.291 110.298C121.726 109.197 122.994 108.175 123.947 106.761C124.845 105.418 125.548 103.956 126.595 102.555C126.633 103.157 126.339 103.536 126.144 103.908C125.573 105.014 125.008 106.125 124.305 107.145C123.505 108.295 122.566 109.341 121.364 110.116C121.062 110.302 120.771 110.462 120.291 110.298Z" fill="#FEFBF7"/>
<path d="M61.258 74.7376C59.2073 72.2225 56.2957 70.8714 53.6953 69.0852C55.4389 69.7158 57.0246 70.6293 58.5674 71.5889C59.5668 72.2137 60.5057 72.9665 61.181 73.9773C61.3008 74.1506 61.3591 74.3648 61.4358 74.5592C61.3807 74.6184 61.3256 74.6776 61.258 74.7376Z" fill="#FEFBF7"/>
<path d="M38.2104 99.546C39.0503 99.7885 44.9009 103.77 45.7157 104.518C43.0281 103.24 40.6303 101.815 38.4398 100.08C38.2834 99.9582 38.0894 99.8143 38.2104 99.546Z" fill="#FEFBF7"/>
<path d="M79.7177 149.182C76.7185 151.397 73.3048 152.609 69.776 153.53C70.5273 152.975 71.4451 152.87 72.2669 152.516C73.095 152.168 73.9423 151.874 74.764 151.507C75.6228 151.126 76.4501 150.703 77.2773 150.268C78.0736 149.853 78.8447 149.402 79.6284 148.963C79.6664 149.036 79.692 149.109 79.7177 149.182Z" fill="#FEFBF7"/>
<path d="M59.4811 80.5438C57.7229 80.3063 56.1636 79.5531 54.5983 78.819C53.5943 78.35 52.7556 77.6908 52.0025 76.9145C51.8644 76.7734 51.646 76.6558 51.7842 76.2557C52.4124 76.4112 52.6859 77.0107 53.1547 77.3249C53.6298 77.645 54.105 77.9775 54.6044 78.2588C55.135 78.5569 55.6962 78.8096 56.2512 79.069C56.7689 79.3181 57.2928 79.573 57.8103 79.8097C58.3653 80.0691 58.9201 80.3035 59.4811 80.5438Z" fill="#FEFBF7"/>
<path d="M100.661 108.42C98.2843 107.815 95.9236 107.583 93.5866 107.25C93.5431 107.246 93.5232 107.129 93.4914 107.063C93.5074 106.819 93.7056 106.782 93.8853 106.765C94.2141 106.752 94.5553 106.738 94.8784 106.78C96.7303 107.018 98.5405 107.414 100.291 108.025C100.422 108.073 100.559 108.127 100.661 108.42Z" fill="#FEFBF7"/>
<path d="M101.567 134.686C102.071 136.449 101.137 140.183 99.5798 142.549C99.6283 141.88 100.032 141.308 100.217 140.68C100.409 140.034 100.638 139.398 100.786 138.748C100.946 138.06 101.019 137.352 101.173 136.658C101.296 136.022 101.208 135.348 101.567 134.686Z" fill="#FEFBF7"/>
<path d="M60.2394 69.4796C59.1195 68.6443 57.8655 68.016 56.6115 67.3878C55.3638 66.7654 54.0016 66.4422 52.6814 65.9983C54.9 65.7915 58.6046 67.5365 60.2394 69.4796Z" fill="#FEFBF7"/>
<path d="M85.3481 132.723C82.5257 132.898 79.7629 133.412 76.7665 134.126C77.5471 133.426 78.299 133.499 78.961 133.304C79.6788 133.099 80.4097 132.956 81.1346 132.832C81.8285 132.715 82.5227 132.624 83.2236 132.576C83.943 132.52 84.6623 132.452 85.3481 132.723Z" fill="#FEFBF7"/>
<path d="M61.0441 72.6647C60.9332 72.7335 60.9089 72.7723 60.8778 72.7679C60.8095 72.7658 60.7165 72.7651 60.6726 72.7242C59.3618 71.4524 57.9103 70.357 56.3732 69.3662C58.1929 70.1038 59.9392 70.9328 61.0441 72.6647Z" fill="#FEFBF7"/>
<path d="M50.9735 74.8123C51.1787 74.8561 51.315 74.8479 51.384 74.9123C52.7622 76.1116 54.3238 77.0761 55.7202 78.2432C53.8587 77.6386 52.1076 76.3744 50.9735 74.8123Z" fill="#FEFBF7"/>
<path d="M85.2213 56.377C83.3666 55.853 81.8458 54.6683 80.016 54.1428C81.4241 54.1273 84.2168 55.3171 85.2213 56.377Z" fill="#FEFBF7"/>
<path d="M108.903 135.417C108.716 133.605 108.151 131.933 107.176 130.175C108.508 131.047 109.305 133.588 108.903 135.417Z" fill="#FEFBF7"/>
<path d="M104.711 91.4692C103.909 91.2618 103.69 90.541 103.232 90.1017C102.743 89.6333 102.241 89.1779 101.665 88.64C102.639 88.688 104.043 90.0226 104.711 91.4692Z" fill="#FEFBF7"/>
</g>
</svg>
