<svg width="207" height="210" viewBox="0 0 207 210" fill="none" xmlns="http://www.w3.org/2000/svg">
<g opacity="1">
<path d="M-13.4767 234.083C-12.7174 233.276 -6.54842 228.14 -5.74012 227.397C-3.6588 225.479 -1.68935 223.434 0.322206 221.446C0.996519 220.109 2.42198 219.412 3.08932 218.068C3.14214 217.96 3.25053 217.895 3.33798 217.808C4.42662 216.662 5.3416 215.381 6.36073 214.178C7.02452 213.396 7.6674 212.593 8.28263 211.775C9.13207 210.656 9.99522 209.538 10.8098 208.383C11.4841 207.423 12.2137 206.493 12.8947 205.526C13.6694 204.439 14.4094 203.33 15.1983 202.271C16.0675 201.105 16.8327 199.874 17.6602 198.678C18.8546 196.939 20.007 195.157 21.1597 193.389C21.926 192.213 22.6643 191.008 23.4305 189.832C24.1836 188.682 24.9575 187.554 25.7175 186.412C26.3442 185.471 26.9707 184.517 27.5974 183.576C28.5109 182.212 29.4104 180.834 30.3585 179.492C31.1332 178.405 31.9842 177.368 32.7935 176.303C33.2883 175.646 33.7693 174.975 34.2225 174.289C34.616 173.705 35.1064 173.178 35.5486 172.643C36.2254 171.821 36.8812 170.977 37.558 170.154C38.6364 168.823 39.9378 167.704 40.9889 166.372C42.4949 164.45 44.3636 162.896 46.0301 161.137C46.6012 160.53 47.1649 159.89 47.8269 159.389C49.3129 158.255 50.5404 156.832 51.9915 155.663C52.8285 154.989 53.5324 154.154 54.4264 153.605C55.5506 152.913 56.3747 151.903 57.4428 151.14C58.3286 150.516 59.185 149.781 60.0282 149.074C60.9252 148.313 61.8153 147.544 62.8244 146.924C63.4204 146.558 63.8968 146.018 64.499 145.618C65.6766 144.845 66.7131 143.848 67.8977 143.082C69.5693 141.989 71.2061 140.859 72.8847 139.773C75.0574 138.365 77.2446 136.999 79.5162 135.759C79.7806 135.61 79.9463 135.306 80.3422 135.236C80.3357 136.011 80.3212 136.724 80.3204 137.437C80.3115 139.974 80.8285 142.437 81.4896 144.913C82.1285 147.298 83.1954 149.498 84.4662 151.608C85.1369 152.718 85.7881 153.89 86.7971 154.779C87.2146 155.148 87.3272 155.693 87.745 156.076C88.6294 156.892 89.6003 157.566 90.6338 158.291C91.074 159.155 90.9688 160.152 91.1366 161.104C91.9102 165.256 93.3031 169.2 95.5537 172.856C97.1974 175.519 99.2194 177.892 101.571 179.939C103.331 181.467 105.239 182.822 107.287 183.968C110.503 185.775 113.941 186.888 117.424 187.914C118.836 188.335 120.26 188.701 121.651 189.155C124.765 190.169 127.91 191.055 130.946 192.3C131.325 192.456 131.691 192.625 132.064 192.787C132.775 193.104 133.507 193.428 134.326 193.261C135.315 192.674 135.606 191.758 135.538 190.61C135.47 189.532 135.144 188.541 134.6 187.599C133.045 184.918 131.456 182.256 129.928 179.562C128.641 177.287 127.441 174.967 126.154 172.706C125.468 171.499 124.762 170.297 123.879 169.214C123.739 169.045 123.647 168.871 123.71 168.585C124.135 168.598 124.469 168.883 124.841 169.031C127.249 169.99 129.72 170.704 132.235 171.192C135.472 171.82 138.729 172.036 141.981 172.006C145.383 171.967 148.74 171.624 152.034 170.882C154.448 170.339 156.74 169.484 159.047 168.643C162.237 167.472 165.327 166.052 168.661 165.242C169.404 165.066 170.001 164.728 170.164 163.91C170.24 163.556 170.247 163.2 170.042 162.844C169.632 162.132 169.209 161.446 168.724 160.78C167.734 159.426 166.421 158.364 165.418 157.051C164.478 155.815 163.37 154.76 162.309 153.644C161.736 153.036 161.387 152.278 160.76 151.71C160.189 151.185 159.591 150.659 159.242 149.915C159.107 149.63 158.795 149.421 158.558 149.181C157.476 148.085 156.388 146.982 155.23 145.808C155.605 145.716 155.85 145.628 156.117 145.602C158.38 145.404 160.483 144.721 162.557 143.9C164.801 143.009 166.826 141.762 168.822 140.459C169.641 139.928 170.375 139.245 171.152 138.645C173.26 137.05 174.998 135.081 176.882 133.26C177.852 132.329 178.466 131.066 179.547 130.304C179.612 130.086 179.643 129.93 179.716 129.788C180.482 128.234 179.511 127.155 178.445 126.505C177.323 125.826 176.129 125.303 174.935 124.779C172.505 123.717 170.075 122.655 167.672 121.525C165.255 120.395 162.845 119.285 160.233 118.739C160.13 118.715 160.038 118.596 159.92 118.503C160.359 117.412 160.805 116.329 161.238 115.245C161.847 113.707 162.435 112.148 163.044 110.61C163.686 108.998 164.369 107.401 164.97 105.774C165.387 104.621 165.812 103.489 166.526 102.475C167.114 101.643 167.104 101.471 166.956 100.123C165.753 98.3646 163.893 97.7177 162.12 97.0118C159.382 95.9333 156.644 94.8686 153.998 93.5736C152.831 93.0097 151.748 92.2358 150.581 91.672C148.888 90.8588 147.202 90.0115 145.301 89.4183C145.771 88.5207 146.208 87.6701 146.638 86.8262C147.491 85.145 148.157 83.3689 148.858 81.6145C149.775 79.3113 150.135 76.8469 150.852 74.4895C150.981 74.0547 150.959 73.6014 150.903 73.154C150.829 72.4728 150.511 71.9214 149.848 71.5993C149.288 71.3283 148.717 71.1531 148.132 70.9774C146.459 70.4939 144.759 70.428 143.058 70.2385C142.296 70.1534 141.525 70.2874 140.773 70.3877C140.445 70.4325 140.131 70.4503 139.815 70.4269C139.698 69.9981 139.945 69.6423 139.972 69.2385C140.096 67.4115 139.47 66.5077 137.812 66.0659C136.553 65.7323 135.243 65.6166 133.958 65.392C133.045 65.2336 132.137 65.0549 131.114 64.8657C132.219 63.1443 133.847 61.8709 134.041 59.7512C134.015 59.0646 133.582 58.6262 133.117 58.2348C131.14 57.2414 129.033 56.9915 126.946 56.6805C125.209 56.4283 123.479 56.1694 121.737 56.0473C120.318 55.9557 118.88 55.9663 117.471 56.0876C115.311 56.2817 113.181 56.6551 111.154 57.402C110.229 57.7438 109.318 58.1135 108.421 58.5111C108.19 58.6137 107.993 58.6968 107.697 58.626C108.77 55.8338 109.161 52.8356 109.779 49.9198C110.114 48.3598 110.531 46.816 110.907 45.271C111.022 44.8083 111.151 44.3459 111.211 43.8678C111.312 43.0275 111.167 42.2345 110.411 41.7107C108.872 41.0394 107.47 41.5174 106.165 42.067C103.053 43.3839 99.9759 44.7773 96.7997 45.9757C95.1061 46.6162 93.4131 47.2841 91.7337 47.9525C89.7213 48.7547 87.8007 49.7173 86.0008 50.91C84.6271 51.8209 83.2883 52.7672 81.9989 53.7904C81.2494 54.3777 80.5275 54.9795 79.8618 55.6516C79.4853 56.0377 79.4147 56.6801 78.7823 56.9281C78.1493 55.2492 77.7142 53.5284 77.4291 51.7711C77.1063 49.8275 77.0025 47.8769 76.9259 45.9134C76.8083 42.8172 76.6289 39.7123 76.4154 36.6132C76.3424 35.6098 76.2411 34.5507 75.0794 33.9253C74.6872 34.2012 74.3782 34.5345 74.1061 35.013C73.3969 36.3147 72.6745 37.6433 71.764 38.7948C71.0075 39.7521 70.3208 40.7801 69.3836 41.5947C68.4263 42.4293 67.6374 43.4885 66.6169 44.2319C65.0693 45.3707 63.7798 46.771 62.4415 48.1219C61.2848 49.2932 60.2817 50.6201 59.2157 51.8833C58.3309 52.9395 57.5295 54.0669 56.7416 55.1809C55.5861 56.798 54.6111 58.544 53.8229 60.3986C53.3103 61.5897 52.7979 62.7945 52.389 64.0368C51.5519 66.5962 51.1548 69.2514 51.0674 71.9916C50.6752 71.8904 50.5377 71.4816 50.1857 71.3268C49.952 71.2785 49.726 71.2784 49.5169 71.4571C48.7816 72.0722 48.2409 72.8441 47.8043 73.6947C46.5474 76.1384 45.7868 78.7618 45.2193 81.4598C44.9421 82.7953 44.6991 84.1249 44.5321 85.4912C44.192 88.2716 44.14 91.0746 44.6017 93.8865C45.1942 97.491 46.6032 100.805 48.428 104.015C49.3472 105.621 50.334 107.173 51.4558 108.621C52.641 110.159 53.8741 111.705 55.3627 112.985C58.4231 115.603 61.5234 118.153 65.1779 119.918C68.266 121.418 71.4561 122.497 74.7947 123.08C75.8526 123.263 76.9078 123.295 77.9293 123.361C78.2816 123.53 78.4774 123.755 78.5389 124.127C78.6781 125.009 78.8652 125.886 79.0318 126.769C79.3105 128.169 79.8959 129.49 80.3248 130.868C80.4626 131.29 80.703 131.709 80.5604 132.157C78.5881 133.283 76.6224 134.402 74.6782 135.57C72.8695 136.659 71.1313 137.861 69.3087 138.936C68.2991 139.529 67.3883 140.289 66.4283 140.973C65.3397 141.742 64.2439 142.49 63.1413 143.245C62.5598 143.652 62.0273 144.122 61.4736 144.558C60.7039 145.165 59.9208 145.786 59.123 146.351C58.1899 147.008 57.4879 147.953 56.4215 148.435C56.3468 148.467 56.2932 148.534 56.2463 148.594C55.3341 149.649 54.1635 150.429 53.0692 151.26C51.779 152.242 50.7895 153.569 49.3521 154.361C49.2504 154.42 49.1699 154.513 49.0895 154.607C46.6221 157.144 43.7224 159.242 41.3873 161.899C40.0254 163.455 38.5378 164.884 37.1756 166.426C36.6052 167.073 36.132 167.793 35.2549 168.52C36.1074 167.188 36.7784 166.05 37.5327 164.969C38.8813 163.05 40.1466 161.073 41.3357 159.045C42.6577 156.789 44.0279 154.554 45.142 152.168C46.8231 148.565 48.05 144.838 48.5595 140.828C48.8348 138.629 49.0759 136.435 49.1313 134.201C49.1533 133.146 49.2439 132.093 49.1699 131.035C48.9046 127.344 48.5506 123.672 47.8679 120.003C46.9955 115.306 45.7209 110.714 44.0577 106.213C42.8189 102.842 41.4306 99.5352 39.8925 96.2788C38.9382 94.2472 37.95 92.2352 36.887 90.2551C35.6683 87.9959 34.402 85.7559 33.0747 83.5482C32.1073 81.9345 31.208 80.2954 30.2474 78.675C28.7076 76.0769 27.1067 73.5111 25.7906 70.7895C24.8375 68.8265 24.1091 66.795 23.3875 64.7568C22.9475 63.5296 22.4189 62.3202 21.9995 61.0867C21.7825 60.4492 21.2897 60.0844 20.9128 59.6888C20.4586 59.5651 20.173 59.6798 20.0631 60.0398C19.9153 60.577 19.7745 61.1212 19.7162 61.6817C19.5481 63.3702 19.3868 65.0521 19.2873 66.7428C19.1932 68.3582 18.8861 69.9327 18.6545 71.5165C18.3018 73.9742 17.9284 76.4244 17.4451 78.8575C17.0054 81.052 16.49 83.2236 15.9539 85.3877C15.1751 88.518 14.3482 91.64 13.4729 94.7399C12.8932 96.7655 12.3689 98.8202 12.1677 100.947C12.0647 102.068 11.9275 103.195 11.9551 104.341C12.0023 105.817 11.9878 107.284 12.0487 108.76C12.1783 112.138 12.7795 115.468 13.654 118.766C14.4182 121.642 15.5435 124.413 16.7843 127.139C17.6617 129.079 18.4302 131.057 19.2123 133.035C20.5324 136.353 21.6685 139.728 22.7979 143.109C23.5584 145.402 24.1756 147.725 24.759 150.067C25.3787 152.527 25.7866 155.015 26.215 157.497C26.3597 158.304 26.395 159.121 26.4508 159.932C26.616 162.254 26.8431 164.586 26.7686 166.908C26.6238 171.395 26.2318 175.847 24.9603 180.135C24.5406 181.541 24.1279 182.955 23.5842 184.317C23.25 185.15 22.7711 185.93 22.2779 186.683C21.0256 188.62 19.7039 190.513 18.5071 192.492C17.3501 194.404 15.9714 196.172 14.7798 198.062C13.9677 199.353 13.0308 200.559 12.2397 201.872C11.5681 202.983 10.633 203.907 9.92678 204.996C9.18073 206.153 8.28869 207.188 7.49407 208.309C6.99993 209.007 6.45774 209.696 5.91528 210.372C5.30579 211.128 4.5787 211.819 4.14984 212.718C4.11695 212.792 4.04944 212.845 3.98864 212.891C2.98374 213.745 2.41035 214.982 1.41243 215.843C0.812434 216.366 0.525069 217.139 -0.0746798 217.676C-0.627337 218.167 -1.24873 218.641 -1.51588 219.394C-3.588 221.442 -5.6601 223.491 -7.73221 225.539C-8.54349 226.319 -14.2655 231.014 -15.0467 231.744C-14.8723 231.921 -14.3507 232.025 -14.1763 232.202C-13.444 231.422 -8.00438 226.772 -7.22995 226.048C-4.25985 223.294 -1.36673 220.448 1.26158 217.347C1.30843 217.287 1.39661 217.241 1.42278 217.174C1.65006 216.488 2.21096 216.073 2.69584 215.622C3.19418 215.157 3.42868 214.492 3.92727 214.041C4.68849 213.345 5.213 212.435 5.87679 211.653C6.33278 211.119 6.83713 210.606 7.20966 210.001C7.98163 208.763 8.96188 207.682 9.7757 206.486C10.2028 205.869 10.6924 205.301 11.1197 204.697C11.8209 203.71 12.4942 202.696 13.1884 201.702C13.8358 200.769 14.5385 199.865 15.1719 198.917C15.9588 197.748 16.6972 196.544 17.4564 195.36C18.4557 193.814 19.4549 192.267 20.4611 190.728C21.4473 189.222 22.4543 187.724 23.4612 186.226C24.2411 185.05 25.0211 183.874 25.815 182.712C26.7422 181.349 27.6626 179.992 28.6244 178.65C29.3393 177.664 30.0819 176.692 30.7968 175.706C31.7856 174.338 32.8714 173.041 33.8532 171.665C34.4144 170.887 35.1427 170.265 35.6695 169.479C36.5364 168.189 37.605 167.077 38.6603 165.978C41.8863 162.607 45.2659 159.392 48.5826 156.114C48.7508 155.947 48.8973 155.719 49.1078 155.622C49.8887 155.256 50.4458 154.635 51.0033 154.028C51.594 153.374 52.4372 153.044 53.028 152.39C53.9412 151.389 55.1063 150.684 56.1174 149.797C56.7309 149.26 57.3434 148.669 58.0268 148.217C59.482 147.267 60.7482 146.099 62.1473 145.079C63.2895 144.243 64.4317 143.408 65.5669 142.565C66.0669 142.196 66.5386 141.772 67.0666 141.432C68.0212 140.823 68.9685 140.194 69.923 139.586C71.1415 138.8 72.3462 138.014 73.5716 137.236C74.6955 136.53 75.8335 135.838 76.9645 135.139C77.0661 135.081 77.1214 135.11 77.1366 135.193C77.2327 135.586 76.9502 135.866 76.914 136.139C75.6612 136.916 74.4553 137.634 73.2847 138.414C72.0125 139.252 70.7544 140.119 69.4964 140.985C68.5022 141.675 67.4662 142.322 66.5069 143.046C65.3179 143.942 64.1081 144.831 62.9191 145.727C61.541 146.768 60.1768 147.823 58.8335 148.9C57.7265 149.784 56.529 150.591 55.5689 151.652C55.4884 151.745 55.4149 151.846 55.3063 151.898C54.0368 152.51 53.3418 153.839 52.0723 154.452C50.2915 156.324 48.1474 157.801 46.3805 159.687C44.2038 162.006 41.748 164.043 39.7523 166.533C38.8884 167.61 37.8855 168.573 36.98 169.622C36.2556 170.464 35.6075 171.356 34.8762 172.191C33.8499 173.373 33.0251 174.719 32.0406 175.943C31.6922 176.372 31.4341 176.864 31.0857 177.292C30.2953 178.269 29.5328 179.274 28.8257 180.309C27.7181 181.92 26.659 183.568 25.5723 185.201C24.7924 186.377 23.9985 187.538 23.2255 188.722C22.2861 190.167 21.4299 191.67 20.435 193.072C19.1395 194.898 18.0172 196.831 16.7217 198.656C15.8002 199.958 14.9278 201.324 14.0203 202.64C13.1061 203.962 12.1502 205.256 11.2014 206.558C9.87822 208.368 8.51321 210.137 7.16914 211.926C6.67452 212.597 6.08252 213.182 5.59462 213.846C4.73247 215.019 3.8566 216.192 2.8345 217.231C2.69322 217.37 2.50358 217.488 2.42458 217.664C2.08893 218.415 1.47522 218.937 0.895893 219.468C0.303121 220.012 -0.0397776 220.742 -0.604894 221.301C-2.20657 222.856 -3.78032 224.44 -5.36804 226.009C-5.67751 226.315 -5.95136 226.698 -6.33108 226.905C-7.29385 227.438 -13.2152 232.644 -13.9896 233.368C-13.8282 233.585 -13.658 233.899 -13.4767 234.083ZM81.8394 94.5785C81.875 94.655 82.0549 94.7565 81.816 94.7972C81.8351 94.7223 81.8613 94.6546 81.8805 94.5797C81.7756 94.4599 81.7667 94.3431 81.8673 94.2296C81.6918 93.2299 81.5436 92.2311 81.3543 91.231C80.841 88.5958 80.3755 85.9552 79.4867 83.3839C78.3159 79.9879 76.6894 76.7631 75.3826 73.4178C74.4562 71.0373 73.7074 68.6349 73.1221 66.1826C72.7069 64.4282 72.4968 62.6526 72.2729 60.8766C72.0159 58.7841 71.9852 56.7054 72.078 54.6443C72.1848 52.2202 72.7523 49.8994 73.5398 47.6264C74.425 45.0754 75.2619 42.5023 75.5892 39.7763C75.6134 39.5988 75.721 39.4924 75.8493 39.3935C75.7863 39.3161 75.7098 39.252 75.8177 39.1593C75.9425 39.2455 75.8548 39.3182 75.8082 39.3922C76.0831 41.3412 75.9403 43.2842 76.1604 45.2316C76.3215 46.5668 76.291 47.9099 76.3908 49.2638C76.5991 52.0747 77.2783 54.7973 78.1148 57.5042C78.7336 59.5323 79.3047 61.5796 79.8143 63.6318C80.6863 67.1694 81.2781 70.7328 81.6309 74.3367C81.8743 76.8196 82.056 79.2938 82.1966 81.7667C82.3713 84.988 82.4022 88.2118 82.2206 91.4222C82.1804 92.2301 82.1265 93.0376 82.0864 93.8455C82.0759 94.0235 81.9682 94.1298 81.8399 94.2288C81.9652 94.3423 81.9538 94.4654 81.8394 94.5785ZM51.1881 77.1519C51.3209 77.2999 51.5832 77.4177 51.3893 77.6792C51.5697 77.8081 51.621 77.9949 51.6933 78.2028C52.7527 81.1222 54.4087 83.7034 56.5517 85.9567C59.3856 88.9238 62.2932 91.804 65.1742 94.7245C65.4114 94.9649 65.6892 95.1792 65.8586 95.4587C66.6972 96.7667 67.7657 97.9173 68.6381 99.2058C69.3486 100.249 70.1613 101.262 70.8649 102.298C71.6812 103.516 72.5113 104.735 73.2599 105.992C73.9874 107.215 74.7148 108.437 75.4492 109.667C74.3505 108.741 73.2929 107.817 72.202 106.94C71.9448 106.734 71.7476 106.426 71.4638 106.259C70.2181 105.535 69.1929 104.51 68.0139 103.692C66.8004 102.852 65.7336 101.798 64.5267 100.951C63.9789 100.571 63.5447 100.037 62.9776 99.7313C62.0097 99.2215 61.4437 98.2167 60.4563 97.7681C59.0734 96.2718 57.5023 94.9756 56.3077 93.2931C55.2537 91.807 54.3496 90.2844 53.7097 88.5984C52.6961 85.941 52.0577 83.206 51.5969 80.449C51.4508 79.5599 51.105 78.6167 51.4103 77.7004C51.2638 77.5519 51.0697 77.4225 51.2364 77.1739C51.1871 77.097 51.1036 77.0258 51.2185 76.9402C51.3226 77.0188 51.2554 77.0853 51.1881 77.1519ZM131.536 130.261C131.462 130.321 131.381 130.387 131.289 130.254C131.384 130.174 131.461 130.252 131.53 130.309C131.631 130.209 131.734 130.247 131.859 130.292C133.955 131.083 136.018 131.962 138.023 132.998C140.746 134.412 143.23 136.216 145.668 138.094C146.362 138.623 146.95 139.286 147.657 139.76C148.932 140.622 149.993 141.725 151.134 142.733C152.672 144.077 154.069 145.601 155.479 147.084C156.792 148.468 158.151 149.806 159.39 151.277C160.832 152.995 162.213 154.786 163.891 156.298C164.169 156.553 164.489 156.81 164.711 157.331C162.241 155.973 159.746 155.087 157.33 153.998C154.941 152.923 152.737 151.471 150.768 149.744C148.674 147.903 146.828 145.789 145.042 143.643C144.993 143.58 144.937 143.51 144.888 143.446C144.045 142.282 143.264 141.086 142.367 139.961C141.617 139.026 140.726 138.217 139.996 137.248C138.937 135.851 137.346 134.979 136.179 133.675C135.276 133.325 134.72 132.492 133.923 131.967C133.119 131.434 132.234 130.982 131.536 130.261ZM27.1725 174.093C26.9418 173.832 27.046 173.534 27.0893 173.282C27.3957 171.289 27.5167 169.27 27.4662 167.238C27.4129 164.665 27.442 162.108 27.1763 159.536C27.01 157.912 26.8028 156.301 26.5204 154.695C26.2609 153.22 25.9261 151.749 25.5844 150.271C25.0566 147.971 24.4673 145.677 23.6871 143.431C22.4874 139.952 21.3899 136.441 19.9725 133.038C18.8702 130.398 17.9039 127.708 16.7406 125.101C15.3707 122.055 14.3895 118.919 13.6944 115.695C13.1716 113.293 12.9702 110.866 12.7277 108.438C12.6938 108.08 12.6186 107.708 12.7906 107.37C12.7823 107.295 12.575 107.192 12.821 107.159C12.7948 107.226 12.7756 107.301 12.7494 107.369C12.8476 107.496 12.9732 107.623 13.0372 107.755C13.5292 108.833 13.994 109.924 14.4995 110.989C15.5248 113.159 16.6658 115.286 17.976 117.301C19.0397 118.945 20.0631 120.629 21.2896 122.182C22.3479 123.525 23.2308 125.012 24.2081 126.421C25.4176 128.172 26.5524 129.956 27.5655 131.831C29.0533 134.579 30.2824 137.414 31.1512 140.396C31.9107 143.012 32.2668 145.663 32.4726 148.336C32.6434 150.584 32.4783 152.814 32.2305 155.014C31.8051 158.759 30.9675 162.422 29.93 166.018C29.4016 167.853 28.8182 169.673 28.1865 171.471C27.8807 172.36 27.6442 173.292 27.1244 174.085C27.1874 174.162 27.2575 174.247 27.1219 174.325C27.0449 174.233 27.1122 174.167 27.1725 174.093ZM22.5595 65.1702C22.7949 65.3146 22.8201 65.5691 22.9132 65.7982C23.5455 67.4359 24.1707 69.0666 24.9323 70.6603C25.9781 72.825 27.1459 74.9249 28.3953 76.9861C29.7149 79.1455 30.9802 81.3307 32.2525 83.5229C33.3197 85.3592 34.3732 87.195 35.3794 89.0636C36.4068 90.9672 37.3933 92.8832 38.3596 94.8192C40.079 98.2594 41.5876 101.782 42.933 105.369C44.0122 108.241 44.9824 111.151 45.762 114.123C46.446 116.729 47.0208 119.36 47.4248 122.005C47.7206 123.975 47.9619 125.958 48.2099 127.933C48.2585 128.346 48.2181 128.763 48.2206 129.278C47.8586 128.951 47.8386 128.608 47.7375 128.316C47.2475 126.971 46.7645 125.633 46.0976 124.351C44.9407 122.1 43.6346 119.927 42.1931 117.847C40.864 115.92 39.4403 114.059 38.003 112.212C37.0426 110.982 36.1635 109.7 35.2706 108.418C33.6256 106.063 32.1366 103.624 30.7831 101.107C28.2533 96.4011 26.1384 91.5361 24.7854 86.3928C23.6523 82.0517 23.0798 77.6593 22.8355 73.2358C22.724 71.237 22.6945 69.2269 22.6994 67.2248C22.7007 66.5391 22.3188 65.8691 22.5941 65.1919C22.5448 65.1149 22.4544 65.0367 22.5762 64.9582C22.6938 65.0235 22.6198 65.0967 22.5595 65.1702ZM104.19 150.938C104.115 150.97 104.015 151.139 103.97 150.904C104.046 150.927 104.115 150.957 104.19 150.979C104.299 150.942 104.408 150.89 104.517 150.88C106.24 150.686 107.897 150.332 109.409 149.494C110.921 148.656 112.14 147.548 113.1 146.097C113.96 144.786 114.468 143.348 114.783 141.822C114.984 140.84 115.075 139.815 114.927 138.788C114.557 136.137 113.506 133.712 112.129 131.4C111.345 130.08 110.548 128.773 109.757 127.459C109.872 127.387 109.939 127.321 110.001 127.316C112.092 127.092 114.218 127.226 116.326 127.181C117.127 127.158 117.945 127.341 118.761 127.373C120.672 127.438 122.568 127.771 124.439 128.212C126.42 128.685 128.277 129.517 130.102 130.464C131.851 131.375 133.466 132.46 134.989 133.734C135.656 134.29 136.244 134.993 136.971 135.407C138.347 136.183 139.097 137.508 139.988 138.654C140.892 139.813 141.763 141.005 142.633 142.198C143.146 142.892 143.692 143.581 144.198 144.269C145.132 145.538 146.045 146.801 147.167 147.912C147.906 148.648 148.653 149.391 149.385 150.133C150.376 151.137 151.573 151.853 152.758 152.596C154.503 153.692 156.439 154.348 158.297 155.193C160.264 156.084 162.324 156.771 164.226 157.81C164.904 158.174 165.582 158.565 166.2 159.029C167.276 159.837 167.962 161.017 168.781 162.05C169.153 162.521 169.588 163.124 169.423 163.832C169.104 164.344 168.607 164.541 168.049 164.702C165.629 165.348 163.318 166.264 161.006 167.181C159.252 167.881 157.455 168.511 155.673 169.142C151.27 170.687 146.643 171.183 141.947 171.299C139.312 171.362 136.666 171.184 134.022 170.767C130.76 170.249 127.575 169.458 124.484 168.17C123.262 167.659 122.035 167.196 121.469 165.828C121.426 165.717 121.302 165.645 121.211 165.553C120.576 164.896 120.048 164.132 119.535 163.41C118.664 162.19 117.618 161.129 116.666 160.003C115.259 158.321 113.597 156.878 111.786 155.595C110.281 154.527 108.756 153.534 107.165 152.607C106.202 151.994 105.113 151.632 104.19 150.938ZM81.0895 107.639C83.0598 97.3108 83.4487 87.0097 82.637 76.5825C82.7145 76.3243 82.9796 76.2159 83.0786 76.0064C83.8244 74.459 84.8757 73.1405 86.1006 71.9575C87.0497 71.0473 87.8936 70.0035 88.9548 69.2339C90.3674 68.2007 91.8643 67.2936 93.4171 66.443C96.2716 64.8645 99.3205 63.8199 102.484 63.0669C106.091 62.2109 109.829 62.1612 113.555 62.1935C115.172 62.2157 116.805 62.4168 118.419 62.679C121.715 63.1917 124.956 64.0388 128.197 64.8858C130.412 65.4613 132.627 66.0231 134.892 66.2984C135.894 66.4252 136.91 66.5524 137.889 66.898C138.881 67.2439 139.184 67.6852 139.196 68.7347C139.194 69.0158 139.144 69.2885 139.074 69.5675C138.623 71.5216 138.351 73.5087 138.092 75.4962C137.67 78.6375 137.185 81.77 136.749 84.9108C136.434 87.1777 135.947 89.405 135.432 91.6178C134.739 94.5656 134.012 97.5055 132.629 100.185C131.557 102.278 130.514 104.385 129.096 106.276C128.468 107.12 127.839 107.979 127.225 108.837C126.397 109.991 125.471 111.06 124.524 112.108C123.329 113.429 121.861 114.433 120.443 115.513C119.288 116.39 118.077 117.21 116.808 117.877C113.464 119.633 109.928 121.005 106.131 121.938C105.692 121.142 105.259 120.313 104.779 119.517C103.324 117.099 102.387 114.506 101.688 111.817C101.173 109.84 100.781 107.839 100.02 105.924C99.4037 104.396 98.6586 102.954 97.4254 101.784C96.1294 100.551 94.5991 99.9969 92.9052 99.8557C91.9038 99.7701 91.0345 100.168 90.1437 100.518C87.8863 101.409 85.8965 102.705 84.0195 104.184C82.8442 105.08 82.1073 106.367 81.0895 107.639ZM142.98 135.262C138.046 131.648 132.537 129.551 126.826 128.032C121.032 126.482 115.171 126.186 109.321 126.815C108.44 125.437 107.566 124.066 106.65 122.639C107.099 122.502 107.44 122.403 107.781 122.304C109.988 121.672 112.137 120.874 114.23 119.951C116.207 119.086 118.064 118.019 119.864 116.826C121.387 115.824 122.728 114.637 124.139 113.522C124.996 112.842 125.693 111.972 126.389 111.088C127.212 110.037 128.022 108.985 128.845 107.934C130.15 106.267 131.275 104.471 132.283 102.623C134.119 99.2574 135.402 95.642 136.155 91.8251C136.374 90.7004 136.676 89.592 136.918 88.5709C137.202 88.3602 137.409 88.4351 137.607 88.4069C138.229 88.3506 138.821 88.5471 139.425 88.6342C141.238 88.9094 143.045 89.2186 144.776 89.8821C147.479 90.9115 150.076 92.1433 152.608 93.6063C155.086 95.0401 157.769 96.0757 160.443 97.0631C161.822 97.5717 163.201 98.1078 164.488 98.8194C165.283 99.2621 166.378 99.5906 166.442 100.868C166.366 101.209 166.25 101.562 166.03 101.918C165.624 102.585 165.191 103.223 164.91 103.975C163.674 107.222 162.418 110.461 161.127 113.678C159.646 117.363 158.069 121.004 155.966 124.368C155.2 125.599 154.352 126.8 153.33 127.825C152.187 128.969 151.078 130.149 149.746 131.116C148.442 132.056 147.186 133.06 145.797 133.861C144.875 134.367 143.974 134.936 142.98 135.262ZM25.3464 181.792C25.559 180.674 26.0416 179.722 26.4003 178.725C27.2802 176.263 28.2292 173.831 29.0678 171.354C30.1473 168.192 31.0891 164.984 31.8244 161.715C32.5272 158.548 33.0855 155.342 33.2251 152.076C33.3464 149.316 33.2275 146.529 32.7052 143.777C32.0843 140.494 30.993 137.326 29.5815 134.252C27.9062 130.601 25.7159 127.249 23.3968 123.968C22.3355 122.461 21.281 120.948 20.2468 119.428C18.5094 116.886 16.9487 114.266 15.5367 111.542C14.7489 110.016 13.9812 108.456 13.4591 106.849C12.7706 104.75 12.8133 102.571 13.0348 100.425C13.2452 98.4289 13.7718 96.4977 14.3123 94.5806C15.297 91.0932 16.1922 87.5824 17.0598 84.0571C17.889 80.6815 18.5121 77.2721 19.0593 73.826C19.6874 69.9368 20.1441 66.0354 20.3946 62.0866C20.4203 61.6142 20.4313 61.0866 20.8586 60.4825C21.0836 61.182 21.3182 61.6624 21.3889 62.1651C21.5789 63.5835 21.7552 65.0015 21.8152 66.4228C21.9542 69.5676 21.8947 72.7132 22.1912 75.856C22.3271 77.3139 22.4563 78.7784 22.688 80.2255C23.1048 82.8303 23.6653 85.419 24.4237 87.9794C25.1389 90.4151 25.99 92.8001 26.991 95.1349C28.0848 97.6851 29.2873 100.184 30.6799 102.592C31.6201 104.219 32.5535 105.852 33.636 107.394C34.2967 108.333 34.8288 109.357 35.5366 110.25C36.2795 111.192 36.8938 112.219 37.6566 113.127C38.2513 113.824 38.8054 114.547 39.3253 115.276C40.351 116.707 41.4172 118.111 42.3821 119.587C44.2842 122.526 46.0161 125.521 47.1168 128.832C47.8701 131.104 48.4243 133.35 48.2624 135.759C48.1285 137.819 47.9529 139.85 47.6336 141.883C47.1418 144.981 46.2573 147.951 44.9521 150.75C44.0622 152.663 43.1449 154.575 42.0271 156.378C40.4764 158.861 39.0438 161.436 37.4376 163.876C36.1177 165.865 34.7771 167.847 33.381 169.786C32.0583 171.624 30.9161 173.591 29.7459 175.53C28.7155 177.247 27.5117 178.842 26.3633 180.466C26.0563 180.909 25.9095 181.501 25.3464 181.792ZM88.6386 143.391C87.8006 142.487 87.2196 141.79 86.6386 141.094C85.3367 139.531 84.3265 137.82 83.3497 136.062C81.9412 133.53 80.9956 130.847 80.2199 128.094C79.2397 124.636 78.6567 121.175 78.8526 117.616C78.9933 115.172 79.3958 112.819 80.3697 110.627C81.3042 108.53 82.5018 106.592 84.1782 105.005C84.6967 104.52 85.2782 104.113 85.8179 103.663C87.4914 102.288 89.4351 101.47 91.4854 100.868C93.4062 100.296 95.3981 101.009 96.8167 102.582C98.0603 103.95 98.917 105.506 99.5164 107.218C100.101 108.888 100.502 110.587 100.978 112.282C101.476 114.094 102.035 115.873 102.834 117.599C104.401 120.979 106.64 123.976 108.594 127.129C109.976 129.352 111.406 131.528 112.578 133.875C113.552 135.832 114.115 137.845 114.127 139.984C114.144 142.453 113.32 144.622 111.889 146.498C110.664 148.1 108.95 149.096 106.981 149.632C104.085 150.428 101.171 150.222 98.2436 149.302C94.4625 148.109 91.2929 145.893 88.6386 143.391ZM75.0848 34.6043C75.3554 34.7977 75.4747 34.9591 75.4856 35.1857C75.5035 35.7966 75.5765 36.4228 75.5119 37.0174C75.1883 39.9491 74.3479 42.7073 73.0666 45.3148C71.6532 48.1924 70.4189 51.1305 70.2189 54.4569C70.0674 57.0648 70.21 59.6475 70.7567 62.2357C71.3861 65.231 72.4106 68.1151 73.5104 70.9946C74.7682 74.2766 76.2977 77.4436 77.6369 80.6871C78.1957 82.0482 78.816 83.4045 79.2178 84.7951C80.2186 88.2613 80.9534 91.781 81.2302 95.3483C81.4704 98.4071 81.3266 101.44 80.8194 104.442C80.4791 106.454 80.0081 108.428 79.482 110.387C79.1485 111.639 78.7807 112.882 78.4333 114.119C78.2409 114.086 78.2048 113.982 78.1614 113.857C77.467 111.806 76.4533 109.903 75.3442 108.024C74.1855 106.055 72.9252 104.144 71.6716 102.227C70.418 100.31 69.0426 98.4708 67.6876 96.6258C66.7611 95.3767 65.7391 94.1522 64.5961 93.0473C62.3726 90.8876 60.2567 88.6214 58.0399 86.455C56.3948 84.8547 54.9865 83.0903 53.8415 81.1214C52.3575 78.5798 51.4388 75.8704 51.6192 72.9685C51.6885 71.8804 51.7031 70.7906 51.8409 69.7045C52.1997 66.8218 52.9376 64.0811 54.0954 61.4561C55.056 59.2914 56.1417 57.2265 57.511 55.3143C58.172 54.3815 58.8543 53.4836 59.5433 52.5791C60.5604 51.2663 61.6057 49.9956 62.7482 48.7964C64.3411 47.138 66.0178 45.5644 67.7782 44.0756C69.3228 42.7723 70.7416 41.3279 71.9374 39.6709C72.3448 39.1006 72.7452 38.5232 73.1177 37.9175C73.7833 36.8545 74.4137 35.7425 75.0848 34.6043ZM100.173 150.719C101.55 151.872 102.407 153.064 103.183 154.35C103.804 155.37 104.221 156.48 104.747 157.538C106.254 160.574 107.597 163.674 109.396 166.561C110.136 167.743 110.843 168.944 111.827 169.955C112.853 171.022 113.865 172.102 114.918 173.142C116.103 174.317 117.449 175.291 118.788 176.217C120.431 177.357 122.028 178.572 123.719 179.639C125.062 180.489 126.353 181.421 127.657 182.338C128.531 182.941 129.445 183.518 130.238 184.214C131.24 185.095 132.223 186.038 133.05 187.078C134.192 188.505 135.226 190.025 134.543 191.999C134.327 192.171 134.196 192.51 133.662 192.548C133.276 192.399 132.745 192.184 132.214 191.982C130.848 191.433 129.502 190.822 128.117 190.348C126.105 189.669 124.06 189.078 122.036 188.467C119.764 187.78 117.499 187.114 115.233 186.42C113.67 185.94 112.127 185.413 110.629 184.743C108.695 183.874 106.822 182.905 105.074 181.658C103.77 180.726 102.452 179.808 101.302 178.683C100.242 177.635 99.1956 176.574 98.2768 175.374C97.2671 174.067 96.2982 172.748 95.4985 171.318C93.0422 166.888 91.7582 162.152 91.4152 157.197C91.2559 154.826 91.3296 152.463 91.4788 150.109C91.5434 149.137 91.5865 148.117 92.0069 147.128C94.6062 148.861 97.4129 149.941 100.173 150.719ZM49.9601 72.1084C50.0453 72.6527 50.1559 73.0881 50.1915 73.5418C50.3884 76.0987 50.599 78.656 51.0149 81.2059C51.5229 84.3072 52.0785 87.3895 53.2825 90.3476C54.1785 92.5626 55.3591 94.608 57.0413 96.3671C58.1023 97.4831 59.3373 98.3714 60.5591 99.2866C62.107 100.438 63.7481 101.442 65.296 102.593C66.4067 103.423 67.5243 104.26 68.6352 105.103C69.3226 105.625 70.0102 106.16 70.6774 106.702C71.7337 107.557 72.8235 108.365 73.8061 109.307C74.3774 109.846 74.8275 110.505 75.3313 111.096C76.1708 112.082 76.8542 113.138 77.3751 114.299C77.8601 115.37 78.4 116.443 78.0663 117.681C77.9504 118.089 78.0413 118.571 78.0494 119.024C78.085 120.232 78.1275 121.447 78.1635 122.682C76.1845 122.683 74.2668 122.288 72.3685 121.832C70.5871 121.4 68.8381 120.867 67.1464 120.095C65.22 119.22 63.3462 118.223 61.585 117.016C60.6351 116.363 59.7322 115.663 58.8223 114.957C57.6138 114.014 56.4593 113.033 55.3312 111.997C54.4121 111.159 53.641 110.176 52.8296 109.232C51.8573 108.098 50.9457 106.918 50.1699 105.674C48.8655 103.597 47.7375 101.43 46.8061 99.1519C45.6457 96.3323 45.0933 93.4285 44.978 90.4558C44.8556 87.476 45.3237 84.583 45.9084 81.7004C46.3862 79.3425 47.0571 77.0592 47.9968 74.8732C48.4372 73.8513 48.9189 72.8444 49.9601 72.1084ZM143.716 135.792C147.263 133.906 150.505 131.791 153.207 128.994C155.916 126.176 157.855 122.835 159.4 119.241C159.777 119.273 160.077 119.241 160.339 119.332C161.959 119.91 163.605 120.42 165.165 121.126C168.873 122.824 172.561 124.555 176.302 126.165C177.089 126.505 177.843 126.919 178.51 127.461C179.49 128.252 179.358 129.276 178.396 129.85C175.631 131.493 172.718 132.837 169.605 133.777C166.384 134.754 163.333 136.052 160.532 137.927C158.969 138.97 157.441 140.047 155.912 141.125C154.871 141.861 153.859 142.707 152.501 142.947C149.691 140.529 146.933 138.003 143.716 135.792ZM82.4961 75.6044C82.0154 69.4731 80.7666 63.6542 79.0149 58.053C79.4725 56.8465 80.3431 56.1395 81.1232 55.3543C81.7083 54.762 82.3845 54.2891 83.0326 53.7742C84.0452 52.9687 85.0995 52.192 86.1826 51.4985C89.0936 49.6405 92.3162 48.3544 95.5892 47.2002C97.5625 46.5065 99.493 45.7156 101.402 44.876C102.72 44.2994 104.059 43.7577 105.643 43.0864C104.522 44.3342 103.526 45.291 102.655 46.3614C101.563 47.7061 100.54 49.0803 99.5452 50.4966C98.2567 52.329 97.1964 54.285 96.1571 56.2622C94.7076 59.0359 93.355 61.8674 91.6702 64.5105C90.7044 66.0099 89.6965 67.4532 88.4107 68.6823C87.3742 69.679 86.3167 70.6545 85.3497 71.7082C84.7115 72.3949 84.1987 73.1951 83.644 73.9529C83.2765 74.4559 82.9433 74.9668 82.4961 75.6044ZM132.099 184.847C131.866 184.84 131.767 184.7 131.649 184.58C130.672 183.562 129.454 182.853 128.329 182.023C127.08 181.107 125.771 180.264 124.501 179.382C123.6 178.751 122.718 178.072 121.796 177.461C120.534 176.613 119.373 175.624 118.198 174.676C117.427 174.056 116.85 173.202 115.951 172.721C115.778 172.627 115.59 172.45 115.525 172.276C115.253 171.582 114.649 171.173 114.188 170.651C113.936 170.369 113.617 170.14 113.42 169.819C112.518 168.406 111.514 167.065 110.578 165.672C109.164 163.564 107.864 161.399 106.633 159.194C105.876 157.847 105.268 156.409 104.47 155.089C103.595 153.622 102.705 152.141 101.456 150.861C101.586 150.845 101.627 150.832 101.654 150.847C103.798 151.619 105.85 152.608 107.849 153.746C110.07 155.014 112.044 156.597 114.004 158.221C115.708 159.637 116.879 161.566 118.482 163.083C118.538 163.139 118.607 163.196 118.643 163.273C119.441 164.621 120.496 165.785 121.429 167.027C122.44 168.375 123.423 169.749 124.325 171.148C125.558 173.072 126.615 175.1 127.686 177.114C128.451 178.55 129.197 180.006 130.084 181.378C130.789 182.496 131.42 183.675 132.099 184.847ZM91.8706 66.5052C91.8041 66.2357 91.8009 66.0574 91.9083 65.9372C92.6067 65.177 93.0418 64.2441 93.5118 63.3465C95.524 59.4998 97.2734 55.5079 99.5344 51.7923C100.612 50.0151 101.827 48.3245 103.141 46.7329C104.126 45.5357 105.298 44.4883 106.437 43.433C107.386 42.5502 108.506 41.9881 109.936 42.2926C110.096 42.4552 110.264 42.625 110.41 42.7735C110.566 43.4434 110.357 44.0267 110.238 44.6059C109.693 47.0577 108.97 49.4629 108.577 51.9605C108.153 54.656 107.454 57.2745 106.562 59.8323C106.321 60.5311 106.115 61.2654 105.674 61.8415C101.816 62.0932 95.1255 64.3493 91.8706 66.5052ZM150.234 72.8934C150.044 75.2327 149.392 77.4412 148.727 79.6493C147.719 82.9783 146.4 86.1675 144.576 89.0874C142.099 88.3941 139.65 87.7977 137.001 87.8466C138.023 82.2551 138.675 76.6798 139.459 71.1702C142.872 70.5483 146.134 71.0943 149.334 71.9812C149.627 72.2782 149.865 72.5186 150.234 72.8934ZM90.6752 157.551C89.6749 156.766 88.8091 156.226 88.0899 155.456C87.7406 155.075 87.5884 154.611 87.2394 154.244C85.8507 152.809 84.8679 151.099 83.994 149.351C81.8987 145.193 80.8403 140.82 80.9904 136.244C80.9992 135.97 81.0694 135.691 81.1123 135.411C81.1552 135.131 81.0605 134.819 81.24 134.516C83.8266 139.334 87.1398 143.434 91.3764 146.718C90.3304 150.224 90.6892 153.781 90.6752 157.551ZM177.633 130.869C177.436 131.288 177.372 131.574 177.198 131.774C176.15 132.908 174.977 133.928 174.096 135.204C173.809 135.613 173.297 135.687 172.947 136.019C172.179 136.749 171.384 137.452 170.54 138.118C169.251 139.142 167.926 140.116 166.51 140.957C163.244 142.9 159.8 144.392 155.925 144.869C155.399 144.928 154.894 145.009 154.475 144.921C154 144.44 153.596 144.03 153.093 143.52C153.993 143.287 154.704 142.864 155.354 142.404C157.044 141.208 158.713 139.977 160.439 138.83C162.232 137.644 164.089 136.562 166.115 135.788C168.217 134.982 170.361 134.3 172.47 133.515C174.232 132.863 175.894 131.988 177.633 130.869ZM107.391 59.46C108.213 59.1218 109.008 58.7692 109.818 58.4717C113.049 57.2751 116.428 56.6864 119.919 56.6428C120.611 56.6298 121.309 56.6376 122.002 56.7206C123.663 56.9088 125.318 57.1448 126.965 57.36C127.624 57.4488 128.276 57.5306 129.062 57.8016C128.823 57.8697 128.755 57.9087 128.694 57.9137C125.664 58.1291 123.133 59.3884 120.9 61.2878C120.469 61.6585 120.022 61.9328 119.485 62.1563C117.903 61.7511 116.278 61.6532 114.659 61.5211C112.465 61.344 110.275 61.4275 108.094 61.6005C107.635 61.6344 107.151 61.7086 106.598 61.4722C106.984 60.8395 107.15 60.1863 107.391 59.46ZM130.041 64.5996C127.149 63.7702 124.262 63.1191 121.373 62.4406C121.468 61.9978 121.738 61.7593 122.003 61.6646C122.513 61.4677 122.82 61.052 123.233 60.7561C124.477 59.8618 125.749 59.0369 127.326 58.7631C129.005 58.4718 130.695 58.3935 132.404 58.6174C132.718 58.8945 133.058 59.1449 133.305 59.5846C132.96 61.6722 131.589 63.1249 130.041 64.5996ZM75.7982 110.411C75.6131 110.398 75.5085 110.292 75.4983 110.107C75.6834 110.119 75.7676 110.232 75.7982 110.411Z" fill="#CBC8C1"/>
<path d="M21.3314 71.4249C20.571 70.6541 19.9989 70.0741 19.4268 69.4942C19.8107 70.6513 20.4376 71.61 21.3082 72.4117C21.4116 72.8264 21.4596 73.2119 21.2765 73.6863C20.6593 72.8856 20.158 72.0541 19.3467 71.5011C19.2154 71.8125 19.3843 72.0646 19.5395 72.3162C19.8709 72.8407 20.1218 73.4588 20.5608 73.8769C21.7665 75.0318 21.4627 76.4078 21.5797 77.9544C20.384 76.9712 19.3342 76.1091 18.2636 75.2258C18.3582 76.2917 19.4685 77.4711 21.6502 78.8206C21.9907 81.7388 22.4353 84.7356 22.9636 87.8173C20.7574 86.6316 19.0756 84.8997 16.9113 83.7565C16.8061 84.3773 17.1873 84.6291 17.4858 84.8508C19.1241 86.067 20.7091 87.3639 22.4804 88.3648C22.8885 88.5899 23.209 88.8878 23.3071 89.3914C23.8484 92.0552 24.5333 94.7028 25.3136 97.3259C24.9814 97.5146 24.7584 97.3019 24.5164 97.1779C21.5578 95.6605 18.6985 93.961 16.1456 91.7771C15.7492 91.4426 15.3251 91.0936 14.7674 90.9324C14.6099 91.3116 14.8736 91.498 15.0619 91.689C16.5208 93.2082 18.247 94.3654 20.0134 95.469C21.773 96.5792 23.579 97.6017 25.5629 98.2388C26.4028 100.747 27.2212 103.207 28.1113 105.847C27.0601 105.657 26.1396 105.505 25.2321 105.313C21.2927 104.472 17.6004 102.911 14.0909 100.849C13.4193 100.451 13.4191 100.437 12.754 100.396C12.8853 100.839 13.2516 101.022 13.6049 101.245C17.8174 103.926 22.3152 105.724 27.1779 106.49C27.4595 106.533 27.7478 106.57 28.0231 106.647C28.3602 106.732 28.3537 106.753 28.7043 107.58C25.7122 107.241 22.8636 106.509 20.0789 105.518C17.3148 104.534 14.841 102.943 12.2277 101.587C12.4235 102.189 12.9286 102.472 13.3861 102.774C18.0849 105.84 23.1596 107.725 28.6666 108.148C28.7489 108.15 28.8249 108.187 29.0175 108.234C29.8892 110.613 30.7756 113.047 31.7341 115.676C28.6715 115.225 25.8209 114.76 23.0057 113.981C20.1905 113.202 17.5256 112.023 14.8595 110.775C15.1772 111.299 15.6085 111.669 16.1205 111.959C19.2215 113.769 22.5816 114.764 26.0122 115.493C27.9441 115.902 29.9003 116.148 31.9384 116.368C32.6377 118.303 33.2281 120.275 33.7939 122.398C30.7839 121.826 27.9415 121.059 25.1423 120.027C22.3431 118.994 19.7156 117.611 17.1661 115.996C17.3383 116.426 17.6243 116.716 17.9846 116.947C18.3379 117.17 18.6579 117.441 19.0045 117.671C23.3841 120.508 28.147 122.197 33.2081 122.949C33.4485 122.991 33.6885 123.005 33.9837 123.049C34.1985 123.94 34.406 124.81 34.6359 125.784C29.6205 125.28 25.115 123.434 20.6476 121.425C22.6297 123.097 24.9687 124.054 27.3405 124.936C29.7261 125.819 32.1805 126.34 34.6626 126.498C35.2032 127.99 35.9711 132.958 36.0253 135.195C35.7624 135.427 35.4913 135.206 35.2434 135.13C33.5014 134.617 31.759 134.076 30.0621 133.407C29.5585 133.206 29.0552 133.019 28.3839 133.012C29.546 134.029 30.8549 134.453 32.1436 134.897C33.4324 135.341 34.7535 135.684 36.1651 136.104C36.3866 139.266 36.4373 142.443 36.2766 145.675C34.7659 145.45 33.5831 144.426 31.943 144.245C33.2858 145.404 34.7537 145.909 36.1346 146.527C36.2083 146.818 36.1784 147.057 36.0663 147.293C35.9499 147.297 35.8069 147.34 35.7102 147.296C34.6539 146.832 33.643 146.224 32.4061 145.994C32.9513 146.601 33.5737 146.936 34.1892 147.263C34.777 147.576 35.3713 147.869 35.9658 148.175C36.0177 150.289 34.7807 157.239 33.9446 159.476C33.2274 159.207 32.7508 158.603 32.1398 158.145C32.0773 158.472 32.2599 158.725 32.4012 158.962C32.5706 159.242 32.835 159.469 33.0587 159.723C33.2755 159.97 33.506 160.217 33.7437 160.485C31.588 168.902 27.83 176.57 23.9825 184.214C24.6259 184.193 24.8579 183.768 25.0964 183.323C26.7212 180.39 28.1868 177.362 29.5973 174.32C30.6584 172.028 31.6229 169.691 32.4563 167.303C32.6449 166.753 32.9392 166.365 33.4401 166.037C35.4774 164.708 37.4166 163.252 39.1316 161.515C39.6965 160.942 40.1994 160.347 40.5473 159.515C39.3541 160.568 38.1379 161.477 37.0125 162.492C35.9275 163.467 34.7028 164.286 33.568 165.157C33.4434 165.084 33.402 165.069 33.3741 165.041C33.3462 165.013 33.3248 164.964 33.3313 164.943C34.0964 162.19 34.944 159.452 35.5168 156.665C38.9453 154.631 41.9695 152.2 44.6713 149.362C45.2491 148.748 45.6743 148.021 46.1968 147.379C46.3107 147.238 46.3065 147.005 46.2816 146.764C44.7867 148.549 43.1168 150.13 41.3217 151.597C39.5806 153.025 37.7899 154.362 35.8677 155.619C35.8163 155.433 35.7952 155.398 35.8014 155.364C36.1905 153.023 36.2256 153.072 38.1873 151.72C39.6211 150.722 41.0335 149.675 42.3201 148.487C42.9667 147.89 43.6552 147.335 44.2675 146.729C45.3911 145.619 46.5212 144.488 47.2272 143.008C43.96 146.391 40.3986 149.408 36.3996 152.09C36.867 148.779 37.151 145.551 37.1951 142.308C40.6677 140.44 43.5541 137.964 46.1465 135.136C46.8719 134.349 47.5414 133.505 48.0722 132.562C48.1916 132.346 48.2838 132.143 48.1416 131.851C47.6066 132.184 47.2246 132.645 46.8493 133.1C45.0875 135.275 43.1161 137.223 40.908 138.959C39.9357 139.725 38.8998 140.386 37.9133 141.123C37.7174 141.275 37.5071 141.385 37.232 141.322C37.1296 140.962 37.1436 140.599 37.2189 140.217C40.0177 138.582 42.4662 136.511 44.6626 134.13C45.6567 133.05 46.6298 131.948 47.429 130.697C47.562 130.482 47.6682 130.293 47.5798 129.947C47.0044 130.321 46.5539 130.78 46.186 131.269C44.8222 133.106 43.1028 134.596 41.5019 136.207C40.2575 137.451 38.7955 138.407 37.2543 139.526C37.0129 138.298 37.1226 137.169 36.9522 136.081C37.5493 135.393 38.3377 135.06 39.007 134.58C40.9811 133.16 42.9412 131.725 44.5797 129.924C45.325 129.103 46.091 128.29 46.6208 127.291C46.7332 127.069 46.8528 126.866 46.7248 126.602C46.4405 126.408 46.2862 126.588 46.1392 126.79C45.2575 128.024 44.3061 129.188 43.2089 130.245C41.627 131.767 39.877 133.078 38.0918 134.34C37.7469 134.583 37.4868 134.966 36.9002 135.098C36.5515 132.105 36.1767 129.178 35.5564 126.313C38.0707 124.093 40.6354 122.005 42.2597 119.044C42.3591 118.862 42.5191 118.62 42.2323 118.289C41.2916 118.912 40.9838 120.068 40.2166 120.813C39.4157 121.59 38.9143 122.645 38.0087 123.316C37.1166 123.975 36.3087 124.745 35.3987 125.547C34.6683 122.274 33.7562 119.181 32.7081 116.138C34.0552 114.513 35.7577 113.221 36.453 111.151C36.003 110.883 35.794 111.062 35.6549 111.325C35.0593 112.473 34.1094 113.342 33.3957 114.397C33.1824 114.719 32.9349 115.048 32.4029 115.168C31.3797 112.366 30.3567 109.578 29.3338 106.79C29.7873 105.741 30.9991 105.339 31.2663 104.209C31.2852 104.12 31.1803 104.001 31.1158 103.841C30.1781 104.251 29.7978 105.186 29.1527 105.865C28.8245 105.519 28.7293 105.18 28.7007 104.734C29.6977 104.195 30.4361 103.367 30.9736 102.04C29.7571 102.558 29.2542 103.53 28.4665 104.281C27.6453 102.047 26.8937 99.8707 26.2925 97.6852C26.7493 96.8146 27.553 96.1878 27.484 95.0267C26.5479 95.1419 26.6485 96.16 25.9572 96.5639C25.7896 96.0033 25.602 95.4763 25.4622 94.9439C23.3982 87.234 22.1615 79.4467 22.1347 71.5388C22.1279 68.5143 22.0252 65.4869 21.7169 62.4531C21.6424 61.7444 21.3636 61.0981 21.112 60.4389C21.0256 60.203 20.8713 60.0063 20.584 60.0249C20.2952 60.3383 20.6147 60.5813 20.7078 60.8105C21.1598 61.9422 21.4134 63.0884 21.3737 64.301C21.3147 66.3428 21.3381 68.3871 21.3203 70.4302C21.3586 70.6577 21.3424 70.8972 21.3314 71.4249Z" fill="#CBC8C1"/>
<path d="M92.7248 163.977C93.4143 164.987 93.9609 166.053 94.6976 167.016C95.6725 168.274 96.7077 169.458 97.8647 170.55C99.3843 171.996 100.97 173.32 102.751 174.424C105.71 176.251 108.911 177.487 112.159 178.594C112.255 178.625 112.371 178.608 112.509 178.612C112.295 178.18 111.871 178.195 111.546 178.068C108.807 177.003 106.12 175.831 103.571 174.312C100.669 172.584 98.1834 170.36 96.0272 167.797C93.6681 165.001 92.1176 161.811 91.6967 158.175C91.6719 157.934 91.6059 157.692 91.5673 157.451C91.5365 157.258 91.5124 157.058 91.4811 156.837C91.2082 156.911 91.2939 157.106 91.2961 157.23C91.3887 161.288 92.1506 165.216 94.1961 168.881C95.5976 171.394 97.5593 173.423 99.7642 175.253C103.263 178.152 107.33 179.889 111.464 181.517C116.088 183.346 120.685 185.242 125.303 187.091C126.048 187.389 126.775 187.788 127.644 187.698C125.895 186.883 124.154 186.048 122.385 185.267C117.985 183.314 113.513 181.559 109.041 179.79C105.984 178.578 103.065 177.076 100.479 175.007C96.8159 172.076 93.9437 168.557 92.7248 163.977Z" fill="#CBC8C1"/>
<path d="M118.692 123.473C121.285 122.586 123.755 121.75 126.211 120.899C132.661 118.67 139.111 116.454 145.546 114.183C150.662 112.378 155.55 110.101 160.127 107.252C162.05 106.049 163.881 104.714 165.516 103.125C165.651 102.992 165.778 102.839 166.013 102.579C164.869 102.9 164.191 103.64 163.42 104.206C158.38 107.918 152.801 110.641 146.932 112.827C139.826 115.468 132.662 117.957 125.54 120.543C123.432 121.301 121.352 122.156 119.265 122.963C119.068 123.032 118.863 123.067 118.692 123.473Z" fill="#CBC8C1"/>
<path d="M137.035 69.2362C136.807 69.0856 136.651 69.17 136.536 69.2693C135.005 70.5456 133.264 71.528 131.572 72.5597C127.808 74.8722 124.115 77.2828 120.436 79.7211C117.784 81.4777 115.168 83.2833 112.594 85.145C110.337 86.7763 108.122 88.4638 105.922 90.1653C101.959 93.2185 98.5322 96.8287 95.0361 100.382C95.0092 100.409 95.0032 100.456 94.9765 100.497C95.3185 100.493 95.4437 100.216 95.632 100.03C97.5546 98.0599 99.679 96.2944 101.734 94.4721C103.277 93.1139 104.876 91.7849 106.565 90.5886C108.248 89.3853 109.854 88.0907 111.522 86.8733C113.319 85.557 115.116 84.2544 116.955 82.9941C119.416 81.314 121.892 79.6617 124.381 78.0236C126.965 76.3197 129.576 74.6441 132.181 72.9614C133.622 72.0386 134.986 71.0108 136.343 69.9759C136.627 69.7788 136.911 69.5681 137.035 69.2362Z" fill="#CBC8C1"/>
<path d="M67.2788 96.4554C67.2118 95.7813 66.8333 95.3034 66.5234 94.8275C64.1493 91.168 62.9946 87.1552 62.4664 82.9421C61.8914 78.4122 62.2009 73.9437 63.0184 69.5458C64.2051 63.2185 65.846 57.0149 67.9209 50.9549C68.3763 49.6248 69.0456 48.3905 69.4316 47.0171C69.1287 46.9255 69.0848 47.1505 69.019 47.2993C65.5628 54.99 63.3744 63.1038 62.0126 71.4898C61.2115 76.4163 61.2536 81.3893 62.3573 86.3744C62.9019 88.8393 63.6372 91.2551 65.0599 93.4247C65.7358 94.4467 66.3579 95.5219 67.2788 96.4554Z" fill="#CBC8C1"/>
<path d="M108.217 149.398C110.408 149.706 112.323 149.936 114.226 150.262C120.911 151.407 127.579 152.71 134.239 154.032C139.608 155.096 144.995 156.057 150.327 157.353C152.088 157.777 153.83 158.263 155.605 158.729C155.582 158.207 155.153 158.338 154.919 158.262C150.737 156.933 146.499 155.897 142.223 154.998C134.405 153.351 126.575 151.773 118.715 150.407C115.719 149.89 112.711 149.427 109.687 149.245C109.289 149.219 108.883 149.131 108.217 149.398Z" fill="#CBC8C1"/>
<path d="M111.194 75.1508C109.127 76.2337 107.373 77.6747 105.571 79.0254C104.551 79.7828 103.657 80.7082 102.63 81.4586C101.239 82.4721 100.028 83.6826 98.7341 84.7948C96.7726 86.4831 94.8949 88.2697 93.2465 90.2888C93.1192 90.4425 93.0057 90.6103 92.8645 90.7499C90.9746 92.6319 89.3483 94.7407 87.7291 96.8701C86.083 99.0262 84.6163 101.283 83.371 103.697C83.1125 104.19 82.8679 104.696 82.644 105.21C82.5319 105.46 82.4133 105.73 82.6037 106.085C83.0028 105.829 83.1254 105.388 83.3178 105.031C84.8153 102.158 86.5963 99.4792 88.5572 96.9285C89.869 95.2281 91.2779 93.6127 92.6866 91.9837C94.9336 89.3728 97.4102 87.0082 99.9077 84.6648C101.234 83.4234 102.615 82.2111 104.052 81.0688C105.044 80.2832 106.05 79.4843 107 78.6427C107.896 77.8542 108.862 77.1637 109.793 76.4105C110.265 75.9999 110.722 75.5614 111.194 75.1508Z" fill="#CBC8C1"/>
<path d="M78.8362 123.341C81.4956 114.763 86.9816 109.145 95.6292 106.839C95.6155 106.461 95.3986 106.578 95.275 106.561C95.1103 106.542 94.9534 106.571 94.7897 106.607C92.4625 107.037 90.2646 107.799 88.3227 109.09C86.8273 110.079 85.3882 111.153 84.1658 112.473C81.5935 115.253 79.4987 118.315 78.7053 122.158C78.6869 122.274 78.6203 122.382 78.5418 122.585C75.1448 119.128 72.6687 115.096 70.0939 110.909C70.9112 114.082 75.378 121.048 78.8362 123.341Z" fill="#CBC8C1"/>
<path d="M144.974 112.457C144.436 112.235 144.213 112.386 143.995 112.448C134.754 115.229 125.614 118.261 116.668 121.799C114.207 122.765 111.831 123.899 109.526 125.172C108.977 125.478 108.449 125.832 107.943 126.207C108.653 126.092 109.313 125.858 109.944 125.555C114.722 123.206 119.777 121.476 124.755 119.585C130.902 117.25 137.214 115.339 143.383 113.08C143.859 112.903 144.322 112.711 144.974 112.457Z" fill="#CBC8C1"/>
<path d="M132.396 185.323C131.546 184.556 130.687 184.05 129.842 183.544C125.583 181.005 121.165 178.806 116.562 177.039C113.547 175.884 110.532 174.715 107.727 173.045C105.026 171.439 102.525 169.565 100.441 167.196C99.2032 165.793 97.9987 164.343 96.9365 162.794C96.4441 162.079 95.8771 161.41 95.2967 160.754C95.6099 161.8 96.2558 162.67 96.8876 163.513C98.1371 165.184 99.4068 166.835 100.825 168.367C104.109 171.912 108.066 174.372 112.456 176.153C116.259 177.689 120.114 179.076 123.806 180.903C126.406 182.19 128.992 183.518 131.452 185.068C131.716 185.227 131.925 185.439 132.396 185.323Z" fill="#CBC8C1"/>
<path d="M66.3839 61.5658C64.5607 67.1679 63.727 72.9513 64.212 78.9398C64.4511 81.9306 64.7036 84.908 65.3324 87.8627C66.4255 93.0127 68.532 97.7617 71.5428 102.148C71.613 102.246 71.7239 102.318 71.9674 102.524C71.5697 101.744 71.257 101.117 70.9376 100.497C70.59 99.8345 70.2357 99.1789 69.8881 98.5167C67.3261 93.5753 65.7936 88.3707 65.2701 82.9091C64.9235 79.2703 64.6179 75.6328 64.8604 71.9985C65.0332 69.4388 65.3504 66.9041 65.8599 64.4028C66.0621 63.4625 66.2161 62.5139 66.3839 61.5658Z" fill="#CBC8C1"/>
<path d="M154.54 152.494C153.639 152.281 152.931 152.142 152.243 151.943C149.778 151.236 147.384 150.319 144.997 149.368C140.919 147.74 136.861 146.052 132.686 144.716C128.573 143.403 124.38 142.589 120.144 142.054C119.567 141.981 118.978 141.977 118.385 142.171C119.616 142.408 120.847 142.686 122.077 142.881C127.909 143.822 133.531 145.613 139.057 147.793C142.486 149.14 145.895 150.561 149.382 151.725C150.519 152.109 151.663 152.46 152.845 152.661C153.353 152.759 153.869 152.878 154.54 152.494Z" fill="#CBC8C1"/>
<path d="M70.4886 40.9587C69.7626 41.3273 69.5009 42.0049 69.1408 42.5423C67.0734 45.6054 65.1309 48.7545 63.5689 52.1279C60.215 59.4093 58.7651 67.0987 59.6661 75.2991C59.7893 76.4341 59.8305 77.5804 60.1046 78.7338C60.4861 78.6221 60.3164 78.3289 60.3062 78.1435C60.2402 76.7565 60.1671 75.3625 60.0599 73.9742C59.6105 68.0365 60.6314 62.3771 62.4355 56.8652C63.6749 53.0705 65.5431 49.5899 67.5357 46.1818C68.5058 44.5386 69.4206 42.8663 70.5361 41.3167C70.5628 41.2764 70.5129 41.172 70.4886 40.9587Z" fill="#CBC8C1"/>
<path d="M94.2038 96.6314C94.4687 96.5229 94.5576 96.5188 94.6114 96.4656C96.2844 94.7003 98.2084 93.2029 100.007 91.5784C101.179 90.5174 102.427 89.5204 103.655 88.5159C105.038 87.3859 106.442 86.2771 107.888 85.2243C110.124 83.5856 112.402 81.9892 114.821 80.6025C119.298 78.0308 123.797 75.4803 128.268 72.9016C128.776 72.6085 129.347 72.3927 129.857 71.8051C127.35 72.8603 125.142 74.1094 122.891 75.3024C119.094 77.3122 115.333 79.3984 111.755 81.7642C109.766 83.0747 107.84 84.4625 105.957 85.92C103.412 87.892 100.957 89.9695 98.5868 92.1455C97.2062 93.4126 95.7697 94.6095 94.5908 96.0676C94.4971 96.1881 94.4241 96.3161 94.2038 96.6314Z" fill="#CBC8C1"/>
<path d="M88.8392 144.425C89.0431 144.726 89.1841 144.95 89.3602 145.223C87.9528 147.675 87.6452 150.367 88.0319 153.211C88.2606 154.884 88.5509 155.798 89.4077 156.989C89.1605 155.809 88.9113 154.897 88.7849 153.96C88.6585 153.024 88.6347 152.084 88.6246 151.145C88.6138 150.164 88.7196 149.193 88.9833 148.249C89.2276 147.365 89.4649 146.474 89.8404 145.656C90.3805 145.611 90.6076 146.056 90.9466 146.252C92.6008 147.242 94.3884 147.653 96.2403 147.833C100.685 148.258 104.805 147.41 108.529 145.111C110.202 144.072 111.623 142.765 112.806 141.177C112.164 141.658 111.509 142.124 110.888 142.626C106.239 146.453 100.871 147.934 94.7376 146.889C92.6293 146.543 90.7362 145.594 88.8392 144.425Z" fill="#CBC8C1"/>
<path d="M98.9325 104.559C99.1472 105.086 99.4604 105 99.7204 104.994C100.706 104.983 101.646 104.737 102.572 104.463C108.469 102.792 114.047 100.432 119.12 97.05C121.576 95.4181 123.843 93.5679 126.039 91.606C127.98 89.883 129.858 88.1101 131.673 86.2737C132.036 85.9009 132.407 85.5489 132.721 85.1267C131.275 86.57 129.564 87.7311 128.125 89.1815C126.861 90.459 125.464 91.5885 124.081 92.7185C120.248 95.8233 116.043 98.389 111.5 100.41C108.39 101.796 105.208 102.988 101.891 103.867C100.944 104.133 99.9618 104.323 98.9325 104.559Z" fill="#CBC8C1"/>
<path d="M115.968 159.62C116.398 160.298 117.068 160.627 117.698 160.997C120.938 162.921 124.421 164.242 127.956 165.413C133.344 167.198 138.853 168.067 144.442 168.074C147.388 168.082 150.293 167.739 153.152 167.176C153.541 167.098 153.938 167.056 154.267 166.73C140.869 168.91 128.156 166.249 115.968 159.62Z" fill="#CBC8C1"/>
<path d="M63.3774 92.4729C63.0233 91.4539 62.2977 90.7183 61.8298 89.8398C59.5826 85.6353 58.55 81.18 58.2263 76.5409C57.7632 69.8743 58.6534 63.4345 60.5329 57.1623C60.6234 56.8634 60.7961 56.5669 60.7076 56.2213C60.4001 56.2599 60.3707 56.5264 60.2994 56.7505C58.6944 61.5361 57.4746 66.4158 57.4312 71.5855C57.3921 75.8569 57.6263 80.0955 58.8526 84.2755C59.5459 86.6354 60.4904 88.8728 61.9177 90.9123C62.3256 91.501 62.8 91.9819 63.3774 92.4729Z" fill="#CBC8C1"/>
<path d="M164.465 98.6133C163.456 98.4933 162.541 98.6435 161.634 98.8282C156.797 99.7564 152.061 101.031 147.478 102.769C142.235 104.754 137.169 107.081 132.267 109.748C131.989 109.897 131.689 109.984 131.573 110.337C136.07 108.404 140.448 106.297 144.99 104.502C151.149 102.072 157.525 100.265 164.06 98.9574C164.196 98.9204 164.382 98.9467 164.465 98.6133Z" fill="#CBC8C1"/>
<path d="M133.352 150.967C145.149 154.073 157.086 156.579 168.739 160.847C168.586 160.328 168.222 160.282 167.966 160.158C165.685 159.018 163.281 158.279 160.877 157.512C151.948 154.686 142.851 152.767 133.723 150.992C133.592 150.967 133.476 150.97 133.352 150.967Z" fill="#CBC8C1"/>
<path d="M105.242 109.766C106.736 109.516 108.02 108.986 109.326 108.533C114.645 106.679 119.589 104.108 124.25 101.035C126.171 99.7634 128.008 98.3799 129.733 96.8422C131.775 95.0332 133.497 92.9816 135.101 90.7962C135.496 90.2668 136.105 89.8877 136.201 89.1095C135.874 89.2092 135.7 89.4369 135.526 89.651C134.661 90.687 133.818 91.7442 132.939 92.766C131.712 94.1885 130.401 95.5399 128.957 96.716C127.358 98.0176 125.696 99.2419 123.978 100.382C119.48 103.351 114.747 105.866 109.718 107.852C108.454 108.349 107.183 108.838 105.905 109.32C105.687 109.409 105.442 109.457 105.242 109.766Z" fill="#CBC8C1"/>
<path d="M71.0999 58.4584C70.4961 59.1531 70.0771 60.978 69.4221 64.517C67.7374 73.5996 68.5379 82.6421 71.0847 91.6765C71.006 91.1117 70.9408 90.5337 70.8484 89.9685C70.3853 87.0878 69.8403 84.2182 69.5208 81.3213C68.997 76.6009 69.1523 71.9356 69.7531 67.2908C70.1008 64.5585 70.5241 61.8353 71.1399 59.1591C71.1838 58.9342 71.2685 58.6968 71.0999 58.4584Z" fill="#CBC8C1"/>
<path d="M138.812 72.5433C137.928 74.4346 136.976 75.9883 135.852 77.4205C135.216 78.2303 134.635 79.0965 133.923 79.8424C131.894 81.9737 129.795 84.0482 127.474 85.8695C124.564 88.1459 121.522 90.2336 118.284 92.0414C116.997 92.7566 115.744 93.5207 114.478 94.2708C114.343 94.3489 114.256 94.4902 114.001 94.7428C116.119 93.8195 117.934 92.7638 119.756 91.7426C121.66 90.6691 123.577 89.5959 125.333 88.3057C126.806 87.2262 128.313 86.182 129.618 84.8921C130.102 84.4134 130.692 84.0679 131.19 83.617C132.934 82.032 134.471 80.2764 135.91 78.4084C136.907 77.1162 137.842 75.788 138.548 74.3092C138.766 73.8294 139.018 73.3712 138.812 72.5433Z" fill="#CBC8C1"/>
<path d="M127.566 79.0025C125.074 80.4898 122.81 82.1005 120.546 83.6837C118.457 85.1351 116.389 86.6077 114.405 88.1925C112.516 89.6978 110.564 91.1259 108.639 92.596C106.971 93.8682 105.304 95.1541 103.622 96.4122C101.994 97.6172 100.345 98.7872 98.7172 99.9784C98.5279 100.11 98.311 100.227 98.261 100.499C99.0076 100.556 99.4007 99.944 99.908 99.6098C101.795 98.3715 103.612 97.0216 105.45 95.7065C107.126 94.5098 108.816 93.3136 110.464 92.075C111.828 91.0472 113.136 89.9492 114.486 88.9072C115.776 87.9114 117.093 86.9712 118.397 85.9895C119.504 85.1595 120.605 84.3087 121.726 83.4791C123.286 82.327 124.86 81.1753 126.442 80.0443C126.82 79.7679 127.15 79.4421 127.566 79.0025Z" fill="#CBC8C1"/>
<path d="M159.306 115.681C158.138 115.831 157.589 116.513 156.94 116.973C152.755 119.909 148.258 122.26 143.386 123.949C139.276 125.372 135.064 126.409 130.713 126.954C130.255 127.016 129.805 127.125 129.385 127.332C134.796 127.12 139.986 125.997 144.984 124.114C150.186 122.155 154.874 119.378 159.306 115.681Z" fill="#CBC8C1"/>
<path d="M76.0603 103.65C77.2368 101.677 78.0696 91.3126 77.5803 85.4684C77.1612 80.4767 75.9894 75.1395 74.9441 73.7701C76.1247 78.8332 76.9749 83.8039 77.0043 88.8316C77.0396 93.8115 76.5671 98.7346 76.0603 103.65Z" fill="#CBC8C1"/>
<path d="M166.178 162.856C153.565 164.903 140.991 164.537 128.348 160.369C130.208 161.743 137.859 163.665 144.197 164.217C151.64 164.864 159.022 164.817 166.178 162.856Z" fill="#CBC8C1"/>
<path d="M113.999 138.415C114.602 138.769 115.004 138.651 115.408 138.657C121.443 138.698 127.434 139.287 133.239 141.386C137.252 142.84 141.028 144.849 144.765 146.911C144.738 146.602 144.442 146.476 144.206 146.318C143.963 146.153 143.727 145.995 143.471 145.843C139.622 143.598 135.654 141.583 131.47 140.117C128.512 139.087 125.469 138.589 122.402 138.282C120.233 138.064 118.073 137.909 115.904 138.041C115.329 138.092 114.727 138.101 113.999 138.415Z" fill="#CBC8C1"/>
<path d="M112.352 132.464C105.245 139.685 96.7636 142.832 86.2946 140.166C87.6435 140.928 89.0691 141.39 90.5658 141.614C93.868 142.106 97.0792 141.724 100.206 140.84C103.047 140.043 105.653 138.792 108.018 137.041C109.539 135.915 110.773 134.514 112.119 133.225C112.315 133.046 112.523 132.826 112.352 132.464Z" fill="#CBC8C1"/>
<path d="M166.026 100.02C161.747 100.033 139.189 108.077 136.406 110.562C146.062 106.505 155.969 103.078 166.026 100.02Z" fill="#CBC8C1"/>
<path d="M81.0165 105.837C81.4657 105.699 81.4809 105.392 81.5652 105.127C82.599 102.013 84.2131 99.2187 86 96.5319C87.4535 94.3421 89.0389 92.2591 90.7628 90.2761C91.655 89.2547 92.6239 88.3109 93.4885 87.275C95.1238 85.3099 96.9678 83.5429 98.6866 81.6625C96.6128 83.5871 94.2392 85.1943 92.514 87.4992C92.0592 88.1022 91.4448 88.5701 90.9345 89.1303C87.503 92.857 84.529 96.9262 82.3101 101.532C81.6902 102.87 81.0982 104.236 81.0165 105.837Z" fill="#CBC8C1"/>
<path d="M87.313 76.0662C90.8891 72.3916 94.5492 68.8155 99.2516 66.4981C103.9 64.2064 108.815 62.7111 114.018 61.9649C113.832 61.5068 113.548 61.6901 113.356 61.7117C106.893 62.3784 100.975 64.4737 95.5803 67.9079C93.8274 69.0266 92.1867 70.2995 90.7758 71.7918C89.5331 73.118 88.1516 74.3439 87.313 76.0662Z" fill="#CBC8C1"/>
<path d="M112.532 130.197C117.845 130.017 122.882 130.919 127.811 132.641C132.712 134.349 137.309 136.678 141.554 139.929C141.678 139.247 141.139 138.997 140.806 138.754C139.772 137.988 138.717 137.242 137.616 136.584C132.312 133.417 126.682 131.187 120.656 130.185C118.21 129.781 115.769 129.624 113.327 129.844C113.101 129.857 112.84 129.794 112.532 130.197Z" fill="#CBC8C1"/>
<path d="M73.5846 106.137C74.4184 103.399 74.758 100.591 74.8571 97.7414C75.1491 89.6584 74.7972 81.5693 74.0616 73.4684C74.0519 73.3104 74.0078 73.1444 73.9465 72.7859C73.7138 73.1697 73.7803 73.4392 73.7845 73.6725C73.9831 78.2114 74.2981 82.7471 74.3529 87.2886C74.4059 92.1111 74.3904 96.9316 73.9085 101.71C73.8095 102.674 73.642 103.636 73.5156 104.599C73.4428 105.118 73.3357 105.629 73.5846 106.137Z" fill="#CBC8C1"/>
<path d="M126.588 64.0638C125.798 63.9231 125.096 64.0868 124.399 64.1889C120.542 64.7908 116.894 66.0092 113.333 67.4634C109.589 69.001 106.141 71.0551 102.877 73.4163C102.093 73.9819 101.392 74.6048 100.768 75.3193C103.476 73.6471 106.079 71.8278 108.908 70.3444C114.13 67.5974 119.646 65.5929 125.543 64.5803C126.068 64.4935 126.061 64.5001 126.588 64.0638Z" fill="#CBC8C1"/>
<path d="M100.601 109.763C100.02 109.375 99.6516 109.46 99.2957 109.462C95.0473 109.56 91.1803 110.717 87.7809 113.157C84.5097 115.497 82.0791 118.542 80.3985 122.198C79.7923 123.523 79.3991 124.902 79.4397 126.425C79.8436 126.431 79.742 126.098 79.7595 125.928C80.0974 123.361 81.3947 121.255 82.7613 119.193C83.9881 117.352 85.5693 115.817 87.2558 114.429C89.7382 112.38 92.6021 111 95.8353 110.386C96.9472 110.179 98.0594 109.987 99.2014 109.933C99.5911 109.91 99.9801 109.846 100.601 109.763Z" fill="#CBC8C1"/>
<path d="M123.259 106.519C124.781 105.88 126.064 104.932 127.356 104.032C129.222 102.745 131.017 101.347 132.562 99.6669C133.072 99.1067 133.611 98.5885 134.037 97.9436C134.33 97.4865 134.789 97.1166 135.214 96.7663C138.431 94.0746 142.051 92.1144 146.201 91.1499C146.317 91.1192 146.433 91.0884 146.541 91.0369C146.568 91.024 146.588 90.9766 146.709 90.8295C146.292 90.8512 145.963 90.8413 145.649 90.8867C142.497 91.4084 139.65 92.5765 137.055 94.4031C135.628 95.4084 134.48 96.6551 133.36 97.9437C131.75 99.7863 129.867 101.312 127.978 102.831C126.709 103.848 125.35 104.76 124.018 105.686C123.714 105.903 123.416 106.113 123.259 106.519Z" fill="#CBC8C1"/>
<path d="M132.847 157.509C132.353 157.075 131.99 157.044 131.646 156.965C126.678 155.742 121.711 154.519 116.743 153.297C112.533 152.262 108.316 151.275 104.051 150.629C103.474 150.543 102.855 150.373 102.367 150.674C102.295 150.87 102.33 150.933 102.44 150.95C105.378 151.287 108.274 151.946 111.162 152.611C117.146 153.974 123.131 155.379 129.115 156.756C130.27 157.011 131.431 157.219 132.847 157.509Z" fill="#CBC8C1"/>
<path d="M111.246 78.4083C114.648 76.1335 117.846 73.8525 121.345 72.04C126.114 69.5739 131.09 67.6008 136.482 66.7098C137.021 66.6234 137.567 66.5304 138.081 66.1759C137.624 65.9152 137.271 66.069 136.93 66.1134C132.537 66.5893 128.44 67.9449 124.495 69.7644C121.474 71.1597 118.698 72.9258 115.945 74.7405C114.815 75.4806 113.706 76.2556 112.625 77.0589C112.165 77.4013 111.784 77.8763 111.246 78.4083Z" fill="#CBC8C1"/>
<path d="M51.762 108.206C50.7883 106.249 50.1351 104.213 49.6249 102.133C47.9978 95.4858 48.1537 88.9618 49.9551 82.5434C50.1286 81.9109 50.3706 81.2806 50.3372 80.5732C46.4911 85.6463 47.3988 103.635 51.762 108.206Z" fill="#CBC8C1"/>
<path d="M82.3613 69.8664C82.8988 69.6974 82.9316 69.219 83.097 68.8883C84.327 66.4181 85.6194 63.9978 87.2782 61.8006C88.2882 60.4677 89.4231 59.2344 90.3779 57.8724C91.2794 56.5911 92.5352 55.6285 93.3745 54.311C93.541 54.0489 93.8043 53.8444 94.033 53.6183C95.9226 51.7225 97.8125 49.8405 99.7021 47.9447C99.8905 47.7586 100.058 47.5512 100.266 47.3314C99.812 47.1672 99.6048 47.4555 99.3759 47.6679C96.7709 50.1314 94.1453 52.5874 91.7353 55.2485C89.8758 57.3096 88.0862 59.4549 86.5112 61.7504C84.7822 64.24 83.3363 66.8818 82.3613 69.8664Z" fill="#CBC8C1"/>
<path d="M116.656 65.0012C110.661 65.7383 97.3954 72.1694 90.5465 82.3712C91.6117 81.4578 92.6278 80.4812 93.5258 79.3982C94.6717 78.0144 95.9151 76.7295 97.3539 75.656C98.2118 75.0172 98.9786 74.2592 99.8292 73.5997C102.8 71.3048 106.046 69.4774 109.418 67.8593C111.746 66.7304 114.137 65.7337 116.656 65.0012Z" fill="#CBC8C1"/>
<path d="M133.304 99.4085C132.651 99.6492 132.587 100.257 132.23 100.623C130.382 102.548 128.492 104.416 126.31 105.988C122.376 108.815 118.047 110.905 113.591 112.812C113.49 112.857 113.374 112.915 113.378 113.121C115.239 112.732 116.958 112.023 118.648 111.245C121.622 109.869 124.482 108.297 127.117 106.362C128.86 105.085 130.449 103.639 131.886 102.038C132.846 100.978 133.117 100.431 133.304 99.4085Z" fill="#CBC8C1"/>
<path d="M146.908 134.436C155.879 131.797 165.125 130.381 174.667 129.79C170.782 128.532 150.513 131.907 146.908 134.436Z" fill="#CBC8C1"/>
<path d="M103.08 68.3177C101.9 68.4676 100.94 69.1103 99.9719 69.7185C97.9822 70.9607 96.0974 72.3362 94.2549 73.7813C92.0681 75.4971 90.2495 77.5456 88.4793 79.6298C86.1594 82.3688 84.2478 85.387 83.0687 88.8515C82.9643 89.1497 82.8739 89.462 82.7971 89.7748C82.7776 89.8358 82.8201 89.9193 82.8284 90.0085C83.2227 89.8695 83.3055 89.5091 83.4435 89.1776C84.4246 86.9399 85.4887 84.7595 86.8843 82.7669C87.8459 81.3984 88.8008 80.0365 89.9566 78.8244C90.5881 78.1583 91.1643 77.4494 91.7819 76.7692C93.078 75.3626 94.5831 74.1814 96.0673 72.979C97.7336 71.6245 99.5122 70.4377 101.34 69.3139C101.915 68.968 102.505 68.6499 103.08 68.3177Z" fill="#CBC8C1"/>
<path d="M81.8941 60.6278C82.9745 59.4066 84.0688 58.1995 85.1146 56.9567C86.6565 55.126 88.3518 53.4641 90.2139 51.9579C92.3119 50.2464 94.5572 48.7516 96.8305 47.2987C98.0687 46.5068 99.3422 45.7776 100.622 45.0417C100.968 44.8397 101.321 44.6721 101.575 44.3372C99.7959 44.3117 92.9514 48.8477 90.3995 50.8128C86.889 53.5165 84.1769 56.922 81.8941 60.6278Z" fill="#CBC8C1"/>
<path d="M123.068 113.663C124.156 113.634 124.598 112.681 125.425 112.241C126.293 111.773 127.027 111.076 127.831 110.504C128.601 109.952 129.393 109.421 130.184 108.89C131.016 108.346 131.849 107.816 132.695 107.287C133.5 106.784 134.32 106.294 135.146 105.812C136.014 105.318 136.881 104.837 137.756 104.377C138.604 103.93 139.458 103.503 140.314 103.091C141.209 102.652 142.112 102.234 143.008 101.809C143.863 101.396 144.725 100.99 145.614 100.558C145.295 100.316 145.079 100.515 144.882 100.584C140.028 102.452 135.344 104.626 130.994 107.461C129.099 108.692 127.247 109.993 125.436 111.336C124.565 112.002 123.855 112.885 123.068 113.663Z" fill="#CBC8C1"/>
<path d="M54.2717 94.3848C53.8642 99.538 54.8985 104.481 57.2512 109.212C59.1703 113.071 61.5892 116.534 65.0425 119.226C64.0485 117.666 62.6155 116.456 61.5469 114.941C60.4644 113.412 59.4158 111.864 58.5297 110.211C57.6581 108.6 56.9088 106.937 56.2683 105.223C55.6133 103.467 55.1495 101.677 54.8629 99.8361C54.5768 98.0231 54.5852 96.1986 54.2717 94.3848Z" fill="#CBC8C1"/>
<path d="M100.999 108.657C101.493 109.104 101.928 108.953 102.351 108.884C105.518 108.336 108.512 107.331 111.377 105.979C115.701 103.924 119.848 101.555 123.706 98.7462C124.402 98.2396 125.217 97.8395 125.737 97.1013C125.453 96.8801 125.278 97.0667 125.103 97.1985C119.509 101.401 113.401 104.704 106.776 107.079C105.497 107.533 104.139 107.814 102.825 108.179C102.211 108.324 101.605 108.491 100.999 108.657Z" fill="#CBC8C1"/>
<path d="M147.951 137.861C148.451 138.261 148.971 138.222 149.478 138.251C153.186 138.44 156.786 137.954 160.332 137.131C164.109 136.259 167.801 135.166 171.441 133.886C171.924 133.716 172.415 133.566 172.854 133.23C172.479 132.972 172.21 133.224 171.938 133.311C167.197 134.716 162.428 136.05 157.542 136.97C154.955 137.459 152.338 137.756 149.682 137.77C149.106 137.767 148.525 137.824 147.951 137.861Z" fill="#CBC8C1"/>
<path d="M87.6985 155.152C85.5005 150.647 84.8317 146.237 85.993 141.512C84.6299 143.027 84.4689 145.869 85.3248 150.779C84.9542 150.74 84.9281 150.43 84.8209 150.187C83.6683 147.429 83.3502 144.613 83.7846 141.739C83.9065 140.906 84.1451 140.084 84.1365 139.226C83.8207 139.189 83.7559 139.393 83.7043 139.569C82.5583 143.622 82.726 147.592 85.0078 151.427C85.1348 151.637 85.2427 151.922 85.4296 152.03C85.9622 152.314 86.0813 152.839 86.3362 153.299C86.6619 153.886 86.7779 154.623 87.6985 155.152Z" fill="#CBC8C1"/>
<path d="M139.596 131.336C140.296 131.439 140.868 131.265 141.441 131.145C144.912 130.435 148.091 129.051 151.098 127.278C153.198 126.04 155.192 124.654 156.893 122.917C157.666 122.125 158.363 121.255 158.907 120.271C159.006 120.089 159.092 119.92 158.972 119.718C158.773 119.664 158.672 119.791 158.579 119.912C155.965 123.458 152.4 125.824 148.555 127.825C146.032 129.132 143.409 130.218 140.601 130.873C140.274 130.945 139.89 130.947 139.596 131.336Z" fill="#CBC8C1"/>
<path d="M133.822 101.698C136.287 100.546 138.683 99.3785 141.128 98.2879C144.571 96.7549 148.123 95.5062 151.832 94.6737C152.657 94.4864 153.482 94.3129 154.345 94.2844C154.522 94.2761 154.77 94.3386 154.859 93.9437C154.19 93.7107 153.513 93.738 152.858 93.8276C151.901 93.9628 150.946 94.1392 149.999 94.3639C144.838 95.6113 140.056 97.6998 135.552 100.407C134.956 100.773 134.297 101.088 133.822 101.698Z" fill="#CBC8C1"/>
<path d="M81.679 133.795C81.6661 133.068 81.9433 132.487 82.2347 131.934C83.3142 129.891 84.8598 128.279 86.6342 126.832C89.8048 124.228 93.5995 122.863 97.394 121.484C97.6388 121.395 97.9749 121.44 98.139 121.04C97.498 121.172 96.9178 121.257 96.3594 121.418C93.1932 122.33 90.0916 123.414 87.3806 125.299C85.2374 126.79 83.3657 128.542 82.0165 130.811C81.6244 131.477 81.3838 132.189 81.2603 132.953C81.2116 133.294 81.258 133.597 81.679 133.795Z" fill="#CBC8C1"/>
<path d="M106.995 124.277C105.716 123.964 104.538 124.332 103.388 124.674C97.374 126.43 91.4177 128.325 86.583 132.448C88.8043 131.481 90.7779 130.061 92.999 129.08C95.2335 128.086 97.5402 127.299 99.8395 126.478C102.187 125.652 104.577 124.951 106.995 124.277Z" fill="#CBC8C1"/>
<path d="M79.998 129.588C81.3523 125.641 83.9689 122.664 86.954 120.02C89.9522 117.35 93.5851 115.753 97.5867 114.894C97.5511 114.817 97.5156 114.741 97.48 114.664C97.3772 114.654 97.267 114.61 97.1716 114.634C94.0348 115.253 91.0398 116.149 88.4249 118.05C85.6614 120.057 83.336 122.467 81.5044 125.338C80.7056 126.615 80.0867 128.008 79.998 129.588Z" fill="#CBC8C1"/>
<path d="M93.4683 148.391C93.3663 149.596 93.57 150.652 93.7803 151.688C94.5605 155.499 96.1773 158.945 98.6312 162.067C100.16 164.021 101.931 165.736 103.708 167.43C105.214 168.862 106.901 170.086 108.608 171.291C108.803 171.434 109.051 171.497 109.32 171.621C108.916 170.847 108.17 170.55 107.587 170.135C105.005 168.258 102.785 165.995 100.613 163.685C99.0277 162.01 97.7334 160.132 96.6422 158.109C95.2886 155.59 94.4328 152.929 94.061 150.125C93.9976 149.642 93.8861 149.152 93.7816 148.668C93.7672 148.627 93.6705 148.583 93.4683 148.391Z" fill="#CBC8C1"/>
<path d="M157.474 126.118C165.87 125.334 167.241 124.272 178.495 126.963C178.502 126.634 178.235 126.605 178.014 126.516C175.633 125.49 173.15 124.926 170.619 124.705C166.387 124.334 162.251 124.79 158.201 125.777C157.949 125.831 157.619 125.807 157.474 126.118Z" fill="#CBC8C1"/>
<path d="M64.4059 101.598C64.9266 107.72 69.9489 117.678 73.935 119.885C73.9223 119.562 73.6589 119.39 73.4842 119.199C70.4599 115.985 68.3646 112.23 66.8188 108.169C66.0784 106.232 65.3585 104.289 64.8158 102.297C64.7573 102.089 64.7795 101.802 64.4059 101.598Z" fill="#CBC8C1"/>
<path d="M89.021 136.116C93.7992 136.852 98.2642 136.153 102.407 133.928C105.75 132.131 108.742 129.844 109.306 128.449C103.439 133.425 96.9992 136.621 89.021 136.116Z" fill="#CBC8C1"/>
<path d="M131.074 129.931C131.656 130.306 132.281 130.414 132.919 130.468C136.101 130.744 139.159 130.234 142.164 129.428C145.285 128.592 148.207 127.338 150.908 125.603C151.036 125.518 151.13 125.384 151.284 125.231C150.932 125.049 150.744 125.235 150.52 125.358C146.263 127.751 141.682 129.235 136.754 129.777C135.504 129.91 134.252 130.001 132.985 129.956C132.341 129.936 131.711 129.944 131.074 129.931Z" fill="#CBC8C1"/>
<path d="M141.093 122.082C133.507 124.791 125.637 126.174 117.481 126.513C117.763 126.556 118.051 126.633 118.332 126.635C121.024 126.684 123.706 126.574 126.364 126.21C130.79 125.619 135.107 124.661 139.234 123.053C139.881 122.806 140.583 122.629 141.093 122.082Z" fill="#CBC8C1"/>
<path d="M109.062 131.218C107.896 131.49 107.255 132.376 106.43 132.967C102.943 135.507 99.0114 136.963 94.7016 137.551C92.0447 137.915 89.369 137.991 86.6639 137.579C86.554 137.562 86.4162 137.516 86.3642 137.665C92.1026 139.226 102.999 137.895 109.062 131.218Z" fill="#CBC8C1"/>
<path d="M134.393 148.372C130.086 145.812 116.779 143.194 113.847 144.291C115.459 144.443 116.817 144.54 118.176 144.705C119.563 144.871 120.936 145.078 122.324 145.313C123.664 145.539 124.997 145.799 126.318 146.101C127.68 146.417 129.035 146.781 130.385 147.165C131.734 147.55 133.057 147.974 134.393 148.372Z" fill="#CBC8C1"/>
<path d="M82.9795 120.976C85.2085 118.145 88.0785 116.327 91.1453 114.789C94.2188 113.244 97.5108 112.433 101.029 112.781C101.15 112.257 100.834 112.233 100.621 112.179C99.6859 111.944 98.7556 111.985 97.8265 112.093C94.424 112.469 91.4083 113.803 88.5642 115.539C86.6139 116.727 84.9292 118.225 83.4194 119.927C83.1443 120.241 83.1443 120.241 82.9795 120.976Z" fill="#CBC8C1"/>
<path d="M54.9213 68.4319C54.4755 69.1521 54.4423 69.9672 54.3744 70.7607C54.0632 74.3793 53.9987 78.0055 54.9751 81.6225C55.4009 83.1993 56.0303 84.6727 56.9724 86.0185C57.1553 86.2847 57.3051 86.6117 57.7222 86.5765C57.9697 86.2481 57.6236 86.0454 57.4968 85.8494C56.0804 83.6592 55.4748 81.2264 55.1076 78.7254C54.7011 75.9421 54.781 73.1668 54.8676 70.3849C54.8971 69.7412 54.9059 69.0899 54.9213 68.4319Z" fill="#CBC8C1"/>
<path d="M52.5905 87.2735C51.9334 87.6716 51.9276 88.1103 51.811 88.4771C51.3773 89.8697 51.2187 91.3255 51.122 92.7902C50.7743 98.1768 51.7862 103.379 53.9733 108.425C54.0019 108.495 54.0512 108.571 54.1071 108.628C54.128 108.649 54.1828 108.651 54.3548 108.691C53.0181 105.22 52.1399 101.73 51.7663 98.1181C51.3992 94.4858 51.8696 90.9615 52.5905 87.2735Z" fill="#CBC8C1"/>
<path d="M112.872 132.318C120.839 132.35 128.255 134.897 135.522 138.261C135.447 137.902 135.185 137.812 134.936 137.681C129.362 134.752 123.48 132.925 117.334 132.085C115.844 131.881 114.328 131.787 112.872 132.318Z" fill="#CBC8C1"/>
<path d="M97.4277 145.831C98.1294 146.031 98.553 145.989 98.9766 145.947C101.936 145.674 104.586 144.617 107.093 143.171C108.516 142.351 109.785 141.334 110.977 140.239C111.899 139.383 112.73 138.394 113.312 137.247C113.577 136.72 113.854 136.167 113.704 135.381C110.173 141.647 104.658 144.811 97.4277 145.831Z" fill="#CBC8C1"/>
<path d="M82.774 109.891C84.1792 108.46 85.6586 107.346 87.2995 106.45C88.9876 105.522 90.7903 104.871 92.6866 104.476C94.542 104.094 96.4422 104.297 98.3467 104.355C97.7414 103.822 97.0474 103.684 96.3273 103.614C94.2968 103.401 92.3584 103.74 90.4732 104.374C87.7035 105.311 85.2719 106.779 83.2136 108.828C82.9176 109.12 82.9246 109.127 82.774 109.891Z" fill="#CBC8C1"/>
<path d="M135.389 160.017C138.546 161.883 155.838 164.109 160.282 162.538C151.983 163.017 143.767 162.003 135.389 160.017Z" fill="#CBC8C1"/>
<path d="M139.314 69.8338C139.007 69.8728 138.907 70.0821 138.774 70.2835C137.595 72.1726 136.23 73.9125 134.746 75.5737C132.968 77.5685 130.966 79.324 129.063 81.1919C128.612 81.6374 128.161 82.0828 127.766 82.5847C130.758 80.3379 133.652 77.9924 136.051 75.0779C137.116 73.7879 138.148 72.49 138.978 71.0425C139.191 70.6791 139.493 70.3251 139.314 69.8338Z" fill="#CBC8C1"/>
<path d="M163.298 109.427C158.853 113.095 153.928 116.009 148.632 118.357C152.902 117.568 161.823 112.349 163.298 109.427Z" fill="#CBC8C1"/>
<path d="M89.9382 106.754C84.0652 108.545 78.9077 114.925 78.6014 119.369C79.2772 118.492 79.3833 117.508 79.8694 116.735C80.3684 115.921 80.7983 115.064 81.3389 114.279C81.8994 113.46 82.4736 112.641 83.1938 111.957C83.887 111.3 84.5664 110.628 85.2318 109.943C85.904 109.25 86.7024 108.74 87.5146 108.23C88.32 107.727 89.1326 107.244 89.9382 106.754Z" fill="#CBC8C1"/>
<path d="M90.9497 60.321C89.8861 60.9398 89.3625 61.904 88.7411 62.7555C87.2104 64.8268 85.6658 66.884 84.4056 69.1486C83.4504 70.8604 82.6331 72.6313 82.2987 74.6088C82.224 75.0315 82.0812 75.4658 82.2327 75.9022C82.5766 75.9949 82.6137 75.7767 82.6514 75.5859C83.4797 71.7386 85.4959 68.4895 87.5676 65.2832C88.6264 63.6225 89.7753 62.0262 90.9497 60.321Z" fill="#CBC8C1"/>
<path d="M99.0494 151.315C99.7489 157.177 106.969 166.277 111.292 168.501C105.794 163.763 101.433 158.251 99.0494 151.315Z" fill="#CBC8C1"/>
<path d="M70.6659 121.647C70.0209 120.832 69.2168 120.313 68.5197 119.647C66.5049 117.712 65.0455 115.41 63.7891 112.964C62.7601 110.977 61.867 108.925 61.151 106.811C61.0643 106.561 61.1063 106.226 60.6988 106.042C60.723 106.633 60.8901 107.166 61.0639 107.693C62.1589 111.082 63.6011 114.337 65.6818 117.282C66.8067 118.881 68.1615 120.308 69.8921 121.294C70.1344 121.432 70.4034 121.529 70.6659 121.647Z" fill="#CBC8C1"/>
<path d="M46.3862 94.8403C46.3159 92.4656 46.3396 90.3613 46.6308 88.2858C46.9347 86.1558 47.3624 84.057 47.9346 81.9969C48.5009 79.9847 49.4189 78.1135 50.0858 75.9878C49.3994 76.2753 49.293 76.8274 49.0953 77.2602C47.4347 80.857 46.511 84.6891 46.0968 88.6739C45.9215 90.3416 45.9654 92.016 46.0505 93.6917C46.0766 94.0011 46.0619 94.3229 46.3862 94.8403Z" fill="#CBC8C1"/>
<path d="M150.543 92.4124C150.139 92.0161 149.827 92.1848 149.541 92.2446C148.026 92.5274 146.591 93.0388 145.198 93.6338C142.419 94.8308 139.697 96.1392 137.139 97.7611C136.767 98.0034 136.429 98.2673 136.19 98.6713C140.844 96.3319 145.5 94.0749 150.543 92.4124Z" fill="#CBC8C1"/>
<path d="M105.275 122.292C101.289 121.107 91.9257 123.576 88.8872 127.083C91.2685 125.483 93.8493 124.314 96.6216 123.515C99.4281 122.709 102.349 122.559 105.275 122.292Z" fill="#CBC8C1"/>
<path d="M88.6741 55.0815C87.7424 55.8071 86.8943 56.6175 86.1715 57.5414C85.1474 58.8467 84.0471 60.1018 83.1273 61.4994C82.2275 62.8633 81.3759 64.2493 80.8632 65.8306C80.545 66.8009 80.5417 66.9996 80.8162 67.8166C80.9467 67.8411 81.0692 67.8037 81.0942 67.6674C81.5714 65.2421 82.8499 63.2249 84.1699 61.2363C85.5831 59.0998 87.2118 57.1549 88.6741 55.0815Z" fill="#CBC8C1"/>
<path d="M105.317 140.563C104.702 140.654 104.277 140.963 103.801 141.168C101.089 142.312 98.2604 143.055 95.2636 143.21C92.4788 143.35 89.8189 142.823 87.3074 141.408C87.0582 141.264 86.7894 141.166 86.4373 141.011C86.8902 141.821 87.628 142.097 88.2985 142.44C90.1927 143.417 92.2194 143.775 94.2669 143.762C98.1702 143.745 101.76 142.655 105.11 140.852C105.178 140.799 105.21 140.711 105.317 140.563Z" fill="#CBC8C1"/>
<path d="M82.5068 135.603C82.9035 134.806 83.3966 134.054 83.9386 133.351C84.1527 133.069 84.3941 132.789 84.6569 132.557C87.2856 130.265 90.161 128.386 93.4792 127.17C94.0027 126.974 94.4907 126.701 94.9928 126.455C95.0538 126.423 95.0795 126.328 95.2128 126.126C92.6235 127.151 90.099 127.973 87.8167 129.336C86.1643 130.327 84.7287 131.579 83.4117 132.965C82.8474 133.564 82.5108 134.274 82.2851 135.055C82.2264 135.225 82.1412 135.434 82.5068 135.603Z" fill="#CBC8C1"/>
<path d="M107.599 61.7764C108.393 61.7595 108.797 61.4017 109.238 61.1615C112.125 59.536 115.091 58.0568 118.334 57.1963C119.336 56.9322 120.36 56.7715 121.376 56.5627C121.293 56.142 120.994 56.2562 120.789 56.2499C119.933 56.258 119.094 56.4174 118.269 56.6184C114.595 57.5138 111.283 59.1537 108.178 61.2182C108.015 61.3229 107.895 61.4838 107.599 61.7764Z" fill="#CBC8C1"/>
<path d="M77.3835 118.476C74.6316 114.406 72.032 110.422 70.2937 105.937C69.9491 106.208 70.0904 106.445 70.1422 106.66C70.6297 108.637 71.5733 110.443 72.571 112.209C73.7104 114.24 75.0055 116.16 76.5579 117.909C76.7189 118.099 76.8597 118.309 77.3835 118.476Z" fill="#CBC8C1"/>
<path d="M79.5378 96.8064C79.2508 99.4924 78.9894 102.083 78.687 104.673C78.3781 107.283 77.6426 109.783 76.721 112.217C77.1974 112.43 77.2402 112.15 77.3394 111.955C78.0461 110.516 78.5458 108.988 78.825 107.385C79.3966 104.153 79.666 100.87 79.7432 97.567C79.7463 97.3545 79.8377 97.1104 79.5378 96.8064Z" fill="#CBC8C1"/>
<path d="M120.234 118.384C115.999 120.044 111.976 121.676 108.307 124.018C107.955 124.241 107.576 124.476 107.489 124.967C107.884 125.26 108.174 124.974 108.397 124.837C112.051 122.426 116.086 120.684 119.986 118.699C120.013 118.686 120.026 118.645 120.234 118.384Z" fill="#CBC8C1"/>
<path d="M82.5879 82.549C85.4633 76.7635 83.4305 78.2987 91.943 69.2983C87.8383 71.7098 82.9827 78.1276 82.5879 82.549Z" fill="#CBC8C1"/>
<path d="M53.0658 75.5032C52.8203 69.5025 53.6741 63.7001 55.4212 58.0624C53.5667 60.7894 52.0833 69.6444 53.0658 75.5032Z" fill="#CBC8C1"/>
<path d="M60.8996 110.635C58.4295 105.854 57.837 100.739 57.4674 95.4466C56.2146 98.138 58.5058 108.181 60.8996 110.635Z" fill="#CBC8C1"/>
<path d="M149.908 75.3572C146.359 78.2651 142.48 80.6902 138.209 82.9595C140.766 82.8312 148.56 77.708 149.908 75.3572Z" fill="#CBC8C1"/>
<path d="M87.908 121.917C90.1307 120.641 92.0575 119.281 94.2029 118.277C96.4704 117.209 98.8484 116.575 101.401 116.51C101.736 116.499 102.129 116.628 102.45 116.199C101.849 115.913 101.302 115.965 100.755 115.976C98.3934 116.02 96.2573 116.777 94.1868 117.763C92.2454 118.691 90.4803 119.905 88.7289 121.12C88.4721 121.304 88.2712 121.558 87.908 121.917Z" fill="#CBC8C1"/>
<path d="M79.8149 60.3125C82.4748 56.2615 85.057 52.4685 88.7817 49.4835C86.2869 49.9982 80.3786 57.2881 79.8149 60.3125Z" fill="#CBC8C1"/>
<path d="M123.673 159.159C120.963 158.219 118.254 157.278 115.604 156.182C112.926 155.084 110.353 153.743 107.57 152.526C109.689 154.526 120.546 158.995 123.673 159.159Z" fill="#CBC8C1"/>
<path d="M116.977 60.2781C119.019 59.6277 120.925 58.9868 122.839 58.4079C124.725 57.8418 126.708 57.6833 128.658 57.5854C128.717 57.0799 128.443 57.0852 128.203 57.0572C126.804 56.9457 125.43 57.0475 124.087 57.3697C121.81 57.9169 119.619 58.6862 117.578 59.8097C117.408 59.9074 117.267 60.047 116.977 60.2781Z" fill="#CBC8C1"/>
<path d="M92.1167 134.326C97.0465 134.34 101.278 132.447 105.228 129.77C104.998 129.537 104.829 129.635 104.68 129.726C100.899 131.955 96.8753 133.573 92.4575 134.24C92.3414 134.257 92.2325 134.295 92.1167 134.326Z" fill="#CBC8C1"/>
<path d="M61.7591 117.51C60.2981 115.504 58.7696 113.563 57.6202 111.36C56.492 109.192 55.6428 106.915 54.6595 104.422C55.1652 108.561 58.6831 115.242 61.7591 117.51Z" fill="#CBC8C1"/>
<path d="M152.653 135.558C157.753 135.084 162.771 134.244 167.633 132.72C165.944 132.853 164.315 133.263 162.67 133.562C161.004 133.867 159.347 134.221 157.674 134.506C155.988 134.803 154.294 135.039 152.594 135.309C152.616 135.399 152.632 135.482 152.653 135.558Z" fill="#CBC8C1"/>
<path d="M104.137 118.945C106.335 119.328 112.699 116.863 114.936 114.847C113.652 115.418 112.538 115.905 111.424 116.406C110.229 116.945 109.005 117.428 107.745 117.822C106.54 118.189 105.256 118.328 104.137 118.945Z" fill="#CBC8C1"/>
<path d="M168.507 123.63C164.778 122.638 158.347 123.757 155.982 125.467C156.253 125.715 156.503 125.524 156.728 125.442C160.467 123.966 164.409 123.436 168.507 123.63Z" fill="#CBC8C1"/>
<path d="M70.5232 75.5246C70.8783 71.6817 71.1375 67.8358 71.8085 64.0437C71.3074 63.9803 71.3261 64.2552 71.2879 64.4186C70.5731 68.0585 70.2497 71.7583 70.5232 75.5246Z" fill="#CBC8C1"/>
<path d="M148.247 139.588C152.6 140.216 156.816 140.099 160.761 138.224C158.679 138.593 156.641 139.14 154.522 139.363C152.438 139.58 150.333 139.467 148.247 139.588Z" fill="#CBC8C1"/>
<path d="M73.6632 122.081C72.0456 120.913 70.6144 119.827 69.5182 118.297C68.4852 116.845 67.6622 115.255 66.4635 113.743C66.4409 114.409 66.777 114.817 67.0035 115.222C67.6688 116.422 68.3275 117.63 69.1351 118.732C70.0548 119.975 71.1233 121.098 72.4743 121.915C72.8137 122.11 73.1388 122.278 73.6632 122.081Z" fill="#CBC8C1"/>
<path d="M137.629 80.9721C139.81 78.1327 142.978 76.5494 145.789 74.4962C143.886 75.2475 142.166 76.3057 140.496 77.4134C139.414 78.1345 138.402 78.9948 137.69 80.1313C137.563 80.3261 137.506 80.5642 137.427 80.7811C137.49 80.8446 137.553 80.9082 137.629 80.9721Z" fill="#CBC8C1"/>
<path d="M163.842 107.594C162.923 107.889 156.598 112.467 155.724 113.318C158.647 111.823 161.245 110.175 163.606 108.19C163.774 108.051 163.984 107.886 163.842 107.594Z" fill="#CBC8C1"/>
<path d="M119.655 163.665C123.034 166.012 126.837 167.239 130.758 168.142C129.912 167.553 128.897 167.467 127.979 167.103C127.054 166.745 126.111 166.449 125.193 166.071C124.233 165.678 123.307 165.238 122.381 164.784C121.49 164.352 120.625 163.88 119.746 163.421C119.707 163.502 119.681 163.583 119.655 163.665Z" fill="#CBC8C1"/>
<path d="M139.775 87.3191C141.706 87.0008 143.402 86.1202 145.104 85.2604C146.197 84.7111 147.101 83.9572 147.906 83.077C148.054 82.917 148.291 82.7803 148.126 82.3435C147.438 82.535 147.156 83.2049 146.649 83.5665C146.135 83.9347 145.622 84.3166 145.08 84.6429C144.504 84.9886 143.893 85.2853 143.29 85.5891C142.727 85.8804 142.157 86.1784 141.594 86.456C140.99 86.7597 140.386 87.0361 139.775 87.3191Z" fill="#CBC8C1"/>
<path d="M95.2515 119.381C97.8539 118.638 100.45 118.306 103.017 117.864C103.064 117.858 103.083 117.729 103.116 117.654C103.09 117.386 102.87 117.352 102.672 117.339C102.309 117.335 101.932 117.33 101.577 117.388C99.5421 117.709 97.5584 118.204 95.6474 118.933C95.5047 118.991 95.3552 119.055 95.2515 119.381Z" fill="#CBC8C1"/>
<path d="M95.0941 148.378C94.5952 150.338 95.7445 154.427 97.5375 156.986C97.4625 156.249 96.9993 155.631 96.7746 154.945C96.5426 154.239 96.2698 153.544 96.0856 152.832C95.8871 152.078 95.784 151.3 95.5921 150.54C95.4357 149.842 95.5113 149.097 95.0941 148.378Z" fill="#CBC8C1"/>
<path d="M138.584 75.1408C139.792 74.1837 141.155 73.4507 142.518 72.7177C143.874 71.9913 145.366 71.5913 146.808 71.0594C144.355 70.9024 140.325 72.9456 138.584 75.1408Z" fill="#CBC8C1"/>
<path d="M112.918 145.693C116.037 145.796 119.1 146.274 122.427 146.966C121.544 146.219 120.717 146.324 119.981 146.13C119.183 145.927 118.372 145.792 117.569 145.678C116.8 145.572 116.031 145.494 115.257 145.463C114.461 145.425 113.666 145.373 112.918 145.693Z" fill="#CBC8C1"/>
<path d="M137.798 78.6797C137.923 78.7521 137.951 78.794 137.985 78.7882C138.06 78.7837 138.163 78.7799 138.21 78.7334C139.615 77.2889 141.181 76.0343 142.844 74.8924C140.861 75.7641 138.962 76.7343 137.798 78.6797Z" fill="#CBC8C1"/>
<path d="M148.974 80.7253C148.749 80.7801 148.598 80.7755 148.524 80.8487C147.043 82.2155 145.351 83.3292 143.849 84.6611C145.882 83.9347 147.773 82.4844 148.974 80.7253Z" fill="#CBC8C1"/>
<path d="M110.613 61.4912C112.642 60.8539 114.281 59.4987 116.282 58.8605C114.729 58.8885 111.687 60.2901 110.613 61.4912Z" fill="#CBC8C1"/>
<path d="M87.0267 149.418C87.1755 147.414 87.7445 145.553 88.7634 143.582C87.3231 144.587 86.525 147.414 87.0267 149.418Z" fill="#CBC8C1"/>
<path d="M90.2424 100.817C91.1207 100.562 91.3393 99.7601 91.8301 99.2611C92.3545 98.7287 92.8929 98.2105 93.5117 97.5988C92.4388 97.6829 90.9326 99.1997 90.2424 100.817Z" fill="#CBC8C1"/>
</g>
</svg>
