<svg width="513" height="455" viewBox="0 0 513 455" fill="none" xmlns="http://www.w3.org/2000/svg">
<g opacity="0.7" clip-path="url(#clip0_3902_4794)">
<g opacity="0.2">
<path d="M446.054 328.991C437.937 324.649 429.842 320.267 421.688 315.991C414.396 312.176 407.061 308.407 399.688 304.739C394.857 302.34 389.96 300.027 384.987 297.916C377.745 294.861 370.277 292.467 362.668 290.482C354.829 288.441 347.017 286.257 339.33 283.688C334.211 281.967 329.192 279.971 324.211 277.873C319.579 275.934 315.12 273.619 310.623 271.405C307.338 269.776 304.281 267.733 301.151 265.823C300.292 265.295 299.574 264.513 298.868 263.772C295.024 259.687 291.455 255.389 289.148 250.201C284.532 239.825 281.998 229.032 282.38 217.606C282.726 207.537 284.054 197.647 286.857 187.963C287.962 184.143 289.276 180.387 290.98 176.778C291.505 175.673 291.882 174.521 292.441 173.417C295.571 167.3 299.713 161.936 304.414 156.951C306.266 154.994 308.23 153.151 310.221 151.323C313.874 148.008 318.142 145.628 322.424 143.255C327.378 140.522 332.521 138.138 337.348 135.16C340.618 133.134 343.94 131.171 346.675 128.377C348.211 126.803 349.389 124.961 350.673 123.212C351.223 122.47 351.466 121.593 351.666 120.727C351.962 119.407 351.074 118.584 349.779 119C349.232 119.168 348.727 119.481 348.223 119.76C346.026 120.985 343.799 122.106 341.463 123.045C337.494 124.632 333.377 125.543 329.142 126.162C315.715 128.124 302.634 131.448 290.009 136.402C282.936 139.182 276.175 142.658 270.358 147.705C266.96 150.655 263.654 153.691 260.761 157.148C258.054 160.393 255.936 163.931 254.416 167.869C251.264 175.981 250.088 184.368 250.76 193.011C251.308 199.893 253.363 206.355 256.4 212.557C259.248 218.376 262.842 223.667 266.815 228.748C271.663 234.925 277.03 240.64 281.957 246.738C284.995 250.482 287.794 254.406 290.578 258.357C290.751 258.61 290.89 258.896 291.193 259.483C288.893 258.278 287.129 256.864 285.269 255.624C282.591 253.843 279.986 251.962 277.366 250.109C274.109 247.798 270.873 245.481 267.638 243.163C263.719 240.346 259.829 237.509 255.918 234.678C252.577 232.268 249.242 229.878 245.879 227.508C243.404 225.77 240.915 224.058 238.418 222.36C235.178 220.145 231.938 217.93 228.683 215.742C225.527 213.627 222.342 211.565 219.193 209.47C215.711 207.156 212.244 204.815 208.754 202.515C206.774 201.207 204.773 199.906 202.785 198.612C200.092 196.858 197.399 195.104 194.714 193.336C194.495 193.197 194.311 193.025 194.02 192.794C193.876 191.51 193.721 190.185 193.59 188.909C193.959 188.276 194.57 188.213 195.111 188.024C204.616 184.761 212.406 179.115 218.636 171.244C221.148 168.065 223.556 164.792 225.396 161.189C229.77 152.637 232.244 143.609 231.835 133.925C231.613 128.846 230.274 124.021 228.258 119.378C225.917 113.998 223.122 108.871 219.466 104.227C218.474 102.962 217.383 101.781 216.199 100.706C215.574 100.133 214.84 99.7259 214.097 99.3664C213.159 98.9165 212.875 99.0205 212.161 99.8988C212.01 100.077 211.978 100.355 211.607 100.394C211.482 100.116 211.365 99.8239 211.247 99.5319C208.477 91.7147 203.703 85.2468 197.668 79.6679C194.216 76.4808 190.46 73.718 186.51 71.1451C182.781 68.7113 178.887 66.6053 174.882 64.6995C169.096 61.9458 163.806 58.455 159.358 53.7908C158.847 53.2635 158.319 52.8311 157.526 52.6881C156.496 53.1292 156.279 54.0559 156.36 55.0431C156.44 56.0644 156.642 57.0841 156.894 58.0786C158.088 62.9457 159.295 67.8203 160.537 72.6963C161.756 77.4551 162.563 82.2648 162.47 87.1864C162.463 87.5141 162.477 87.8357 162.443 88.1485C162.431 88.2642 162.351 88.3769 162.298 88.5044C161.594 88.5154 161.129 88.0311 160.654 87.6283C159.454 86.6139 158.074 85.954 156.637 85.3667C153.904 84.2529 151.176 83.1598 148.366 82.2476C145.103 81.2069 141.788 80.4508 138.414 80.0817C130.559 79.2348 122.692 78.3463 114.904 77.0309C113.9 76.8583 112.866 76.7732 111.843 76.7297C111.017 76.7082 110.161 76.74 109.342 76.8964C106.579 77.4414 105.691 79.2003 106.917 81.7119C107.483 82.8632 108.16 83.9714 108.839 85.0456C110.54 87.7687 112.122 90.5824 113.572 93.4451C115.117 96.4827 116.837 99.4252 118.789 102.2C118.508 102.55 118.195 102.516 117.884 102.448C109.276 100.818 100.978 102.029 92.8924 105.155C90.1345 106.226 87.4198 107.409 84.705 108.591C83.1668 109.256 81.6984 110.048 80.4335 111.196C78.9198 112.573 78.7549 113.721 79.8715 115.422C80.6615 116.61 81.7076 117.556 82.8752 118.378C83.8707 119.069 84.8514 119.787 85.8988 120.542C85.3347 121.277 84.5878 121.491 83.9194 121.783C81.996 122.672 80.0221 123.462 78.0853 124.343C77.3192 124.686 76.5591 125.05 75.8702 125.505C74.0701 126.706 73.5707 128.331 74.3452 130.366C74.6157 131.074 74.9826 131.766 75.3095 132.436C74.8784 132.773 74.4189 132.815 73.9801 132.851C69.9376 133.28 66.2788 134.811 62.7034 136.633C62.0188 136.987 61.3595 137.389 60.7907 137.911C59.5258 139.06 59.2215 140.113 59.8236 141.703C59.9767 142.119 60.1921 142.518 60.4074 142.916C64.3479 150.039 68.9654 156.664 74.8672 162.326C75.0972 162.541 75.3198 162.769 75.5158 162.982C75.3059 163.581 74.7857 163.764 74.3902 164.068C71.9636 165.864 69.6083 167.752 67.4609 169.894C64.0293 173.314 60.2223 176.247 56.3365 179.101C54.3129 180.579 52.2507 182.001 50.3696 183.663C49.4468 184.478 48.6768 185.394 48.0641 186.468C47.2679 187.842 47.4975 189.033 48.4386 190.2C48.4772 190.257 48.5232 190.3 48.5692 190.343C54.2367 195.892 58.5518 202.559 63.5186 208.68C64.246 209.572 65.0222 210.438 65.7422 211.343C66.0925 211.782 66.5836 212.124 66.7444 212.841C66.0229 213.261 65.3087 213.668 64.6079 214.082C61.7336 215.805 59.0982 217.851 56.4941 219.967C52.7642 223.012 49.0076 226.043 45.2584 229.06C44.0986 229.987 42.9847 230.958 42.0088 232.057C40.0438 234.248 40.3369 236.679 42.8039 238.274C47.0201 240.994 51.2288 243.729 55.7543 245.923C62.6975 249.266 69.9375 251.569 77.6725 252.192C79.6059 252.357 81.5361 252.275 83.4499 252.097C84.3348 252.011 85.2258 251.947 86.1241 251.869C86.4004 252.441 86.0035 252.779 85.7978 253.119C83.4359 257.254 81.5561 261.621 79.4746 265.912C77.8561 269.272 76.2777 272.655 74.4991 275.927C73.4544 277.843 72.6707 279.886 72.0221 281.97C71.8713 282.462 71.7607 282.976 71.7464 283.474C71.6767 284.954 72.4412 285.936 73.884 286.23C74.446 286.349 75.0317 286.395 75.6128 286.385C79.3546 286.278 83.0541 286.846 86.7535 287.256C89.5617 287.574 92.3847 287.865 95.1944 288.149C101.515 288.773 107.795 288.275 114.011 287.167C121.66 285.805 128.994 283.467 135.904 279.881C138.649 278.454 141.248 276.789 143.731 274.954C144.183 274.611 144.571 274.163 145.158 274.017C145.552 274.376 145.271 274.726 145.154 275.063C143.666 279.385 142.671 283.824 141.798 288.296C140.609 294.407 138.859 300.399 137.44 306.453C136.99 308.367 136.787 310.244 137.403 312.156C137.602 312.772 137.836 313.39 138.245 313.879C139.546 315.438 140.678 315.472 141.948 314.693C142.327 314.449 142.713 314.227 143.067 313.934C148.057 309.843 153.69 306.701 159.15 303.306C163.13 300.818 167.256 298.569 171.102 295.85C175.751 292.563 179.751 288.621 183.078 283.974C190.138 274.102 192.776 263.141 191.536 251.146C191.352 249.369 191.065 247.588 190.839 245.822C191.438 245.089 192 244.389 192.55 243.682C194.804 240.779 196 237.393 197.035 233.953C199.32 226.303 199.318 218.625 197.288 210.921C196.682 208.613 195.779 206.402 194.568 204.336C194.167 203.642 193.95 202.963 194.019 202.147C194.133 200.744 194.172 199.352 194.258 197.969C194.863 197.885 195.225 198.208 195.597 198.45C198.867 200.611 202.122 202.799 205.384 204.974C208.494 207.046 211.59 209.112 214.699 211.184C218.12 213.482 221.528 215.772 224.949 218.07C227.772 219.966 230.624 221.844 233.425 223.78C237.295 226.432 241.144 229.123 244.985 231.828C248.971 234.649 252.943 237.496 256.915 240.343C260.879 243.203 264.808 246.097 268.779 248.944C272.074 251.311 275.378 253.631 278.696 255.959C281.589 257.981 284.51 259.984 287.431 261.987C288.858 262.97 290.314 263.934 291.77 264.864C299.458 269.823 307.299 274.536 315.557 278.468C326.017 283.463 336.836 287.558 348.017 290.685C354.952 292.627 361.917 294.481 368.826 296.531C375.796 298.597 382.602 301.149 389.172 304.284C393.826 306.497 398.408 308.81 403.04 311.064C407.499 313.221 411.756 315.773 416.289 317.797C416.805 318.031 417.29 318.352 418.038 318.767C411.84 317.355 405.916 316.078 400.144 314.117C391.152 311.07 382.209 307.84 373.075 305.238C365.09 302.958 356.959 301.347 348.665 300.694C339.187 299.941 329.773 300.552 320.381 301.941C306.554 303.996 292.86 306.788 279.434 310.67C268.795 313.742 258.045 316.386 247.341 319.23C244.17 320.071 240.98 320.851 237.796 321.651C235.862 322.15 233.97 322.793 232.157 323.638C231.356 324.014 230.52 324.388 230.006 325.22C230.159 326.142 230.82 326.492 231.538 326.802C233.907 327.819 236.308 328.713 238.74 329.521C244.595 331.457 250.444 333.373 256.16 335.687C260.452 337.42 264.708 339.221 268.955 341.034C276.867 344.425 284.932 347.412 293.455 348.944C296.262 349.453 299.08 349.532 301.903 349.351C310.972 348.795 319.646 346.466 328.25 343.662C337.694 340.574 346.653 336.344 355.725 332.351C363.091 329.106 370.575 326.152 378.369 324.086C387.989 321.531 397.727 319.862 407.721 320.063C413.584 320.189 419.358 320.982 424.997 322.711C425.685 322.918 426.328 323.205 426.957 323.519C432.681 326.447 438.412 329.397 444.008 332.587C444.193 332.253 444.386 331.906 444.571 331.572C444.222 331.414 443.859 331.282 443.525 331.097C434.265 326.173 425.063 321.143 415.729 316.352C407.197 311.972 398.7 307.559 390.026 303.466C381.794 299.584 373.29 296.475 364.508 294.12C350.024 290.244 335.579 286.268 321.84 280.136C316.254 277.65 310.751 274.984 305.442 271.936C299.807 268.69 294.303 265.238 288.916 261.606C285.176 259.097 281.451 256.561 277.769 253.979C273.609 251.062 269.499 248.086 265.376 245.103C260.576 241.64 255.82 238.131 251.013 234.681C246.73 231.609 242.411 228.569 238.083 225.577C234.174 222.869 230.207 220.234 226.276 217.566C221.966 214.636 217.669 211.714 213.345 208.811C210.256 206.732 207.095 204.753 204.043 202.608C202.723 201.684 201.336 200.88 200.023 199.943C199.115 199.283 198.131 198.633 198.119 197.3C198.608 197.205 198.889 197.517 199.23 197.689C200.94 198.602 202.483 199.754 204.099 200.807C207.741 203.209 211.441 205.539 215.096 207.949C219.808 211.067 224.511 214.232 229.208 217.377C233.366 220.17 237.568 222.918 241.689 225.778C246.965 229.453 252.168 233.227 257.406 236.969C264.256 241.865 271.119 246.769 277.962 251.678C284.818 256.595 291.82 261.279 298.976 265.717C305.76 269.914 312.735 273.797 320.022 277.086C325.426 279.523 330.892 281.751 336.479 283.731C344.428 286.549 352.545 288.815 360.687 290.938C371.486 293.748 381.999 297.324 392.078 302.126C400.442 306.117 408.694 310.342 416.91 314.599C425.822 319.208 434.658 323.983 443.524 328.706C444.199 329.063 444.85 329.493 445.51 329.877C445.684 329.659 445.869 329.325 446.054 328.991ZM150.46 196.916C150.087 197.181 149.76 197.139 149.446 197.14C145.78 197.079 142.138 196.753 138.504 196.257C131.175 195.248 124.22 192.998 117.788 189.363C114.211 187.345 110.957 184.809 107.797 182.167C102.492 177.726 97.7905 172.764 94.1196 166.856C89.7077 159.734 86.0159 152.226 82.4841 144.649C80.3356 140.056 78.488 135.297 75.8935 130.91C75.6707 130.525 75.4835 130.107 75.3511 129.685C74.939 128.287 75.2657 127.352 76.4761 126.522C77.2716 125.968 78.1622 125.589 79.0588 125.231C82.7769 123.75 86.3421 122.01 89.8404 120.075C92.989 118.33 96.1702 116.621 99.356 114.967C106.796 111.117 114.729 108.674 123.008 107.592C134.283 106.112 145.176 107.491 155.467 112.602C158.01 113.872 160.385 115.38 162.612 117.156C164.541 118.714 166.224 120.432 166.376 123.116C166.39 123.438 166.521 123.737 166.589 124.054C169.556 136.901 174.041 149.212 179.748 161.082C180.45 162.553 181.195 164.013 182.05 165.744C179.984 164.371 178.323 162.927 176.368 161.983C172.398 160.079 168.202 158.957 163.823 158.484C161.769 158.253 159.897 158.734 158.121 159.86C155.684 161.423 154.096 163.562 153.275 166.335C152.533 168.838 152.343 171.385 152.398 173.963C152.444 176.083 152.58 178.199 152.695 180.322C152.966 186.004 152.156 191.558 150.46 196.916ZM166.714 240.04C166.445 240.746 165.944 240.957 165.568 241.289C160.287 245.778 155.864 250.986 152.557 257.11C151.816 258.479 151.324 259.934 150.603 261.297C149.155 264.036 148.123 266.936 147.078 269.829C146.644 271.02 146.002 271.99 145.012 272.768C141.706 275.332 138.239 277.651 134.471 279.506C124.576 284.386 114.066 286.848 103.069 287.418C98.4332 287.658 93.825 287.093 89.2331 286.624C84.573 286.152 79.9452 285.402 75.2234 285.419C73.0367 285.429 72.471 284.592 73.0114 282.483C73.4248 280.793 74.114 279.203 74.87 277.65C75.4988 276.359 76.3709 275.289 77.3972 274.288C79.4411 272.332 81.6156 270.519 83.9386 268.91C89.1756 265.286 93.5162 260.73 97.4087 255.786C100.753 251.515 103.1 246.621 104.848 241.483C105.902 238.386 107.017 235.304 108.668 232.451C110.283 229.664 111.823 226.853 113.411 224.052C113.692 223.544 114.027 223.067 114.394 222.625C117.695 218.591 121.71 215.408 126.345 213.091C132.662 209.945 139.424 208.074 146.338 206.776C146.69 206.709 147.087 206.528 147.459 206.927C146.858 209.176 146.221 211.458 145.659 213.764C144.851 217.015 144.328 220.32 144.643 223.688C145.235 230.018 148.318 234.816 153.755 238.074C157.073 240.053 160.734 240.564 164.535 240.193C165.215 240.099 165.896 239.848 166.714 240.04ZM100.162 231.33C99.6283 231.505 98.9965 231.26 98.3797 231.145C94.207 230.298 90.2012 228.897 86.3611 227.135C81.1268 224.74 76.449 221.466 72.4597 217.266C68.2477 212.837 64.3113 208.195 60.56 203.376C56.9912 198.763 53.7202 193.896 49.4079 189.9C48.1391 188.726 48.2625 187.59 49.3818 186.169C50.9764 184.174 53.058 182.78 55.0875 181.322C59.8933 177.879 64.5166 174.23 68.7776 170.101C73.5362 165.514 78.908 161.774 85.1367 159.416C86.0259 159.071 86.9105 158.672 87.9839 158.656C88.9195 160.274 89.8626 161.878 90.7775 163.502C93.1999 167.759 95.8489 171.827 99.1646 175.48C104.196 181.044 109.947 185.75 116.261 189.755C120.679 192.553 125.561 194.387 130.599 195.784C135.954 197.269 141.432 197.932 146.962 198.188C147.917 198.229 148.885 198.12 149.99 198.488C149.279 200.904 148.578 203.272 147.883 205.626C128.877 208.492 113.103 217.145 100.162 231.33ZM231.635 325.652C231.778 325.016 232.24 324.906 232.637 324.724C234.094 324.049 235.595 323.45 237.156 323.059C240.713 322.151 244.276 321.265 247.82 320.35C255.73 318.296 263.67 316.345 271.539 314.146C281.641 311.318 291.754 308.531 302.049 306.489C305.397 305.833 308.735 305.1 312.109 304.65C320.387 303.568 328.656 303.858 336.913 305.05C340.03 305.504 343.114 306.08 346.129 307C351.154 308.547 356.145 310.214 361.241 311.538C368.458 313.41 375.642 315.437 383.096 316.062C388.734 316.535 394.39 316.878 400.03 317.282C404.131 317.566 408.24 317.803 412.233 318.882C412.55 318.97 412.971 318.872 413.081 319.334C404.09 318.678 395.12 318.016 386.162 317.395C378.887 316.887 371.629 317.104 364.39 317.978C358.863 318.63 353.514 320.063 348.374 322.187C342.019 324.806 336.384 328.61 330.934 332.744C323.212 338.584 314.946 343.547 305.762 346.797C302.072 348.101 298.311 348.652 294.375 348.04C288.626 347.139 283.14 345.355 277.694 343.436C272.363 341.562 267.277 339.057 262.037 336.955C258.752 335.64 255.534 334.171 252.217 332.977C247.21 331.179 242.126 329.583 237.075 327.865C235.251 327.22 233.392 326.574 231.635 325.652ZM157.436 53.668C157.766 53.7982 157.902 53.804 157.994 53.8899C158.375 54.2409 158.736 54.5978 159.097 54.9547C162.663 58.5019 166.598 61.573 171.068 63.929C172.786 64.8288 174.551 65.5803 176.276 66.4667C183.338 70.0672 190.02 74.2595 195.979 79.5345C201.379 84.3075 205.881 89.7869 208.908 96.3854C210.296 99.4231 211.612 102.526 212.148 105.842C213.097 111.655 211.69 117.122 209.094 122.244C206.306 127.748 203.189 133.087 200.152 138.471C199.103 140.332 198.261 142.291 197.522 144.254C195.766 148.934 194.063 153.644 192.656 158.448C191.145 163.631 189.803 168.854 189.402 174.268C189.392 174.35 189.245 174.426 189.09 174.549C187.318 171.7 185.503 168.897 183.815 166.024C181.107 161.399 178.865 156.597 177.3 151.454C175.55 145.703 174.922 139.876 175.626 133.915C176.073 130.149 176.602 126.394 177.083 122.63C178.627 110.556 178.237 98.6656 174.223 86.9834C172.223 81.146 169.773 75.6173 165.99 70.7288C164.973 69.4148 164.035 68.0222 163.11 66.6369C161.131 63.6902 159.529 60.5341 158.039 57.3349C157.532 56.2339 157.061 55.1003 157.436 53.668ZM187.534 221.812C185.17 225.824 182.497 229.419 179.011 232.338C174.526 236.116 169.497 238.703 163.532 239.043C157.334 239.394 152.403 237.08 148.781 231.966C147.079 229.557 146.596 226.934 147.093 224.086C147.424 222.228 148.068 220.438 149.056 218.875C151.635 214.79 154.961 211.434 159.363 209.285C160.584 208.688 161.81 208.146 163.006 207.5C163.957 206.98 164.884 206.378 165.785 205.76C166.875 205.021 167.2 203.962 166.912 202.72C166.785 202.162 166.611 201.594 166.352 201.084C165.666 199.709 164.987 198.321 164.182 197.002C160.416 190.919 157.86 184.354 156.373 177.37C155.588 173.655 155.015 169.934 155.39 166.077C155.65 163.499 156.909 161.858 159.058 160.624C160.466 159.817 161.96 159.546 163.508 159.618C170.783 159.969 177.103 162.547 182.38 167.636C187.427 172.51 190.217 178.559 191.75 185.271C193.16 191.48 193.303 197.771 192.666 204.084C192.051 210.356 190.431 216.333 187.534 221.812ZM350.619 119.972C350.627 121.058 350.225 122.004 349.636 122.847C348.822 124.001 347.981 125.14 347.107 126.244C344.98 128.886 342.254 130.812 339.302 132.422C334.021 135.305 328.427 137.369 322.651 139.036C316.163 140.919 309.812 143.244 303.56 145.833C296.884 148.589 290.871 152.323 285.942 157.687C284.208 159.588 282.554 161.533 281.011 163.592C278.838 166.505 277.065 169.64 275.654 172.941C273.692 177.49 272.497 182.289 271.844 187.214C269.86 202.255 272.203 216.728 277.807 230.705C282.025 241.262 287.607 251.092 294.33 260.245C294.44 260.393 294.515 260.574 294.623 260.756C293.966 260.776 293.692 260.327 293.338 259.957C292.378 258.919 291.637 257.705 290.804 256.563C288.026 252.79 285.348 248.932 282.345 245.313C277.711 239.726 272.815 234.359 268.28 228.687C263.348 222.534 259.103 215.993 255.962 208.72C253.734 203.576 252.375 198.251 251.927 192.699C251.252 184.315 252.397 176.173 255.429 168.309C256.88 164.559 258.838 161.09 261.42 158.036C268.944 149.155 278.071 142.418 288.887 138.049C301.845 132.808 315.297 129.446 329.073 127.293C332.127 126.822 335.172 126.398 338.137 125.425C341.81 124.215 345.345 122.685 348.688 120.716C349.29 120.386 349.832 119.849 350.619 119.972ZM183.882 229.629C185.24 231.743 185.996 234.064 186.793 236.373C188.961 242.6 190.551 248.925 190.685 255.578C190.899 266.306 187.824 275.978 181.373 284.53C177.855 289.176 173.578 293.052 168.656 296.169C165.293 298.301 161.839 300.312 158.457 302.416C152.997 305.811 147.385 308.947 142.4 313.059C142.153 313.253 141.879 313.433 141.612 313.599C140.364 314.338 139.675 314.166 138.937 312.884C138.268 311.728 138.076 310.47 138.295 309.161C138.914 305.368 140.813 302.163 143.078 299.178C144.852 296.829 146.884 294.675 148.803 292.44C151.384 289.421 153.727 286.201 156.321 283.19C158.994 280.099 161.186 276.743 163.048 273.133C163.613 272.05 164.157 270.974 164.576 269.81C166.162 265.437 167.186 260.944 167.751 256.336C168.36 251.491 169.172 246.689 170.762 242.057C171.526 239.828 172.645 237.936 174.869 236.725C177.939 235.059 180.616 232.844 182.914 230.209C183.11 229.951 183.338 229.728 183.882 229.629ZM193.587 187.372C193.415 187.084 193.31 186.991 193.287 186.874C192.731 184.036 191.962 181.236 190.867 178.553C190.644 178.01 190.47 177.443 190.549 176.858C190.88 174.058 191.209 171.292 192.556 168.705C194.333 165.31 196.718 162.392 199.256 159.576C202.698 155.761 206.54 152.324 209.56 148.135C211.592 145.318 213.371 142.361 214.544 139.05C216.749 132.804 217.144 126.392 216.582 119.851C216.102 114.263 214.981 108.791 213.772 103.322C213.559 102.384 213.325 101.451 213.383 100.402C214.306 100.564 214.961 101.05 215.58 101.602C216.534 102.462 217.41 103.401 218.214 104.406C222.178 109.377 225.211 114.862 227.62 120.717C229.726 125.828 230.956 131.134 230.796 136.681C230.575 145.109 228.353 153.021 224.551 160.51C223.067 163.439 221.144 166.09 219.207 168.733C216.233 172.808 212.813 176.427 208.803 179.474C204.221 182.954 199.195 185.63 193.587 187.372ZM89.3729 246.638C88.6156 246.933 88.0506 246.725 87.5019 246.613C85.9835 246.329 84.5301 245.803 83.0915 245.25C79.8583 243.999 76.6162 242.795 73.3106 241.8C68.6081 240.397 63.7848 239.748 58.8951 239.533C53.8691 239.312 48.933 238.582 44.1103 237.113C43.7396 236.995 43.36 236.924 43.0188 236.752C41.982 236.23 41.5866 235.243 42.0081 234.168C42.2387 233.563 42.5762 233.017 43.0664 232.573C43.9818 231.772 44.8586 230.915 45.8066 230.149C49.9261 226.779 54.0856 223.431 58.205 220.061C60.6403 218.06 63.1334 216.144 65.8463 214.525C66.4419 214.174 66.9899 213.658 67.9463 213.822C71.8813 218.498 76.3866 222.775 81.8204 225.944C87.2141 229.091 93.1047 230.995 99.4233 232.474C95.5497 237.132 92.4473 241.973 89.3729 246.638ZM282.083 232.185C281.639 231.852 281.566 231.323 281.408 230.852C279.747 226.04 278.051 221.261 276.48 216.412C274.191 209.332 272.943 202.045 272.719 194.609C272.468 186.687 274.215 179.158 277.444 171.979C279.17 168.172 281.364 164.624 284.084 161.386C288.806 155.732 294.376 151.194 301.133 148.135C309.716 144.237 318.614 141.283 327.629 138.62C327.795 138.572 327.889 138.624 327.91 138.775C327.836 139.223 327.376 139.265 327.076 139.43C325.166 140.482 323.248 141.548 321.3 142.545C314.988 145.746 309.471 150 304.581 155.106C300.756 159.111 297.189 163.311 294.236 168.008C290.815 173.423 288.406 179.312 286.467 185.391C284.014 193.123 282.475 201.064 281.776 209.157C281.139 216.603 280.939 224.048 282.16 231.478C282.192 231.705 282.331 231.957 282.083 232.185ZM165.177 117.88C164.832 117.811 164.667 117.824 164.589 117.746C161.207 114.527 157.219 112.212 153.05 110.163C150.969 109.132 149.136 107.715 147.375 106.232C143.292 102.8 139.572 98.9931 135.975 95.062C130.117 88.6914 123.58 83.1663 116.005 78.9496C115.765 78.8164 115.426 78.7337 115.419 78.2756C116.139 78.361 116.833 78.4315 117.526 78.5362C123.415 79.4975 129.342 80.235 135.283 80.7886C138.284 81.0736 141.273 81.4741 144.216 82.146C148.297 83.0645 152.198 84.5286 156.03 86.147C158.366 87.1278 160.716 88.2731 162.492 90.3573C162.367 99.5882 163.187 108.75 165.177 117.88ZM170.999 238.733C169.269 242.294 168.278 245.688 167.68 249.16C166.616 255.236 165.065 261.182 163.156 267.051C162.056 270.42 160.808 273.741 159.086 276.817C157.128 280.286 154.83 283.55 152.301 286.632C149.442 290.09 146.556 293.533 143.664 296.956C142.37 298.472 141.21 300.062 139.954 301.635C141.516 295.573 142.732 289.477 144.063 283.392C145.193 278.173 147.004 273.174 148.91 268.193C150.217 264.764 151.691 261.411 153.34 258.155C156.586 251.7 161.241 246.324 166.799 241.744C167.984 240.709 169.158 239.597 170.999 238.733ZM158.69 61.3249C159.155 61.3038 159.204 61.5928 159.311 61.8091C161.107 65.5269 163.401 68.9448 165.815 72.2721C167.83 75.0291 169.599 77.9463 170.871 81.1294C173.835 88.5654 175.228 96.3172 175.374 104.303C175.484 110.244 174.716 116.1 173.995 121.965C173.378 127.015 173.122 132.073 173.671 137.158C174.002 140.151 174.244 143.147 174.698 146.138C174.401 145.729 174.187 145.296 174.014 144.852C172.615 141.11 171.292 137.358 170.17 133.525C168.202 126.781 166.585 119.969 165.313 113.07C163.833 105.13 163.387 97.1177 163.524 89.0622C163.612 83.6143 162.992 78.2798 161.63 73.0229C160.772 69.7209 159.915 66.4189 159.071 63.1242C158.946 62.5314 158.828 61.9252 158.69 61.3249ZM307.17 347.752C311.694 345.792 316.045 343.737 320.208 341.264C324.569 338.655 328.755 335.793 332.975 332.967C342.04 326.877 351.737 322.481 362.639 320.602C373.555 318.73 384.458 318.108 395.471 319.083C395.907 319.115 396.46 318.968 396.851 319.586C396.149 319.686 395.579 319.771 395.002 319.835C389.049 320.531 383.203 321.758 377.426 323.302C368.953 325.584 360.835 328.832 352.865 332.441C344.248 336.337 335.615 340.137 326.601 343.08C320.9 344.927 315.154 346.541 309.238 347.484C308.543 347.605 307.864 347.665 307.17 347.752ZM123.269 106.428C120.629 103.289 118.43 100.046 116.526 96.6178C113.848 91.7831 111.365 86.8474 108.392 82.1983C108.149 81.819 107.954 81.4145 107.78 81.004C107.066 79.334 107.533 78.459 109.35 78.1401C110.933 77.866 112.397 78.3109 113.803 78.9856C117.111 80.5748 120.249 82.471 123.154 84.692C126.912 87.5779 130.482 90.7086 133.688 94.2131C136.965 97.8095 140.255 101.413 143.561 104.99C144.502 106 145.542 106.926 146.756 108.105C138.874 106.109 131.183 105.406 123.269 106.428ZM87.5663 157.709C83.4103 158.721 79.964 160.719 76.4923 162.511C70.6025 157.048 64.4639 148.917 61.1213 142.195C61.0084 141.958 60.8881 141.734 60.8166 141.486C60.3706 140.244 60.5832 139.419 61.6231 138.582C62.0127 138.257 62.4676 138.003 62.9224 137.749C65.4502 136.306 68.1518 135.274 70.9336 134.443C72.5876 133.946 74.2937 133.67 76.1705 133.559C79.8539 141.586 83.4069 149.628 87.5663 157.709ZM77.5201 272.681C77.4474 272.623 77.3881 272.572 77.308 272.528C78.3126 270.59 79.4448 268.705 80.3086 266.705C82.5152 261.56 85.0556 256.599 87.8244 251.73C89.1608 249.382 90.371 246.947 91.8527 244.714C94.1159 241.293 96.492 237.951 98.9808 234.689C103.301 229.004 108.39 224.2 114.233 220.145C114.522 219.938 114.8 219.657 115.251 219.662C115.181 219.85 115.152 220.061 115.031 220.186C112.42 222.944 110.252 226.035 108.191 229.219C105.741 233.009 103.833 237.081 102.219 241.282C100.804 245 99.262 248.664 97.3976 252.185C94.1749 258.251 89.7947 263.257 84.2394 267.296C82.1668 268.8 80.1255 270.373 78.2801 272.16C78.0728 272.376 77.7868 272.514 77.5201 272.681ZM213.545 109.146C214.051 109.619 214.085 109.934 214.141 110.244C215.157 115.903 215.633 121.594 215.137 127.338C214.807 131.082 213.7 134.621 211.939 137.955C210.193 141.262 208.195 144.395 205.897 147.344C203.858 149.983 201.952 152.73 199.913 155.369C197.275 158.775 194.63 162.16 192.51 165.923C192.362 166.19 192.321 166.673 191.695 166.605C191.846 165.956 191.974 165.346 192.13 164.718C193.425 159.485 195.064 154.356 196.838 149.267C198.517 144.474 200.492 139.811 203.083 135.419C205.204 131.813 207.138 128.104 209.192 124.462C210.552 122.04 211.481 119.449 212.27 116.798C213.008 114.397 213.405 111.948 213.545 109.146ZM145.917 220.067C145.789 218.756 146.031 217.564 146.259 216.365C147.268 211.113 148.85 206.023 150.5 200.969C153.107 192.992 154.576 184.925 153.698 176.498C153.483 174.46 153.483 172.383 153.713 170.33C153.759 169.901 153.616 169.403 154.216 169.108C154.257 169.444 154.291 169.76 154.312 170.068C154.998 179.19 157.49 187.761 162.113 195.698C163.048 197.316 163.992 198.921 164.85 200.583C165.431 201.708 166.044 202.868 165.804 204.183C165.077 205.054 164.2 205.597 163.292 206.071C161.979 206.739 160.639 207.392 159.282 207.984C156.108 209.365 153.34 211.304 150.934 213.756C149.035 215.67 147.255 217.685 145.917 220.067ZM401.318 315.745C401.328 315.821 401.331 315.91 401.342 315.986C400.572 315.926 399.81 315.852 399.041 315.792C384.975 314.626 371.227 311.752 357.59 308.206C347.426 305.573 337.167 303.585 326.686 302.941C326.366 302.92 325.893 303.112 325.67 302.57C326.014 302.516 326.324 302.461 326.64 302.427C340.188 300.811 353.576 301.688 366.845 304.891C372.283 306.195 377.597 307.849 382.891 309.632C389.028 311.69 395.166 313.714 401.318 315.745ZM184.426 228.552C184.978 227.776 185.372 226.878 186.056 226.367C187.912 224.97 189 223.008 190.168 221.09C192.512 217.208 194.318 213.131 194.644 208.513C194.669 208.248 194.692 208.016 195.055 207.991C195.145 208.145 195.275 208.287 195.336 208.46C195.485 208.822 195.62 209.176 195.735 209.536C197.925 216.352 198.213 223.264 196.877 230.271C196.226 233.68 195.015 236.935 193.624 240.107C192.928 241.676 191.966 243.097 190.467 244.447C188.74 238.935 187.472 233.416 184.426 228.552ZM88.5231 247.824C87.4482 250.614 87.3297 250.67 84.8304 250.96C79.8586 251.554 74.9687 251.025 70.1079 249.971C65.9648 249.07 61.9886 247.616 58.1189 245.908C55.946 244.948 53.782 243.94 51.7423 242.74C50.1357 241.797 48.6017 240.754 47.0026 239.798C46.4626 239.481 45.8811 239.177 45.6447 238.47C46.2183 238.316 46.6337 238.669 47.086 238.798C51.4503 239.96 55.9058 240.423 60.3981 240.663C66.2678 240.967 71.9235 242.287 77.4568 244.238C81.0651 245.505 84.5537 247.177 88.5231 247.824ZM86.0046 109.521C86.2578 109.19 86.311 109.062 86.4088 109.012C91.8012 106.557 97.2858 104.345 103.164 103.311C108.286 102.415 113.415 102.606 118.522 103.343C119.004 103.418 119.579 103.388 119.921 103.874C120.54 104.741 121.362 105.493 121.815 106.564C121.456 106.645 121.215 106.703 120.96 106.753C114.798 107.857 108.761 109.397 103.028 111.995C102.164 112.388 101.405 112.247 100.628 111.886C99.8639 111.532 99.1444 111.098 98.3643 110.805C94.4549 109.389 90.4292 108.78 86.0046 109.521ZM87.4164 120.04C86.4418 119.5 85.6246 119.117 84.8872 118.621C83.4066 117.608 81.9408 116.569 80.8689 115.102C79.803 113.656 80.1117 112.501 81.7446 111.696C82.198 111.476 82.6915 111.279 83.1821 111.149C87.0193 110.083 90.8839 109.817 94.7633 110.816C96.6555 111.307 98.5522 111.852 100.374 113.193C95.862 115.351 91.7149 117.764 87.4164 120.04Z" fill="#98958B"/>
<path d="M81.7246 128.576C85.0762 129.614 88.4405 130.03 91.8048 130.447C99.0627 131.364 106.341 132.118 113.589 133.117C122.168 134.295 130.645 136.098 138.922 138.609C143.091 139.873 147.187 141.393 151.079 143.376C152.564 144.129 154.132 144.702 155.608 145.502C160.922 148.413 165.737 152.007 170.252 156.046C171.306 156.978 172.346 157.904 173.532 158.945C173.39 157.942 172.727 157.469 172.209 156.955C169.44 154.112 166.441 151.525 163.22 149.181C159.395 146.415 155.261 144.176 151.028 142.178C142.822 138.311 134.103 135.937 125.229 134.125C117.169 132.484 109.017 131.542 100.846 130.729C94.7221 130.127 88.5897 129.572 82.5089 128.609C82.245 128.55 81.9841 128.58 81.7246 128.576Z" fill="#98958B"/>
<path d="M182.934 166.007C182.108 164.38 181.338 162.714 180.428 161.145C177.073 155.359 172.675 150.479 167.512 146.256C164.316 143.646 160.945 141.289 157.294 139.406C149.418 135.354 141.329 131.812 132.586 129.984C129.945 129.428 127.264 129.163 124.576 128.912C121.759 128.642 118.955 128.379 116.143 128.164C115.387 128.111 114.607 127.975 113.419 128.259C115.737 128.549 117.62 128.773 119.515 129.038C124.025 129.654 128.574 130.012 133.02 131.028C136.525 131.819 139.89 133.021 143.276 134.218C146.312 135.29 149.243 136.583 152.122 137.969C155.697 139.706 159.203 141.598 162.503 143.863C165.848 146.171 168.937 148.721 171.774 151.602C175.487 155.388 178.467 159.709 181.291 164.154C181.739 164.856 182.09 165.609 182.934 166.007Z" fill="#98958B"/>
<path d="M158.802 54.3204C161.461 59.1269 164.223 63.5895 167.518 67.7195C173.441 75.1381 179.954 82.0285 186.793 88.6117C191.499 93.157 195.921 97.9635 199.767 103.272C202.349 106.831 204.337 110.708 205.814 114.842C205.968 115.259 206.141 115.669 206.315 116.08C206.327 116.121 206.401 116.145 206.707 116.349C206.554 115.775 206.467 115.396 206.36 115.023C204.29 108.431 200.874 102.629 196.418 97.3494C192.235 92.3959 187.546 87.9469 182.993 83.3466C176.218 76.5202 169.692 69.4653 164.173 61.5379C162.744 59.489 161.377 57.3881 159.955 55.3259C159.716 55.0015 159.615 54.4916 158.802 54.3204Z" fill="#98958B"/>
<path d="M187.645 238.329C187.388 237.156 187.124 235.963 186.878 234.832C191.77 231.297 193.851 226.221 195.326 220.757C193.33 225.932 191.101 230.961 186.298 234.336C186.614 237.041 186.948 239.775 187.242 242.52C188.218 251.716 187.234 260.732 184.321 269.483C183.075 273.242 181.291 276.807 179.144 280.206C176.243 284.81 172.765 288.85 168.738 292.463C168.659 292.542 168.646 292.691 168.517 292.987C169.802 292.18 170.751 291.223 171.72 290.295C172.745 289.327 173.789 288.388 174.762 287.357C178.261 283.626 181.077 279.428 183.22 274.805C186.343 268.038 187.938 260.879 188.411 253.445C188.688 249.01 188.555 244.591 187.798 240.193C187.695 239.56 187.681 238.925 187.62 238.28L187.645 238.329Z" fill="#98958B"/>
<path d="M97.7584 123.138C99.7609 122.799 101.777 122.469 103.787 122.117C112.348 120.651 120.919 120.428 129.501 121.853C133.429 122.512 137.236 123.61 140.992 124.924C144.587 126.184 148.031 127.779 151.358 129.554C157.633 132.875 163.253 137.124 167.658 142.811C167.891 143.115 168.145 143.413 168.406 143.697C168.484 143.776 168.628 143.768 168.777 143.815C168.88 143.314 168.516 143.025 168.277 142.701C165.149 138.489 161.383 134.988 157.026 132.05C154.947 130.636 152.824 129.302 150.598 128.155C136.953 121.097 122.57 118.394 107.326 120.833C105.62 121.109 103.899 121.411 102.19 121.755C100.681 122.053 99.1823 122.426 97.672 122.758C97.7077 122.883 97.7434 123.007 97.7584 123.138Z" fill="#98958B"/>
<path d="M76.8968 188.386C78.193 188.913 79.4731 189.5 80.787 189.932C81.7169 190.238 82.552 190.683 83.4153 191.109C86.6948 192.718 90.0572 194.145 93.4639 195.493C97.9993 197.291 102.591 198.894 107.224 200.328C115.404 202.856 123.724 204.658 132.348 204.623C135.745 204.603 139.153 204.469 142.599 203.918C142.227 203.363 141.758 203.609 141.376 203.607C138.362 203.629 135.338 203.732 132.319 203.699C124.233 203.614 116.386 202.092 108.676 199.755C104.089 198.364 99.5436 196.804 95.0203 195.204C92.6103 194.357 90.2875 193.226 87.9086 192.291C84.8711 191.096 81.9948 189.484 78.8435 188.558C78.2221 188.388 77.6053 188.273 76.8968 188.386Z" fill="#98958B"/>
<path d="M76.9732 125.594C77.6467 125.984 78.3035 125.965 78.8996 126.086C87.7209 127.835 96.6148 128.036 105.564 127.57C110.953 127.294 116.367 127.224 121.753 127.33C127.556 127.441 133.222 128.522 138.817 129.984C140.054 130.303 141.276 130.648 142.553 130.99C141.962 130.104 140.948 130.17 140.145 129.917C134.009 128.016 127.816 126.468 121.317 126.355C115.91 126.255 110.519 126.251 105.129 126.561C96.4448 127.052 87.788 126.737 79.1733 125.592C78.6707 125.523 78.1606 125.467 77.6358 125.437C77.4786 125.438 77.2978 125.512 76.9732 125.594Z" fill="#98958B"/>
<path d="M90.5964 118.68C92.7802 118.738 94.7573 118.194 96.73 117.595C102.884 115.719 109.1 114.139 115.502 113.326C122.825 112.394 129.973 113.163 136.98 115.32C140.271 116.341 143.513 117.545 146.9 118.707C145.943 117.915 144.955 117.367 143.933 116.975C140.357 115.587 136.767 114.224 133.05 113.246C126.739 111.598 120.37 111.47 113.943 112.392C107.756 113.289 101.713 114.808 95.8101 116.893C94.6586 117.302 93.4833 117.628 92.3258 118.015C91.7567 118.223 91.1729 118.458 90.5964 118.68Z" fill="#98958B"/>
<path d="M197.446 144.736C198.014 143.585 198.227 142.604 198.433 141.601C199.506 136.455 199.051 131.387 197.673 126.348C195.94 120.03 193.21 114.155 189.602 108.7C184.428 100.876 179.238 93.0787 174.035 85.274C173.759 84.8592 173.59 84.3464 172.959 84.0668C172.893 84.5012 173.127 84.7708 173.3 85.0582C177.508 91.9803 181.767 98.843 186.355 105.522C189.567 110.181 192.56 114.981 194.672 120.27C196.741 125.448 198.225 130.737 198.266 136.361C198.321 139.096 197.729 141.769 197.446 144.736Z" fill="#98958B"/>
<path d="M148.62 175.708C147.932 175.344 147.511 175.599 147.111 175.691C137.579 178.12 128.041 177.789 118.511 175.682C114.877 174.872 111.329 173.778 107.89 172.395C101.011 169.629 95.044 165.501 89.9786 160.093C89.756 159.865 89.5763 159.591 89.2071 159.596C89.0355 159.937 89.2641 160.186 89.46 160.399C91.7933 163.053 94.3293 165.436 97.2417 167.487C106.296 173.884 116.493 176.867 127.37 177.993C132.832 178.56 138.267 178.327 143.661 177.286C145.3 176.973 146.892 176.495 148.62 175.708Z" fill="#98958B"/>
<path d="M163.33 101.344C163.329 100.401 162.945 99.9609 162.657 99.5046C160.431 96.0896 157.62 93.2577 154.335 90.8088C151.01 88.3376 147.367 86.4403 143.695 84.5965C139.801 82.6476 135.663 81.2963 131.396 80.2743C127.804 79.4177 116.778 77.6159 113.611 77.3785C114.332 77.9352 115.099 77.9064 115.762 78.0644C120.695 79.1763 125.699 79.9087 130.615 81.1155C135.301 82.2647 139.79 83.8632 144.126 86.0222C147.01 87.4635 149.791 89.0576 152.47 90.8045C155.489 92.7571 158.205 95.0998 160.491 97.9025C161.387 98.9928 162.264 100.055 163.33 101.344Z" fill="#98958B"/>
<path d="M95.9009 149.661C97.2899 150.902 98.8779 151.154 100.262 151.712C106.881 154.317 113.682 156.342 120.481 158.401C126.674 160.263 132.882 162.099 139.238 163.353C143.723 164.234 148.234 164.85 152.825 164.533C153.729 164.476 154.697 164.524 155.592 163.886C155.068 163.508 154.628 163.578 154.197 163.601C146.551 163.917 139.128 162.542 131.77 160.61C123.033 158.332 114.405 155.73 105.757 153.101C102.52 152.109 99.3609 150.881 95.9009 149.661Z" fill="#98958B"/>
<path d="M168.528 239.947C166.104 240.069 164.015 241.162 162.048 242.444C158.268 244.886 154.864 247.815 151.526 250.816C143.72 257.813 135.45 264.17 126.339 269.397C123.215 271.191 120.049 272.873 116.9 274.618C116.348 274.922 115.718 275.114 115.155 275.814C115.726 275.886 116.062 275.689 116.418 275.519C129.028 269.3 140.796 261.829 151.203 252.312C153.186 250.497 155.215 248.725 157.316 247.045C160.768 244.248 164.266 241.528 168.528 239.947Z" fill="#98958B"/>
<path d="M136.919 232.616C133.885 232.958 131.139 234.228 128.371 235.38C118.16 239.632 109.304 245.943 101.142 253.301C97.5615 256.517 93.9623 259.704 90.2591 262.764C90.0043 262.972 89.4944 263.073 89.5662 263.636C90.94 263.142 91.9975 262.21 93.113 261.362C96.3261 258.903 99.3373 256.21 102.368 253.545C109.715 247.06 117.609 241.351 126.492 237.131C129.567 235.677 132.749 234.44 135.888 233.091C136.222 232.928 136.571 232.772 136.919 232.616Z" fill="#98958B"/>
<path d="M177.634 83.7261C180.132 86.5242 182.612 89.26 185.049 92.0418C188.353 95.8101 191.488 99.6942 194.346 103.826C197.179 107.909 199.55 112.259 201.139 116.979C202.899 122.212 203.915 127.557 202.717 133.087C202.665 133.338 202.675 133.604 202.678 133.851C202.679 133.974 202.736 134.092 202.772 134.217C203.783 133.242 203.893 131.942 204.009 130.662C204.33 126.966 203.862 123.339 202.941 119.775C201.323 113.469 198.338 107.801 194.566 102.517C189.819 95.8725 184.243 89.9375 178.546 84.1271C178.323 83.899 178.08 83.6768 177.634 83.7261Z" fill="#98958B"/>
<path d="M130.867 210.851C129.552 210.611 128.491 210.825 127.413 210.943C117.8 212.071 108.349 211.142 99.0363 208.58C95.0249 207.473 90.9559 206.596 87.0303 205.241C83.8862 204.143 80.7569 203.019 77.7045 201.694C76.2154 201.043 74.7143 200.351 72.8876 200.088C73.7912 200.851 74.8467 200.773 75.6641 201.313C76.4682 201.846 77.3699 202.172 78.2702 202.531C80.3525 203.371 82.3919 204.257 84.4965 205.057C88.753 206.667 93.107 207.911 97.5053 209.075C103.072 210.556 108.687 211.888 114.472 212.25C119.433 212.557 124.356 212.302 129.253 211.527C129.768 211.481 130.297 211.408 130.867 210.851Z" fill="#98958B"/>
<path d="M132.85 167.699C131.678 167.451 130.514 167.19 129.341 166.976C123.471 165.885 117.738 164.295 112.117 162.314C105.796 160.084 99.7401 157.251 94.0925 153.649C89.6153 150.801 85.3082 147.645 81.6053 143.778C81.3501 143.515 81.0519 143.297 80.6557 142.973C80.5364 143.692 80.9385 144.037 81.2383 144.377C83.0951 146.506 85.2733 148.307 87.4663 150.081C92.2485 153.953 97.633 156.833 103.092 159.579C107.039 161.558 111.227 163.007 115.461 164.342C120.794 166.024 126.239 167.158 131.768 167.919C132.107 167.968 132.471 167.942 132.819 167.944C132.822 167.875 132.84 167.781 132.85 167.699Z" fill="#98958B"/>
<path d="M152.81 170.039C152.316 169.608 151.843 169.957 151.394 170.074C143.378 172.226 135.219 173.061 126.944 172.592C120.953 172.255 115.143 171.024 109.513 168.933C104.865 167.211 100.313 165.316 96.0632 162.751C95.9164 162.67 95.7251 162.668 95.1424 162.555C106.668 169.816 118.753 173.705 132.039 173.602C141.367 173.555 150.399 171.965 152.81 170.039Z" fill="#98958B"/>
<path d="M56.6403 189.477C58.3488 190.11 59.9504 190.526 61.4603 191.171C63.5812 192.068 65.7169 192.938 67.8128 193.942C71.469 195.69 75.0735 197.531 78.7311 199.244C81.7525 200.657 84.7887 202.043 87.9003 203.262C95.0089 206.086 102.295 208.275 109.956 209.032C110.847 209.124 111.744 209.238 112.635 209.33C112.887 209.348 113.141 209.331 113.496 209.319C113.202 208.842 112.77 208.899 112.39 208.828C107.905 208.104 103.381 207.481 99.0237 206.148C95.7863 205.156 92.5356 204.157 89.4076 202.841C86.8031 201.747 84.1514 200.8 81.5543 199.692C79.8502 198.957 78.1341 198.18 76.4965 197.325C73.6426 195.83 70.7058 194.516 67.8208 193.109C64.7149 191.597 61.5127 190.258 58.1228 189.478C57.8114 189.411 57.4986 189.377 57.1857 189.343C57.0701 189.331 56.9441 189.401 56.6403 189.477Z" fill="#98958B"/>
<path d="M211.541 111.753C211.38 110.564 211.243 109.458 210.995 108.361C210.047 103.997 207.786 100.266 205.338 96.6228C201.161 90.3989 195.903 85.1811 190.248 80.3015C186.175 76.7874 181.972 73.4453 177.645 70.262C177.076 69.8415 176.649 69.2563 175.992 68.9619C175.711 68.8406 175.445 68.6585 175.076 68.6633C179.477 72.3417 183.913 75.9874 188.264 79.7252C194.995 85.4976 201.277 91.7018 206.052 99.2697C208.363 102.941 210.291 106.767 210.995 111.101C211.028 111.293 211.102 111.474 211.163 111.648C211.19 111.662 211.258 111.665 211.541 111.753Z" fill="#98958B"/>
<path d="M114.867 267.173C115.637 267.042 116.251 266.597 116.901 266.242C128.881 259.743 140.427 252.515 151.511 244.578C154.167 242.682 156.765 240.703 159.851 239.481C159.556 238.847 159.118 239.197 158.814 239.273C157.145 239.639 155.708 240.5 154.329 241.446C151.366 243.485 148.422 245.553 145.459 247.592C135.936 254.162 126.137 260.316 116.115 266.086C115.674 266.347 115.265 266.644 114.843 266.933C114.808 266.932 114.852 267.043 114.867 267.173Z" fill="#98958B"/>
<path d="M52.7032 194.344C57.7228 199.866 63.5938 204.325 70.0791 207.989C78.2719 212.635 87.1477 215.357 96.5785 217.234C95.808 216.231 94.8756 216.307 94.1059 216.09C89.494 214.807 84.8849 213.457 80.3911 211.803C76.8257 210.49 73.5148 208.655 70.1892 206.846C64.4056 203.71 59.3104 199.647 54.498 195.199C54.2219 194.942 53.9252 194.69 53.621 194.452C53.4222 194.307 53.1804 194.207 52.9668 194.089C52.8809 194.181 52.8025 194.26 52.7032 194.344Z" fill="#98958B"/>
<path d="M180.993 248.251C180.297 248.877 180.434 249.512 180.356 250.062C179.624 255.223 178.171 260.175 176.371 265.058C174.208 270.944 171.222 276.425 167.891 281.68C163.798 288.119 158.956 294.02 153.344 299.233C153.024 299.527 152.599 299.727 152.488 300.399C154.588 298.91 156.401 297.245 158.041 295.45C161.35 291.875 164.36 288.082 167.18 284.096C170.154 279.864 172.607 275.343 174.866 270.733C178.001 264.322 180.12 257.539 180.875 250.385C180.95 249.746 180.949 249.117 180.993 248.251Z" fill="#98958B"/>
<path d="M105.252 138.93C106.892 140.066 108.825 140.545 110.701 141.096C116.593 142.809 122.526 144.353 128.403 146.092C133.309 147.538 138.16 149.145 143.002 150.799C146.026 151.83 149.04 152.942 151.966 154.18C154.295 155.174 156.674 156.109 158.955 157.252C156.391 155.674 153.819 154.143 151.028 152.945C141.352 148.803 131.288 145.894 121.169 143.181C116.912 142.044 112.591 141.149 108.369 139.856C107.324 139.538 106.292 139.227 105.252 138.93Z" fill="#98958B"/>
<path d="M149.02 204.267C148.562 203.804 148.231 203.865 147.939 203.982C144.601 205.377 141.066 205.582 137.539 205.616C129.064 205.699 120.622 205.155 112.38 202.96C108.732 201.984 105.186 200.699 101.638 199.448C100.79 199.153 99.8839 199.087 99.0829 198.643C100.192 199.885 101.8 200.132 103.205 200.683C106.471 201.97 109.757 203.251 113.186 204.087C122.613 206.381 132.156 207.047 141.816 206.277C144.277 206.088 146.69 205.576 149.02 204.267Z" fill="#98958B"/>
<path d="M195.115 150.737C195.125 149.87 195.168 149.004 195.144 148.136C194.962 141.631 193.568 135.362 191.13 129.369C188.364 122.584 185.237 115.947 181.767 109.487C180.337 106.809 178.54 104.383 176.905 101.854C176.778 101.643 176.616 101.432 176.213 101.435C176.678 102.705 177.481 103.743 178.186 104.832C181.786 110.492 184.505 116.606 187.302 122.675C188.646 125.602 189.957 128.527 191.051 131.559C192.987 136.977 194.171 142.554 194.597 148.304C194.642 149.009 194.708 149.709 194.787 150.416C194.796 150.526 194.868 150.618 194.911 150.729C194.965 150.724 195.034 150.727 195.115 150.737Z" fill="#98958B"/>
<path d="M153.919 288.908C171.421 273.046 176.042 247.235 174.686 237.34C174.133 237.487 174.339 237.933 174.338 238.281C174.201 246.337 172.707 254.163 170.27 261.834C168.409 267.712 165.591 273.078 162.359 278.248C160.666 280.956 158.435 283.28 156.371 285.713C155.545 286.668 154.56 287.501 153.919 288.908Z" fill="#98958B"/>
<path d="M97.5341 189.094C96.0502 187.835 94.1566 187.379 92.3503 186.796C86.9921 185.065 81.6043 183.387 76.0247 182.528C69.0809 181.453 62.1947 181.597 55.3814 183.405C53.5361 183.9 51.5883 184.076 49.7302 185.036C50.2688 185.544 50.7593 185.257 51.1935 185.166C54.0943 184.593 56.98 183.889 59.8957 183.446C67.8186 182.22 75.6441 182.963 83.3687 184.959C87.7611 186.102 92.1122 187.415 96.4869 188.653C96.8384 188.743 97.1781 188.949 97.5341 189.094Z" fill="#98958B"/>
<path d="M75.0117 130.422C76.2271 131.567 77.4231 132.683 78.9079 133.436C79.8706 133.935 80.8244 134.481 81.7708 135.041C85.1189 136.967 88.5808 138.624 92.1922 139.98C95.4194 141.21 98.5624 142.656 101.812 143.846C105.889 145.339 110.026 146.69 114.211 147.893C117.161 148.743 120.09 149.598 123.151 150.248C122.876 149.642 122.317 149.611 121.838 149.468C116.741 148.021 111.67 146.432 106.661 144.702C103.644 143.658 100.722 142.318 97.7218 141.213C93.934 139.829 90.2231 138.243 86.5269 136.63C83.9447 135.496 81.5355 133.986 79.0449 132.622C77.6951 131.909 76.3601 131.169 75.0117 130.422Z" fill="#98958B"/>
<path d="M89.3768 286.931C95.9697 287.095 102.168 285.296 108.312 283.31C118.032 280.165 131.817 272.015 136.475 266.727C136.011 266.557 135.743 266.915 135.447 267.134C133.361 268.63 131.308 270.162 129.209 271.651C117.867 279.707 105.236 284.484 91.5365 286.592C90.8146 286.698 90.0927 286.804 89.3768 286.931Z" fill="#98958B"/>
<path d="M68.6756 179.414C69.7969 179.879 70.6937 179.835 71.5655 179.9C78.4273 180.492 85.1194 181.864 91.5768 184.256C94.5771 185.361 97.5079 186.654 100.385 188.075C104.073 189.892 107.709 191.803 111.335 193.761C112.691 194.495 114.275 194.692 115.651 195.734C115.471 194.989 114.954 194.946 114.593 194.746C110.655 192.563 106.746 190.327 102.762 188.258C92.7616 183.064 82.2513 179.576 70.8681 179.269C70.2336 179.248 69.59 179.119 68.6756 179.414Z" fill="#98958B"/>
<path d="M188.903 152.215C188.234 150.274 187.23 148.496 186.337 146.674C183.423 140.785 181.136 134.648 179.513 128.287C178.371 123.798 177.836 119.191 177.176 114.62C176.976 113.218 176.789 111.823 176.555 110.419C176.428 109.703 176.246 108.992 176.044 108.129C175.84 108.435 175.712 108.539 175.723 108.614C176.321 113.518 176.802 118.443 177.564 123.333C178.942 132.245 182.031 140.589 186.342 148.492C186.956 149.618 187.62 150.719 188.263 151.826C188.391 152.036 188.489 152.3 188.903 152.215Z" fill="#98958B"/>
<path d="M126.878 137.29C131.742 138.905 136.523 140.543 141.191 142.45C143.138 143.25 145.121 144.018 146.968 145.094C148.582 146.023 150.233 146.886 151.973 147.589C153.532 148.208 154.809 149.335 156.27 150.163C160.58 152.621 164.483 155.623 168.126 158.968C168.54 159.355 169.033 159.663 169.51 159.997C169.583 160.055 169.751 159.973 170.026 159.917C169.45 158.533 168.247 157.744 167.238 156.888C162.917 153.254 158.365 149.91 153.317 147.304C146.645 143.85 139.813 140.779 132.554 138.762C130.658 138.217 128.811 137.455 126.878 137.29Z" fill="#98958B"/>
<path d="M66.5454 175.04C73.9962 174.633 81.3484 174.94 88.5853 176.997C95.8088 179.047 102.492 182.228 108.658 186.501C98.9958 177.201 79.5617 171.803 66.5454 175.04Z" fill="#98958B"/>
<path d="M149.412 182.969C141.496 185.474 133.44 186.313 125.259 184.919C117.126 183.534 109.604 180.638 102.906 175.53C103.46 176.483 104.463 177.475 105.695 178.245C113.8 183.331 122.596 186.165 132.196 186.478C137.532 186.644 142.692 185.805 147.75 184.142C148.048 184.045 148.347 183.915 148.652 183.805C148.944 183.687 149.23 183.549 149.509 183.424C149.488 183.273 149.446 183.128 149.412 182.969Z" fill="#98958B"/>
<path d="M213.381 103.018C213.938 105.508 215.101 107.723 216.452 109.851C219.495 114.626 222.531 119.38 225.14 124.403C227.255 128.49 228.893 132.713 229.587 137.286C230.068 140.449 229.69 143.555 229.324 146.702C229.856 146.404 229.796 145.882 229.911 145.422C231.355 139.417 230.341 133.69 227.947 128.123C226.063 123.746 223.669 119.627 221.155 115.598C218.537 111.443 215.436 107.56 213.381 103.018Z" fill="#98958B"/>
<path d="M144.768 222.989C143.357 222.574 141.992 222.864 140.639 223.196C128.478 226.244 117.79 231.923 108.944 240.892C107.281 242.57 105.678 244.299 104.047 246.012C103.782 246.302 103.538 246.585 103.479 247.006C106.069 244.568 108.646 242.123 111.229 239.698C117.349 233.947 124.498 229.866 132.241 226.759C136.127 225.196 140.127 223.994 144.246 223.206C144.439 223.173 144.6 223.071 144.768 222.989Z" fill="#98958B"/>
<path d="M128.014 251.358C124.757 253.392 121.532 255.495 118.21 257.458C111.182 261.606 103.83 265.139 96.5549 268.818C91.3598 271.453 86.1826 274.149 81.0411 276.97C81.7202 277.068 82.2818 276.716 82.833 276.446C89.9099 272.935 96.9483 269.368 104.07 265.935C111.665 262.275 118.897 258.013 125.868 253.309C126.669 252.776 127.515 252.32 128.014 251.358Z" fill="#98958B"/>
<path d="M183.944 81.536C186.373 84.0169 188.712 86.3778 191.044 88.752C195.359 93.1509 199.37 97.8169 202.864 102.912C205.861 107.296 208.168 112.012 209.341 117.233C209.393 117.454 209.36 117.733 209.804 117.909C209.664 116.052 209.218 114.338 208.701 112.656C207.114 107.397 204.121 102.911 200.861 98.5909C196.256 92.4786 190.719 87.2284 185.153 82.0315C184.969 81.8597 184.742 81.7339 184.515 81.6081C184.408 81.5489 184.257 81.5698 183.944 81.536Z" fill="#98958B"/>
<path d="M161.509 112.061C161.202 110.757 160.439 109.74 159.774 108.674C156.063 102.743 151.458 97.6074 145.898 93.3741C143.403 91.4848 140.758 89.7393 138.08 88.1155C134.996 86.2489 131.771 84.6359 128.657 82.8228C126.997 81.8503 125.199 81.2545 123.386 80.6512C124.388 81.2062 125.343 81.8755 126.405 82.2896C128.28 83.0321 129.95 84.0802 131.619 85.1623C133.408 86.3111 135.279 87.313 137.105 88.3951C143.808 92.3901 149.914 97.1181 154.94 103.132C156.923 105.505 158.653 108.052 160.418 110.566C160.758 111.086 161.154 111.567 161.509 112.061Z" fill="#98958B"/>
<path d="M148.945 233.716C148.276 233.065 147.473 233.318 146.752 233.39C142.768 233.746 138.89 234.633 135.129 236.003C126.157 239.249 118.274 244.371 110.714 250.075C110.51 250.223 110.344 250.428 110.186 250.619C110.15 250.652 110.187 250.742 110.196 250.852C110.924 250.61 111.466 250.073 112.078 249.661C118.004 245.583 124.063 241.735 130.652 238.791C136.028 236.397 141.617 234.783 147.472 234.138C147.863 234.093 148.241 234.041 148.613 233.968C148.717 233.938 148.797 233.825 148.945 233.716Z" fill="#98958B"/>
<path d="M42.9748 233.431C44.9417 232.968 46.8298 232.427 48.7508 232.078C54.0395 231.101 59.3694 231.246 64.7008 231.514C71.5594 231.861 78.415 232.276 85.2661 232.636C86.6702 232.716 88.0652 232.687 89.5196 232.708C89.3205 232.248 88.9928 232.241 88.6726 232.221C78.2942 231.581 67.9568 230.457 57.5288 230.505C52.9226 230.534 48.4267 231.183 44.0845 232.72C43.7096 232.861 43.1921 232.818 42.9748 233.431Z" fill="#98958B"/>
<path d="M171.067 137.67C170.92 135.983 170.002 134.584 169.083 133.22C166.504 129.434 163.334 126.212 159.709 123.4C156.456 120.863 152.989 118.68 149.294 116.876C145.264 114.921 141.212 113.007 136.578 112.235C137.076 112.721 137.59 112.866 138.109 113.032C140.481 113.788 142.823 114.633 145.094 115.7C147.184 116.684 149.266 117.681 151.288 118.819C159.27 123.279 165.865 129.202 170.635 137.064C170.77 137.261 170.918 137.465 171.067 137.67Z" fill="#98958B"/>
<path d="M166.485 280.501C168.878 277.255 170.876 273.808 172.506 270.175C175.894 262.613 178.407 254.775 179.102 246.436C179.335 243.686 179.35 240.92 179.077 238.169C178.938 236.783 178.695 235.427 178.076 234.246C177.591 234.239 177.569 234.436 177.609 234.615C179.238 241.94 178.344 249.157 176.639 256.326C175.616 260.627 174.101 264.778 172.392 268.838C170.879 272.449 169.124 275.961 167.116 279.332C166.914 279.726 166.7 280.114 166.485 280.501Z" fill="#98958B"/>
<path d="M114.869 271.607C102.725 278.277 89.9018 283.087 76.3738 285.988C76.6277 286.443 77.2087 286.276 77.6475 286.24C78.7311 286.143 79.8236 285.998 80.8863 285.749C92.3361 283.04 103.269 278.997 113.461 273.077C113.902 272.816 114.357 272.562 114.785 272.294C114.87 272.236 114.917 272.087 114.982 272.001C114.941 271.856 114.905 271.732 114.869 271.607Z" fill="#98958B"/>
<path d="M57.0507 232.909C58.6223 233.065 60.1969 233.153 61.7448 233.383C67.4549 234.227 73.1517 235.064 78.9469 235.031C84.742 234.997 90.5013 234.683 96.2185 233.751C96.8514 233.648 97.4948 233.621 98.32 233.014C97.4023 233.064 96.7797 233.085 96.1482 233.154C87.9032 233.923 79.6327 234.486 71.3595 233.826C68.6151 233.614 65.8794 233.197 63.1453 232.902C61.1259 232.673 59.1036 232.512 57.0507 232.909Z" fill="#98958B"/>
<path d="M110.214 176.231C111.824 177.42 113.425 177.679 114.939 178.065C121.15 179.675 127.425 180.885 133.89 180.682C138.987 180.524 143.997 179.828 148.861 178.232C150.032 177.851 151.145 177.386 152.197 176.748C152.463 176.582 152.757 176.43 152.731 175.91C138.721 181.79 124.625 180.52 110.214 176.231Z" fill="#98958B"/>
<path d="M215.618 118.252C215.575 119.589 216.2 120.634 216.748 121.723C218.887 125.893 221.019 130.076 222.643 134.483C224.474 139.459 225.754 144.548 225.431 149.918C225.331 151.451 225.151 152.973 225 154.6C225.493 154.245 225.534 153.762 225.622 153.287C226.697 147.601 226.202 142.04 224.398 136.573C222.608 131.113 220.127 125.986 217.186 121.059C216.652 120.134 216.145 119.19 215.618 118.252Z" fill="#98958B"/>
<path d="M154.725 255.119C152.785 256.888 151.561 259.001 150.019 260.869C144.927 267.033 139.164 272.424 132.454 276.783C128.794 279.169 125.076 281.436 121.154 283.379C120.938 283.486 120.72 283.627 120.419 283.792C122.898 283.823 135.242 276.13 139.882 272.263C145.739 267.395 150.797 261.859 154.725 255.119Z" fill="#98958B"/>
<path d="M111.609 222.076C98.5756 225.722 86.3649 223.665 74.6963 216.883C75.1642 217.771 75.8689 218.231 76.5898 218.631C85.238 223.494 94.4806 225.459 104.332 224.342C106.892 224.068 109.4 223.574 111.609 222.076Z" fill="#98958B"/>
<path d="M181.324 262.831C186.168 255.919 187.414 235.094 183.283 228.756C184.553 234.399 185.063 240.091 184.709 245.862C184.347 251.647 183.023 257.247 181.324 262.831Z" fill="#98958B"/>
<path d="M145.601 224.951C145.9 226.269 146.669 227.149 147.504 227.908C151.693 231.749 156.691 233.594 162.352 233.678C164.687 233.716 166.958 233.335 169.202 232.781C170.88 232.368 172.553 231.899 174.208 231.369C175.178 231.068 176.092 230.615 176.96 229.962C175.579 230.313 174.205 230.651 172.822 231.036C169.973 231.83 167.084 232.445 164.13 232.674C158.796 233.103 153.982 231.586 149.613 228.606C148.524 227.863 147.561 226.893 146.697 225.838C146.43 225.533 146.323 225.002 145.601 224.951Z" fill="#98958B"/>
<path d="M153.118 225.558C159.644 230.031 166.807 230.93 174.419 229.13C179.961 227.822 186.309 224.431 187.568 222.127C184.292 224.133 181.046 226.085 177.423 227.27C171.893 229.091 166.263 229.739 160.536 228.327C157.987 227.699 155.559 226.632 153.118 225.558Z" fill="#98958B"/>
<path d="M193.47 203.326C190.998 207.155 187.427 209.347 183.564 211.184C180.008 212.877 176.243 213.529 172.332 213.438C170.277 213.398 168.234 213.243 166.188 213.156C165.519 213.134 164.851 212.955 164.157 213.199C164.414 213.586 164.799 213.677 165.173 213.727C169.577 214.284 173.989 214.793 178.387 213.88C184.093 212.716 188.931 209.971 192.793 205.585C193.316 205.02 193.712 204.368 193.47 203.326Z" fill="#98958B"/>
<path d="M191.801 202.086C182.655 209.738 172.206 210.297 160.989 207.674C162.007 208.64 162.006 208.674 162.568 208.793C168.922 210.239 175.266 210.632 181.609 208.634C185.307 207.473 188.537 205.582 191.256 202.849C191.477 202.64 191.626 202.339 191.801 202.086Z" fill="#98958B"/>
<path d="M184.463 177.132C184.102 176.147 183.387 175.925 182.791 175.647C179.335 174.011 175.734 173.044 171.878 172.948C166.554 172.824 161.58 174.115 156.812 176.358C156.338 176.583 155.709 176.741 155.587 177.686C156.921 177.168 158.13 176.687 159.359 176.234C164.744 174.264 170.261 173.378 176.005 174.381C178.419 174.812 180.709 175.593 182.952 176.521C183.361 176.696 183.805 176.872 184.463 177.132Z" fill="#98958B"/>
<path d="M123.415 192.779C130.416 197.34 149.546 195.73 153.223 190.23C148.357 192.523 143.56 193.999 138.488 194.521C133.472 195.038 128.595 194.202 123.415 192.779Z" fill="#98958B"/>
<path d="M126.32 84.4581C132.613 88.7841 137.661 94.1297 142.622 99.5672C145.592 102.836 148.519 106.151 151.817 109.113C153.435 110.569 155.04 112.051 156.962 113.117C157.176 113.235 157.386 113.422 157.788 113.296C151.171 108.389 146.014 102.075 140.45 96.1818C137.547 93.1069 134.545 90.1166 131.218 87.5224C129.776 86.4089 128.399 85.0522 126.32 84.4581Z" fill="#98958B"/>
<path d="M163.468 176.628C165.766 176.575 168.06 176.468 170.375 176.478C174.111 176.507 177.806 176.862 181.352 178.148C185.161 179.526 188.518 181.561 191.095 184.752C191.582 185.353 192.055 185.947 192.542 186.549C192.575 186.584 192.658 186.561 192.849 186.562C191.795 184.181 190.151 182.362 188.223 180.77C184.302 177.549 179.634 176.305 174.714 175.829C170.909 175.483 167.151 175.65 163.468 176.628Z" fill="#98958B"/>
<path d="M116.009 166.879C110.263 164.462 104.313 162.664 98.8767 159.564C93.5202 156.507 88.5115 152.981 83.6251 148.667C84.0903 149.779 84.5135 150.433 85.0818 150.887C87.4202 152.777 89.7734 154.64 92.2554 156.365C94.6974 158.067 97.3036 159.442 99.8433 160.937C102.562 162.549 105.545 163.591 108.492 164.666C110.933 165.583 113.418 166.42 116.009 166.879Z" fill="#98958B"/>
<path d="M163.67 189.424C165.054 189.511 166.345 189.197 167.628 189.053C172.243 188.505 176.857 188.463 181.477 189.069C184.358 189.445 187.101 190.32 189.774 191.417C191.097 191.959 192.002 193.159 193.362 193.633C192.314 191.936 190.391 190.556 188.116 189.748C181.009 187.205 173.766 187.238 166.46 188.58C165.585 188.741 164.702 188.949 163.826 189.144C163.784 189.156 163.767 189.251 163.67 189.424Z" fill="#98958B"/>
<path d="M210.165 145.784C212.755 151.564 214.159 157.281 214.26 163.269C214.347 168.308 213.359 173.082 210.439 177.31C210.185 177.674 209.976 178.082 209.762 178.469C209.732 178.523 209.75 178.585 209.747 178.653C212.238 176.3 213.684 173.472 214.564 169.301C215.631 164.291 215.144 159.345 213.959 154.43C213.39 152.056 212.593 149.747 211.484 147.561C211.207 146.989 210.98 146.392 210.165 145.784Z" fill="#98958B"/>
<path d="M188.325 266.729C184.886 279.009 177.245 288.418 168.336 297.091C168.78 297.267 168.993 296.914 169.239 296.753C169.575 296.556 169.859 296.295 170.144 296.034C173.016 293.56 175.441 290.664 177.853 287.761C179.74 285.491 181.341 283.011 183.015 280.589C183.664 279.64 184.308 278.636 184.708 277.567C185.492 275.523 186.704 273.682 187.286 271.562C187.75 269.97 188.288 268.401 188.325 266.729Z" fill="#98958B"/>
<path d="M104.288 237.613C108.328 233.693 112.393 230.327 116.783 227.351C121.214 224.363 126.141 222.4 131.347 220.313C123.854 220.923 107.232 231.515 104.288 237.613Z" fill="#98958B"/>
<path d="M188.452 166.222C182.744 157.125 177.919 147.662 174.915 137.307C174.403 137.634 174.725 138.092 174.804 138.485C175.564 142.151 176.899 145.631 178.358 149.075C180.618 154.411 183.27 159.545 186.72 164.214C187.14 164.779 187.581 165.337 188.009 165.888C188.147 166.017 188.32 166.113 188.452 166.222Z" fill="#98958B"/>
<path d="M160.129 183.03C164.847 181.981 169.555 181.17 174.436 181.747C179.269 182.315 183.725 184.069 188.172 185.837C179.282 180.246 169.956 178.967 160.129 183.03Z" fill="#98958B"/>
<path d="M143.807 107.221C132.893 101.817 122.98 94.8912 113.765 86.9567C118.452 91.7881 129.977 101.946 143.807 107.221Z" fill="#98958B"/>
<path d="M164.2 168.255C166.928 168.214 169.668 168.058 172.431 168.298C176.025 168.615 179.541 169.325 182.781 170.912C184.494 171.757 186.022 172.935 187.349 174.351C187.754 174.785 188.084 175.387 188.76 175.552C189.158 174.865 188.665 174.558 188.367 174.183C186.121 171.402 183.19 169.638 179.803 168.633C175.066 167.229 170.231 167.009 165.346 167.669C164.968 167.721 164.6 167.849 164.234 167.942C164.179 167.947 164.095 168.005 164.101 168.025C164.098 168.094 164.136 168.15 164.2 168.255Z" fill="#98958B"/>
<path d="M147.318 211.368C146.807 210.527 146.263 210.626 145.756 210.659C144.269 210.76 142.824 211.006 141.376 211.32C134.595 212.848 128.34 215.663 122.288 218.992C120.973 219.728 119.618 220.408 118.496 221.426C123.163 219.302 127.591 216.731 132.413 214.989C137.2 213.28 142.025 211.785 147.318 211.368Z" fill="#98958B"/>
<path d="M218.401 171.289C220.302 168.678 221.57 165.856 222.148 162.704C223.485 155.506 223.309 148.393 221.127 141.373C220.646 139.815 220.2 138.259 219.282 136.861C219.803 138.755 220.386 140.631 220.865 142.537C222.644 149.56 222.864 156.627 221.176 163.701C220.627 166.014 219.829 168.241 218.627 170.314C218.493 170.589 218.276 170.853 218.401 171.289Z" fill="#98958B"/>
<path d="M187.628 238.266C188.398 238.641 188.84 238.031 189.288 237.633C190.71 236.328 191.827 234.784 192.82 233.118C195.095 229.266 196.622 225.157 197.404 220.757C197.654 219.36 197.768 217.958 197.725 216.555C197.698 215.755 197.706 214.922 197.231 214.205C196.829 214.331 196.933 214.616 196.936 214.862C197.094 219.364 196.072 223.631 194.394 227.761C194.005 228.714 193.711 229.685 193.248 230.615C191.885 233.263 190.245 235.686 188.081 237.732C187.896 237.909 187.797 238.151 187.658 238.37L187.628 238.266Z" fill="#98958B"/>
<path d="M140.512 86.1831C142.249 87.4253 143.905 88.5001 145.574 89.5823C149.897 92.3624 153.96 95.4526 157.226 99.4789C159.551 102.338 161.398 105.491 162.889 108.847C163.057 109.237 163.105 109.717 163.523 110.001C163.846 109.796 163.604 109.54 163.536 109.38C161.279 103.156 157.752 97.8685 152.441 93.7551C149.179 91.232 145.763 88.9891 142.216 86.9184C141.729 86.6312 141.266 86.2699 140.512 86.1831Z" fill="#98958B"/>
<path d="M130.814 102.828C122.006 96.8991 114.094 89.9833 107.149 81.5442C107.466 82.924 108.147 83.7728 108.824 84.5668C112.418 88.7573 116.219 92.7313 120.634 96.0687C122.527 97.502 124.385 98.9679 126.3 100.361C127.685 101.39 129.224 102.139 130.814 102.828Z" fill="#98958B"/>
<path d="M193.184 195.402C185.761 199.349 177.88 199.116 169.94 198.641C170.16 199.094 170.473 199.128 170.792 199.183C175.378 199.788 179.973 200.188 184.576 199.408C187.191 198.972 189.703 198.219 192.04 196.931C192.585 196.64 193.163 196.385 193.184 195.402Z" fill="#98958B"/>
<path d="M147.91 238.481C136.91 241.039 127.305 246.498 118.216 252.976C119.725 252.522 121 251.606 122.313 250.78C128.096 247.18 134.01 243.846 140.356 241.308C142.858 240.322 145.384 239.384 147.91 238.481Z" fill="#98958B"/>
<path d="M76.0017 222.492C69.4412 219.309 56.6054 220.71 51.7938 224.29C52.6079 224.427 53.1339 224.108 53.6674 223.932C57.9652 222.476 62.3601 221.631 66.9085 221.675C69.921 221.687 72.9088 222.121 76.0017 222.492Z" fill="#98958B"/>
<path d="M106.104 181.002C98.1424 174.774 89.1532 171.344 79.0419 170.852C88.7999 172.265 97.7639 175.803 106.104 181.002Z" fill="#98958B"/>
<path d="M64.8507 240.373C75.1185 241.528 85.3366 242.079 95.2167 238.203C90.2632 239.331 85.2889 240.308 80.1921 240.467C75.0598 240.658 69.9269 240.378 64.8507 240.373Z" fill="#98958B"/>
<path d="M124.035 188.795C124.868 189.466 125.676 189.426 126.404 189.498C134.118 190.284 141.665 189.546 148.937 186.755C150.201 186.269 151.44 185.734 152.508 184.878C152.763 184.67 153.029 184.504 153.06 183.945C143.958 188.811 134.263 189.771 124.035 188.795Z" fill="#98958B"/>
<path d="M205.529 181.602C211.822 172.737 211.281 159.734 207.824 153.438C207.969 154.059 208.093 154.686 208.258 155.301C209.653 160.908 210.103 166.549 208.905 172.237C208.492 174.241 207.883 176.19 206.938 178.021C206.336 179.171 206.211 180.497 205.529 181.602Z" fill="#98958B"/>
<path d="M138.789 313.465C139.392 312.787 139.318 311.944 139.614 311.253C140.98 308.032 143.065 305.279 145.19 302.548C148.095 298.818 151.369 295.399 154.596 291.97C154.896 291.648 155.111 291.261 155.293 290.838C153.361 292.245 151.823 294.045 150.161 295.689C147.387 298.426 144.83 301.371 142.596 304.582C141.213 306.573 139.923 308.649 139.013 310.92C138.686 311.698 138.536 312.505 138.789 313.465Z" fill="#98958B"/>
<path d="M123.812 256.514C115.459 261.917 106.515 266.278 97.7553 271.281C100.923 270.699 120.754 259.67 123.812 256.514Z" fill="#98958B"/>
<path d="M77.8219 135.208C84.1065 139.738 93.7862 144.284 103.464 146.786C102.275 145.656 100.801 145.45 99.5021 144.992C95.0335 143.387 90.6479 141.602 86.3997 139.474C83.5503 138.034 80.6816 136.566 77.8219 135.208Z" fill="#98958B"/>
<path d="M179.983 218.272C170.847 222.98 161.674 222.117 152.484 218.577C159.045 223.522 174.094 223.418 179.983 218.272Z" fill="#98958B"/>
<path d="M201.915 126.884C202.653 120.925 195.562 106.105 189.411 100.829C195.469 108.602 200.167 117.034 201.915 126.884Z" fill="#98958B"/>
<path d="M200.656 185.009C203.252 181.3 204.844 177.454 205.238 173.153C205.651 168.566 205.187 164.051 204.174 159.581C204.14 159.422 204.024 159.253 203.867 158.939C203.567 159.576 203.785 160.063 203.861 160.524C204.521 164.781 204.92 169.068 204.436 173.371C204.122 176.268 203.363 179.023 201.942 181.586C201.366 182.593 200.878 183.631 200.656 185.009Z" fill="#98958B"/>
<path d="M107.568 79.089C108.569 79.644 109.563 80.2123 110.572 80.754C114.185 82.7046 117.507 85.0869 120.734 87.6086C122.949 89.3425 125.194 91.023 127.446 92.6902C127.89 93.0234 128.366 93.3921 129.073 93.47C125.755 90.5141 122.343 87.8547 118.858 85.2947C116.426 83.5106 113.993 81.7605 111.342 80.3086C110.18 79.6648 108.967 79.1144 107.568 79.089Z" fill="#98958B"/>
<path d="M80.4293 142.341C78.4192 141.087 76.5798 139.998 74.5434 139.201C72.2119 138.275 69.8584 137.546 67.3748 137.147C66.1129 136.936 64.826 136.833 63.5511 136.929C62.8588 136.982 62.1696 137.123 61.6069 137.823C62.8019 137.84 64.0145 137.762 65.2051 137.881C66.5321 138.006 67.8769 138.193 69.173 138.562C70.401 138.929 71.648 139.166 72.8611 139.56C74.1276 139.982 75.4061 140.447 76.6045 141.024C77.7689 141.599 78.9362 142.107 80.4293 142.341Z" fill="#98958B"/>
<path d="M152.737 213.116C156.409 216.599 167.441 218.736 175.353 216.142C172.775 216.196 170.217 216.75 167.633 216.626C165.069 216.497 162.547 216.198 160.031 215.606C157.528 215.021 155.168 213.957 152.737 213.116Z" fill="#98958B"/>
<path d="M169.608 224.491C169.985 225.101 170.402 224.948 170.758 224.936C175.979 224.899 180.925 223.627 185.674 221.514C186.969 220.94 188.112 220.108 189.196 219.191C189.458 218.969 189.618 218.744 189.654 218.206C183.524 222.276 176.777 223.963 169.608 224.491Z" fill="#98958B"/>
<path d="M193.365 156.067C190.405 148.057 187.57 140.011 184.685 131.991C184.177 132.058 184.355 132.367 184.422 132.561C186.804 139.692 189.138 146.848 191.936 153.827C192.258 154.633 192.605 155.454 193.365 156.067Z" fill="#98958B"/>
<path d="M221.578 113.041C225.411 119.79 229.406 126.436 231.548 134.411C231.824 129.19 226.03 118.422 221.578 113.041Z" fill="#98958B"/>
<path d="M180.392 185.484C176.277 182.802 165.15 182.881 158.381 185.742C159.155 186.014 159.732 185.793 160.256 185.665C162.506 185.132 164.789 184.792 167.076 184.507C171.583 183.934 175.997 184.566 180.392 185.484Z" fill="#98958B"/>
<path d="M129.35 263.179C137.173 258.511 145.036 253.866 151.576 247.388C144.521 253.126 136.891 258.075 129.35 263.179Z" fill="#98958B"/>
<path d="M60.2602 203.821C66.2455 209.93 73.6232 213.339 81.4817 215.88C79.8258 214.491 77.692 214.059 75.8052 213.118C74.8351 212.632 73.7985 212.267 72.8506 211.742C69.8053 210.089 66.7244 208.468 63.9514 206.355C63.0448 205.661 62.1605 204.926 61.2761 204.192C61.018 203.996 60.8176 203.728 60.2602 203.821Z" fill="#98958B"/>
<path d="M179.071 231.883C171.614 236.143 163.854 237.076 155.501 234.418C156.205 235.07 156.887 235.413 157.651 235.61C164.435 237.381 170.98 236.908 177.206 233.485C177.9 233.084 178.652 232.733 179.071 231.883Z" fill="#98958B"/>
<path d="M181.044 196.368C174.223 196.268 167.477 196.002 161.092 193.195C161.054 193.925 161.484 194.093 161.893 194.268C164.709 195.549 167.66 196.365 170.735 196.673C174.191 197.019 177.642 196.995 181.044 196.368Z" fill="#98958B"/>
<path d="M71.4401 167.092C83.2904 166.053 85.5631 167.557 91.9763 168.739C91.7283 168.305 91.2908 168.15 90.8666 168.002C90.4499 167.84 90.0169 167.74 89.5779 167.619C84.7449 166.231 79.8606 165.408 74.8177 166.068C73.6363 166.216 72.4965 166.509 71.4401 167.092Z" fill="#98958B"/>
<path d="M219.701 156.13C221.067 150.989 217.396 138.153 214.288 134.913C217.197 141.725 219.491 148.668 219.701 156.13Z" fill="#98958B"/>
<path d="M120.931 106.93C114.341 103.644 107.364 102.533 100.053 103.506C103.607 103.644 107.162 103.748 110.68 104.424C114.15 105.091 117.525 106.054 120.931 106.93Z" fill="#98958B"/>
<path d="M64.4105 143.251C68.1387 145.876 72.1053 148.04 76.3367 149.757C78.2915 150.544 80.2314 151.358 82.2321 152.031C83.1278 152.335 84.0815 152.724 85.4403 152.099C81.4232 151.129 78.0709 149.462 74.5442 148.205C70.9774 146.926 67.8145 144.824 64.4105 143.251Z" fill="#98958B"/>
<path d="M159.964 91.6431C154.371 85.9601 147.422 82.911 139.794 81.2129C147.086 83.5798 153.878 86.9433 159.964 91.6431Z" fill="#98958B"/>
<path d="M192.607 145.439C190.911 136.944 188.19 128.787 184.415 120.988C185.682 125.093 187.379 129.053 188.73 133.134C190.073 137.229 191.215 141.37 192.607 145.439Z" fill="#98958B"/>
<path d="M182.247 142.593C184.471 149.602 187.56 156.182 192.754 161.766C193.038 161.034 192.661 160.738 192.415 160.426C188.144 155.128 185.022 149.174 182.48 142.897C182.424 142.778 182.318 142.685 182.247 142.593Z" fill="#98958B"/>
<path d="M197.133 160.162C196.064 161.367 195.656 162.606 195.384 163.852C194.173 169.375 194.361 174.923 195.019 180.82C195.62 180.019 195.448 179.417 195.41 178.855C195.209 175.062 195.192 171.283 195.612 167.503C195.832 165.531 196.005 163.55 196.822 161.7C196.989 161.304 197.009 160.826 197.133 160.162Z" fill="#98958B"/>
<path d="M143.983 97.6165C149.508 103.959 154.911 110.427 161.661 115.565C155.481 109.87 149.956 103.527 143.983 97.6165Z" fill="#98958B"/>
<path d="M206.359 171.698C208.412 166.955 206.849 156.3 203.421 151.59C203.612 153.04 204.245 153.914 204.504 154.895C204.791 156.014 205.195 157.111 205.469 158.222C205.739 159.279 205.925 160.359 206.098 161.432C206.271 162.506 206.403 163.591 206.479 164.68C206.553 165.838 206.559 166.992 206.538 168.132C206.52 169.204 206.441 170.26 206.359 171.698Z" fill="#98958B"/>
<path d="M185.408 227.945C191.218 225.46 196.06 215.214 195.767 210.358C191.755 222.791 191.808 221.058 185.408 227.945Z" fill="#98958B"/>
<path d="M149.947 200.14C148.172 199.941 146.671 200.54 145.122 200.658C143.586 200.784 142.038 200.868 140.511 200.79C138.902 200.701 137.316 200.572 135.701 200.462C134.216 200.371 132.732 200.09 131.067 200.196C136.849 202.232 147.002 202.241 149.947 200.14Z" fill="#98958B"/>
<path d="M155.695 169.683C161.825 165.77 168.393 164.752 175.447 165.974C170.536 163.374 157.464 165.673 155.695 169.683Z" fill="#98958B"/>
<path d="M105.403 108.024C99.1835 106.619 92.9698 106.21 86.7794 108.311C89.8749 108.299 92.9297 107.637 96.0312 107.646C99.1593 107.67 102.276 107.966 105.403 108.024Z" fill="#98958B"/>
<path d="M125.961 234.375C132.411 231.46 139.086 229.367 146.244 228.954C142.17 227.865 132.081 230.544 125.961 234.375Z" fill="#98958B"/>
<path d="M181.97 203.827C182.705 203.257 183.648 203.256 184.491 203.026C186.981 202.312 189.307 201.263 191.383 199.692C191.587 199.543 191.799 199.381 191.971 199.197C192.049 199.119 192.076 198.976 192.187 198.776C190.662 199.606 189.252 200.482 187.76 201.19C184.448 202.757 180.887 203.261 177.283 203.497C175.872 203.588 174.456 203.623 173.047 203.679C172.691 203.691 172.32 203.573 172.027 203.881C172.281 204.336 172.733 204.151 173.081 204.152C175.646 204.247 178.211 204.186 180.762 203.803C181.195 203.746 181.633 203.553 182.066 203.81L181.97 203.827Z" fill="#98958B"/>
<path d="M116.561 108.486C110.66 106.192 104.584 105.127 98.2347 105.97C101.331 106.273 104.441 106.234 107.513 106.768C110.546 107.28 113.519 108.055 116.561 108.486Z" fill="#98958B"/>
<path d="M103.343 287.238C109.864 286.683 115.576 283.934 121.108 280.596C120.679 280.742 120.237 280.846 119.84 281.028C116.64 282.517 113.461 284.035 110.131 285.225C107.89 286.025 105.555 286.458 103.343 287.238Z" fill="#98958B"/>
<path d="M50.8021 225.921C56.864 224.273 63.0635 223.888 69.5569 223.823C66.4823 222.538 55.9798 223.696 50.8021 225.921Z" fill="#98958B"/>
<path d="M65.2119 149.803C69.4098 153.595 74.4658 155.525 79.8989 156.618C74.8444 154.653 69.8417 152.596 65.2119 149.803Z" fill="#98958B"/>
<path d="M200.004 155.803C199.044 156.842 198.831 158.172 198.577 159.48C197.76 163.598 197.986 167.755 198.009 172.06C198.625 171.703 198.448 171.204 198.449 170.856C198.561 168.544 198.631 166.245 198.702 163.946C198.785 161.183 199.234 158.483 200.004 155.803Z" fill="#98958B"/>
<path d="M75.08 153.126C71.1516 150.547 66.7733 148.748 62.9707 145.942C66.2435 149.641 70.6943 151.34 75.08 153.126Z" fill="#98958B"/>
<path d="M93.597 240.15C89.77 242.426 85.8408 243.407 81.7316 243.799C85.2921 244.743 92.0104 242.761 93.597 240.15Z" fill="#98958B"/>
<path d="M150.768 214.589C154.347 217.358 158.533 218.212 162.898 218.555C158.793 217.397 154.557 216.601 150.768 214.589Z" fill="#98958B"/>
<path d="M139.749 314.975C141.928 311.454 144.636 308.488 146.928 305.204C145.789 305.968 144.933 306.977 144.083 308.007C143.233 309.036 142.209 309.969 141.566 311.131C140.907 312.319 139.538 313.183 139.749 314.975Z" fill="#98958B"/>
<path d="M79.8868 163.817C83.9833 164.046 87.8198 165.248 91.7066 166.234C87.9657 164.387 84.0774 163.278 79.8868 163.817Z" fill="#98958B"/>
<path d="M182.06 203.789C181.312 204.508 180.312 204.425 179.39 204.577C177.829 204.811 176.243 204.839 174.674 204.929C178.316 205.727 181.755 204.876 185.154 203.654C184.052 203.218 183.063 204.31 181.97 203.826L182.06 203.789Z" fill="#98958B"/>
<path d="M182.644 238.505C183.2 235.864 182.924 231.262 182.227 229.654C182.172 229.658 182.104 229.655 182.042 229.673C181.993 229.698 181.923 229.73 181.901 229.77C181.868 229.891 181.828 230.026 181.837 230.136C182.094 232.791 182.357 235.432 182.644 238.505Z" fill="#98958B"/>
<path d="M213.621 137.596C214.727 140.512 215.786 143.42 216.795 146.353C216.355 143.212 215.38 140.246 213.621 137.596Z" fill="#98958B"/>
<path d="M271.102 233.323C271.419 234.545 272.102 234.732 272.643 235.014C274.641 236.07 276.442 237.417 278.316 238.665C279.147 239.213 279.652 240.033 280.157 240.854C284.922 248.661 290.336 255.989 296.598 262.671C297.147 263.255 297.565 264.044 298.761 264.341C291.599 256.009 285.072 247.54 279.765 238.16C280.025 237.344 280.244 236.54 280.516 235.766C280.787 235.026 281.422 234.384 281.273 233.237C280.076 234.231 279.895 235.596 278.953 236.697C276.834 233.027 275.037 229.309 273.435 225.525C273.849 224.306 274.3 223.177 274.879 222.102C275.443 221.054 276.514 220.286 276.701 218.942C275.459 219.387 275.459 219.387 274.506 221.075C273.98 222.023 273.455 222.971 272.826 224.105C271.489 221.008 270.397 218.065 269.486 215.082C270.457 212.951 272.239 211.531 273.48 209.671C271.451 210.308 270.59 212.239 269.213 213.622C268.586 212.926 268.704 212.241 269.132 211.501C270.101 209.752 271.143 208.061 272.609 206.675C273.015 206.29 273.375 205.861 273.805 205.401C272.343 205.236 272.2 205.367 268.336 210.449C267.946 210.145 267.932 209.667 267.821 209.238C266.457 203.858 265.623 198.405 265.332 192.853C265.255 191.449 265.703 190.388 266.628 189.383C268.326 187.515 270.342 186.05 272.341 184.523C272.884 184.109 273.579 183.831 273.844 183.07C271.926 183.351 269.724 184.992 265.378 189.37C265.351 185.168 265.845 181.097 266.726 177.083C266.998 175.838 267.472 174.635 267.751 173.376C267.943 172.558 268.409 172.031 269.07 171.595C270.906 170.361 272.929 169.546 274.983 168.8C276.232 168.34 277.462 167.853 278.661 167.296C276.555 167.159 274.615 167.793 268.928 170.434C268.699 170.028 269.006 169.727 269.161 169.447C270.643 166.743 272.025 163.967 273.679 161.359C275.62 158.299 278.324 155.907 281.074 153.592C281.527 153.215 282.112 153.104 282.679 152.964C284.807 152.399 286.996 152.321 289.182 152.346C290.581 152.371 291.982 152.363 293.656 152.366C291.597 151.451 288.914 151.255 284.124 151.584C284.095 150.975 284.659 150.903 284.989 150.685C289.18 147.878 293.731 145.776 298.394 143.912C299.312 143.548 300.265 143.466 301.232 143.548C303.525 143.755 305.826 143.948 308.467 144.191C306.456 143.128 304.409 143.389 302.683 142.503C305.86 142.03 308.897 143.068 312.023 143.16C309.986 142.206 307.749 141.96 305.549 141.3C306.237 141.035 306.913 140.729 307.605 140.519C309.696 139.864 311.792 139.263 313.877 138.587C315.318 138.129 316.76 137.951 318.247 138.165C319.45 138.326 320.671 138.514 321.875 138.641C322.535 138.71 323.207 138.977 324.013 138.657C322.503 137.854 320.823 137.988 319.314 137.343C320.888 136.296 325.639 134.968 328.439 134.671C331.576 134.333 334.703 134.2 337.866 134.068C335.424 132.994 332.844 133.588 330.318 133.549C335.108 131.266 340.194 129.583 344.035 125.709C339.602 128.889 334.617 130.924 329.163 132.891C331.118 130.467 333.303 128.73 334.574 126.154C333.9 125.92 333.711 126.356 333.471 126.694C331.969 128.775 330.328 130.728 328.489 132.535C327.883 133.124 327.227 133.615 326.41 133.86C323.69 134.674 320.991 135.481 318.272 136.294C318.106 136.342 317.895 136.312 317.451 136.328C319.099 133.699 321.236 131.481 321.883 128.489C321.762 128.423 321.656 128.363 321.536 128.297C321.158 128.978 320.773 129.672 320.396 130.352C319.368 132.208 318.419 134.108 317.032 135.729C316.651 136.164 316.333 136.738 315.813 136.92C314.086 137.516 312.364 138.167 310.228 138.589C312.524 135.865 314.591 133.364 315.84 130.322C314.879 131.395 313.937 132.496 313.221 133.756C312.335 135.324 311.15 136.674 310.011 138.067C309.227 139.01 308.25 139.481 306.837 139.606C309.191 136.461 311.67 133.595 313.529 129.896C312.487 130.61 311.999 131.334 311.503 132.071C309.871 134.447 308.227 136.816 306.337 138.997C305.798 139.623 305.244 140.275 304.432 140.576C301.676 141.613 298.906 142.643 295.788 143.828C296.819 141.905 297.85 140.329 298.537 138.617C299.216 136.951 300.181 135.305 299.992 133.159C298.763 134.589 298.55 136.233 297.982 137.698C297.154 139.822 295.993 141.726 294.866 143.666C294.512 144.273 293.925 144.733 293.278 145.019C289.636 146.647 286.152 148.555 282.657 151.05C283.832 147.199 285.409 143.694 284.83 139.795C284.03 139.789 284.166 140.3 284.159 140.628C284.062 143.541 283.383 146.34 282.454 149.088C281.852 150.866 281.052 152.498 279.49 153.709C278.233 154.687 277.156 155.905 276.022 157.039C275.751 157.307 275.545 157.647 275.094 157.642C274.048 150.588 273.603 149.155 272.026 147.844C271.555 148.159 271.847 148.513 271.991 148.82C273.273 151.607 273.831 154.568 274.188 157.576C274.29 158.4 274.125 159.076 273.666 159.746C272.471 161.492 271.124 163.136 270.196 165.187C269.521 164.673 269.488 164.009 269.314 163.441C268.323 160.38 266.512 157.823 264.363 155.497C264.069 155.177 263.735 154.835 263.187 154.88C263.287 155.738 263.986 156.178 264.453 156.751C266.519 159.257 268.11 162.024 269.161 165.102C269.508 166.114 269.485 166.974 268.576 167.796C266.794 163.894 264.927 160.085 261.419 157.25C260.993 158.114 261.588 158.426 261.883 158.712C264.088 160.841 265.639 163.428 267.007 166.124C267.36 166.808 267.575 167.555 267.879 168.265C268.315 169.274 268.156 170.128 267.325 170.871C263.937 163.445 261.95 160.511 259.711 159.671C259.778 160.494 260.382 160.916 260.839 161.413C263.423 164.277 265.118 167.642 266.588 171.161C266.867 171.822 266.984 172.462 266.761 173.211C265.741 176.467 265.101 179.794 264.63 183.163C264.612 183.258 264.466 183.333 264.294 183.517C261.651 179.784 258.466 176.588 254.76 173.923C254.363 173.633 253.955 173.267 253.363 173.358C253.082 173.865 253.499 174.026 253.804 174.23C256.961 176.469 259.732 179.122 262.217 182.069C262.88 182.856 263.416 183.746 264.003 184.578C264.319 185.015 264.45 185.471 264.406 186.022C264.214 189.109 264.275 192.179 264.463 195.459C262.746 194.717 261.764 193.213 260.303 192.386C258.789 191.529 257.471 190.379 255.927 189.576C253.908 188.527 252.226 187.908 250.926 187.956C252.144 188.875 253.366 189.378 254.551 189.948C258.007 191.584 261.064 193.784 263.951 196.257C264.34 196.595 264.609 197.023 264.688 197.573C264.921 199.482 265.196 201.379 265.444 203.262C264.912 203.56 264.689 203.175 264.447 202.919C261.909 200.256 259.032 198.015 255.902 196.106C255.356 195.768 254.89 195.318 254.367 194.941C253.531 194.338 253.302 194.28 252.03 194.308C254.279 195.886 256.48 197.456 258.691 198.978C261.035 200.574 263.107 202.472 265.085 204.476C265.891 205.289 266.219 206.239 266.136 207.711C261.999 203.306 257.491 199.883 252.565 196.995C252.338 196.869 252.103 196.757 251.801 196.956C251.581 197.322 251.951 197.44 252.19 197.608C254.294 199.071 256.433 200.501 258.515 202.003C261.34 204.023 263.892 206.345 266.2 208.951C266.669 209.49 266.991 210.105 267.18 210.803C267.972 213.719 268.826 216.618 269.993 219.708C268.434 219.088 267.229 218.333 266.062 217.512C264.902 216.676 263.743 215.807 262.416 215.368C261.054 214.928 259.897 213.867 258.348 213.986C259.201 214.808 260.211 215.315 261.236 215.796C263.968 217.101 266.523 218.727 269.151 220.219C270.559 221.016 271.11 222.352 271.564 224.051C267.78 221.465 264.259 218.781 259.745 217.447C260.361 218.539 261.26 218.933 262.126 219.291C265.686 220.741 268.661 223.088 271.788 225.222C272.134 225.449 272.333 225.751 272.502 226.107C274.176 229.635 275.864 233.17 277.561 236.816C275.441 235.728 273.399 234.596 271.102 233.323Z" fill="#98958B"/>
<path d="M404.218 319.203C403.225 318.757 402.279 318.669 401.341 318.568C391.123 317.354 380.884 316.494 370.578 316.574C368.986 316.582 367.573 315.886 366.23 315.194C363.307 313.696 360.444 312.092 357.626 310.407C356.107 309.495 354.742 308.337 353.224 307.391C354.969 309.754 357.393 311.237 359.917 312.602C362.402 313.944 364.753 315.527 367.467 316.456C364.681 316.917 361.98 317.13 359.426 315.471C357.704 314.359 355.67 313.842 353.876 312.796C350.528 310.87 347.375 308.686 344.341 306.289C343.905 305.942 343.463 305.575 342.449 305.484C348.152 310.338 353.968 314.33 361.281 316.691C359.745 317.131 358.637 317.336 357.579 316.977C356.434 316.587 355.26 316.25 354.187 315.603C352.415 314.551 350.605 313.565 348.78 312.606C346.102 311.173 343.793 309.23 341.376 307.42C340.005 306.398 338.825 305.063 337.09 304.573C342.741 309.712 348.85 314.18 355.983 317.244C355.372 317.307 354.775 317.377 354.171 317.426C351.161 317.694 348.141 317.853 345.138 318.264C342.403 318.633 339.92 317.885 337.469 316.892C333.519 315.296 329.852 313.159 326.155 311.075C323.519 309.597 321.052 307.845 318.591 306.114C317.41 305.285 316.106 304.615 314.884 303.798C316.324 305.765 318.412 306.94 320.366 308.233C322.393 309.583 324.338 311.08 326.532 312.191C328.659 313.265 330.681 314.561 332.831 315.561C335.022 316.583 337.175 317.707 339.46 318.747C338.08 318.907 336.694 319.046 335.314 319.205C332.89 319.485 330.425 319.619 328.042 320.078C324.721 320.715 321.529 320.272 318.317 319.486C311.379 317.803 305.041 314.691 299.016 310.951C297.285 309.886 295.555 308.788 293.797 307.709C294.052 308.478 294.632 308.974 295.277 309.384C297.9 311.013 300.443 312.754 303.145 314.269C308.391 317.212 313.938 319.327 319.79 320.669C320.02 320.726 320.311 320.643 320.525 321.076C318.93 321.309 317.381 321.584 315.821 321.784C310.587 322.443 305.355 323.067 300.107 323.718C298.404 323.925 296.798 323.611 295.195 323.071C290.775 321.599 286.706 319.431 282.685 317.114C279.957 315.55 277.22 314.033 274.54 311.657C274.997 312.975 275.824 313.433 276.483 314.008C278.765 315.936 281.429 317.238 283.997 318.714C287.353 320.626 290.717 322.491 294.456 323.586C294.638 323.635 294.774 323.798 294.941 323.908C293.288 324.527 292.19 324.494 290.216 323.836C284.874 322.044 280.039 319.242 275.214 316.393C274.067 315.722 273.083 314.758 272.018 313.941C271.733 313.731 271.495 313.372 271.058 313.531C272.631 316.235 280.995 321.203 289.425 324.445C289.034 324.804 288.593 324.717 288.203 324.727C283.642 324.991 279.089 325.207 274.519 325.518C272.977 325.623 271.557 325.289 270.223 324.672C266.484 322.948 262.944 320.864 259.772 318.181C259.192 317.685 258.459 317.401 257.806 316.376C258.286 317.933 258.895 318.41 261.148 320.2C262.516 321.29 264.075 322.067 265.4 323.203C266.693 324.303 268.453 324.528 270.187 325.681C268.537 325.762 267.27 325.844 265.99 325.885C263.609 325.962 261.237 325.99 258.857 326.066C257.475 326.103 256.205 325.749 254.976 325.102C252.402 323.763 250.048 322.091 247.751 320.347C247.393 320.079 247.058 319.771 246.56 319.756C247.132 321.086 247.595 321.447 254.52 325.861C254.037 326.134 253.577 326.019 253.127 326.014C249.712 325.971 246.342 325.533 242.982 325.015C242.29 324.91 241.607 324.724 240.628 324.948C242.302 325.737 243.905 325.963 245.458 326.247C247.098 326.563 248.764 326.737 250.432 326.876C252.079 327.021 253.744 327.072 255.494 327.378C254.841 327.644 254.187 327.91 253.526 328.19C252.044 328.816 250.607 329.52 249.269 330.454C248.719 330.847 248.023 331.159 247.886 331.973C248.344 332.28 248.568 331.845 248.848 331.686C250.011 331.005 251.123 330.225 252.312 329.593C255.48 327.876 258.814 326.898 262.469 327.074C264.133 327.159 265.814 326.991 267.481 326.974C267.898 326.978 268.372 326.752 268.837 327.236C266.861 328.061 264.978 328.971 263.176 330.049C261.192 331.235 259.305 332.562 257.578 334.135C257.052 334.611 256.507 335.059 256.426 335.835C256.999 336.03 257.216 335.575 257.55 335.288C261.241 332.03 265.342 329.417 269.953 327.646C270.856 327.309 271.791 327.007 272.734 326.849C273.807 326.676 274.9 326.688 276.093 326.896C275.739 327.032 275.364 327.173 275.01 327.308C270.045 329.18 265.385 331.605 261.202 334.87C260.312 335.563 260.304 335.576 259.758 336.687C260.648 336.499 261.159 335.893 261.744 335.467C266.621 331.801 271.9 328.952 277.706 327.04C279.009 326.611 280.311 326.372 281.673 326.307C284.507 326.168 287.331 325.954 290.147 325.787C290.502 325.775 290.851 325.776 291.269 326.06C290.675 326.376 290.1 326.721 289.5 327.016C283.462 330.038 278.142 334 273.487 338.87C272.787 339.599 272.193 340.387 271.975 341.504C272.396 341.092 272.849 340.715 273.25 340.274C278.891 333.909 285.82 329.374 293.485 325.84C294.071 325.572 294.705 325.435 295.35 325.373C297.723 325.153 300.09 324.913 302.526 324.675C302.577 325.401 301.938 325.483 301.58 325.721C296.308 329.185 291.505 333.223 287.255 337.899C285.743 339.556 284.25 341.242 283.214 343.268C283.028 343.635 282.637 343.994 282.965 344.473C283.207 344.572 283.33 344.413 283.419 344.253C285.789 339.914 289.235 336.467 292.826 333.17C295.798 330.42 299.031 327.989 302.36 325.699C303.851 324.676 305.416 324.183 307.19 324.258C307.241 324.828 306.726 324.874 306.446 325.033C299.05 329.466 292.748 335.168 287.222 341.737C286.444 342.667 285.791 343.719 285.1 344.714C284.853 345.066 284.644 345.474 284.875 346.16C285.486 345.434 286.07 344.885 286.501 344.234C289.153 340.173 292.635 336.851 296.169 333.592C299.853 330.19 303.919 327.262 308.206 324.63C309.047 324.119 309.917 323.746 310.909 323.72C310.989 323.922 311.062 324.136 311.135 324.351C312.034 323.768 312.978 323.419 314.023 323.265C318.291 322.682 322.567 322.051 326.821 321.46C327.103 321.424 327.416 321.301 327.846 321.627C318.93 326.945 310.812 333.089 304.536 341.388C303.11 343.268 301.656 345.167 300.662 347.338C300.496 347.7 300.138 348.094 300.454 348.531C300.709 348.638 300.878 348.522 300.967 348.362C305.15 340.595 311.098 334.399 318.02 329.058C321.432 326.429 324.965 323.991 328.712 321.828C329.56 321.338 330.443 320.972 331.411 320.863C335.514 320.45 339.61 320.051 343.698 319.665C344.048 319.632 344.463 319.513 344.97 319.951C341.066 322.115 337.5 324.675 334.194 327.554C330.924 330.4 327.575 333.168 325.196 336.892C325.686 337.268 325.85 336.94 326.031 336.709C329.997 331.945 334.656 327.949 339.583 324.224C341.63 322.672 343.839 321.331 346.072 320.074C347.094 319.489 348.181 319.166 349.365 319.107C351.002 319.02 352.636 318.843 354.329 318.874C352.543 320.711 350.1 321.748 348.755 323.986C351.687 322.191 353.935 319.302 357.493 318.517C356.137 319.894 354.222 320.578 353.027 322.324C353.678 322.283 354.006 321.976 354.372 321.725C354.955 321.333 355.552 320.949 356.117 320.529C358.284 318.886 360.684 318.209 363.43 318.039C373.48 317.415 383.48 318.108 393.482 318.923C396.104 319.137 398.74 319.325 401.37 319.491C402.305 319.504 403.199 319.528 404.218 319.203Z" fill="#98958B"/>
<path d="M309.995 324.487C301.368 330.699 293.025 336.84 287.603 346.276C288.492 346.403 288.612 345.998 288.79 345.677C291.687 340.513 295.803 336.426 300.261 332.633C303.239 330.095 306.293 327.67 309.511 325.423C309.729 325.282 309.985 325.197 309.995 324.487Z" fill="#98958B"/>
</g>
</g>
<defs>
<clipPath id="clip0_3902_4794">
<rect width="280.843" height="429.84" fill="white" transform="matrix(-0.48481 0.87462 0.87462 0.48481 136.815 0.255127)"/>
</clipPath>
</defs>
</svg>
