<svg width="178" height="179" viewBox="0 0 178 179" fill="none" xmlns="http://www.w3.org/2000/svg">
<g opacity="0.1">
<path fill-rule="evenodd" clip-rule="evenodd" d="M58.3782 153.248C70.3946 142.638 83.6236 120.921 88.8263 99.3348L88.0315 99.1423C82.8626 120.588 69.7097 142.153 57.8333 152.637L57.8288 152.641L57.8245 152.645C53.1095 157.062 51.935 158.002 51.935 158.002L53.7134 158.002C53.7134 158.002 55.0385 156.348 58.3782 153.248Z" fill="#FEFBF7"/>
<path d="M151.322 74.4323C150.716 74.0521 150.091 73.7175 149.349 73.5965C147.715 73.3226 146.076 73.0297 144.46 72.6698C142.973 72.3371 141.482 72.1477 139.96 72.1495C138.752 72.1503 137.559 72.2083 136.166 72.4713C138.572 69.9304 141.041 67.8303 143.814 66.1185C145.081 65.3294 146.38 64.583 147.664 63.82C147.981 63.6353 148.267 63.4079 148.483 63.1073C149.036 62.3426 148.924 61.5992 148.176 61.0224C147.59 60.5656 146.904 60.3485 146.175 60.2751C142.766 59.9676 139.385 60.1204 136.049 61.0339C135.925 61.0663 135.776 61.1561 135.602 60.9169C136.009 60.3733 136.44 59.8031 136.849 59.2284C138.215 57.3357 139.557 55.429 141.118 53.699C141.804 52.9399 142.478 52.1739 143.164 51.4149C143.487 51.0559 143.659 50.6245 143.85 50.1881C144.172 49.4329 143.675 48.5361 142.748 48.4839C142.1 48.4502 141.454 48.4665 140.806 48.6261C136.875 49.6343 133.425 51.5133 130.483 54.3367C130.233 54.5851 130.048 54.9283 129.604 55.0548C129.747 53.8481 129.872 52.6869 130.035 51.5158C130.244 49.9766 130.356 48.4123 130.778 46.9091C131.416 44.6375 132.064 42.3635 133.283 40.2957C133.642 39.6834 134.036 39.0516 134.203 38.3267C134.365 37.5827 134.097 37.1345 133.345 37.016C133.176 36.9892 132.988 36.9673 132.812 36.993C131.803 37.135 130.826 37.3601 129.926 37.9209C128.903 38.5546 127.844 39.1267 126.787 39.7083C126.557 39.8396 126.33 40.0615 125.996 39.9458C126.143 38.4025 125.967 36.9033 125.517 35.4451C125.117 34.1367 124.697 32.8334 124.23 31.5424C123.69 30.0471 123.254 28.5243 122.732 27.0239C122.13 25.2905 120.547 24.6677 118.934 25.8423C118.165 26.3993 117.393 26.9468 116.644 27.5395C114.296 29.4044 111.943 31.2502 109.32 32.7194C105.394 34.9161 102.23 37.9399 99.7046 41.661C99.5801 41.846 99.5762 42.1826 99.2184 42.1339C98.8373 39.1023 98.3649 37.7517 96.8619 35.4814C95.9461 34.1045 94.9167 32.798 93.7669 31.6146C91.4554 29.2406 89.1865 26.8352 87.2554 24.1278C86.6665 23.306 86.0374 22.5251 85.3988 21.7467C85.0566 21.3279 84.6838 20.9476 84.2213 20.6518C83.6126 20.2621 83.351 20.3102 83.0403 20.9507C82.8019 21.4401 82.578 21.946 82.409 22.4681C82.0156 23.6893 81.4714 24.8383 80.9152 25.9801C80.0321 27.8176 78.9239 29.5309 77.7533 31.1995C75.981 33.717 74.606 36.4355 73.4056 39.2404C73.0886 39.9741 72.8934 40.747 72.7436 41.5385C72.5868 42.342 72.5828 43.1869 72.2591 43.9731C72.0415 43.8776 71.978 43.7112 71.886 43.5522C71.1519 42.2498 70.1934 41.1383 69.0931 40.1452C68.3747 39.4894 67.6894 38.8046 67.0347 38.0812C66.2115 37.1783 65.3317 36.3309 64.2187 35.758C62.8256 35.0448 61.7075 35.7034 61.6153 37.3034C61.5593 38.1822 61.7198 39.0349 61.8398 39.888C62.0584 41.3558 62.2866 42.821 62.4933 44.2818C62.5393 44.6154 62.6523 44.9722 62.466 45.4276C61.7039 44.6815 60.9668 44.0712 60.1731 43.5164C58.4132 42.2893 56.5378 41.2042 54.8577 39.8546C54.7425 39.7627 54.6203 39.6828 54.4935 39.6245C53.9239 39.3466 53.4671 39.6593 53.5208 40.2959C53.5449 40.5844 53.6381 40.865 53.7478 41.1312C54.7025 43.362 55.3841 45.6745 55.9827 48.0188C56.5837 50.3727 57.4339 52.6309 58.704 54.7081C58.7935 54.8575 58.9211 54.9969 58.861 55.1956C58.54 55.2492 58.3306 55.0294 58.0957 54.8672C56.3407 53.6592 54.4359 52.7343 52.4586 51.9605C50.8449 51.3356 49.1752 50.8474 47.4944 50.4332C45.9544 50.0534 44.3526 49.9439 42.7539 50.1589C41.9188 50.2656 41.1159 50.496 40.3937 50.9595C39.4963 51.5298 39.4619 52.1793 40.2877 52.8579C40.4533 52.9874 40.6354 53.1024 40.8246 53.2054C41.8707 53.7552 42.9309 54.2809 43.9795 54.8402C47.0559 56.4853 49.3963 58.8924 50.8907 62.0291C52.1447 64.6697 53.6831 67.1544 55.0532 69.7341C55.7637 71.063 56.5928 72.3405 57.3933 73.6255C57.7899 74.2538 58.248 74.8456 58.7334 75.542C58.2585 75.707 57.8858 75.835 57.5225 75.9606C56.105 76.4434 54.7386 77.0449 53.5347 77.9598C51.5954 79.4432 50.05 81.271 48.8551 83.3933C48.5155 84.0007 48.3051 84.6759 48.2186 85.3594C48.0901 86.3894 48.5897 86.828 49.624 86.6285C49.7691 86.6007 49.9141 86.5729 50.0447 86.5285C50.8001 86.3105 51.5322 86.3935 52.2799 86.6147C53.3906 86.9442 54.4107 87.5109 55.519 87.8309C57.0308 88.2587 58.3883 88.9913 59.6544 89.88C62.7094 92.0289 65.8441 94.0553 68.9227 96.1777C71.2579 97.783 73.7189 99.091 76.514 99.6914C77.7813 99.9596 79.0326 100.283 80.3302 100.472C82.4197 100.779 84.4975 100.845 86.5819 100.351C86.879 100.283 87.7439 100.057 88.1095 100.175C88.0766 100.478 88.0062 100.931 87.9613 101.228C87.7775 101.184 88.1497 101.25 87.9613 101.228C88.2768 101.264 87.8724 101.628 88.186 101.499C88.2176 101.307 88.4178 101.108 88.4494 100.916C88.5012 100.608 88.0311 100.156 88.9029 99.9468C89.7231 100.525 91.7794 101.604 92.705 102.002C95.2761 103.108 97.9367 103.856 100.739 104.017C103.564 104.183 106.384 103.943 109.171 103.417C111.658 102.949 114.011 102.079 116.078 100.542C116.963 99.8834 117.749 99.1185 118.511 98.3396C118.879 97.9586 119.293 97.718 119.821 97.6002C122.191 97.0716 124.366 96.0653 126.431 94.7929C128.233 93.6808 129.922 92.4052 131.657 91.1888C133.874 89.6427 136.031 88.0208 138.384 86.6833C140.17 85.6668 142.03 84.8548 143.96 84.1566C144.611 83.9254 145.271 83.6917 145.793 83.1993C146.357 82.6754 146.341 82.2222 145.736 81.7704C145.002 81.2102 144.14 80.9783 143.229 80.871C142.12 80.7443 141.016 80.5961 139.905 80.4599C138.226 80.2486 136.562 79.9011 134.853 80.0433C134.744 80.0516 134.664 79.9808 134.608 79.843C134.72 79.7631 134.828 79.6736 134.954 79.6102C138.652 77.6666 142.554 76.4726 146.705 76.1589C147.86 76.0703 149.015 76.1035 150.17 76.0554C150.782 76.0275 151.404 75.997 151.876 75.5481C151.759 74.8262 151.722 74.6834 151.322 74.4323ZM141.177 67.1034C138.258 69.2703 135.714 71.8269 133.351 74.5702C131.855 76.3139 130.409 78.0952 128.966 79.8861C127.237 82.026 125.302 83.9557 123.146 85.6587C121.16 87.2357 118.963 88.4713 116.526 89.2107C114.153 89.9232 111.773 90.6071 109.35 91.0886C108.761 91.2022 108.171 91.3564 107.535 91.2892C107.605 91.1691 107.626 91.0925 107.668 91.061C110.93 89.0791 113.529 86.3858 115.929 83.4703C118.221 80.6848 120.459 77.8522 122.866 75.1586C125.652 72.0505 128.777 69.4232 132.537 67.5648C134.948 66.3747 137.432 65.5012 140.114 65.2365C141.489 65.1002 142.855 64.9258 144.226 64.7705C144.335 64.7622 144.447 64.7228 144.529 64.8842C143.373 65.5528 142.258 66.302 141.177 67.1034ZM106.076 71.1648C106.241 71.5282 106.264 71.9289 106.255 72.287C106.115 72.5677 105.926 72.7391 105.696 72.8704C105.263 73.116 105.023 73.4837 104.839 73.9487C104.495 74.8115 104.13 75.0086 103.172 74.9543C102.862 74.9338 102.6 74.9819 102.388 75.2204C102.365 75.2469 102.341 75.2734 102.318 75.2999C101.658 76.0419 100.908 76.3196 100.082 75.6816C98.349 76.5519 98.3349 76.5759 96.774 75.4899C95.249 74.4249 93.8038 73.2374 92.2036 72.2735C90.6367 71.3212 88.9624 70.58 87.3699 69.6853C87.025 69.4908 86.6756 69.3179 86.3448 69.0995C85.3046 68.416 84.9858 67.188 85.6138 66.0883C85.7801 65.7906 85.8753 65.5318 85.8769 65.1858C85.8851 63.5366 86.1345 63.207 87.6464 62.6182C88.4498 61.1778 88.7011 61.0511 90.1664 61.3386C90.927 60.9058 91.6394 60.1703 92.7325 60.3926C92.9749 60.5834 93.2627 60.7927 93.6033 61.0492C94.9085 60.5247 96.2553 60.1214 97.226 61.5144C97.654 61.6769 98.0172 61.5514 98.3697 61.5405C99.0936 61.5137 99.6772 61.7677 100.007 62.3727C100.278 62.871 100.652 63.0986 101.184 63.1932C102.086 63.3435 102.851 63.6719 103.066 64.6934C103.121 64.9434 103.362 65.053 103.627 65.1362C104.659 65.4355 105.28 66.1067 105.381 67.1986C105.42 67.5848 105.584 67.8265 105.894 68.081C106.597 68.6391 106.694 69.2443 106.212 69.9701C105.94 70.3668 105.878 70.7182 106.076 71.1648ZM90.2615 71.9481C92.794 73.2577 95.0751 74.9279 97.1915 76.8243C98.1956 77.7205 98.9373 78.8176 99.435 80.0701C99.3023 80.1454 99.2019 80.1107 99.1202 80.0304C97.5716 78.4837 95.6615 77.4992 93.688 76.6228C90.8894 75.3828 88.3922 73.7792 86.4001 71.4234C85.2872 70.1083 84.061 68.9041 82.694 67.6657C83.2249 67.6386 83.4536 67.8939 83.696 68.0846C85.7139 69.6407 87.9995 70.7812 90.2615 71.9481ZM85.1675 71.0546C86.5566 72.6126 87.9502 74.1491 89.738 75.2876C90.9529 76.0575 92.2568 76.6618 93.5537 77.2781C95.1425 78.0416 96.6867 78.8677 98.0691 79.97C99.682 81.2559 100.471 82.8489 100.431 84.9232C100.399 86.8733 99.9039 88.6398 98.7062 90.2038C98.1367 90.9425 97.4332 91.3604 96.4829 91.3752C94.8157 91.4048 93.1674 91.6633 91.5121 91.9338C90.8294 92.0413 90.1303 92.1633 89.526 92.4942C88.9312 92.8227 88.3767 92.8763 87.7575 92.6418C87.4204 92.5165 87.0718 92.4248 86.7207 92.3235C85.0564 91.8948 83.6048 91.0344 82.2446 90.0178C79.0853 87.6624 76.4291 84.8601 74.7586 81.2407C73.263 77.9823 72.4471 74.5663 72.9226 70.9242C73.2027 68.7972 74.3335 67.2101 76.2344 66.2043C77.5096 65.525 78.7399 65.6504 79.9474 66.3917C81.9697 67.6519 83.6075 69.3075 85.1675 71.0546ZM103.002 92.0889C106.589 92.2991 110.065 91.8065 113.524 90.82C117.03 89.8211 120.463 88.6583 123.779 87.1197C124.604 86.741 125.498 86.5478 126.368 86.3405C126.574 86.6629 126.279 86.7806 126.157 86.894C124.216 88.7641 122.319 90.6839 120.309 92.4808C117.623 94.8814 114.53 96.0669 110.955 96.0164C108.887 95.9882 106.855 95.7472 104.886 95.1237C103.03 94.542 101.155 94.0058 99.2916 93.4361C98.0805 93.0718 96.8097 92.9469 95.6193 92.506C95.3826 92.4155 95.1439 92.356 94.9026 92.2869C97.5927 91.8575 100.311 91.9289 103.002 92.0889ZM145.101 60.7901C145.823 60.8349 146.538 60.8918 147.219 61.171C147.662 61.35 148.133 61.5216 148.166 62.0821C148.202 62.6115 147.766 62.8071 147.389 63.0378C146.504 63.5746 145.554 63.945 144.534 64.0799C143.275 64.2364 142.012 64.4145 140.755 64.4994C136.813 64.7583 133.282 66.211 129.916 68.2203C126.706 70.1277 124.101 72.7208 121.64 75.4794C118.967 78.4766 116.575 81.6951 113.95 84.7203C112.458 86.4425 110.762 87.9234 109 89.3501C107.339 90.6899 105.467 91.4948 103.277 91.3868C101.909 91.3178 100.532 91.3323 99.1619 91.2943C99.0999 91.2902 99.0517 91.2215 98.8815 91.1136C99.5896 90.1658 100.246 89.2519 100.59 88.1553C101.027 86.7498 101.224 85.3563 101.064 83.8831C100.857 81.8735 100.394 79.9716 99.2188 78.1035C99.9299 78.4969 100.514 78.7914 101.063 79.1459C102.93 80.3552 105.051 80.7456 107.198 81.0784C107.802 81.1747 108.396 81.314 109.022 81.3025C110.201 81.2686 111.299 81.0016 112.405 80.5698C114.384 79.7876 116.011 78.5079 117.498 77.0411C120.382 74.1921 123.081 71.178 125.648 68.0459C126.76 66.6977 128.105 65.6644 129.545 64.7184C134.289 61.6062 139.526 60.4697 145.101 60.7901ZM141.153 52.6628C139.09 54.8803 137.372 57.3733 135.616 59.8357C134.812 60.9611 133.894 61.8825 132.533 62.3098C131.887 62.5195 131.295 62.898 130.558 63.2638C133.234 58.639 136.377 54.6752 141.244 52.4256C141.278 52.4778 141.224 52.5833 141.153 52.6628ZM130.071 55.6035C133.193 52.4178 136.893 50.2904 141.204 49.2233C141.625 49.1234 142.061 49.1212 142.494 49.1094C142.787 49.1039 143.085 49.1581 143.226 49.4668C143.372 49.7946 143.134 50.0095 142.921 50.2075C142.251 50.8303 141.503 51.3513 140.738 51.8463C139.476 52.6544 138.204 53.4244 136.962 54.268C134.053 56.2391 131.677 58.7009 129.898 61.7387C129.349 62.6752 128.666 63.5249 128.032 64.4433C127.925 64.1867 128.014 64.021 128.074 63.8629C128.683 62.2193 128.84 60.4803 129.158 58.7705C129.276 58.1703 129.308 57.5518 129.405 56.947C129.474 56.4308 129.694 55.9869 130.071 55.6035ZM131.092 43.6243C130.147 46.1592 129.674 48.7942 129.363 51.468C128.946 54.983 128.605 58.5186 127.935 61.9981C127.604 63.7319 126.828 65.3176 125.759 66.7154C124.479 68.3924 123.06 69.9635 121.703 71.5792C121.665 71.5486 121.629 71.5275 121.591 71.4968C121.968 70.7984 122.368 70.114 122.733 69.4085C123.702 67.5487 124.183 65.5317 124.698 63.5264C125.419 60.7146 125.254 57.8501 125.387 54.9992C125.507 52.5685 126.107 50.2663 127.032 48.0418C127.652 46.558 128.556 45.2334 129.645 44.0334C130.275 43.3299 130.916 42.6334 131.703 41.7563C131.446 42.5251 131.287 43.0853 131.092 43.6243ZM131.446 38.1435C132.045 37.834 132.685 37.5242 133.452 37.6998C133.714 38.2412 133.43 38.6714 133.105 39.0614C132.339 39.9836 131.564 40.9082 130.749 41.7927C129.515 43.1422 128.215 44.428 127.287 46.0129C125.869 48.4479 124.842 51.0243 124.142 53.7595C123.478 56.363 123.543 58.9995 123.422 61.6235C123.29 64.5556 122.554 67.3508 121.496 70.0779C121.18 70.8926 120.605 71.5717 120.138 72.3141C118.73 74.5127 117.062 76.4945 115.067 78.1551C113.23 79.6829 111.134 80.6382 108.675 80.5903C108.196 80.5834 107.749 80.4259 107.292 80.383C104.731 80.138 102.367 79.323 100.246 77.8754C100.011 77.7132 99.7687 77.5631 99.4499 77.3517C99.8306 77.0588 100.092 76.7769 100.567 76.8864C101.639 77.1447 102.375 76.6166 102.974 75.7177C104.207 75.8121 105.097 75.2943 105.502 74.0395C105.57 73.8288 105.675 73.6487 105.879 73.5343C106.973 72.9022 107.067 71.9729 106.69 70.9125C106.654 70.8103 106.636 70.7031 106.611 70.6079C107.421 69.5826 107.48 68.4794 106.12 67.3101C105.587 65.5688 106.068 63.9791 106.855 62.4004C107.344 61.4287 107.869 60.4781 108.46 59.5506C109.118 58.5246 109.936 57.6496 110.891 56.9116C111.847 56.1736 112.819 55.4617 113.779 54.7427C115.021 53.8179 116.04 52.6974 117.034 51.5222C119.583 48.5169 122.12 45.5044 124.933 42.7349C126.85 40.8507 129.078 39.3833 131.446 38.1435ZM106.024 62.1706C106.096 61.4706 106.109 61.0098 106.188 60.5723C106.283 60.0796 106.462 59.5957 106.586 59.0956C107.834 53.9704 110.747 49.9445 114.849 46.7055C115.684 46.0499 116.596 45.4961 117.528 45.0185C119.891 43.8002 122.267 42.589 124.712 41.5321C124.812 41.4857 124.919 41.4678 125.024 41.4405C122.385 44.0626 120.176 47.0095 117.626 49.6593C115.923 51.4266 114.029 52.9693 112.059 54.4101C109.381 56.3716 107.351 58.8345 106.024 62.1706ZM104.547 37.0896C106.013 35.6994 107.663 34.546 109.404 33.5514C112.11 32.0097 114.591 30.1506 116.995 28.1897C117.756 27.5635 118.549 26.9799 119.358 26.4225C120.586 25.5622 121.654 25.8421 122.058 27.2817C122.925 30.3081 124.181 33.192 125.008 36.2189C125.375 37.5563 125.414 38.9186 125.314 40.4494C124.335 40.8989 123.374 41.3434 122.411 41.7784C120.286 42.7412 118.161 43.7446 116.174 44.966C112.629 47.1443 109.815 50.0666 107.848 53.7531C106.02 57.19 105.049 60.8397 105.165 64.7237C105.163 64.7953 105.14 64.8624 105.117 64.97C104.584 65.0282 104.25 64.4852 103.71 64.5554C103.311 63.1348 102.324 62.5797 100.885 62.5901C100.288 61.1502 99.0962 60.781 97.6112 60.9256C97.3564 60.6873 97.0992 60.4394 96.8131 60.1585C96.7742 58.054 96.4495 55.943 96.6151 53.8053C96.8334 50.932 97.3905 48.1124 98.4945 45.4445C99.855 42.2011 102.004 39.4935 104.547 37.0896ZM85.5652 22.974C86.0766 23.6535 86.5975 24.3305 87.0899 25.015C88.6104 27.1181 90.3223 29.0593 92.1499 30.899C93.701 32.4553 95.1433 34.1011 96.3612 35.9377C97.6974 37.9569 98.5684 40.1385 98.6107 42.6081C98.6213 43.2356 98.5432 43.7949 98.2271 44.3758C97.8593 45.0312 97.6497 45.7875 97.3193 46.6263C97.2153 45.952 97.141 45.392 97.0451 44.8274C96.5298 41.7089 95.4665 38.8253 93.362 36.4277C92.529 35.4867 91.6368 34.5917 90.7802 33.6771C90.3158 33.1785 89.8348 32.6944 89.3869 32.1812C88.2071 30.843 87.3258 29.3249 86.7714 27.6197C86.2784 26.1118 85.8424 24.5891 85.378 23.0738C85.442 23.0469 85.5036 23.0104 85.5652 22.974ZM73.1503 43.4959C73.4713 40.9007 74.4638 38.5467 75.6043 36.2149C76.78 33.8231 78.3797 31.6964 79.7829 29.4383C80.9561 27.5452 81.9811 25.5894 82.7379 23.5003C83.0211 22.7145 83.3523 21.9569 83.7062 21.0916C84.262 21.4342 84.2811 21.9375 84.4138 22.3704C85.1868 25.0352 85.9528 27.7119 86.7164 30.3791C87.4136 32.8298 88.6671 34.9214 90.506 36.6871C91.9267 38.0538 93.3333 39.4446 94.5038 41.0598C95.9904 43.1107 96.8571 45.3544 96.6432 47.9318C96.5319 49.2622 96.3276 50.5865 96.1328 51.9083C95.8346 53.8875 95.8008 55.8687 95.991 57.8523C96.0566 58.4959 96.0842 59.1495 96.1312 59.8387C95.3497 60.0737 94.4897 59.8108 93.8236 60.4121C92.523 59.3901 91.3122 59.5748 90.1694 60.6465C88.8745 60.233 87.9453 60.7202 87.3247 61.8484C87.1795 62.1101 86.9703 62.1648 86.7451 62.2746C85.8726 62.7062 85.3213 63.3588 85.2953 64.3925C85.2758 65.0991 85.2682 65.8127 84.8529 66.4806C84.644 66.8097 84.7059 67.3222 84.6415 67.8169C84.0925 67.6962 83.726 67.2228 83.2353 66.975C82.7567 66.7343 82.3037 66.436 81.8812 66.0992C77.2587 62.4085 74.7559 57.4209 73.3476 51.8013C72.6741 49.0902 72.8098 46.2893 73.1503 43.4959ZM63.943 36.3384C64.5993 36.7157 65.1943 37.17 65.7306 37.7108C67.022 39.0097 68.3299 40.2941 69.6213 41.593C70.6216 42.5919 71.3499 43.7942 72.0356 45.0279C72.2828 45.4716 72.2014 45.9402 72.1891 46.4009C72.1177 48.4326 72.2368 50.4551 72.7294 52.4307C73.6451 56.0748 75.2154 59.4255 77.369 62.4813C77.9773 63.3388 78.6754 64.1118 79.4206 64.8318C79.6394 65.049 79.9244 65.2083 80.0637 65.5886C77.9804 64.68 76.1357 65.0813 74.4447 66.6219C73.7981 66.0082 73.3624 65.2682 72.9291 64.5378C71.8501 62.7665 71.1934 60.8237 70.8335 58.7727C70.5768 57.3148 70.3676 55.8446 70.1609 54.3838C69.8551 52.2678 69.4924 50.1668 68.7779 48.1577C67.8651 45.5804 66.4406 43.2997 64.8454 41.1043C64.1215 40.1144 63.4592 39.088 62.946 37.9718C62.7369 37.5182 62.5443 37.0501 62.4658 36.5522C62.9323 36.0031 63.4186 36.0385 63.943 36.3384ZM62.4005 38.2162C63.3777 40.2989 64.8402 42.0613 66.0257 44.0081C67.5161 46.4647 68.5532 49.0909 69.0683 51.9349C69.4579 54.1001 69.693 56.2956 69.9446 58.4766C70.1055 59.8782 70.3138 61.2673 70.6483 62.6336C71.0597 64.3356 71.77 65.8984 72.8502 67.2831C73.0021 67.4772 73.1374 67.6858 73.3211 67.9631C72.935 68.7046 72.5552 69.353 72.3724 70.1735C71.2962 69.4689 70.5784 68.6198 69.8606 67.7706C67.0251 64.3951 65.2449 60.5096 64.4012 56.1655C63.8732 53.4672 63.6688 50.7249 63.5168 47.9891C63.364 45.1723 63.0137 42.3766 62.5279 39.6062C62.4498 39.1489 62.4026 38.6935 62.4005 38.2162ZM54.1947 40.2721C54.2802 40.2497 54.3323 40.2157 54.3467 40.2323C56.1214 41.7504 58.171 42.8813 60.0726 44.2239C60.7176 44.6753 61.318 45.1892 61.9183 45.7031C62.4539 46.1628 62.7426 46.7277 62.7759 47.4815C62.8568 49.2395 63.0281 50.9942 63.159 52.7493C61.1345 49.4869 58.7413 46.5243 56.3575 43.5592C55.8804 42.9724 55.4292 42.3687 54.9946 41.7504C54.6736 41.2956 54.3405 40.8337 54.1947 40.2721ZM57.1267 49.6105C56.4854 47.5314 56.0723 45.3927 55.27 43.1627C59.8205 48.0617 64.2041 56.2273 64.9679 61.2022C64.0366 60.1954 63.2648 59.1774 62.3371 58.3019C59.7847 55.8994 58.1608 52.9287 57.1267 49.6105ZM40.4177 51.9902C40.6466 51.5033 41.0929 51.3459 41.5297 51.1909C42.9708 50.6816 44.4454 50.6923 45.931 50.8627C48.1417 51.128 50.2396 51.8194 52.2813 52.6068C56.6732 54.3143 60.459 56.9328 63.5393 60.5086C64.9482 62.1427 66.3215 63.7964 67.4704 65.6409C68.7376 67.668 70.253 69.4776 72.2525 70.8454C71.774 75.6879 73.0933 79.9482 75.5282 84.0487C75.275 83.9726 75.1606 83.9619 75.0862 83.9102C73.0137 82.3785 71.253 80.5619 69.9479 78.3109C68.4612 75.7516 67.2829 73.0506 66.2087 70.2817C65.2566 67.8265 64.2119 65.4057 62.6766 63.2455C60.4582 60.1355 57.6879 57.597 54.3261 55.752C52.8464 54.9396 51.2731 54.3142 49.5976 53.9597C48.5784 53.7486 47.5888 53.3772 46.5556 53.1901C45.1597 52.9352 43.7612 52.9046 42.3573 52.8145C41.6186 52.7842 40.9146 52.6532 40.4177 51.9902ZM54.6604 67.4782C53.5568 65.3778 52.3631 63.3214 51.2831 61.1945C49.7129 58.1182 47.2836 55.8767 44.2857 54.2212C44.0965 54.1182 43.9144 54.0032 43.7323 53.8882C43.6101 53.8083 43.5068 53.7235 43.3318 53.5965C44.8936 53.5131 46.3167 53.8727 47.7534 54.1678C48.3524 54.2855 48.9286 54.5109 49.5255 54.6597C53.069 55.5625 56.0543 57.4043 58.7285 59.846C61.7607 62.6108 63.7413 66.0169 65.2369 69.7837C66.152 72.0961 66.9934 74.4379 68.1837 76.6376C68.7679 77.7149 69.3782 78.7752 70.05 79.799C71.5241 82.0363 73.5052 83.7241 75.7881 85.0888C76.1594 85.3068 76.5141 85.5393 76.8713 85.7814C76.9456 85.8331 76.9753 85.9473 77.0504 86.0802C76.2644 86.3367 75.5146 86.1466 74.778 86.0852C74.0294 86.0167 73.2775 85.8576 72.5538 85.6505C70.3922 85.0267 68.4131 84.0501 66.5668 82.7642C64.4736 81.3091 62.7959 79.4606 61.2171 77.4846C58.7033 74.3706 56.5256 71.0263 54.6604 67.4782ZM49.1088 86.0516C48.7744 85.7019 48.8995 85.3236 48.9936 84.9431C49.2182 84.01 49.7204 83.2076 50.2561 82.4167C52.3098 79.419 54.9813 77.2762 58.5361 76.346C58.7452 76.2913 58.9592 76.2556 59.2778 76.1926C60.3461 77.5702 61.4089 78.8882 62.4598 80.1992C63.1467 81.0463 63.9204 81.7589 64.7652 82.4325C67.0763 84.2575 69.6286 85.6433 72.4963 86.3671C74.3205 86.8251 75.7213 87.099 77.7006 86.825C80.5685 89.8566 83.7565 92.479 88.1411 93.4158C87.7028 93.9168 87.6367 94.4831 87.2162 94.8575C82.9996 94.568 79.3891 92.8594 76.1254 90.2974C74.0616 88.6821 71.9602 87.1173 69.6591 85.8387C68.2367 85.0519 66.8028 84.2986 65.2058 83.9337C61.2954 83.0253 57.3914 83.0404 53.5582 84.501C52.096 85.0463 50.6631 85.6652 49.1088 86.0516ZM87.8247 99.2733C85.4265 100.084 82.9925 100.131 80.5311 99.7992C79.0905 99.6068 77.7121 99.1847 76.2968 98.8942C74.3015 98.481 72.4549 97.6629 70.7697 96.5281C67.3752 94.2443 63.929 92.0351 60.5958 89.6744C58.9795 88.5316 57.2487 87.6121 55.3209 87.0287C54.1981 86.6922 53.145 86.1544 51.8839 85.7931C55.1614 84.2644 58.4155 83.7789 61.7909 84.0343C62.9398 84.12 64.0846 84.2677 65.1978 84.6068C67.7514 85.372 69.9889 86.7182 72.1469 88.2275C73.7607 89.3607 75.3323 90.5659 76.9225 91.7256C78.7646 93.0736 80.7656 94.0953 82.947 94.7953C83.9433 95.1141 84.9902 95.2367 86.0184 95.4048C86.3786 95.463 86.7315 95.4927 87.1193 95.6962C87.1307 96.9132 87.9208 97.8451 88.4662 98.8512C88.3408 99.189 88.0574 99.192 87.8247 99.2733ZM116.522 99.3582C114.405 101.173 111.932 102.206 109.265 102.721C106.162 103.32 103.025 103.592 99.8703 103.289C98.9428 103.196 98.0104 103.084 97.1025 102.793C95.4945 102.268 93.84 101.878 92.3156 101.128C90.3964 100.186 89.02 98.7165 88.0592 96.8532C87.494 95.771 87.7583 94.7563 88.6651 93.909C89.0736 93.5276 89.5328 93.2244 90.0602 93.0661C91.5376 92.6185 93.0346 92.4809 94.544 92.8993C96.1752 93.3569 97.746 93.9727 99.2609 94.7251C100.611 95.3886 102.005 96.0301 103.443 96.4468C106.888 97.4365 110.339 97.7126 113.9 96.6081C116.719 95.7382 119.205 94.447 121.32 92.3889C121.533 92.191 121.76 92.0096 122.051 91.7607C122.026 92.4482 121.637 92.8247 121.395 93.264C120.121 95.5494 118.549 97.628 116.522 99.3582ZM141.782 84.33C138.273 85.7466 135.184 87.8866 132.13 90.0788C130.145 91.5031 128.191 92.97 126.124 94.2735C124.45 95.3317 122.659 96.1359 120.802 96.8047C120.505 96.9128 120.184 96.9663 119.788 97.0803C119.951 96.4987 120.363 96.1674 120.609 95.7471C121.408 94.4093 122.266 93.0972 122.996 91.7268C123.967 89.9171 125.343 88.5302 127.047 87.3929C129.159 85.9864 131.346 84.7532 133.847 84.2614C135.875 83.8628 137.942 83.8099 140.004 83.9312C140.674 83.9695 141.363 83.8094 142.069 84.1027C141.943 84.2066 141.875 84.2956 141.782 84.33ZM136.676 80.654C138.86 80.8146 141.008 81.3097 143.204 81.4774C143.888 81.5322 144.548 81.7663 145.163 82.0628C145.325 82.1423 145.472 82.2362 145.534 82.5147C145.312 82.949 144.836 83.0328 144.391 83.1187C143.074 83.4023 141.745 83.4045 140.399 83.34C137.582 83.2028 134.759 83.1587 132.028 84.0969C130.406 84.6534 128.877 85.4094 127.344 86.4614C127.143 85.6903 126.607 85.6984 126.091 85.7826C125.957 85.6957 125.966 85.6527 126.061 85.5872C127.805 84.3278 129.551 83.0778 131.28 81.8018C132.905 80.5937 134.793 80.5164 136.676 80.654ZM145.721 75.5728C140.757 76.1599 136.212 77.8882 132.005 80.6056C129.883 81.9741 127.931 83.5627 125.889 85.0425C125.094 85.6166 124.307 86.2191 123.379 86.5941C123.26 86.6455 123.137 86.759 122.938 86.5773C125.744 84.5214 127.948 81.8299 130.593 79.623C132.479 78.0518 134.507 76.6772 136.858 75.879C139.543 74.9628 142.289 74.5901 145.106 75.0017C145.254 75.024 145.394 75.0583 145.526 75.0951C145.801 75.1757 146.075 75.2564 146.529 75.4019C146.144 75.4823 145.937 75.5466 145.721 75.5728ZM150.142 75.3207C148.7 75.0066 147.233 74.7907 145.789 74.5076C144.057 74.168 142.296 74.0697 140.517 74.3726C137.549 74.8646 134.712 75.7085 132.006 77.169C132.925 76.0949 133.834 75.0233 134.765 73.9562C135.008 73.6792 135.354 73.5275 135.698 73.407C136.384 73.1563 137.083 72.9532 137.811 72.9049C139.987 72.7625 142.129 72.8019 144.261 73.3115C145.829 73.6839 147.442 73.9126 149.045 74.1844C149.851 74.319 150.277 74.472 151.129 75.1336C150.822 75.397 150.488 75.4029 150.142 75.3207Z" fill="#FEFBF7"/>
<path d="M126.369 44.026C126.369 44.4531 126.032 44.6835 125.82 44.9625C123.309 48.3136 121.105 51.869 119.159 55.56C118.327 57.1295 117.649 58.7809 116.866 60.3786C115.537 63.0845 114.185 65.7764 112.347 68.1992C111.21 69.6861 109.96 71.0502 108.349 72.0412C107.972 72.272 107.602 72.4908 107.16 72.5862C106.939 72.634 106.727 72.6387 106.537 72.414C110.261 70.6867 112.407 67.4922 114.341 64.1092C115.573 61.9674 116.593 59.7182 117.649 57.49C119.844 52.8395 122.618 48.5454 125.852 44.5375C125.996 44.3474 126.128 44.1503 126.369 44.026Z" fill="#FEFBF7"/>
<path d="M79.1407 68.451C77.5055 74.015 76.7121 79.5722 78.5075 85.235C78.916 85.0467 78.7041 84.8174 78.655 84.6676C77.8632 81.8135 77.7888 78.9039 78.146 75.973C78.1706 75.7936 78.2047 75.6118 78.2628 75.4441C78.3321 75.2022 78.4109 74.9578 78.5233 74.725C78.2246 77.5288 78.1452 80.3159 78.7381 83.0694C79.3409 85.861 80.3402 88.4574 82.3225 90.5727C79.7568 89.3423 78.7499 86.9514 77.8476 84.5331C77.185 82.7639 77.0438 80.8889 77.0478 78.986C77.0443 75.9968 77.497 73.0815 78.3389 70.217C78.4406 69.8649 78.5878 69.5314 78.735 69.198C78.8424 68.9461 79.0023 68.7009 79.1407 68.451Z" fill="#FEFBF7"/>
<path d="M66.5856 88.1439C67.2066 89.0894 67.7922 90.0544 68.4558 90.9685C70.5798 93.9096 73.1357 96.4022 76.2249 98.3281C77.4232 99.0717 78.7031 99.6211 80.0857 99.9402C80.6159 100.066 81.1204 100.249 81.6273 100.441C79.8827 100.41 78.2577 99.9004 76.7163 99.1653C76.2639 98.9482 75.8091 98.7217 75.3219 98.6052C72.3294 97.874 69.9951 96.157 68.0958 93.8077C66.5099 91.844 65.175 89.7129 63.802 87.5917C63.3766 86.9304 62.9582 86.2572 62.4914 85.5152C62.8821 85.4943 62.9607 85.7583 63.0742 85.9218C64.6314 88.1269 66.153 90.3514 67.7268 92.542C69.1895 94.5787 70.9613 96.2802 73.1908 97.4756C73.4134 97.5901 73.6431 97.6927 73.8799 97.7832C74.0377 97.8435 74.198 97.9134 74.4614 97.7936C71.1365 95.116 68.2898 92.0896 66.5856 88.1439Z" fill="#FEFBF7"/>
<path d="M117.218 88.6255C117.323 88.5981 117.435 88.5993 117.525 88.5553C119.759 87.3098 121.914 85.953 123.72 84.1087C125.766 82.0184 127.622 79.7847 129.45 77.5179C132.028 74.3126 134.722 71.1992 137.803 68.4417C139.055 67.3213 140.379 66.2837 141.817 65.4094C142.203 65.1762 142.597 64.931 143.094 64.9328C142.993 65.0102 142.884 65.0996 142.77 65.17C139.45 67.2789 136.664 69.9998 134.028 72.9051C131.779 75.384 129.702 78.0208 127.544 80.5775C126.201 82.1687 124.776 83.6798 123.24 85.0776C121.37 86.7867 119.216 88.0719 116.879 89.0394C116.934 88.8623 117.014 88.6992 117.218 88.6255Z" fill="#FEFBF7"/>
<path d="M55.2188 61.4054C56.8902 63.5405 58.1584 65.8828 59.3198 68.2835C60.3817 70.4967 61.37 72.7394 62.4035 74.9601C63.7017 77.7318 65.3861 80.2295 67.6645 82.2768C69.2557 83.7108 71.0912 84.7556 73.1329 85.4209C73.9649 85.6912 74.8306 85.7391 75.6876 85.8706C75.9406 85.9061 76.1862 85.913 76.4043 86.049C73.4864 86.274 70.9695 85.2653 68.6542 83.6243C65.9431 81.7106 63.9984 79.1489 62.501 76.2362C61.6782 74.6314 60.9741 72.9753 60.2581 71.3121C58.8821 68.1235 57.3212 65.0444 55.606 62.0362C55.473 61.8371 55.3471 61.6261 55.2188 61.4054Z" fill="#FEFBF7"/>
<path d="M103.587 63.3781C103.341 61.9989 103.609 60.8002 103.733 59.5984C104.111 56.0835 105.124 52.7073 106.335 49.3909C106.963 47.661 107.743 45.9723 108.526 44.2931C109.229 42.7771 109.923 41.2636 110.732 39.8013C112.258 37.0735 113.955 34.4536 115.798 31.9276C115.986 31.6749 116.164 31.3842 116.589 31.1815C115.935 32.1457 115.331 33.0257 114.741 33.9224C113.021 36.5282 111.389 39.2023 110.035 42.007C109.329 43.4729 108.673 44.9765 108.038 46.4846C107.122 48.6664 106.17 50.8271 105.542 53.1061C105.002 55.0571 104.52 57.0337 104.238 59.0392C104.063 60.4373 103.832 61.8193 103.587 63.3781Z" fill="#FEFBF7"/>
<path d="M87.2572 29.2624C87.4663 29.9501 87.7134 30.6279 87.8724 31.3186C89.4105 38.0254 90.4243 44.788 89.9012 51.7392C89.7729 53.3593 89.5731 54.9779 89.3397 56.5849C89.2789 56.9771 89.1105 57.3466 88.9317 57.8715C89.2069 55.3687 89.4286 53.0121 89.4546 50.6457C89.4852 48.2578 89.5063 45.8724 89.3151 43.4916C89.1235 41.0703 88.7581 38.6843 88.3617 36.2962C87.9777 33.9557 87.5556 31.6253 86.9787 29.3251C87.0858 29.3072 87.1715 29.2848 87.2572 29.2624Z" fill="#FEFBF7"/>
<path d="M75.6614 40.2178C75.8457 40.8103 75.6602 41.3877 75.6224 41.9468C75.3514 46.7368 75.8903 51.3963 77.537 55.8981C78.9707 59.8149 81.4843 62.8796 84.8671 65.2592C85.1024 65.4214 85.3799 65.5115 85.2338 65.9667C84.5783 65.7518 84.095 65.3392 83.5977 64.9506C79.8352 62.0093 77.4411 58.1913 76.2464 53.5508C75.1358 49.2342 74.9003 44.8818 75.5275 40.446C75.5508 40.3789 75.6075 40.3234 75.6614 40.2178Z" fill="#FEFBF7"/>
<path d="M79.7517 32.7899C79.6022 35.738 79.3927 38.6508 79.4219 41.5826C79.4692 46.7371 80.3452 51.7155 82.2263 56.492C82.8029 57.9685 83.4723 59.4106 84.2295 60.7992C84.4187 61.1362 84.5818 61.4902 84.8201 61.9771C84.3749 61.8291 84.2697 61.5413 84.1317 61.3232C81.9261 57.8419 80.6048 54.0073 79.7639 49.986C78.8603 45.6454 78.7771 41.2529 79.1661 36.8386C79.2766 35.6197 79.3226 34.3872 79.6313 33.1876C79.6587 33.0583 79.7147 32.9216 79.7517 32.7899Z" fill="#FEFBF7"/>
<path d="M65.5524 43.3156C65.9412 44.3429 65.9678 45.4243 66.023 46.4982C66.1684 49.6031 66.1922 52.7093 66.4593 55.8128C66.6785 58.3797 67.1287 60.8963 67.9578 63.3443C68.7353 65.6329 69.871 67.6955 71.5717 69.4273C71.7933 69.6541 72.0009 69.905 72.2853 70.2171C71.8077 70.1793 71.6305 69.8493 71.3898 69.6274C68.9351 67.3809 67.6342 64.4867 66.8104 61.3152C66.0534 58.4008 65.8446 55.404 65.767 52.4035C65.6995 49.9902 65.6796 47.5644 65.6312 45.1462C65.6256 44.5374 65.589 43.9265 65.5524 43.3156Z" fill="#FEFBF7"/>
<path d="M123.153 54.58C123.052 55.5616 122.498 56.3978 122.111 57.2919C121.35 59.0561 120.487 60.776 119.602 62.4914C118.107 65.4135 116.367 68.1759 114.083 70.5626C112.167 72.5683 109.849 73.8865 107.227 74.6951C106.476 74.9323 105.696 75.0553 104.85 74.9619C105.161 74.5553 105.549 74.5654 105.894 74.4853C109.514 73.6898 112.489 71.8539 114.85 68.9797C116.862 66.522 118.521 63.8415 119.924 60.9944C120.993 58.8548 122.084 56.7196 123.153 54.58Z" fill="#FEFBF7"/>
<path d="M110.225 91.1857C112.259 90.1044 114.056 88.6989 115.764 87.144C117.827 85.2728 119.577 83.1378 121.274 80.9557C123.238 78.4295 125.05 75.7905 127.141 73.3631C127.749 72.6552 128.364 71.9352 129.188 71.4348C128.205 72.5357 127.231 73.6341 126.354 74.8292C124.5 77.3471 122.658 79.8719 120.78 82.3757C118.895 84.8915 116.743 87.162 114.267 89.1212C113.373 89.8227 112.421 90.4175 111.392 90.9106C111.041 91.0838 110.668 91.2119 110.225 91.1857Z" fill="#FEFBF7"/>
<path d="M80.4579 27.6521C77.7976 35.4872 76.4894 43.3649 77.478 51.5972C77.1751 51.3307 77.1803 51.1158 77.1569 50.9084C76.6331 46.8152 76.4979 42.7322 77.1729 38.5997C77.7171 35.2947 78.5458 32.0677 79.6564 28.9093C79.7979 28.4757 79.9249 28.0255 80.4579 27.6521Z" fill="#FEFBF7"/>
<path d="M75.086 85.1972C72.0614 84.2702 69.5527 82.6693 67.7671 80.096C66.095 77.6862 64.8334 75.0572 63.7949 72.3087C62.6413 69.2344 61.6445 66.0987 60.3172 63.0597C60.4357 63.2422 60.5708 63.4103 60.6703 63.5978C61.9056 65.9693 62.8203 68.4757 63.7541 70.977C64.8173 73.8207 66.0705 76.574 67.675 79.154C69.1585 81.542 71.239 83.255 73.7514 84.4787C74.209 84.7149 74.6405 84.968 75.086 85.1972Z" fill="#FEFBF7"/>
<path d="M84.1754 29.2024C85.8627 37.5791 86.5227 46.0721 86.5797 54.6313C86.2828 53.2138 86.1933 51.7726 86.1037 50.3315C85.6952 43.5119 85.0794 36.7161 84.2562 29.9441C84.2254 29.708 84.2016 29.46 84.1754 29.2024Z" fill="#FEFBF7"/>
<path d="M98.6386 54.6631C98.426 52.7872 98.3899 50.9261 98.8733 49.0712C99.2484 47.6209 99.7144 46.2077 100.314 44.8408C101.017 43.2438 101.906 41.7401 102.858 40.2811C104.139 38.3293 105.583 36.4974 107.156 34.774C107.345 34.5619 107.572 34.3804 107.858 34.1124C107.898 34.6203 107.557 34.8317 107.357 35.0773C105.516 37.3382 103.789 39.6815 102.32 42.201C101.182 44.156 100.196 46.1834 99.5816 48.3571C99.0805 50.1047 98.8873 51.9039 98.7991 53.7163C98.7844 53.9337 98.7792 54.1485 98.7525 54.3588C98.7392 54.464 98.6734 54.5625 98.6386 54.6631Z" fill="#FEFBF7"/>
<path d="M122.608 73.1935C119.989 76.905 117.058 80.0788 112.871 81.855C110.824 82.7258 108.702 83.1494 106.509 82.9514C104.159 82.7337 102.053 81.8531 100.248 80.335C100.169 80.2643 100.123 80.1647 100.009 80.0014C100.799 80.1907 101.297 80.7408 101.929 81.0629C104.802 82.5551 107.795 82.9399 110.951 82.0427C113.854 81.2221 116.292 79.5889 118.521 77.5837C119.88 76.3651 121.089 75.0027 122.118 73.4944C122.195 73.3624 122.261 73.2234 122.608 73.1935Z" fill="#FEFBF7"/>
<path d="M125.136 56.1263C124.818 57.5614 124.381 58.9667 123.772 60.3358C123.093 61.8654 122.43 63.3806 121.609 64.8354C120.426 66.9241 119.045 68.8813 117.391 70.6458C115.976 72.1548 114.304 73.3039 112.462 74.2234C112.21 74.3502 111.971 74.5246 111.552 74.4719C111.978 74.1977 112.312 73.9578 112.674 73.7511C115.367 72.233 117.448 70.0821 119.241 67.6003C120.586 65.7437 121.743 63.7841 122.681 61.6885C123.351 60.2019 124.055 58.7269 124.601 57.1915C124.728 56.8227 124.956 56.4886 125.136 56.1263Z" fill="#FEFBF7"/>
<path d="M102.697 75.8575C102.77 75.473 102.902 75.3977 103.055 75.4389C103.334 75.4979 103.632 75.5518 103.888 75.6778C106.646 76.997 109.439 76.6521 112.209 75.6734C114.179 74.9751 115.964 73.9188 117.554 72.5382C118.483 71.7368 119.385 70.9118 120.316 70.0793C120.302 70.1844 120.315 70.2724 120.275 70.3134C118.218 72.6692 115.929 74.7201 113.038 76.0148C111.001 76.9236 108.868 77.309 106.678 77.0801C105.562 76.9658 104.502 76.5936 103.497 76.0848C103.238 75.9494 103.022 75.7825 102.697 75.8575Z" fill="#FEFBF7"/>
<path d="M131.19 37.8106C128.37 40.0124 126.177 42.7109 124.003 45.4449C121.822 48.191 120.087 51.2066 118.428 54.4767C118.55 53.2251 119.142 52.3383 119.594 51.4171C121.787 46.9602 124.885 43.1711 128.384 39.6734C129.052 39.0005 129.804 38.4173 130.607 37.9123C130.749 37.8344 130.881 37.6779 131.19 37.8106Z" fill="#FEFBF7"/>
<path d="M54.2819 56.5063C55.6499 57.4297 56.4752 58.7292 57.2909 60.0311C59.3776 63.3701 60.9443 66.9774 62.3732 70.6411C62.8935 71.9796 63.3617 73.3522 63.8464 74.7102C63.8881 74.8315 63.9918 74.9569 63.8079 75.1881C63.4249 74.2612 63.0448 73.3843 62.7027 72.4974C61.2837 68.8718 59.6817 65.3246 57.809 61.9092C56.8605 60.1742 55.8408 58.4782 54.5698 56.9496C54.4541 56.8172 54.3716 56.6557 54.2819 56.5063Z" fill="#FEFBF7"/>
<path d="M84.347 42.998C83.7183 39.9893 82.9168 23.5905 83.326 21.9172C83.6163 22.8786 84.55 41.9787 84.347 42.998Z" fill="#FEFBF7"/>
<path d="M87.0467 97.7545C85.8223 98.0446 84.7072 98.0519 83.5936 97.9471C79.9447 97.581 77.0738 95.7912 74.7709 93.0598C73.405 91.4351 72.1574 89.7185 70.9429 87.9728C70.5203 87.3617 70.0717 86.7676 69.6822 86.1274C70.2494 86.3957 70.6018 86.8931 70.9658 87.3569C72.2003 88.9448 73.4348 90.5327 74.6553 92.1447C76.1072 94.062 77.8918 95.6177 80.0766 96.6417C81.857 97.4767 83.7689 97.8402 85.7644 97.704C86.15 97.664 86.5514 97.5284 87.0467 97.7545Z" fill="#FEFBF7"/>
<path d="M116.443 28.2675C116.118 28.2305 116.023 28.5298 115.875 28.7008C112.855 32.2055 110.09 35.9079 107.799 39.913C106.61 41.9828 105.531 44.1254 104.576 46.4695C105.012 44.6679 105.76 43.1302 106.484 41.5785C107.403 39.5999 108.453 37.6986 109.694 35.9098C111.474 33.3396 113.316 30.8141 115.557 28.6112C115.807 28.3627 115.985 28.0315 116.392 27.9555C116.393 28.0772 116.401 28.1869 116.4 28.299L116.443 28.2675Z" fill="#FEFBF7"/>
<path d="M107.092 79.5457C108.165 79.4172 108.986 79.3344 109.811 79.23C111.619 79.0005 113.233 78.3343 114.685 77.2025C116.714 75.635 118.426 73.7443 120.099 71.823C121.021 70.7589 121.892 69.6571 122.758 68.5364C122.641 69.0647 122.333 69.4806 122.039 69.9131C120.15 72.6429 117.933 75.0924 115.426 77.2827C113.16 79.2676 110.476 79.757 107.622 79.7116C107.529 79.7055 107.424 79.6518 107.092 79.5457Z" fill="#FEFBF7"/>
<path d="M88.2101 99.0687C87.0071 99.5971 85.8264 99.703 84.6418 99.6371C81.7816 99.4915 79.2566 98.4857 77.0295 96.7107C75.1864 95.2418 73.6836 93.4804 72.3248 91.5695C72.2477 91.4678 72.1395 91.364 72.2302 91.1267C72.5241 91.4767 72.7915 91.8031 73.0565 92.12C74.6294 93.9951 76.285 95.7978 78.3791 97.0994C81.1513 98.8231 84.1509 99.6233 87.4611 98.9599C87.6727 98.9146 87.8885 98.8073 88.2101 99.0687Z" fill="#FEFBF7"/>
<path d="M80.4647 39.0212C80.3632 42.7807 80.6013 46.3598 81.4856 49.8818C82.37 53.4037 83.7037 56.737 85.4485 60.1254C84.9262 59.9162 84.8326 59.5949 84.6966 59.3456C81.4742 53.3227 79.7876 46.9083 80.2182 39.991C80.2396 39.7209 80.0984 39.412 80.4647 39.0212Z" fill="#FEFBF7"/>
<path d="M101.867 57.1664C101.524 55.6902 101.589 54.1787 101.642 52.66C101.755 49.6919 102.551 46.8501 103.706 44.138C104.898 41.3348 106.507 38.7276 108.322 36.2089C108.366 36.6142 108.12 36.8412 107.956 37.1079C106.483 39.4559 105.149 41.8691 104.059 44.4015C103.319 46.1304 102.776 47.9504 102.407 49.8161C101.912 52.2537 101.865 54.696 101.867 57.1664Z" fill="#FEFBF7"/>
<path d="M92.8304 37.0113C94.7033 40.4672 94.8898 52.226 93.1363 56.5902C94.4403 50.0248 94.1421 43.5125 92.8304 37.0113Z" fill="#FEFBF7"/>
<path d="M127.723 46.1324C127.417 46.8731 126.896 47.4467 126.43 48.0364C124.004 51.1315 121.868 54.4049 120.111 57.9246C119.349 59.4458 118.622 60.9881 117.962 62.5535C117.752 63.0355 117.475 63.4943 117.193 63.934C119.419 57.2521 122.955 51.3147 127.723 46.1324Z" fill="#FEFBF7"/>
<path d="M139.171 64.7358C139.231 64.771 139.301 64.8036 139.442 64.8784C139.315 65.135 139.069 65.2809 138.863 65.4262C135.975 67.4018 133.561 69.8733 131.383 72.5879C130.247 74.0029 129.091 75.4134 127.937 76.8335C127.832 76.6271 127.974 76.4681 128.068 76.3215C129.895 73.5058 131.989 70.8947 134.315 68.4767C135.483 67.2664 136.793 66.2121 138.231 65.3377C138.38 65.2478 138.508 65.1128 138.65 64.9944C138.83 64.9065 139.001 64.8212 139.171 64.7358Z" fill="#FEFBF7"/>
<path d="M134.812 86.2191C134.41 86.5073 134.027 86.831 133.606 87.0836C131.015 88.6763 128.756 90.6898 126.611 92.8262C125.627 93.8051 124.623 94.7485 123.596 95.6779C123.135 96.0931 122.617 96.4421 122.093 96.7722C121.674 97.0343 121.207 97.2278 120.694 97.1689C120.633 96.7785 120.906 96.89 121.034 96.8361C121.993 96.5038 122.725 95.8447 123.446 95.1787C125.073 93.6656 126.657 92.103 128.272 90.583C130.194 88.7591 132.381 87.333 134.812 86.2191Z" fill="#FEFBF7"/>
<path d="M90.0378 61.0619C90.3407 59.2539 91.069 57.5582 91.3744 55.7597C91.6822 53.9707 91.9115 52.1921 92.0143 50.3957C92.1191 48.5683 91.7616 46.7603 91.8474 44.9379C92.4806 47.6907 92.6659 50.4794 92.2768 53.2862C91.9814 55.3974 91.6025 57.4999 90.9657 59.5479C90.7897 60.1228 90.494 60.6273 90.0378 61.0619Z" fill="#FEFBF7"/>
<path d="M46.5409 53.505C47.9743 54.0958 49.0329 54.8864 49.9689 55.8312C50.9867 56.8562 51.8531 58.0022 52.6176 59.2257C54.0088 61.4545 55.3289 63.7224 56.4118 66.1336C56.463 66.2524 56.5141 66.3712 56.4395 66.5535C55.8149 65.5171 55.1833 64.4926 54.5588 63.4562C53.5854 61.8196 52.6286 60.1685 51.532 58.6048C50.3701 56.9464 49.0617 55.428 47.3328 54.3248C47.1241 54.1862 46.9295 54.0236 46.7444 53.8585C46.7035 53.8184 46.6813 53.7327 46.5409 53.505Z" fill="#FEFBF7"/>
<path d="M101.575 45.0815C100.663 47.8727 100.126 50.6979 99.9 53.5843C99.6712 56.4611 99.926 59.2825 100.609 62.2259C100.235 62.0389 100.176 61.8104 100.097 61.5868C99.4853 59.8555 99.3925 58.0493 99.3902 56.2397C99.3888 54.0028 99.6235 51.7753 100.075 49.5621C100.34 48.2319 100.762 46.962 101.16 45.6781C101.218 45.4698 101.21 45.1666 101.575 45.0815Z" fill="#FEFBF7"/>
<path d="M109.915 64.6565C110.334 63.6115 110.705 62.5384 111.172 61.5216C111.911 59.9457 112.695 58.3885 113.503 56.8453C114.662 54.6207 115.938 52.4567 117.595 50.5488C117.994 50.0887 118.378 49.612 118.944 49.2909C118.924 49.408 118.946 49.4937 118.906 49.5347C116.712 51.9186 115.124 54.6825 113.661 57.5357C112.65 59.5082 111.637 61.4712 110.637 63.4507C110.432 63.8706 110.061 64.2015 109.915 64.6565Z" fill="#FEFBF7"/>
<path d="M87.9897 92.7957C88.1275 92.2309 88.4353 92.008 88.6522 91.7478C89.4018 90.8398 89.9815 89.8645 90.4051 88.7571C91.315 86.3532 91.6615 83.8527 91.9435 81.3387C92.0603 80.3015 92.1581 79.2693 92.1477 78.1332C92.5083 78.4659 92.3876 78.8228 92.3832 79.1188C92.3191 81.4945 92.1001 83.8599 91.633 86.2089C91.3688 87.5389 91.0086 88.8126 90.3857 90.0129C89.8352 91.0619 89.1455 92.005 87.9897 92.7957Z" fill="#FEFBF7"/>
<path d="M75.6774 68.6027C74.0602 74.3144 73.8369 79.8749 77.0835 85.1376C76.7327 85.1175 76.6895 84.8339 76.552 84.6563C74.4549 81.9812 74.092 78.8216 74.1359 75.5455C74.1622 73.7283 74.5442 71.9503 74.9836 70.1979C75.124 69.6424 75.439 69.1329 75.6774 68.6027Z" fill="#FEFBF7"/>
<path d="M64.2405 40.4231C64.6119 40.8751 64.6408 41.4168 64.7077 41.9485C64.9038 43.5651 65.0188 45.1827 65.0456 46.8131C65.0988 49.4842 65.1829 52.1574 65.2575 54.833C65.2619 55.0455 65.3402 55.2691 65.0777 55.5107C64.4494 50.4678 64.7037 45.4177 64.2405 40.4231Z" fill="#FEFBF7"/>
<path d="M115.214 58.088C115.06 59.4904 114.274 60.6514 113.657 61.8703C112.318 64.4978 110.797 67.0102 108.998 69.3515C108.48 70.0158 107.933 70.6469 107.223 71.1175C107.086 71.2145 106.915 71.2593 106.732 71.3376C106.75 71.2109 106.725 71.1158 106.768 71.0843C109.075 68.8639 110.771 66.204 112.327 63.4382C113.195 61.8897 114.071 60.3387 114.929 58.7926C115.044 58.5695 115.111 58.3182 115.214 58.088Z" fill="#FEFBF7"/>
<path d="M68.3022 95.0469C67.3528 94.6753 66.5089 94.1236 65.7077 93.5404C64.3786 92.5667 63.1012 91.5185 61.9418 90.3378C60.2461 88.6163 58.4469 87.0439 56.4258 85.7126C56.3036 85.6328 56.2239 85.5215 56.0724 85.368C56.4295 85.3355 56.6265 85.5075 56.8541 85.6411C58.5795 86.694 60.1588 87.9275 61.592 89.3416C63.6841 91.4167 65.965 93.2799 68.3022 95.0469Z" fill="#FEFBF7"/>
<path d="M106.507 68.9952C106.778 67.6129 107.483 66.4931 107.941 65.2853C108.202 64.6071 108.475 63.9359 108.726 63.2602C109.647 60.8231 110.575 58.3739 111.92 56.1208C112.401 55.3137 112.906 54.5206 113.634 53.8827C113.194 54.7705 112.548 55.5293 112.109 56.417C111.414 57.8088 110.731 59.2075 110.177 60.6741C109.256 63.1112 108.394 65.5835 107.179 67.9045C106.994 68.2478 106.763 68.5724 106.507 68.9952Z" fill="#FEFBF7"/>
<path d="M85.3208 72.6744C85.0583 76.5567 85.628 80.4347 85.2249 84.3233C85.0295 86.1541 84.779 87.9688 84.0486 89.6956C84.4526 86.9458 84.9591 84.1996 84.9764 81.4087C84.9892 79.4223 84.983 77.4408 84.9958 75.4544C84.9848 74.5116 85.0477 73.5798 85.3208 72.6744Z" fill="#FEFBF7"/>
<path d="M108.88 51.662C108.799 51.3884 108.909 51.1868 108.998 51.0211C111.759 46.0082 114.333 40.9018 116.862 35.7769C114.665 41.2824 112.038 46.5755 108.88 51.662Z" fill="#FEFBF7"/>
<path d="M124.028 94.0291C124.854 91.151 131.937 85.436 136.412 84.1019C136.191 84.3834 135.852 84.523 135.536 84.6767C133.934 85.462 132.403 86.3706 130.934 87.3954C128.444 89.1444 126.243 91.1836 124.396 93.6077C124.299 93.7447 124.162 93.8822 124.028 94.0291Z" fill="#FEFBF7"/>
<path d="M122.222 33.0231C121.824 35.8314 116.994 44.964 114.743 46.5801C117.697 42.3099 120.274 37.8432 122.222 33.0231Z" fill="#FEFBF7"/>
<path d="M61.7458 57.5407C60.4075 55.7548 59.4137 53.8077 58.7073 51.7142C57.795 49.0235 57.0942 46.2471 55.9304 43.4493C56.2902 43.6603 56.3591 43.8864 56.4611 44.0835C56.5801 44.3066 56.6895 44.5323 56.7895 44.7604C57.5232 46.4501 58.0714 48.2087 58.6458 49.9503C59.414 52.2819 60.2179 54.5941 61.3998 56.7565C61.5262 57.0082 61.6289 57.2865 61.7458 57.5407Z" fill="#FEFBF7"/>
<path d="M85.1832 66.8236C84.7064 66.8264 84.3779 66.6175 84.0375 66.4016C81.0501 64.5195 78.8001 61.9563 77.0158 58.9559C76.2242 57.6277 75.5583 56.2361 75.1058 54.7276C75.461 54.7261 75.409 55.0346 75.5155 55.2101C75.6414 55.4212 75.7342 55.6613 75.834 55.8894C76.8912 58.3581 78.3583 60.567 80.1714 62.543C81.4331 63.921 82.8199 65.1544 84.4496 66.1106C84.7062 66.2773 85.0646 66.3666 85.1832 66.8236Z" fill="#FEFBF7"/>
<path d="M136.916 53.0977C133.389 56.0538 130.364 59.4983 127.968 63.4895C128.271 61.1743 133.975 54.4775 136.795 52.9463C136.885 52.9023 136.921 52.9234 136.916 53.0977Z" fill="#FEFBF7"/>
<path d="M122.141 26.3507C122.291 27.1248 122.2 27.8704 121.992 28.5959C121.285 30.9974 120.444 33.3527 119.359 35.6295C118.693 37.0139 118.002 38.3842 117.197 39.7033C118.977 35.2924 121.221 31.065 122.141 26.3507Z" fill="#FEFBF7"/>
<path d="M93.6953 65.8857C94.6578 65.9181 95.5137 66.009 95.9445 67.2778C94.8542 66.5575 93.8951 66.1077 92.791 66.7421C92.6246 66.2574 93.2414 66.2483 93.1881 65.8864C92.1894 65.2843 91.5639 65.377 90.6455 66.2574C90.5175 66.5855 90.939 66.8408 90.7073 67.2774C90.1523 67.0163 89.8482 66.3137 89.0987 66.3981C88.3993 66.4797 87.8929 66.8357 87.4929 67.3671C87.1812 67.1439 87.3079 66.9279 87.4303 66.774C87.9461 66.1412 88.5665 65.7553 89.4259 65.9773C89.6002 66.0231 89.7696 66.0499 89.9079 66.0746C91.6431 64.6655 92.7143 64.6085 93.6953 65.8857Z" fill="#FEFBF7"/>
<path d="M117.228 88.6239C117.033 88.6951 116.954 88.8582 116.891 89.0473C116.022 89.3358 115.286 89.9044 114.454 90.2545C114.024 90.438 113.593 90.6526 113.119 90.7055C112.993 90.4945 113.155 90.4522 113.281 90.3889C115.297 89.4749 117.047 88.1631 118.562 86.5676C119.989 85.066 121.373 83.5149 122.772 81.9803C122.922 81.8188 123.064 81.6598 123.255 81.4574C123.321 81.9075 122.98 82.1187 122.796 82.3497C121.131 84.381 119.487 86.4168 117.555 88.2029C117.423 88.3188 117.334 88.4844 117.228 88.6239Z" fill="#FEFBF7"/>
<path d="M92.5583 91.9384C94.5247 91.2609 96.101 90.1366 97.1979 88.4162C98.2078 86.8304 98.7658 85.0681 99.0706 83.2299C99.1067 83.0171 99.1429 82.8044 99.1886 82.5891C99.216 82.46 99.2839 82.3304 99.3757 82.2148C99.3642 83.8137 99.1568 85.3622 98.5082 86.8534C98.1466 87.6901 97.78 88.5078 97.2317 89.251C96.3375 90.461 95.1924 91.33 93.8277 91.9008C93.4362 92.0744 93.0286 92.3032 92.5583 91.9384Z" fill="#FEFBF7"/>
<path d="M67.7973 51.2218C67.913 52.6461 68.0287 54.0703 68.1469 55.5041C68.38 58.2809 68.8561 61.0146 69.8776 63.6157C70.2417 64.5478 70.7177 65.4404 71.139 66.3576C70.8385 66.3751 70.8168 66.096 70.7222 65.9275C69.0575 63.1996 68.2948 60.1849 67.9437 57.0321C67.7591 55.3817 67.6747 53.7255 67.6429 52.0759C67.6402 51.7918 67.6592 51.5122 67.6686 51.2351C67.7066 51.2252 67.7567 51.2222 67.7973 51.2218Z" fill="#FEFBF7"/>
<path d="M95.5657 46.0515C95.9415 50.9054 95.5848 55.6765 93.5308 60.2106C93.6151 59.0089 94.0889 57.8985 94.4192 56.7443C94.7496 55.5901 94.9104 54.409 95.0832 53.235C95.2651 52.018 95.3565 50.8043 95.4144 49.579C95.4727 48.3944 95.5144 47.2242 95.5657 46.0515Z" fill="#FEFBF7"/>
<path d="M119.938 77.9189C117.208 81.6697 111.545 84.7967 107.172 83.9001C108.252 83.9933 109.05 83.8249 109.851 83.666C110.74 83.4943 111.624 83.3035 112.483 82.9772C113.305 82.6608 114.084 82.2637 114.825 81.7956C116.525 80.7211 118.119 79.5119 119.602 78.149C119.692 78.0646 119.765 77.9136 119.938 77.9189Z" fill="#FEFBF7"/>
<path d="M66.599 82.8399C66.3968 82.8826 66.291 82.7883 66.1852 82.6939C63.3459 80.3661 60.9965 77.6558 59.4351 74.3019C58.7688 72.8697 58.0478 71.4618 57.2798 69.8731C57.644 70.0625 57.7248 70.2956 57.8242 70.4831C58.6538 72.0354 59.4669 73.6021 60.3035 75.1424C61.5112 77.3685 63.0148 79.3647 64.8499 81.1114C65.425 81.6828 66 82.2543 66.599 82.8399Z" fill="#FEFBF7"/>
<path d="M96.851 78.2364C97.2935 79.7067 97.2346 81.0846 97.1091 82.4799C97.0047 83.5646 96.7188 84.6156 96.4734 85.6661C95.983 87.8076 94.9609 89.6614 92.8852 90.9776C93.1284 90.4665 93.4622 90.2266 93.7482 89.9586C94.9626 88.8069 95.5713 87.3562 95.9574 85.791C96.3139 84.3861 96.6944 82.9952 96.7931 81.5357C96.8522 80.7068 96.8613 79.8809 96.7799 79.0583C96.7516 78.8319 96.6398 78.5968 96.851 78.2364Z" fill="#FEFBF7"/>
<path d="M116.403 28.2973C116.921 28.1414 117.138 27.6475 117.485 27.3025C117.929 26.8611 118.301 26.3369 118.882 26.0323C115.729 29.8054 112.926 33.8324 110.073 37.8217C110.447 36.7988 111.092 35.9185 111.693 35.0292C113.106 32.9214 114.554 30.8346 116.163 28.8582C116.302 28.6897 116.429 28.5141 116.441 28.2873L116.403 28.2973Z" fill="#FEFBF7"/>
<path d="M79.1691 65.6453C79.1419 66.049 78.921 66.1373 78.7795 66.2964C78.1964 66.9066 77.7785 67.6057 77.4569 68.4017C76.6272 70.4491 76.4133 72.5997 76.2304 74.7523C76.1569 75.5647 76.1048 76.3816 76.0002 77.1919C75.7468 75.55 75.87 73.9112 76.0647 72.2741C76.1531 71.5188 76.244 70.7731 76.3849 70.0245C76.6256 68.721 77.1965 67.5548 77.9996 66.5006C78.2678 66.1253 78.6055 65.7827 79.1691 65.6453Z" fill="#FEFBF7"/>
<path d="M132.014 65.6477C134.21 63.2048 140.547 60.3284 143.105 60.6034C141.841 61.0151 140.532 61.3272 139.301 61.822C138.025 62.3388 136.763 62.9125 135.559 63.5929C134.378 64.2779 133.196 64.9628 132.014 65.6477Z" fill="#FEFBF7"/>
<path d="M97.0475 102.913C99.1155 103.255 100.84 102.743 102.389 101.555C103.439 100.752 104.326 99.7886 105.116 98.7283C105.455 98.2738 105.801 97.8074 106.208 97.264C106.054 98.0766 105.582 98.6064 105.213 99.1803C104.474 100.319 103.575 101.316 102.478 102.131C101.193 103.087 99.7729 103.52 98.1908 103.447C97.7835 103.442 97.3973 103.4 97.0475 102.913Z" fill="#FEFBF7"/>
<path d="M88.6046 93.1645C89.0239 92.9022 89.4672 92.654 89.8671 92.3561C91.0458 91.4986 91.8115 90.3018 92.5199 89.0795C93.5752 87.2377 94.2839 85.2732 94.4956 83.1542C94.5085 83.0084 94.5525 82.8648 94.5894 82.7331C94.6355 82.5584 94.6935 82.3907 94.7606 82.18C94.9972 82.7788 94.7665 83.3373 94.6977 83.8941C94.3237 86.7571 93.2226 89.3224 91.3895 91.5712C90.6898 92.4355 89.8333 93.0867 88.6046 93.1645Z" fill="#FEFBF7"/>
<path d="M110.834 97.6522C109.879 101.519 105.245 104.703 102.133 103.587C106.273 103.347 108.946 101.093 110.834 97.6522Z" fill="#FEFBF7"/>
<path d="M138.924 60.9849C134.339 62.5606 130.719 65.5805 127.141 68.6905C129.416 65.8808 135.3 61.3341 138.924 60.9849Z" fill="#FEFBF7"/>
<path d="M100.736 83.0235C102.074 84.5834 103.683 85.6967 105.677 86.262C107.645 86.8036 109.581 86.2864 111.525 86.0315C107.536 87.9904 102.282 86.4801 100.736 83.0235Z" fill="#FEFBF7"/>
<path d="M93.9691 102.192C95.9481 102.192 97.7282 102.051 99.3555 101.087C100.957 100.139 102.156 98.7793 103.387 97.3806C103.105 98.6021 101.294 100.579 99.6285 101.513C97.6809 102.612 95.6306 102.884 93.9691 102.192Z" fill="#FEFBF7"/>
<path d="M82.0428 71.0385C80.5836 75.4373 79.809 79.8907 80.4544 84.4911C79.2744 79.8273 80.192 75.3771 82.0428 71.0385Z" fill="#FEFBF7"/>
<path d="M108.943 102.895C111.95 101.65 113.781 99.5146 115.276 97.0199C115.581 96.5132 115.761 95.9173 116.319 95.4866C115.549 98.7369 111.561 102.85 108.943 102.895Z" fill="#FEFBF7"/>
<path d="M57.4825 83.7254C57.9711 83.7296 58.2876 83.9315 58.6185 84.1499C59.8318 84.9506 60.8846 85.9155 61.8123 87.0249C63.0172 88.4583 64.1628 89.9377 65.1902 91.5091C64.8647 91.6248 64.7951 91.3177 64.6771 91.1757C63.7253 90.0523 62.8067 88.8998 61.855 87.7763C60.6671 86.369 59.3682 85.0822 57.824 84.063C57.7042 83.9927 57.6196 83.8623 57.4825 83.7254Z" fill="#FEFBF7"/>
<path d="M89.0598 86.1693C89.6037 82.549 90.2166 78.9207 89.5212 75.1061C89.977 75.4139 89.9899 75.7766 90.0549 76.1054C90.2955 77.3848 90.3384 78.6854 90.2407 79.9924C90.069 82.0712 89.7948 84.1464 89.0598 86.1693Z" fill="#FEFBF7"/>
<path d="M90.0303 100.077C90.7853 99.8189 91.5386 99.6318 92.1319 99.1412C92.6992 98.6676 93.2351 98.1514 93.972 97.4708C93.208 98.829 92.2818 99.6405 90.927 100.208C91.5647 100.397 91.9892 100.195 92.3971 100.007C93.6825 99.4058 94.6741 98.4554 95.5213 97.3395C95.8907 96.8466 96.2337 96.33 96.5912 95.8301C96.0963 97.443 94.1991 99.6364 92.712 100.32C92.2044 100.555 91.6718 100.654 91.1261 100.624C90.7114 100.59 90.5513 100.012 90.0303 100.077Z" fill="#FEFBF7"/>
<path d="M85.7684 92.1663C87.5239 88.6359 87.6369 84.8439 87.7884 81.0826C88.0452 81.0154 87.9441 81.174 87.947 81.2241C87.9836 81.8348 88.0297 82.443 88.0162 83.0567C87.9866 85.2913 87.74 87.5116 87.2118 89.7039C87.0374 90.441 86.3411 91.7113 85.7684 92.1663Z" fill="#FEFBF7"/>
<path d="M123.582 32.0161C123.945 32.6733 123.783 33.3768 123.634 34.0156C122.904 37.1144 121.555 39.9382 119.641 42.7372C119.741 42.1823 119.893 41.868 120.068 41.5272C121.162 39.4818 122.245 37.4294 122.903 35.1931C123.223 34.1538 123.544 33.124 123.582 32.0161Z" fill="#FEFBF7"/>
<path d="M81.539 79.722C81.4932 76.0227 82.7326 70.8176 84.2432 69.2019C83.7216 71.067 82.9047 72.6942 82.5159 74.4839C82.1433 76.2185 81.9401 77.9799 81.539 79.722Z" fill="#FEFBF7"/>
<path d="M64.9126 61.0564C62.3433 58.4031 60.2013 54.2242 59.552 50.7837C60.3387 52.561 60.9686 54.3998 61.8645 56.1282C62.7605 57.8566 63.8295 59.4685 64.9126 61.0564Z" fill="#FEFBF7"/>
<path d="M127.372 87.848C124.788 90.7606 122.941 94.2831 119.942 96.9687C119.934 96.5441 120.23 96.3953 120.424 96.2024C121.674 94.9195 122.597 93.3873 123.699 92.0011C124.509 90.9759 125.319 89.9508 126.141 88.9326C126.478 88.5091 126.838 88.0996 127.372 87.848Z" fill="#FEFBF7"/>
<path d="M133.716 54.4812C136.046 51.9211 138.706 49.8534 141.994 48.7184C142.168 49.0384 141.94 49.0981 141.796 49.1665C138.863 50.381 136.385 52.2894 133.986 54.309C133.908 54.3599 133.811 54.4158 133.716 54.4812Z" fill="#FEFBF7"/>
<path d="M114.001 37.114C112.082 40.9103 110.179 44.7327 108.428 48.6274C108.691 47.7248 108.926 46.8297 109.376 45.98C110.013 44.756 110.513 43.4761 111.105 42.2335C111.959 40.4749 112.858 38.7349 114.001 37.114Z" fill="#FEFBF7"/>
<path d="M91.9904 101.375C92.8036 101.223 93.6493 101.236 94.3958 100.827C96.1708 99.8439 97.7028 98.5893 98.7106 96.8014C98.9754 96.3358 99.403 95.9495 99.4763 95.3715C99.3638 96.3459 98.8304 97.146 98.3256 97.9386C97.4873 99.2453 96.334 100.238 95.005 101.023C94.0621 101.575 93.0563 101.767 91.9904 101.375Z" fill="#FEFBF7"/>
<path d="M92.6457 86.809C93.3162 83.481 93.8221 80.1453 93.6122 76.7528C94.3328 80.1946 93.6813 83.5176 92.6457 86.809Z" fill="#FEFBF7"/>
<path d="M96.6029 100.932C97.5296 99.8864 98.6341 99.0179 99.5029 97.9062C100.369 96.785 101.089 95.5699 101.865 94.4115C101.06 97.3358 99.1209 99.3681 96.6029 100.932Z" fill="#FEFBF7"/>
<path d="M71.8762 93.5785C69.5511 91.2378 67.7785 88.5592 67.0022 85.2944C67.6346 86.1256 67.9181 87.1395 68.3631 88.0706C68.8493 89.0824 69.4137 90.0432 70.0399 90.9675C70.6346 91.8491 71.2624 92.7018 71.8762 93.5785Z" fill="#FEFBF7"/>
<path d="M93.5163 62.8203C94.2132 62.4551 94.9875 62.232 95.7783 62.5025C96.0794 62.6065 96.4315 62.8293 96.3607 63.4167C95.3679 62.681 94.4288 62.8558 93.5772 63.485C92.9101 63.4565 92.7006 62.6885 92.0152 62.746C91.4013 62.8051 90.9544 63.1558 90.431 63.4858C90.5881 62.1748 91.9289 61.9051 93.5163 62.8203Z" fill="#FEFBF7"/>
<path d="M111.811 87.0171C109.265 89.329 105.291 88.8762 102.709 87.0228C103.676 87.2675 104.518 87.8902 105.526 88.0223C106.587 88.1611 107.644 88.3618 108.74 88.1258C109.748 87.9027 110.696 87.4918 111.811 87.0171Z" fill="#FEFBF7"/>
<path d="M99.4086 93.5886C99.5343 94.3078 99.3521 94.7011 99.1603 95.0969C98.386 96.6514 97.343 97.9917 95.9808 99.0802C95.5267 99.443 95.1329 99.8816 94.5608 100.103C95.4043 99.0889 96.4787 98.2994 97.2718 97.2481C98.0742 96.1537 98.7282 94.9966 99.4086 93.5886Z" fill="#FEFBF7"/>
<path d="M100.261 76.2387C101.084 76.3991 101.633 77.0278 102.366 77.2727C103.155 77.5337 103.945 77.7637 104.738 78.0032C105.498 78.2311 106.273 78.3229 107.26 78.4506C105.135 78.9054 100.898 77.6775 100.261 76.2387Z" fill="#FEFBF7"/>
<path d="M107.301 96.2766C107.499 97.038 107.338 97.7508 106.975 98.4253C106.015 100.201 104.564 101.496 102.914 102.609C103.181 102.112 103.609 101.767 104.01 101.397C105.045 100.415 105.955 99.3431 106.653 98.0828C106.969 97.5019 107.047 96.8616 107.301 96.2766Z" fill="#FEFBF7"/>
<path d="M96.2544 73.5456C95.3436 72.4222 95.3436 72.4222 93.9562 72.318C93.6099 71.9614 93.2537 71.5668 92.66 71.5089C92.1593 71.457 91.7176 71.8674 91.1847 71.6919C91.7446 70.9151 92.9026 70.6831 93.6061 71.2815C94.0862 71.6843 94.6219 71.9099 95.1977 72.0945C96.0267 72.3551 96.2635 72.72 96.2544 73.5456Z" fill="#FEFBF7"/>
<path d="M92.254 93.0372C88.8024 97.8142 89.7949 97.1782 89.2176 99.1795C88.917 98.8821 88.952 98.5476 88.9656 98.2086C89.0082 97.3943 89.2921 96.6491 89.7052 95.9716C90.3668 94.8428 91.17 93.8294 92.254 93.0372Z" fill="#FEFBF7"/>
<path d="M135.657 66.0602C133.724 67.8465 132.213 70.0005 130.372 71.8646C131.884 69.7106 133.331 67.5025 135.657 66.0602Z" fill="#FEFBF7"/>
<path d="M100.993 72.8058C100.24 71.9359 99.2984 72.1823 98.3805 72.3617C97.9461 72.0181 97.9219 71.4552 97.5636 71.0916C97.1789 70.7045 96.6644 70.7172 96.1674 70.5627C97.0982 69.9633 97.7491 70.2807 98.6418 71.7647C99.5707 71.7451 100.657 71.4709 100.993 72.8058Z" fill="#FEFBF7"/>
<path d="M139.164 64.7354C138.994 64.8207 138.823 64.9059 138.652 64.9912C137.966 64.8866 137.476 65.5019 136.802 65.5259C137.97 64.6316 142.866 62.5793 144.76 62.1752C144.735 62.5067 144.439 62.4622 144.245 62.5334C142.695 63.1721 141.139 63.7823 139.587 64.4115C139.424 64.4848 139.248 64.551 139.164 64.7354Z" fill="#FEFBF7"/>
<path d="M106.578 90.9681C104.559 91.8727 100.999 90.6708 100.059 88.7724C101.969 90.0304 102.028 90.7264 106.578 90.9681Z" fill="#FEFBF7"/>
<path d="M100.569 86.5952C102.601 88.4819 104.762 90.0809 107.801 89.6614C105.15 90.5586 101.619 88.6476 100.569 86.5952Z" fill="#FEFBF7"/>
<path d="M114.263 100.366C115.888 98.6492 117.191 96.7428 118.16 94.6086C117.797 97.1634 116.071 98.8047 114.263 100.366Z" fill="#FEFBF7"/>
<path d="M124.702 36.9208C124.096 39.3972 122.557 42.0364 121.19 42.8316C121.864 41.791 122.494 40.8941 123.053 39.955C123.625 38.9918 124.126 37.9865 124.702 36.9208Z" fill="#FEFBF7"/>
<path d="M94.9698 92.48C94.8464 94.3521 93.1953 96.675 91.4301 97.7369C92.0224 96.85 92.8306 96.1301 93.4228 95.2432C94.0175 94.3658 94.3561 93.3624 94.9698 92.48Z" fill="#FEFBF7"/>
<path d="M103.064 70.0803C103.765 69.6528 104.41 69.4025 105.222 70.064C104.314 70.0476 103.579 70.1486 103.129 70.9168C102.297 70.413 102.168 69.329 101.15 69.2399C102.07 68.9889 102.233 69.0683 103.064 70.0803Z" fill="#FEFBF7"/>
<path d="M119.721 94.0988C119.788 95.3723 118.268 97.9661 116.583 99.4543C117.706 97.7168 119.003 96.0657 119.721 94.0988Z" fill="#FEFBF7"/>
<path d="M83.1493 91.0203C83.3875 88.6496 83.7902 86.2866 83.9973 83.9138C84.0647 86.3266 83.8481 88.7019 83.1493 91.0203Z" fill="#FEFBF7"/>
<path d="M121.13 26.1865C121.095 27.2633 120.71 28.2079 120.278 29.1649C119.846 30.1219 119.445 31.0809 118.877 32.2566C119.414 29.981 120.56 28.1761 121.13 26.1865Z" fill="#FEFBF7"/>
<path d="M128.232 59.5354C129.043 57.6155 130.579 55.7092 132.403 54.3677C131.692 55.1842 130.946 55.9892 130.273 56.8363C129.556 57.7149 128.912 58.6357 128.232 59.5354Z" fill="#FEFBF7"/>
<path d="M100.334 66.6826C99.3107 65.4767 99.3107 65.4767 97.6636 65.3896C98.0902 64.8815 98.6532 64.7035 99.2171 64.8812C99.8979 65.079 100.282 65.6595 100.334 66.6826Z" fill="#FEFBF7"/>
<path d="M88.6695 69.7435C89.0842 68.9948 89.6992 68.783 90.3974 68.8136C91.1455 68.8413 91.4939 69.1667 91.6865 69.9088C90.3828 69.3051 90.3828 69.3051 88.6695 69.7435Z" fill="#FEFBF7"/>
<path d="M136.452 86.3077C137.839 85.1626 139.442 84.3775 141.248 83.4376C140.669 84.1377 137.852 85.799 136.452 86.3077Z" fill="#FEFBF7"/>
<path d="M91.6711 92.5584C91.2351 93.0689 90.6944 93.3325 90.3794 93.8011C90.067 94.2793 89.7426 94.7504 89.3383 95.3441C89.59 93.6928 90.3487 92.7827 91.6711 92.5584Z" fill="#FEFBF7"/>
<path d="M66.8878 142.711C66.9901 142.624 67.0924 142.537 67.1862 142.442C67.171 142.467 67.164 142.492 67.1493 142.525C67.3155 142.402 67.4034 142.357 67.4742 142.296C68.5814 141.297 69.68 140.29 70.7176 139.212C72.4032 137.47 73.96 135.611 75.6796 133.892C77.0864 132.483 78.5803 131.178 80.2571 130.084C82.0451 128.919 83.9541 128.044 86.0495 127.619C88.6809 127.085 91.3001 127.134 93.9007 127.8C95.1635 128.122 96.3293 128.638 97.4308 129.346C98.6006 130.108 99.6541 131.007 100.685 131.94C102.445 133.534 103.764 135.486 104.883 137.547C106.879 141.239 108.385 145.135 109.487 149.182C109.838 150.461 110.268 151.687 110.899 152.845C111.269 153.524 111.703 154.167 112.161 154.801C112.266 154.943 112.38 155.085 112.454 155.246C112.628 155.623 112.414 155.929 111.994 155.892C111.713 155.865 111.44 155.822 111.187 155.678C110.605 155.347 109.992 155.057 109.454 154.641C108.499 153.909 107.771 152.961 107.028 152.03C105.935 150.665 105.008 149.169 103.986 147.752C103.097 146.524 102.208 145.305 101.059 144.304C100.425 143.761 99.7917 143.227 99.1189 142.727C97.4162 141.475 95.6157 140.4 93.6191 139.672C93.2599 139.542 92.8954 139.47 92.5367 139.348C91.3692 138.964 90.1664 138.696 88.951 138.502C85.8745 138 82.7884 137.966 79.6846 138.237C76.1643 138.545 72.9419 139.732 69.9302 141.533C68.5998 142.33 67.5212 143.41 66.5203 144.568C66.3911 144.443 66.286 144.308 66.1494 144.2C66.1061 144.153 66.0472 144.123 66.0038 144.076C66.0485 143.984 66.0931 143.891 66.1382 143.807C66.4333 143.472 66.6859 143.107 66.8878 142.711ZM82.2436 137.731C84.7574 137.638 87.2518 137.816 89.7113 138.284C91.6488 138.646 93.5453 139.175 95.3344 140.02C96.8802 140.755 98.3048 141.693 99.6761 142.716C101.423 144.023 102.934 145.556 104.156 147.382C104.529 147.946 104.933 148.492 105.33 149.038C105.391 149.125 105.423 149.263 105.563 149.273C105.611 149.262 105.618 149.229 105.599 149.181C104.45 146.514 103.212 143.884 101.695 141.4C100.498 139.441 98.9046 137.905 96.9892 136.663C95.8959 135.955 94.7204 135.407 93.4956 135.025C91.179 134.296 88.7959 134.046 86.3782 134.422C84.0987 134.774 81.9161 135.425 79.823 136.392C78.3956 137.054 76.9867 137.757 75.5769 138.443C75.4406 138.507 75.2785 138.548 75.1958 138.7C75.2731 138.77 75.3443 138.717 75.409 138.697C77.6321 138.036 79.9262 137.814 82.2436 137.731ZM67.0253 143.5C69.5884 141.09 72.3976 139.013 75.4804 137.324C79.5613 135.084 83.9204 133.823 88.6066 133.867C90.1412 133.88 91.6602 134.075 93.1333 134.501C94.199 134.817 95.229 135.242 96.2 135.8C96.8921 136.192 97.5535 136.627 98.2001 137.095C100.029 138.406 101.401 140.118 102.49 142.058C103.515 143.877 104.469 145.741 105.286 147.662C106.011 149.373 106.855 151.013 107.939 152.526C108.547 153.374 109.232 154.135 110.121 154.69C110.493 154.917 110.873 155.136 111.252 155.339C111.539 155.489 111.839 155.58 112.173 155.531C112.185 155.284 111.997 155.137 111.866 154.972C111.138 154.015 110.538 152.995 110.024 151.905C109.612 151.031 109.378 150.115 109.111 149.193C107.937 145.042 106.402 141.041 104.311 137.256C102.564 134.102 100.157 131.548 97.1549 129.573C96.1205 128.895 94.9813 128.418 93.777 128.118C91.2517 127.481 88.7061 127.428 86.1561 127.95C84.4671 128.297 82.8814 128.91 81.3909 129.789C79.2784 131.028 77.4272 132.573 75.7252 134.316C74.1559 135.921 72.69 137.628 71.1464 139.256C70.1489 140.315 69.0642 141.272 68.0061 142.269C67.6848 142.572 67.3455 142.844 67.0586 143.178C66.9579 143.298 66.8318 143.403 66.8579 143.599C66.9385 143.57 66.9864 143.543 67.0253 143.5Z" fill="#FEFBF7"/>
<path d="M84.8781 128.295C84.1706 129.915 83.2855 131.428 82.0932 132.866C82.5511 132.835 82.8315 132.698 83.0477 132.424C83.5881 131.741 84.0947 131.034 84.499 130.251C84.8807 129.51 85.2796 128.784 85.6855 128.033C85.7377 128.425 85.7328 128.49 85.5824 128.769C85.4845 128.946 85.3609 129.1 85.2798 129.284C84.8058 130.317 84.23 131.282 83.5024 132.163C83.4328 132.249 83.3219 132.328 83.4359 132.478C84.0027 132.327 84.5777 132.175 85.153 132.031C85.3233 131.99 85.4415 131.894 85.5333 131.758C86.1823 130.782 86.7468 129.752 87.1181 128.634C87.2468 128.25 87.3583 127.851 87.5926 127.445C87.6533 127.844 87.5237 128.376 87.2778 129.045C87.0897 129.554 86.7834 129.997 86.5781 130.491C86.3803 130.969 85.9549 131.326 85.7856 131.885C86.7857 131.703 87.7309 131.573 88.6798 131.518C88.8517 131.509 88.988 131.445 89.1059 131.34C89.3413 131.123 89.5942 130.93 89.8043 130.698C90.6227 129.828 91.3302 128.874 91.9016 127.819C91.954 127.718 91.9885 127.585 92.1558 127.651C92.2056 127.829 92.1057 127.965 92.0385 128.1C91.3529 129.332 90.4967 130.433 89.4442 131.381C89.5039 131.427 89.5309 131.475 89.5636 131.473C90.6148 131.494 91.6601 131.565 92.6952 131.759C92.9353 131.804 93.1289 131.737 93.3204 131.629C94.3416 131.044 95.3187 130.396 96.1031 129.504C96.2427 129.341 96.3476 129.138 96.5997 129.093C96.4303 129.815 95.596 130.53 93.4464 131.852C93.7036 132.077 93.9753 132.096 94.2704 131.926C94.4779 131.809 94.6943 131.708 94.8929 131.574C95.671 131.051 96.4057 130.481 96.9753 129.722C97.0523 129.62 97.1248 129.428 97.4087 129.528C96.6716 130.714 95.5664 131.426 94.436 132.123C94.7271 132.37 94.9886 132.349 95.2849 132.203C96.1902 131.764 96.9814 131.174 97.6754 130.442C97.8314 130.278 97.9428 130.043 98.2022 129.981C98.2353 130.151 98.1423 130.263 98.0572 130.365C97.4217 131.119 96.707 131.762 95.8008 132.185C95.6322 132.259 95.437 132.294 95.3007 132.522C95.9675 132.735 96.518 133.085 97.0988 133.383C97.3263 133.503 97.5407 133.525 97.7837 133.464C98.6914 133.238 99.5798 132.955 100.392 132.463C100.48 132.41 100.581 132.306 100.695 132.44C100.352 132.974 99.9267 133.168 97.8061 133.75C97.8211 133.889 97.9304 133.941 98.024 134.01C98.4166 134.318 98.8244 134.601 99.1695 134.945C99.6013 135.383 100.135 135.561 100.699 135.68C101.578 135.866 102.461 135.969 103.359 135.891C103.457 135.886 103.61 135.821 103.639 136.066C102.465 136.387 101.332 136.042 100.107 135.825C101.001 136.806 101.714 137.804 102.349 138.863C102.465 139.054 102.629 139.218 102.822 139.299C103.459 139.57 104.088 139.858 104.77 140.029C105.243 140.145 105.752 140.152 106.235 140.473C105.586 140.612 105.041 140.369 104.508 140.223C103.96 140.078 103.43 139.818 102.803 139.57C103.282 140.482 103.7 141.297 104.117 142.105C104.244 142.345 104.465 142.49 104.676 142.627C105.415 143.123 106.207 143.543 106.998 143.954C107.242 144.081 107.478 144.201 107.739 144.499C106.536 144.068 105.561 143.419 104.513 142.807C104.608 143.237 104.786 143.515 105.108 143.721C105.574 144.017 106.032 144.331 106.551 144.543C106.962 144.719 107.335 144.963 107.701 145.223C106.719 144.953 105.88 144.412 104.957 143.811C105.168 144.448 105.431 144.952 105.678 145.464C105.751 145.617 105.936 145.698 106.088 145.797C106.64 146.163 107.258 146.386 107.869 146.626C108.095 146.721 108.321 146.808 108.538 146.896C108.523 146.929 108.509 146.971 108.494 147.005C107.555 146.921 106.796 146.344 105.923 145.936C105.946 146.074 105.941 146.132 105.96 146.189C106.311 146.991 106.655 147.795 107.006 148.597C107.108 148.838 107.29 149.026 107.495 149.188C108.11 149.691 108.779 150.116 109.471 150.5C109.581 150.56 109.722 150.602 109.675 150.818C108.841 150.524 108.22 149.915 107.407 149.406C108.216 151.006 109.018 152.459 110.163 153.706C108.832 152.674 108.126 151.175 107.246 149.792C107.325 150.575 107.609 151.34 107.369 152.132C107.215 151.171 107.053 150.211 106.834 149.262C106.636 148.411 106.058 147.004 105.675 146.564C105.535 147.055 105.634 147.559 105.445 148.061C105.319 147.829 105.374 147.613 105.372 147.408C105.362 147.031 105.376 146.653 105.382 146.275C105.392 145.807 105.28 145.37 105.086 144.944C104.802 144.327 104.541 143.708 104.256 143.091C104.164 142.882 104.048 142.691 103.939 142.483C103.818 143.187 103.828 143.884 103.614 144.543C103.526 143.579 103.732 142.609 103.472 141.653C103.261 142.214 103.424 142.837 103.169 143.49C103.145 142.671 103.118 141.958 103.099 141.246C103.092 140.942 103.029 140.658 102.884 140.387C102.136 139.021 101.324 137.708 100.306 136.529C100.228 136.434 100.186 136.264 99.9993 136.298C100.276 137.753 100.318 138.588 100.113 139.254C100.054 138.74 100 138.308 99.9547 137.884C99.8802 137.207 99.7737 136.547 99.5208 135.912C99.455 135.743 99.3971 135.565 99.2679 135.441C98.4512 134.686 97.6186 133.94 96.6107 133.465C95.7537 133.057 94.8435 132.734 93.9644 132.376C93.8724 132.34 93.7697 132.254 93.651 132.342C94.6677 133.99 94.9419 134.559 94.9743 135.213C94.7601 134.863 94.5618 134.504 94.3718 134.144C94.0632 133.544 93.7382 132.945 93.2946 132.434C93.1294 132.246 92.9593 132.123 92.6954 132.095C92.2998 132.058 91.9172 131.954 91.5216 131.916C90.2521 131.791 88.989 131.797 87.7009 131.961C89.2026 133.132 89.791 133.751 89.9507 134.325C89.7101 134.272 89.6019 134.072 89.4469 133.924C88.9026 133.369 88.3743 132.805 87.7448 132.352C87.4045 132.107 87.0634 132.009 86.6325 132.088C84.9409 132.386 83.2982 132.846 81.6964 133.468C81.5675 133.516 81.4292 133.539 81.3457 133.675C83.0521 134.672 83.0951 134.711 83.1009 135.162C82.9394 135.047 82.795 134.947 82.6666 134.839C82.1877 134.445 81.6334 134.185 81.0558 133.952C80.8132 133.857 80.5993 133.844 80.4048 134.058C80.8825 134.428 81.5072 134.618 81.7748 135.22C81.1605 134.907 80.6521 134.415 79.9604 134.196C79.0776 134.593 78.2132 135.03 77.3123 135.559C77.6891 135.713 77.9988 135.837 78.3084 135.961C78.8611 136.187 78.861 136.187 79.0433 136.555C78.6248 136.552 78.3471 136.246 78.0043 136.115C77.6529 135.977 77.2872 135.881 76.8977 135.802C75.7971 136.44 74.7235 137.125 73.6715 137.917C74.0449 138.169 74.4717 138.172 74.8161 138.499C74.4678 138.59 74.2543 138.421 74.0137 138.367C73.765 138.314 73.5085 138.269 73.252 138.225C70.7588 140.065 68.5509 142.202 66.4093 144.517C66.3663 144.478 66.3312 144.431 66.2801 144.392C66.3034 144.367 66.3267 144.341 66.3501 144.315C68.1704 142.14 70.2161 140.207 72.4348 138.455C72.6718 138.27 72.9006 138.087 73.0427 137.809C73.3483 137.186 73.7042 136.586 73.9509 135.933C74.0161 135.758 74.0546 135.543 74.4164 135.393C74.1091 136.147 73.8387 136.817 73.5679 137.479C74.6267 136.827 75.6447 136.177 76.6708 135.526C76.7743 135.463 76.8608 135.385 76.9128 135.276C77.4522 134.24 78.0588 133.233 78.3716 132.093C78.4483 131.818 78.5319 131.519 78.8491 131.298C78.6081 132.729 77.9119 133.913 77.2606 135.176C77.7673 134.97 78.1504 134.754 78.3491 134.293C78.7084 133.43 79.118 132.589 79.4184 131.696C79.5332 131.362 79.648 131.028 79.8634 130.738C79.9605 131.209 79.6767 131.609 79.5913 132.04C79.5056 132.463 79.2787 132.851 79.0682 133.239C78.8576 133.627 78.672 134.022 78.5412 134.529C79.4449 134.057 80.3044 133.686 81.1728 133.331C81.3819 133.246 81.5563 133.123 81.7041 132.959C82.4194 132.16 83.0323 131.284 83.5517 130.339C83.9355 129.639 84.2943 128.932 84.6618 128.232C84.699 128.157 84.7261 128.041 84.8517 128.092C84.9363 128.145 84.9072 128.22 84.8781 128.295Z" fill="#FEFBF7"/>
<path d="M51.5755 157.995L51.6768 157.995C51.6768 157.995 51.8227 157.982 51.7998 157.995L51.8281 157.974C51.8281 157.974 54.1822 155.428 55.2953 154.089C56.207 152.994 57.0404 151.844 57.7111 150.576C58.4253 149.224 58.9261 147.804 59.0947 146.28C59.3066 144.365 59.1045 142.497 58.4652 140.681C58.1554 139.799 57.714 138.999 57.1402 138.257C56.5237 137.47 55.817 136.775 55.0876 136.098C53.8416 134.941 52.3688 134.123 50.8315 133.455C48.0789 132.265 45.2118 131.437 42.2625 130.908C41.3305 130.739 40.4313 130.51 39.5673 130.132C39.0608 129.911 38.5758 129.642 38.096 129.356C37.988 129.289 37.8797 129.217 37.7609 129.175C37.4817 129.074 37.2777 129.247 37.3303 129.545C37.3674 129.743 37.4159 129.936 37.5339 130.107C37.8071 130.502 38.052 130.922 38.3823 131.279C38.9636 131.915 39.6845 132.375 40.3941 132.847C41.4345 133.54 42.5579 134.108 43.6313 134.747C44.561 135.304 45.4848 135.862 46.27 136.619C46.6964 137.037 47.117 137.456 47.5153 137.905C48.5145 139.041 49.3939 140.259 50.0396 141.64C50.1548 141.888 50.2292 142.144 50.3385 142.392C50.6866 143.202 50.9539 144.044 51.169 144.9C51.7225 147.067 51.9436 149.27 51.9492 151.505C51.9549 154.04 51.2695 156.091 50.426 157.995L50.9715 157.995L51.4958 157.995L51.5755 157.995ZM52.1457 149.644C52.0516 147.842 51.7654 146.071 51.276 144.343C50.8946 142.982 50.3977 141.661 49.682 140.436C49.0607 139.378 48.3027 138.42 47.4879 137.506C46.4466 136.341 45.2601 135.359 43.8833 134.602C43.4585 134.372 43.0444 134.118 42.6305 133.869C42.5646 133.831 42.4645 133.817 42.4489 133.718C42.4533 133.682 42.4765 133.676 42.5121 133.686C44.4821 134.337 46.4312 135.054 48.2949 135.98C49.7643 136.709 50.9589 137.75 51.9641 139.04C52.5377 139.776 53.0027 140.581 53.3523 141.431C54.0186 143.04 54.3483 144.727 54.2355 146.479C54.1304 148.13 53.8066 149.731 53.2527 151.288C52.8726 152.35 52.4629 153.402 52.0648 154.453C52.0278 154.554 52.009 154.673 51.9063 154.742C51.8516 154.691 51.8846 154.637 51.8945 154.589C52.2229 152.959 52.2342 151.305 52.1457 149.644ZM50.9715 157.995C52.5219 156.01 51.8625 156.761 52.8671 154.451C54.1997 151.392 54.8182 148.197 54.4879 144.851C54.3805 143.755 54.1452 142.682 53.7477 141.657C53.4551 140.916 53.0876 140.207 52.6283 139.548C52.3054 139.079 51.9541 138.634 51.5799 138.202C50.5304 136.979 49.2253 136.107 47.7764 135.453C46.4169 134.837 45.0301 134.274 43.6123 133.813C42.3487 133.404 41.1285 132.906 39.9833 132.228C39.3417 131.847 38.7562 131.406 38.3052 130.806C38.1196 130.555 37.9397 130.297 37.7714 130.039C37.6466 129.844 37.5623 129.636 37.5763 129.394C37.751 129.369 37.8672 129.494 37.9934 129.577C38.7201 130.037 39.4841 130.4 40.2923 130.698C40.94 130.937 41.6061 131.045 42.279 131.177C45.3061 131.751 48.2499 132.593 51.0752 133.845C53.4298 134.893 55.4001 136.45 56.9962 138.469C57.5448 139.165 57.9562 139.948 58.2469 140.79C58.8608 142.554 59.0608 144.369 58.8524 146.224C58.7132 147.454 58.3785 148.626 57.8484 149.747C57.1025 151.335 56.1215 152.756 54.9905 154.084C53.9491 155.308 52.0428 157.347 51.7693 157.671C51.4958 157.995 51.4976 157.997 51.4958 157.995L50.9715 157.995Z" fill="#FEFBF7"/>
<path d="M58.6908 147.16C57.5841 147.768 56.5641 148.497 55.617 149.441C55.61 149.112 55.6896 148.902 55.8704 148.731C56.3222 148.301 56.7924 147.894 57.3239 147.555C57.8269 147.235 58.3177 146.904 58.8258 146.566C58.5441 146.554 58.4976 146.561 58.3092 146.687C58.1893 146.768 58.0877 146.866 57.9616 146.936C57.2569 147.34 56.6077 147.813 56.0269 148.389C55.9704 148.444 55.921 148.529 55.8069 148.457C55.8786 148.042 55.95 147.622 56.0155 147.201C56.0341 147.077 56.095 146.986 56.1858 146.912C56.8389 146.386 57.5351 145.917 58.3069 145.581C58.5718 145.464 58.8488 145.359 59.1224 145.166C58.8347 145.148 58.4648 145.275 58.0047 145.493C57.6539 145.66 57.359 145.907 57.0204 146.085C56.6932 146.257 56.4658 146.584 56.0795 146.74C56.1448 146.014 56.1766 145.33 56.1558 144.649C56.151 144.526 56.188 144.424 56.2548 144.333C56.3941 144.151 56.5154 143.958 56.6671 143.793C57.2337 143.153 57.8676 142.587 58.5812 142.111C58.6497 142.067 58.7422 142.034 58.6849 141.919C58.5551 141.895 58.4645 141.975 58.373 142.031C57.5401 142.6 56.8111 143.282 56.2044 144.094C56.1677 144.054 56.1319 144.038 56.131 144.015C56.049 143.265 55.9321 142.523 55.7279 141.796C55.6803 141.627 55.7157 141.484 55.7804 141.341C56.1311 140.574 56.5298 139.834 57.1148 139.217C57.2218 139.107 57.359 139.019 57.3752 138.836C56.8721 139.003 56.4169 139.645 55.6134 141.265C55.4369 141.095 55.4059 140.903 55.5085 140.681C55.5786 140.525 55.6367 140.364 55.7187 140.214C56.0412 139.624 56.4 139.063 56.9035 138.608C56.9714 138.546 57.1036 138.482 57.0139 138.286C56.2174 138.888 55.7815 139.723 55.358 140.575C55.163 140.383 55.1615 140.195 55.2466 139.974C55.5013 139.299 55.8702 138.696 56.3469 138.154C56.4534 138.032 56.6137 137.937 56.6414 137.748C56.5179 137.735 56.4447 137.809 56.377 137.876C55.8812 138.378 55.4693 138.93 55.2262 139.604C55.1843 139.729 55.1722 139.871 55.0185 139.983C54.8246 139.52 54.5407 139.149 54.2909 138.753C54.1911 138.598 54.1617 138.446 54.1899 138.269C54.2928 137.606 54.4372 136.953 54.7354 136.341C54.768 136.275 54.8352 136.196 54.7328 136.124C54.3746 136.403 54.264 136.719 53.985 138.271C53.8853 138.269 53.8414 138.195 53.7862 138.132C53.5417 137.871 53.3143 137.598 53.0478 137.373C52.7088 137.093 52.5479 136.723 52.427 136.327C52.2388 135.711 52.109 135.087 52.1071 134.44C52.1043 134.37 52.1409 134.257 51.965 134.252C51.8112 135.111 52.129 135.898 52.3618 136.759C51.6071 136.184 50.8516 135.737 50.0574 135.351C49.9141 135.281 49.7869 135.174 49.7173 135.041C49.4834 134.604 49.2381 134.172 49.073 133.697C48.9605 133.366 48.9229 133.003 48.6641 132.678C48.6065 133.15 48.8144 133.525 48.952 133.895C49.0899 134.278 49.3091 134.64 49.5252 135.073C48.8463 134.788 48.2392 134.541 47.6379 134.295C47.4592 134.22 47.3421 134.071 47.2311 133.929C46.831 133.433 46.4819 132.894 46.1386 132.355C46.0325 132.188 45.9325 132.028 45.7033 131.86C46.0874 132.692 46.6109 133.348 47.1131 134.057C46.8011 134.016 46.5918 133.907 46.4251 133.69C46.1844 133.376 45.9322 133.069 45.7484 132.711C45.5967 132.429 45.3995 132.178 45.1907 131.934C45.446 132.618 45.8839 133.182 46.371 133.804C45.9039 133.693 45.5288 133.538 45.1483 133.394C45.0353 133.352 44.966 133.225 44.8858 133.122C44.5901 132.752 44.3918 132.324 44.182 131.903C44.0998 131.748 44.0234 131.592 43.9473 131.442C43.9243 131.455 43.8955 131.468 43.8726 131.48C43.9924 132.146 44.4515 132.651 44.797 133.249C44.6972 133.242 44.6564 133.249 44.615 133.239C44.0215 133.039 43.4281 132.845 42.8345 132.645C42.6565 132.588 42.5114 132.47 42.383 132.334C41.9863 131.926 41.6407 131.475 41.3235 131.005C41.2738 130.931 41.2348 130.833 41.0843 130.88C41.3471 131.457 41.8198 131.862 42.2337 132.41C41.0436 131.934 39.9587 131.454 38.9984 130.716C39.818 131.601 40.9294 132.009 41.9697 132.55C41.4071 132.543 40.8446 132.389 40.2968 132.611C40.99 132.66 41.6833 132.715 42.3724 132.811C42.9909 132.898 44.0286 133.221 44.3662 133.466C44.0258 133.598 43.6611 133.559 43.3161 133.726C43.489 133.801 43.6392 133.748 43.7852 133.737C44.054 133.72 44.3221 133.686 44.5904 133.657C44.9229 133.621 45.2412 133.673 45.556 133.784C46.0135 133.948 46.4702 134.094 46.9277 134.258C47.0821 134.311 47.2254 134.382 47.3802 134.446C46.8875 134.578 46.391 134.615 45.9359 134.81C46.6272 134.812 47.3043 134.602 48.0004 134.727C47.6152 134.913 47.1612 134.837 46.7131 135.061C47.2975 135.026 47.8061 135 48.3144 134.968C48.5306 134.953 48.7367 134.98 48.9392 135.067C49.9584 135.514 50.9443 136.01 51.8484 136.662C51.9207 136.712 52.0444 136.731 52.0322 136.867C50.9795 136.762 50.383 136.785 49.9218 136.974C50.2911 136.983 50.602 136.994 50.9068 137C51.3934 137.01 51.8692 137.044 52.3375 137.184C52.4619 137.22 52.5919 137.25 52.689 137.335C53.2781 137.87 53.8618 138.417 54.2637 139.107C54.6088 139.693 54.897 140.323 55.2078 140.928C55.2395 140.992 55.3066 141.059 55.2516 141.15C54.0147 140.529 53.5926 140.369 53.1247 140.388C53.3876 140.518 53.6558 140.637 53.9238 140.75C54.3703 140.932 54.8172 141.126 55.209 141.41C55.3538 141.516 55.4519 141.63 55.4885 141.817C55.5405 142.097 55.6388 142.364 55.6908 142.644C55.8607 143.543 55.937 144.446 55.9031 145.377C54.9737 144.378 54.4961 143.997 54.0771 143.92C54.1306 144.088 54.2796 144.153 54.3948 144.254C54.8245 144.608 55.2597 144.949 55.6217 145.37C55.8181 145.598 55.9094 145.835 55.8806 146.148C55.7763 147.376 55.5539 148.579 55.2137 149.763C55.1881 149.858 55.1803 149.958 55.0893 150.026C54.2709 148.871 54.2405 148.843 53.9193 148.867C54.0113 148.975 54.0913 149.072 54.1766 149.157C54.4878 149.474 54.7076 149.853 54.9106 150.251C54.9933 150.418 55.0168 150.57 54.8764 150.723C54.5828 150.405 54.4076 149.971 53.9623 149.818C54.2247 150.237 54.6067 150.569 54.8071 151.049C54.5809 151.705 54.325 152.351 54.0059 153.028C53.8728 152.769 53.7648 152.555 53.6569 152.342C53.4604 151.962 53.4604 151.962 53.1868 151.855C53.2161 152.154 53.4515 152.333 53.5662 152.569C53.687 152.811 53.779 153.067 53.86 153.34C53.4764 154.167 53.0571 154.978 52.5613 155.78C52.3582 155.529 52.3287 155.224 52.0739 154.999C52.0311 155.254 52.1655 155.395 52.219 155.564C52.2727 155.738 52.3207 155.919 52.3688 156.099C51.2188 157.998 51.06 157.998 51.06 157.998C51.0294 157.964 51.0904 158.026 51.06 157.998C51.477 157.998 51.4147 157.998 51.4147 157.998C51.4147 157.998 51.4108 157.998 52.2575 156.697C53.1042 155.397 52.4896 156.341 52.6782 156.222C53.1016 155.964 53.506 155.671 53.9544 155.454C54.0751 155.396 54.2258 155.354 54.309 155.086C53.7923 155.354 53.3329 155.59 52.8794 155.826C53.2758 155.028 53.6733 154.259 54.0706 153.484C54.1086 153.406 54.1587 153.34 54.2331 153.295C54.9359 152.844 55.6135 152.346 56.4044 152.05C56.5949 151.978 56.8027 151.899 56.9397 151.658C55.9366 151.922 55.139 152.495 54.2817 153.041C54.3959 152.666 54.5252 152.378 54.8407 152.207C55.4318 151.895 56.004 151.549 56.6202 151.277C56.8505 151.174 57.0807 151.07 57.2731 150.898C56.9318 150.859 56.6655 151.087 56.3643 151.175C56.069 151.264 55.8069 151.451 55.5443 151.626C55.2817 151.801 55.0126 151.959 54.6602 152.084C54.9383 151.409 55.1477 150.771 55.3451 150.128C55.3918 149.973 55.4686 149.841 55.5754 149.725C56.0981 149.163 56.6822 148.669 57.3213 148.238C57.795 147.919 58.2753 147.617 58.7494 147.31C58.8009 147.279 58.8819 147.252 58.8375 147.165C58.7943 147.108 58.7426 147.134 58.6908 147.16Z" fill="#FEFBF7"/>
</g>
</svg>
