<svg width="31" height="96" viewBox="0 0 31 96" fill="none" xmlns="http://www.w3.org/2000/svg">
<path d="M21.7288 71.3242C21.9651 72.22 22.1769 73.4388 22.0927 74.8721C22.0384 75.8113 21.9053 76.0149 21.7614 77.3911C21.6012 78.9166 21.6175 80.0757 21.6283 81.0393C21.6446 82.3233 21.6609 83.5149 21.8944 85.0513C22.2339 87.2853 22.6114 87.4726 22.4593 88.667C22.367 89.3782 22.2067 90.6214 21.297 91.5851C20.8598 92.0465 20.2027 92.4998 19.6052 93.5422C19.3418 94.0037 19.3337 94.1557 19.3717 94.2724C19.5971 94.9347 21.5659 95.103 23.054 94.438C23.4016 94.2832 24.409 93.8327 24.7729 92.85C24.9875 92.2718 24.8816 91.7805 24.811 91.319C24.811 91.319 24.5584 89.6768 24.8761 87.0736C24.9929 86.1235 25.0907 86.3814 25.9705 83.1593C26.3833 81.6501 26.5897 80.8955 26.701 80.2413C26.9671 78.656 26.8639 77.8064 26.8666 75.8981C26.8721 73.3275 26.8748 72.0436 27.1328 70.7922C27.6026 68.5039 27.5917 68.6966 28.6535 65.1108C28.8653 64.3942 29.6338 62.8279 29.87 61.5169C30.2122 59.633 30.31 58.3979 29.9352 56.4869C29.6827 55.1894 29.5876 54.2312 29.2889 53.6123C28.8327 52.6622 28.3195 51.6226 27.2332 50.6508C26.9698 50.4147 26.4973 49.9966 25.7723 49.6329C25.164 49.3262 23.665 48.5743 21.9569 49.0683C21.6799 49.1497 19.5998 49.7523 19.2359 51.5222C19.2142 51.6226 18.9752 52.8821 19.7655 53.7453C21.0391 55.1351 23.6759 54.0629 23.8795 53.9788C25.3541 53.3572 26.1226 52.1954 26.6983 51.2914C27.0051 50.8137 27.6949 49.375 27.9203 46.3158C28.1538 43.1643 28.0968 42.6241 28.2842 41.0416C28.314 40.7919 28.8137 39.2066 28.982 38.7859C29.775 36.7799 29.9298 35.8108 29.9787 35.4688C30.2366 33.5931 30.2285 31.2261 30.2448 30.5936C30.3181 27.6538 30.2122 26.0496 29.9135 23.9621C29.9135 23.9621 28.7838 18.8047 26.9671 12.5885C26.9671 12.5885 26.128 9.71932 24.3466 5.25944C23.4912 3.12044 23.0404 1.28545 22.7471 1.34517C22.2964 1.43746 22.0574 4.74912 22.2502 6.41852C22.5924 9.39358 23.2115 10.1998 23.942 13.6824C24.5095 16.3942 24.4715 17.727 24.5231 20.2976C26.4159 22.8112 26.2502 23.4545 26.4973 24.1929C26.481 24.5159 26.6684 24.9828 26.6956 26.017C26.7091 26.5002 26.8612 28.0963 26.147 29.9503C25.593 31.3889 24.7186 32.3716 23.2577 32.8276C21.8076 33.2809 21.3649 33.0149 19.8958 32.6512C18.6141 32.3336 17.5088 29.5784 17.4735 26.302C17.4491 24.0897 17.0879 23.5984 17.7397 21.9887C18.1144 21.0604 19.3337 20.1537 21.1775 19.7846C22.9264 19.4317 24.3194 20.2786 24.6127 20.5473C27.4532 23.1478 27.1708 30.0643 24.8245 31.9644C23.2957 33.2022 22.7444 33.1751 20.4308 32.7896C20.0261 32.7218 19.054 32.3689 18.6113 31.4324C17.4898 29.0491 17.6989 28.5333 17.574 27.1137C16.6752 20.4469 18.6548 22.9361 18.3561 18.6581C18.1389 15.5419 20.1999 12.0918 20.1999 12.0918C20.9739 7.28987 21.8727 3.62261 21.4871 3.4706C20.9983 3.27788 19.035 7.81919 17.8782 10.3681C17.0526 12.1841 15.8931 15.1727 15.092 20.2515C13.946 27.4937 13.7097 31.788 15.4721 36.7229C16.3873 39.2881 16.5991 40.0834 17.574 43.1345C17.9216 44.2284 18.5434 45.0509 17.5088 50.4961C16.6181 55.1731 15.9392 56.4218 15.5835 57.76C15.1517 59.386 18.5326 60.2601 19.4722 59.7172C20.0234 59.3996 20.2787 58.4305 20.0017 57.7275C19.3283 56.0119 15.4097 55.7188 12.7023 56.2019C12.7023 56.2019 6.99691 57.2199 2.22296 65.4257C1.83735 66.088 0.992796 67.5403 1.55763 68.6695C1.62009 68.7944 1.67986 68.8785 1.72059 68.9328C2.46465 69.9561 4.07769 70.1163 5.0743 70.1299C6.29901 70.1462 8.21346 69.9616 11.7763 68.5392C13.7749 67.7412 14.7525 67.1657 17.0173 66.5495C19.3717 65.9089 20.0614 66.0527 20.4009 66.4165C21.1015 67.1657 20.0017 68.5175 20.8001 69.9969C21.2916 70.9089 22.3425 71.5658 22.7906 71.3242C23.3065 71.0446 22.5571 69.8313 22.8558 67.676C23.0486 66.2862 23.4668 66.0175 23.9176 63.6966C24.257 61.9457 24.1158 61.5956 23.9176 61.4409C23.4505 61.0744 22.6168 61.7422 21.3975 62.171C19.2577 62.923 18.3045 62.1059 15.426 62.171C14.1551 62.2009 12.0967 62.2471 9.98401 63.2976C7.82243 64.3725 7.4694 65.5723 4.47686 67.3421C3.4015 67.9773 2.4728 68.4008 1.88895 68.6478" stroke="#5B6158"/>
</svg>
