<svg width="81" height="34" viewBox="0 0 81 34" fill="none" xmlns="http://www.w3.org/2000/svg">
<path d="M30.5705 26.5441C32.2243 26.5576 34.8285 26.6255 37.6391 26.8101C40.1266 26.9729 41.9324 27.1765 44.0098 27.4073C47.0295 27.7438 49.3079 28.0641 51.7736 28.5337C54.0465 28.9681 57.0309 29.1744 58.7852 30.3796C59.1735 30.6456 59.5102 30.9931 59.1382 31.0636C58.9237 31.1044 58.1009 31.0935 57.6935 31.0636M49.9678 15.8192C51.3907 15.4256 53.0526 15.0103 53.8401 14.7497C54.8395 14.4212 55.0893 14.3126 57.0689 13.6449C58.7933 13.0613 57.5143 13.5119 59.8117 12.76C61.6664 12.1546 62.5951 12.1981 63.0622 12.2849C64.0751 12.4749 64.3439 13.1373 64.4553 13.9761C64.5068 14.3751 64.6318 14.6302 64.4987 16.1992C64.3331 18.1672 64.4634 18.7644 64.553 19.5489C64.6942 20.7541 64.6779 20.7188 64.7513 21.4951C64.83 22.3013 64.83 23.1645 64.6291 23.816C64.4254 24.4702 64.2054 24.9995 64.0534 25.3633C63.5944 26.4599 63.4152 26.6309 63.3011 27.2634C63.2278 27.6733 63.1436 28.1836 63.3908 28.7238C63.4722 28.9029 63.7031 29.4133 64.2299 29.5625C64.4879 29.6358 65.5469 29.6385 65.68 29.6033M24.4795 31.7287C36.6018 31.3948 46.0356 32.3937 52.7023 32.3042C55.9311 32.2607 59.2984 32.4317 59.3826 31.9947C59.5265 31.2292 50.2285 28.5229 40.6262 28.3682C29.4599 28.189 26.022 27.6977 21.6499 26.9974C21.2833 26.9377 19.8984 26.5495 18.6411 27.2172C17.4897 27.828 16.523 29.2612 16.8705 30.1787C17.3621 31.4763 20.4116 31.5821 22.5325 31.1505C24.2813 30.7949 24.8054 30.195 28.4605 27.8796C32.9168 25.0565 35.1435 23.645 36.1564 23.0587C38.0953 21.9403 39.3173 21.3241 39.9609 19.8312C40.0913 19.5299 40.9141 17.6162 39.8279 16.1612C39.0648 15.1406 37.4273 14.4321 36.1999 15.1433C35.0811 15.792 34.6439 17.4261 35.1381 18.4142C35.6432 19.4267 36.4624 20.0084 40.4814 20.9476C40.9127 21.0484 41.9658 21.2495 42.9814 21.4476C43.7174 21.5915 45.4115 21.5304 46.4814 21.0663C47.068 20.8111 48.1522 20.0948 48.5611 19.5081C49.8211 17.7003 49.6881 15.7948 50.3534 15.0103C50.9997 14.2448 51.8171 14.0575 53.2292 13.463C54.8395 12.7817 55.2414 12.8713 57.9189 12.0488C60.2298 11.3403 61.6854 10.735 62.033 10.5884C63.2849 10.0645 64.6861 9.73604 65.9705 9.09543C67.2143 8.47381 68.0534 8.12636 68.8898 6.96185C69.2048 6.52211 69.2428 5.49061 69.2102 5.2816C69.1314 4.78485 68.2679 4.18495 67.9285 4.10894C67.475 4.00851 66.5137 3.74521 65.8728 4.22024C65.0092 4.86086 64.6345 5.45804 64.1484 6.69584C63.4043 8.58783 64.6372 10.3495 65.2536 12.7545C65.9189 15.3469 65.6664 15.2166 65.8836 18.2812C66.033 20.4066 66.109 21.468 66.3697 22.5266C66.6386 23.6097 66.864 24.0386 66.8558 24.9588C66.8477 25.803 66.6521 26.0337 66.1036 27.9664C65.3813 30.5045 65.4302 31.1234 65.7044 31.6364C65.7832 31.7857 65.9923 32.3449 66.644 32.4535C67.2604 32.5566 67.8633 32.5322 68.048 32.5186C70.9237 32.3422 73.0907 32.3422 77.4248 32.562C77.6148 32.5729 79.7466 32.144 79.6814 31.4572C79.6271 30.8953 78.0846 30.4909 75.7004 29.6006C73.6637 28.8405 71.6786 28.0696 70.8776 26.3296C70.5598 25.6401 70.5381 25.0348 70.5245 24.5163C70.4404 21.4327 70.3996 19.8936 70.6576 16.5141C71.217 9.18229 70.2095 9.04114 70.4404 5.6942C70.5055 4.73599 70.2747 4.16323 69.4682 3.01772C68.3412 1.4189 68.0153 1.55734 67.7655 1.42704C66.2367 0.628988 65.7642 1.16374 65.0771 1.32661C61.1287 2.27124 56.5829 3.43303 53.2998 4.47811C46.2013 6.66597 43.3255 8.00692 40.8869 9.92605C38.7091 11.6416 37.1422 13.1346 33.7206 14.5244C32.0125 15.2193 30.4456 15.6129 29.9867 15.6645C26.7742 16.0282 25.1394 15.0265 23.0865 15.9522C21.9758 16.4516 20.971 17.285 19.6811 18.8702C18.4944 20.3279 18.5922 21.0771 17.267 23.1455C16.7212 24.0006 15.7816 25.423 13.9839 26.1423C12.7375 26.6418 11.6404 26.5739 11.1652 26.5413C10.1794 26.4708 8.79447 26.3703 8.41158 25.5804C7.91735 24.5571 9.20182 22.5836 10.9316 21.9322C12.3057 21.4164 13.9486 21.7394 15.0457 22.7601C16.0477 23.6966 16.3845 25.0022 16.2949 26.0663C16.1455 27.847 14.8013 28.9274 13.8509 29.6928C12.0233 31.1614 10.0572 31.4925 9.30501 31.5821C7.14614 31.84 2.56771 31.6093 1.31041 28.6966C0.0856905 25.8627 2.68176 22.0462 5.6553 20.5396C9.20996 18.7372 13.8916 19.9316 15.8739 22.7275C16.1129 23.0668 17.0905 24.4431 17.0688 26.2753C17.0416 28.5229 15.5291 29.4947 15.8522 30.4882C16.4116 32.1956 21.7015 31.8047 24.4795 31.7287Z" stroke="currentColor"/>
</svg>
