<svg width="72" height="53" viewBox="0 0 72 53" fill="none" xmlns="http://www.w3.org/2000/svg">
<path d="M6.83261 20.1691C6.40083 19.8624 3.63911 22.9596 2.89233 24.5964C2.32206 25.8451 2.14284 26.3907 2.14284 26.3907C1.7708 27.4167 1.91744 27.3543 0.915397 28.5595C0.0654278 29.5829 -1.01808 31.673 -1.56119 33.9233C-2.09887 36.1519 -2.53879 37.9733 -3.74993 40.1585C-4.22787 41.0217 -5.25706 42.7128 -5.80561 44.9332C-5.93324 45.449 -6.0826 46.1819 -5.67255 46.7248C-5.30866 47.208 -4.46683 47.5825 -3.88027 47.1889C-3.25841 46.7709 -3.23397 45.7014 -3.61415 45.3974C-4.12468 44.9929 -5.53404 45.8236 -6.33785 46.7356C-6.75876 47.2134 -7.02761 47.5201 -6.99774 47.9164C-6.95429 48.5109 -6.16677 48.7661 -3.30457 50.0826C-0.309313 51.4615 -0.920309 51.2444 -0.295731 51.4317C1.6296 52.0071 1.7002 52.1266 2.44698 52.2487C3.90795 52.493 4.37231 52.493 5.14624 52.4252C6.0994 52.3437 6.23519 52.2786 6.2895 51.8958C6.38997 51.1982 4.69275 50.164 3.48704 49.5071C1.263 48.2965 0.896399 48.2014 -0.227842 47.3681C-0.613451 47.0831 -1.5286 46.6786 -1.50416 45.4625C-1.48786 44.6292 -1.14298 44.0456 -0.923024 43.7714C-0.317454 42.8648 0.399448 41.4533 1.49925 39.8924C3.08785 37.634 3.8835 36.5048 4.68459 35.514C6.87062 32.8131 7.6011 32.957 11.7831 29.0128C14.2895 26.6513 16.0655 24.6778 16.6928 23.9721C19.5143 20.7989 18.8897 20.9617 21.4695 18.136C22.3194 17.2049 23.164 16.0567 24.853 13.7575C25.0051 13.5485 25.9555 12.2266 25.98 10.5734C25.9881 10.1038 25.9175 9.81339 25.7139 9.64509C25.2251 9.23792 24.0655 9.6098 23.5251 10.3074C22.9603 11.0349 23.145 12.023 23.259 12.6962C23.6663 15.0849 23.5957 17.5361 23.9895 19.9248C24.7879 24.7756 24.5027 24.0209 24.7852 25.0986C25.5319 27.9379 26.352 31.046 28.8313 32.3272C29.3934 32.6177 30.8436 32.6991 33.7411 32.8565C37.4451 33.0601 39.0445 31.1926 39.4682 30.7447C40.5164 29.6426 40.7961 27.11 39.5632 26.1247C38.8164 25.5275 38.6834 25.4189 37.4396 25.313C36.3236 25.2153 34.849 26.0161 34.3548 27.0367C33.6922 28.4048 34.0099 29.5449 34.4715 30.5357C34.8463 31.3392 35.1667 31.5862 36.9916 33.6519C37.7519 34.5124 37.8144 34.6372 38.4526 35.3756C41.2876 38.6546 44.2258 41.2117 44.2258 41.2117C47.5931 44.1406 50.5123 46.0027 52.7853 47.1808C57.5891 49.6727 60.2069 50.3839 63.1017 51.1602C64.9075 51.6434 65.2877 51.7194 67.8892 52.1429C69.82 52.4577 71.137 52.2569 71.5009 51.828C71.7534 51.5321 71.4819 50.9431 70.8519 50.6852C69.3692 50.0799 68.1716 49.9061 67.6448 49.7786C66.0969 49.404 65.2035 49.3931 61.9177 48.1526C58.7975 46.9745 56.2775 45.7883 55.0392 44.9929C53.8661 44.2383 50.8871 42.235 47.8076 38.956C47.3623 38.4809 45.3528 36.3446 45.6189 36.0379C45.809 35.818 47.0093 36.7029 49.3338 38.0276C50.4825 38.6818 52.0684 39.4581 55.2401 41.0135C58.4526 42.5879 60.0168 43.3018 60.9455 43.7334C66.5368 46.3366 70.0807 45.6661 70.9659 45.601C73.0542 45.4435 66.8464 44.1895 64.2639 42.8729C61.9856 41.7111 60.6712 41.1981 59.0555 40.1368C54.8654 37.3788 49.3528 33.1334 47.8755 32.2485C43.8049 29.8163 42.8463 32.3245 43.8945 34.5477C44.7744 36.4152 47.1749 40.0716 47.8755 42.33C48.7472 45.1368 48.3725 46.0136 47.0799 47.1184C45.179 48.7416 42.7594 48.2177 42.5666 48.1797C39.9027 47.664 38.4634 45.3594 37.6569 44.0673C36.5679 42.3246 36.2801 40.7475 36.0656 39.5559C35.7424 37.7779 35.5605 36.7762 36.1307 35.9076C36.7689 34.9385 38.6752 35.1557 40.5544 33.7957C41.8416 32.8647 42.1376 32.3598 42.7648 31.3419C43.7832 29.6942 42.8653 27.0693 42.3005 26.5454C42.0181 26.2821 42.086 26.1246 40.1335 24.6453C37.5836 22.7098 36.5978 21.9118 35.2672 20.788C34.0235 19.7375 33.3609 18.2364 32.4484 16.3417C32.2801 15.9942 32.1063 15.8422 30.6236 12.2076C29.2387 8.81446 29.2305 9.66952 29.2305 8.61359C29.2305 6.52345 29.0078 4.56903 28.014 3.3068C27.4383 2.57661 25.1327 1.10808 23.3459 1.00764C21.7274 0.915351 20.1361 1.67269 19.1205 2.53318C17.445 3.95285 17.092 6.03756 15.7586 9.11034C14.4443 12.1397 13.684 14.6207 13.0594 16.7597C12.5923 18.3613 12.5244 18.6517 10.4932 26.4884C9.6079 29.9086 9.23315 33.584 8.72263 37.1237C8.61672 37.8539 8.23926 38.8284 8.89914 39.8219C9.24945 40.3485 9.23043 40.3593 11.7749 41.6569C13.5292 42.5526 13.9962 42.9218 14.5176 43.2475C15.5794 43.9099 15.9867 44.3849 15.4898 44.8165C14.9005 45.3268 12.6385 44.9359 11.5088 44.7514C10.1266 44.5233 9.73825 44.3523 7.72602 43.8881C7.17476 43.7606 5.51555 43.4674 5.07292 42.6069C5.11093 41.8306 5.15981 40.4923 5.13809 38.8257C5.04033 31.1383 3.58479 28.907 4.87197 24.7077C5.73008 21.9308 7.14218 20.3863 6.83261 20.1691Z" stroke="#5B6158" stroke-width="0.75"/>
</svg>
