<svg width="76" height="43" viewBox="0 0 76 43" fill="none" xmlns="http://www.w3.org/2000/svg">
<path d="M20.1377 34.0486C13.012 31.7385 3.4397 31.6544 -4.19645 33.0415C-6.45307 33.4161 -10.339 32.7103 -10.5889 31.5377C-10.5889 30.9188 -9.83666 30.4112 -9.08445 30.4112C-7.91404 30.4112 -7.14011 30.3569 -6.48566 30.3922C-5.66556 30.4356 -4.94866 30.4193 -4.3621 30.1886C-3.72666 29.9389 -3.0532 28.9481 -2.59698 28.5409C-2.56983 28.5165 -2.3553 28.1907 -1.97784 28.1419C-1.09256 28.0306 -0.772129 28.4133 -0.717818 28.4513C-0.0497911 28.9345 0.292368 29.2277 0.971258 29.3335C2.61417 29.586 8.955 27.3438 13.8511 27.7781C16.4173 28.0062 16.3983 28.7065 19.4914 29.6566C24.3794 31.1604 29.2674 27.3954 34.1554 28.53C35.1574 28.7635 37.6503 28.5708 38.6062 28.5355L35.6 30.8672C34.9537 31.2309 34.3482 31.5268 33.3923 31.8634C32.5831 32.1484 31.5837 32.3982 29.9408 32.7483C29.3135 32.8813 28.2545 33.0958 25.4276 33.5437C22.6686 33.9807 21.5498 34.3119 20.7378 34.1626C18.8586 33.8178 18.9021 33.6903 16.048 33.0116C14.6115 32.6723 13.4683 32.5692 11.9774 32.7456C11.7466 32.7728 10.5816 33.0876 8.26253 33.7174C7.17088 34.0133 6.06293 34.2467 4.99028 34.6023C4.1023 34.8982 3.70039 35.0773 2.95633 35.1316C2.52727 35.1642 1.95701 35.0936 0.832765 34.9552C-0.397383 34.8032 -1.01381 34.7272 -1.2908 34.6023C-2.12719 34.225 -2.39603 33.7147 -2.97173 33.807C-3.28674 33.8585 -3.48769 34.054 -3.76739 34.3363C-4.68525 35.2619 -4.94594 35.5714 -5.51892 36.0084C-5.96971 36.3531 -6.33902 36.5404 -8.10413 36.3694C-8.89708 36.2934 -9.20393 36.212 -9.69545 36.3694C-10.3173 36.5676 -10.7464 36.9856 -11.1103 37.3412C-11.7294 37.9465 -12.0417 38.2506 -11.9955 38.4921C-11.8136 39.4504 -6.41777 39.1518 -1.20662 38.4406C1.81851 38.028 1.62028 38.1257 4.01811 37.8733C5.46007 37.7212 7.92852 37.5529 13.9272 38.1393C19.1546 38.6496 18.7663 38.921 22.4214 39.2006C26.2938 39.4965 25.6339 39.1056 32.4174 39.2902C35.9259 39.3852 39.4453 39.0323 42.9456 39.2902C43.4507 39.3282 44.7216 39.4314 46.2179 38.9373C47.0869 38.6496 47.5403 38.3211 48.6945 37.6099C52.0536 35.5388 52.1106 35.908 52.9416 35.1344C55.057 33.1664 54.1256 31.3151 55.5078 30.6229C57.1235 29.814 62.5275 35.1914 68.9851 37.5747C71.9043 38.6523 75.2173 39.1382 75.3721 38.0714C75.7143 36.7169 72.9417 36.2066 71.1847 35.2429C70.886 35.0801 68.1922 34.073 67.0788 33.427C63.5051 31.3558 60.0401 27.5718 59.6517 27.314C58.9946 26.8769 58.2858 27.1267 57.8785 27.5827C57.4413 28.0713 57.3136 29.396 58.2695 29.7624C59.1792 30.1126 60.6809 28.3509 60.9932 27.6125C61.2132 27.0941 62.59 25.3351 61.539 23.2721C61.1724 22.5555 61.2512 22.7292 59.9342 20.6255C59.1711 19.4067 58.5058 18.1879 58.3564 17.8459C57.7264 16.4126 57.6938 16.5076 57.539 16.2986C56.5696 15.0065 54.8995 14.3198 53.3897 14.5261C53.0556 14.5722 51.3801 14.8328 50.1174 16.2959C49.8377 16.6189 49.2158 17.4197 48.966 18.5951C48.6945 19.8817 49.0692 20.6635 50.2939 24.0783C51.5458 27.5691 51.7576 28.4459 51.8852 29.0295C52.3523 31.1712 52.0536 31.1767 52.4148 32.0371C52.9036 33.1935 53.7834 33.9807 58.3428 36.2826C62.0441 38.1501 61.5581 38.0986 64.7706 39.7354C67.1847 40.9678 67.9586 41.0709 69.4902 41.4102C71.8473 41.9341 74.5113 41.7821 74.6226 41.2338C74.6715 40.9922 74.2207 40.7153 73.9138 40.5253C72.7 39.7734 71.5975 39.692 71.0978 39.5345C68.1351 38.6062 68.7869 38.807 66.6959 37.6995C65.7264 37.1865 64.8928 36.7983 60.0238 33.0958C59.9151 33.0116 59.6925 32.808 59.391 32.5366C59.391 32.5366 59.2525 32.4117 59.1168 32.2842C58.6633 31.8661 57.0991 30.2917 56.8384 29.9986C55.7712 28.7961 56.4148 26.3639 56.5723 21.6869C56.6266 20.1098 56.5669 19.9523 56.6619 14.9658C56.7081 12.5065 56.7379 11.6976 57.1914 10.6335C57.4847 9.94405 57.8649 9.36859 57.9871 8.33438C58.036 7.92178 58.1527 6.93641 57.721 5.94563C57.6042 5.67961 57.2946 5.06071 54.8886 3.47003C53.3462 2.44939 52.5777 1.9418 51.7033 1.70021C50.4433 1.35547 49.3788 1.43961 48.3414 1.52376C47.2416 1.61334 46.5818 1.66492 45.7752 2.05309C45.3869 2.24039 44.3007 2.82671 43.5648 4.08622C42.9565 5.12587 42.9076 6.08137 42.856 7.09386C42.8234 7.73991 42.7773 8.81484 43.209 10.1015C43.467 10.8697 43.9151 12.2025 45.1561 12.9327C45.7508 13.2801 46.7393 13.614 47.0135 13.2856C47.3421 12.892 46.761 11.4153 45.6856 11.1629C45.1154 11.0271 44.4528 11.2524 44.0943 11.6922C43.3041 12.6667 43.8065 14.936 45.3326 15.582C46.6225 16.1276 48.0998 15.2861 48.7841 14.2546C49.5254 13.1363 49.5173 11.5184 48.6945 10.6281C48.1486 10.0363 47.1765 9.70247 46.837 10.0092C46.4487 10.3594 46.9321 11.4994 47.0135 11.6895C47.2145 12.1591 47.4752 12.4577 47.5892 12.5771C47.5892 12.5771 47.8852 12.892 48.2518 13.1037C49.2104 13.6575 51.5023 13.1526 52.9416 11.5999C53.3299 11.1819 54.1201 10.3295 53.8269 9.65361C53.6313 9.20572 53.0095 8.95598 52.499 9.0347C51.7359 9.15414 51.3829 9.98476 51.2607 10.2725C51.0407 10.791 51.057 11.1818 51.2226 13.0033C51.3964 14.898 51.448 15.1966 51.3476 15.7557C51.1846 16.6787 50.7936 17.2867 50.5519 17.702C50.169 18.3562 50.1717 18.5001 48.3414 24.5995C48.2355 24.9551 47.7332 26.6218 47.1031 28.8449C46.5682 30.7288 46.2586 31.8906 46.3075 33.4432C46.3156 33.6848 46.4052 36.0926 47.0162 36.1849C47.4019 36.2446 47.9341 35.3651 48.078 34.5942C48.2301 33.7663 47.9395 33.0469 47.6354 32.295C47.5729 32.1403 47.372 31.6598 47 31.0654C46.8207 30.7803 46.1364 29.7271 44.8058 28.6685C44.0156 28.0414 43.6218 27.7293 42.9483 27.5175C42.7474 27.4551 41.6775 27.1375 40.3821 27.5175C39.3312 27.827 38.6876 28.4323 38.2586 28.8449C37.5525 29.5263 35.9368 30.6283 35.4072 30.9622" stroke="#5B6158"/>
</svg>
