<svg width="120" height="120" viewBox="0 0 120 120" fill="none" xmlns="http://www.w3.org/2000/svg">
<path d="M63.5338 49.5408C63.5962 52.8009 64.0633 56.0419 64.0633 56.0419C64.3539 58.0452 64.7367 59.8585 63.7972 60.6185C63.3681 60.966 63.0911 60.7488 61.7415 61.1479C61.0898 61.3406 60.0416 61.6527 59.1536 62.3422C57.8229 63.3764 57.3912 64.8423 57.2282 65.3933C57.0191 66.1072 56.3837 68.2598 57.6274 70.2359C58.5426 71.6909 59.9709 72.2446 60.5466 72.4238C61.4183 72.6952 62.0701 72.6436 63.3328 72.5568C68.2507 72.2202 66.8549 72.4183 68.7069 72.2256C69.193 72.174 71.3247 71.9487 74.6133 71.4303C74.8468 71.3923 77.5596 70.958 80.9839 70.0378C81.9371 69.7826 83.8108 69.256 84.5006 67.915C84.5902 67.7386 84.7966 67.326 84.6337 66.9867C84.3947 66.4899 83.4687 66.3596 82.8414 66.5877C81.9126 66.9297 81.5841 68.0888 81.3804 68.8434C81.1604 69.6604 80.84 71.3868 81.7796 74.8804C82.4748 77.4618 82.8142 77.128 83.1075 78.9249C83.5284 81.5118 83.6753 81.6675 83.6753 84.0001C83.6753 84.8343 83.6753 85.5001 83.3709 86.6856C83.2626 87.1076 83.1617 87.6147 83.1753 88.0001C83.1916 88.486 83.3926 88.583 83.9032 88.7405C84.506 88.9278 84.9339 88.8478 86.1753 88.6074C87.3238 88.4643 87.7439 88.3725 88.6753 88.5001C89.7615 88.6467 89.7606 88.6514 91.2705 88.8056C93.1753 89.0001 94.8387 89.2291 95.0533 88.6074C95.227 88.1026 94.3758 87.3217 93.3288 86.8159C92.6753 86.5001 92.3235 86.5027 91.2705 86.0001C89.1753 85.0001 88.0525 84.0064 87.8869 83.697C87.0749 82.185 87.1591 80.7436 87.2243 80.1817C87.0152 73.7104 86.9066 69.1908 86.9582 67.3803C86.9636 67.2201 86.9772 66.7858 86.8251 66.2538C86.3173 64.4704 84.4979 63.5393 83.838 63.2027C79.7348 61.1044 71.2731 62.915 68.3783 63.6017C63.8325 64.6794 61.3559 65.2684 58.2276 66.984C54.1515 69.2207 52.0334 70.3852 49.6681 72.6219C48.7829 73.4607 47.5636 74.7338 45.4889 75.407C43.7917 75.958 43.1236 75.5888 41.2418 75.7381C36.237 76.1345 35.4739 79.1855 30.1623 79.7827C29.5404 79.8533 28.5764 79.9836 26.6456 80.2469C23.8106 80.6323 23.1833 80.7463 22.6646 81.3082C21.8771 82.1606 21.9613 83.374 22.0672 84.8886C22.1487 86.045 22.3007 88.2464 23.9246 89.4652C24.3809 89.8072 24.78 89.943 25.516 90.1954C27.2702 90.7926 29.1412 90.8605 29.2309 90.5266C29.3069 90.247 28.0197 90.0868 27.2403 88.9359C26.5859 87.9695 26.4501 86.5444 26.909 85.5537C27.6151 84.0281 29.649 83.6943 32.351 83.2328C35.4956 82.6953 38.6131 82.0086 41.774 81.5742C48.6226 80.6323 53.7279 78.3658 55.1101 77.7279C59.9193 75.5074 63.0612 72.9449 65.3287 71.0964C67.9167 68.9872 69.2772 67.4753 70.3716 65.9226C71.1401 64.8314 71.6614 63.1837 72.2969 61.08C73.0056 58.7374 72.8807 57.6896 73.136 55.2873C73.2935 53.8188 73.174 54.2558 73.3967 53.0262C73.4646 52.657 73.1849 54.397 73.4944 52.448C73.6031 51.7612 74.3878 49.7172 74.7246 48.7997C74.9174 48.2704 75.0016 47.8931 74.9228 47.5728C74.8169 47.1385 74.5209 46.563 74.1109 46.2291C73.9968 46.1368 73.7741 45.8817 73.4809 45.6808C72.8345 45.2411 73.136 45.4501 71.6098 44.1634C69.0844 42.0325 68.544 40.6943 67.1862 40.7812C65.0436 40.9169 62.9526 43.5988 62.3416 47.3475C62.3715 47.6651 62.4666 48.0288 62.7408 48.2107C63.3763 48.6314 64.6227 47.8469 65.1957 47.3475C66.8359 45.9251 66.2059 44.0874 67.2514 39.4538C67.6723 37.5862 67.7483 38.007 68.6445 34.6112C69.4727 31.4705 69.8882 29.9016 70.0375 28.5742C70.3607 25.7104 70.8087 21.7582 69.0409 18.6908C68.8155 18.2999 68.1122 17.1517 67.914 15.5067C67.7863 14.4535 67.5908 12.453 67.9927 12.3634C68.2969 12.2955 68.9893 13.5822 70.635 17.2304C72.0742 20.4172 72.8182 22.0052 72.8916 22.4694C73.4347 25.9819 72.8128 26.7691 73.0898 30.097C73.1251 30.5368 73.5542 31.5927 73.4401 32.9798C73.3967 33.5118 73.3342 34.2909 72.8889 35.1378C72.4653 35.9467 72.7151 35.4364 71.694 36.8615C71.5202 37.1031 70.9228 37.7953 70.8223 38.672C70.7408 39.3805 71.0205 39.8963 71.2975 40.1107C71.7483 40.4636 73.0192 39.9017 73.7524 39.0493C75.303 37.2469 74.3498 34.2882 74.2168 33.8756C73.6736 32.1899 72.6445 31.1339 71.7619 30.2273C70.3824 28.8131 69.6465 28.1507 68.5114 27.7734C67.121 27.3093 65.011 27.9797 65.1685 27.9119C65.5677 27.7381 66.4611 25.7294 66.8929 25.6589C68.2534 25.439 68.5684 30.2137 69.231 29.755C69.6193 29.4863 69.0572 25.952 68.7096 23.794C68.267 21.0524 68.419 20.8081 67.9791 19.4156C67.6478 18.3651 67.2867 17.6322 66.9825 17.0268C66.3851 15.827 65.3695 14.2336 65.0708 14.3042C64.544 14.4291 65.4048 18.3868 65.5243 19.5459C65.7198 21.465 65.9913 22.7327 65.9886 24.9857C65.9859 26.4623 65.8691 27.3174 65.2581 27.8386C64.6526 28.3543 64.1719 28.0259 63.2676 28.4358C61.6329 29.1768 61.0789 31.2181 60.8779 31.951C60.6363 32.8359 60.2696 34.185 60.9431 35.5993C61.66 37.1058 63.0803 37.6894 63.3328 37.7871C64.8725 38.3897 65.6247 37.6405 66.1869 38.1183C67.5039 39.2529 63.417 43.4034 63.5338 49.5408Z" stroke="#5B6158" stroke-width="0.75"/>
</svg>
